<mxfile host="65bd71144e">
    <diagram id="Sp8CUZbVBAGCSIZ9x7ee" name="第 1 页">
        <mxGraphModel dx="890" dy="829" grid="1" gridSize="10" guides="1" tooltips="1" connect="1" arrows="1" fold="1" page="1" pageScale="1" pageWidth="827" pageHeight="1169" math="0" shadow="0">
            <root>
                <mxCell id="0"/>
                <mxCell id="1" parent="0"/>
                <mxCell id="2" value="" style="shape=image;verticalLabelPosition=bottom;labelBackgroundColor=default;verticalAlign=top;aspect=fixed;imageAspect=0;image=data:image/png,iVBORw0KGgoAAAANSUhEUgAAAggAAAEoCAYAAAA9uAnIAAAAAXNSR0IArs4c6QAAIABJREFUeF7sfQeYHMW19emetDsblXPOGZAQQQIkkYSEEGCDyTYOONvPfr9zgOfs5wS2MTiAH9jGNiCCDAKJnBHKAYQklLO0q81pZrr7/86trpme2dkkraSVtptvWe1MdXXVreq6555765ZRXh1z4F62baOhoQGWZQFwYNsWLCsBx0kW0UVb+G20opzZijJ+EV8CvgR8CfgS8CXgS6A9JGCa2XSziWAogFAwiFAoDFVGlTO8AIEfhMNBGIYhoEDBAlvAQtuulgCC4VbZUrm2PdUv7UvAl4AvAV8CvgR8CbRNAgQFlmUjkSAhoO4lDhCA4GUIIpGwwIEU0OBfBAmtvVLoo/k7fHDQWon65XwJ+BLwJeBLwJfAsZKAYQC25SAWJ0BQ+t4wzBRAoLq2HQc5ORGx7g1TkQwGCxttZBAc331wrAbSr9eXgC8BXwK+BHwJtKsEDAO27SAeS8AihWC4DEJFFRkEG0QQ/J2TkyMUg9ALsOWn7VdrWYS21+zf4UvAl4AvAV8CvgR8CRytBFK6nfqeoYeJhA3LIUcgIAAGAQJcloCuhpycsAIIpgFTqIY2sgeKnDjalvv3+xLwJeBLwJeALwFfAsdMAl6AYMK2gFjcgu0ANsFB0wDBcQECwcGRAIRj1iO/Yl8CvgR8CfgS8CXgS+CoJZDS74YRgG0DsZgLEGjmm2ZTDIIPEI5a9n4FvgR8CfgS8CXgS6DDSsAHCB12aPyG+RLwJeBLwJeAL4ETJwEfIJw42ftP9iXgS8CXgC8BXwIdVgI+QOiwQ+M3zJeALwFfAr4EfAmcOAn4AOHEyd5/si8BXwK+BHwJ+BLosBJoJUBQeRAcSa/MbY5uIgSYsoPB38XQYcfXb5gvAV8CvgR8CfgSOCIJeAGCCds2EWtISOYj/sguhnI3UZIp2RId5OZE4NgEDMxl4AOEI5K7f5MvAV8CvgR8CfgS6PASUJmSDXCbo4mGGA9qpOZX+l+dxWDbIEAwBCDkyCmOPkDo8CPrN9CXgC8BXwK+BHwJHIUEMgBCQwIOz1nQMMEHCEchW/9WXwK+BHwJ+BLwJXDSSsAHCCft0PkN9yVwNBJIT3huw3HkBBZxHPKkldSlDmcRu0HysPNS56noQ9/VWS2tczmanrpVXan/O0zfKo9T7ZAm6SfpY2bVebJp0U+qtao1ck8rQqN0Hz1PT/ZM5CBfaDnovrm913LSZaQ8JeQk47V4J1upipjSTVtLT8p76pJ/K8ssJVXv6LaiQ0czGfx7fQlklYAPEPyJ4UugU0qACtJVw7CdBGwe3yr0IT83YarzWGDzUDbDgWmacGwiARdAuArPMg1QNwYtdTaLBg1apVm8xQCCNt2UPMNFgQDqXq2c+TsuJ8TyeyDgmEi49wVgIsCaLQZIMQc8/aAmbBckaHDAvrjNc0+abX5Y2Ueljtk+CyHTAuoagJwcWNI4fmdKnTyPxkQCphOHWdMAIz8fCcrENuAYAcAMqrpsh95aoKYWiIZhWBZbBSOcAyehQI1hxmEYISa0h3TWoYT5ZwCGY8qheFqGqgetA16dchIfYaeVi1yD2iOspFPc1hggCNh156Ufg9ApJoHfyc4pAdryVNoJ+YFpwDZCEpBElRSw3FCkRAxGKAw7aMByTFGKATmxhcrNQSIAJEImIuqYtzTLnvXUBwDLcJBrKXtcgIdrK2tLn7qygSDDZSFYJqGMboRtE9Td/J8FKuK4DpGCgA89eNoqdxkEdRx9UyPLb6mQVSGDdR4+iNUvvoJJ8+ciQKUfiCBhBtDgWMgJBhBI1CFRfghlb6xCj0sugpWIo6K0DMUDB4jsTDnbxoRVXo49S17CwPmXIFZyAAe2b8eAKWcBOYUiM+fgNjRYOQjaJuygjZBpwMjNgVNQiIQTUGgqTYpHeihe55zVbe21Yr/aeldnKd8YICgjQtCVH6TYWaaB38/OKAFXTZsWnOoK7HnzTQyaMQtGTi7ijgWjuh4b3lmOcRNPw67nXkOfD18GM5yDgA3Y1bXY+PZSjD7jDKxbsQxjp52DYG5ELGBZO8gqcLcT/x0MCBMh+MFx1Cmw1Mw2EQDteCepyG2T9rYKiOZ9sBMIxC3sWrUS3fv0Q27vwQphENBAAQ+HzIY8MwDLtiAuDG7NdoGItnfSR1ixA4blIOjYqN2yCeVL30L3ieNhdCnAnnfWYNBFF8EoKgZME1Z1BVYtXoTc0v0o3FGKyNjRKN1zAPlnjMeAi86XxdIur1bKvaoMh59/Bd3nXQjEa3Hw1TdQFc7BkHlXwYjbKPnPowiNnggYQVIlCBw4jLKyUgycfwXioShAkJB2sXc+SDjaN1SzBql6uHVfsWQasmq3z9E+69S53wcIp85Y+j3xJdBGCZDKNgIGcLgEBx7+O/p/5Aah2O0Q3QAGqrfvQEGX7nj/93/FqK9+BkYwAoRDsCqrseqJJzDlQ1eh6sA+5A8dBMt0YNYLOQ9Eo6hz4ghbEAVvmAE4CQtGOBdOvEwp+UAhSMgb9TUQr0E0DARYzlaKlhaKSTrAxLbFS9B74DDkDBoiehV5EcRrqhGMRsUtYsfiMEIRxA0HlglhOARHNHsZCMQTQG0N9r39BiIVpWjYuAXR8eNQX10Hq7gIfWddINa9XV8Ho74czoFdqF+3FYFuPVG+YRN6XXM17K75MOJx7HhtKayEhWCsFs6a9xGZNAZ2dSXyBvVCdNgIhPsNR7yiCvVvvYLo+TNgmkHlcjhYhn0rV6PvnDlIhHKzZJbxAUJLI9nS92kggDKX2BYVB8Ifb6RJS3V1ru99gNC5xtvvrS8BVwJKBzsIBkw45WXYe++dCA0aiYqSMvQcNwrFEyZg7cIncdpll2Lr7+5D0emno/TAXuT374ve55yD9U8/jfHz52P5gkcx5cNXomLT+9i5Zh0ChokeIwaj17Tp2PvaO6h4fwe6FBegdNcujPzozTj47AIUmA6ccVMEIOxftxJxy8KAwQNRNG0ydi16HjADqKyoRNixMfLyedi/dCUKy8tRUl2LsFOPbvMuwaqnnsWZ118DIzcPHzzxPAZMnYHgoN6oMx1EXYCROtE+27AbSFRXYtvSd1BQegjxze/BCIUQsQOwB/ZDlRFCwbDBKOzVE5uXL4fZUIkCqwbRjXuRyMmH06Mb4pF81OZFMPbimTALigDLhlNegrLFL6Hbhy6HvWc/Kg7vQZczpwChKOySA9h43z2IDxwGk/EGtoOiegNxM4Bh110POxwFoxZSwZHCx/hxCM28tVq5Z4aTCi/AoFc33kDJkTEjgIpiUa4yHTVj2DYYJNsiruxUK0ibAAKNCzeTogjJD57pVHPF7+wpJQGHHHwSIFRg++9+hWGf+wIsK4FVf34AZ9xwI95b8jTGz70M79/zZwz/zGdh5IXw3m9+j7HXX4+Nb76BMfOuwMq//wOnX3k5di54GANv/SSMnAi23HsnhsyajY1L12Ls1dcC9dXY8sd7MOiLX0bJo/9Gr9kXwxg6HM7uPeK/d6qq8f4Tj2D0Z25F2ePPIjrhLOSedTp2/+Me9OnTGxWVFvLsOCIXzULpC68g0n8g6lauQuHU0xHu1xtrH3gI4z/7FZjRKOJwEDIM2LQOGy33nt0ZhiOBk055BWreeB0Bqxo5Qwai6tBhWAkHxWecCSOaA/AnEARitbDefAVbFr2EeNceqAkF4YTzMG7uJTh0aD92vvUObMtGqL4SPXfuQd2gIWiwbSDkIB5wMO2Tn4FjOah59UXkz5kLBE2AQYz7y7H77aUYMO8KOJE8JOiCSdtFckpNu3btjB7NVFyL0kqMaZEYUNNUwbUOYMXjaGhowIbNm7Fqw3qELAeDglH0HD4EQ0aPQl1NDYq7dhGXkn959LuwLW4mxVgiubvHJPhKz4PgAwR/4vgSOFUkQIDA+PlQIACUVeDw3+9Hj1tvhRMysfKXf8Dpl8/He2++jPHzZ2PDffdjyFe/DitkovSuu9D/okuxedlyjJw3H2v/9jdMuPxSVCx5Gl0+81U4oTD23PlD9Bp3OjZv2YOxn/wUkKjDjrt/jf63fA51Cx5H/rXzgeKu2LrgSYRDJooG9sbO/zyFUbd9FJXPPI/COR9GsH9flDzxIIpM4JAVRNe+PRGZPBn7l7wGu0sx+nTrht0rV6J77+6wKquQP+dDKnqBlDEVhACE9MvrhzYMG9WbtmDba69iVO8eSJSXwsnPFYAT6dUbJXsPogbAiLPPRdXad7F7y0YMOW0CSle+iz4zzofZpSuQcOD06opErA4hRlWGQnCqylCxcCGKr7oCiHK3Qhy7nnoaAy66DI5loOShv6Oq/wA0BFT8RZfKWlTZFoZd+xEgUoAEEp52k+bxFVZT75zaAuuGpbiFZNxNQwJYTdNAXW0d1r/7Lp59ehGeffZZbN25A8HCPFx51VWYOmA4Jo4YibHjJyDarSucIIc0O4eg5lVqfpl0mzH2hCDQvTRj4Y1l0PeIys2oO30+pu+s0PNY3X8iVp0UAWAYzKQIxGIWw3vkIvDyAcKJGBf/mb4EjoMEFIOgAIJdVoFDf7obvT/7eVhOAsvv/iPO/NB1eP+FZzH2qrn44M9/weDPfhFmNB+7f/tLDLjiSmx+8y2MIEB44AFMvO4q7F34CPre+CkgFMbGP/wSw8+Zhc1rNmDMjdcB8TpsuPsujPzSN1H7xELkz58DOzcPG//xCMbOnwc4ddh8zz0Y+oVPo/ypp5E79TxEx07Enn//DT27F2NfTRV6DBuE3FFjseelN2EV5mLApNOw5Z8Po0skhG4zLoDTbwgcO6A0BrvmggSvKL0LMrcjGrEYUF+LhjUrETxciqqGBgnErHaAPuecA6NrEWKHSlCxbTu6DxkCo2dvHFy1BrW1VTAOlaG0tBJn3HIDYjlhBAJhtU20pgq7HnkEg667GsgJAhXl2P70Uxg8+3JhEOrefgvRc6YBAQZpWsD+EhxavxY95s0TRoJ7NWQjg1qGfYDQzLuQDSBYVOQBE/sOHcTSZcvw7LPP4LlnF2PPrt2wyNiYwLDTJ+Kn9/wefYcPxajcYnRDWM4WYGQrXTzZ9HEiQetZbfcNBAIuM+GoOl3wwPkVDFKZOsJWBINBBAK0vt0Nva6m95bXoEEULpkvujqSOTLoJlGf63iJ47A0uI/wAcLxk7X/JF8CHUwCEsfPaP9AAImKCmz53W9QNPkcVNZUyS6CYTNmYM2CBTj9isux4s9/Qe8ppyGQsBErKUX/2Zdg5TPPYPLlV2Dpv/6FqTd8BDvfeB2otxCKhFFVWYYxs+fig8VLkB/NQW44jF1vvonRX/s2dix8AoOuvFzAxnsPPYY+PXrAQgyl61ajz4UXILH+PVSYYUT7DULJB5swfu6l2PXuGnTr0wN5407D3tfeglGYiz5nnoPSxx5H9YE9GPSpT8Ayc2Ag5G61dJMmNcMgBLkzIBGD09CAnY8/jmI4CHfrjpLDFcgbMgRdp5yORE4QAe7GsG1YhgHLDCNsWbBLD6N2zQZYOTkoOvtMxAO0WIOgVRmoqcauBU9iMAFCPIFNLz4Pu6YSo6+4Ak5tLfY/+CBqBg9BLGiA8aH5ZdWohYMR13wIdigqOzNSHgafQWjutdEAQbblulo9lkhg4VNP4a9/ewDvLF+OwyUlsr3UpBKnq8F0ECqM4qLPfBTGuRNw/rAxuGrwRAwNFyJgGIpBSM8iBtMwQYDAHyprKnMqf17V1dUCGEKhUBqboEEAy9XX10t5BRgCUk9paQm6du0mn1VWVgoA6NKliwAODRL4LN5bUVGBHj16SNnjt9PCBwgdbMlWzUnG1Ki/5P/Hb1J0SJF0ikZ5rdvjMd4SjsXF0KW6zdIDgB2Bwy2OhbkSKGjX1MIsKoZddhhmMA7Ux4DCbmonQ30dApEcofcZ1Q8rAJQcBmwLKC4S37u9dztM7kpoSGDLc89h8MdvQyBWCxQWwqZ/uLIWqKkH8oJwYlVcvbFn4SL0mT4NZmExjGguUJgHp6YSRigAJxIFyqsAwwaixdi/cCG6DOiJyLTzkIg7CASCEvgn8ssScOaVMel9AqRDq9Zh45LnkBcJYuj4CSiaMhkoyoPDuoS+VjsquP2y3gQi1XVY8e8FKIzmYOScS2EUFyPuJnEyjQDM+jrsfv5VDL54piRQcmqrgIgBIy8P1uEKVC97B0UXnA+E1XZGp6QcW1auxDB+FsqVBFHpnLLvYmhqAdB6nO6EoKMCD9dtfB8Xz74UB2sqJNi2YuMWJMoY8OogPxpAMDcIMyeI6Lg+yLtyJqLdeuHiIVNx07jzMDCUL+mzvMGtfIadsPD3v/8df/7znxGJRPCxj30M559/Pg4fPoyHHnoIN910IyZMmIhHH30Ud999t8y/m266CRdccAEaGurx+ONP4LLLLsNZZ50lzMJrr72GP/zhD/j85z8v4ODNN99ANJqH733ve3Lv3r17UVpaKkDi/fffx7///W/ccsstGD9+vIiiqKgIffr0EaCir/ZfM3yAkDbvvL6ibBMyXXG3Xmd5/Ue6Dv1Z4725KvLWO9heuik1GVr//GYRuAcpH42f63gnG8mUY3tII9v4Z/arvfvpnVNHI/+j6b9j2OKrNZy40NlUiIqel/hBsbqYM4AWmOhK2SOmaNCUzFTiIb20sohpJVCyfDn2rVyJUDCM3qdNRNGUs8QSh/g0uQxboqR5GJxl2Ag0JLB54bMYNHM6Aj27SYIkZlUkTuYGSlrXpp2AU1uHVQuXoHskhKGzZwIFBRJYyINkhIqVaITMfALq3dIXARJLJOrrEW9oQCQnAiMYgs0OM3DSUEmhdEpmJQe15dC24+yClGeK6gStPqk4IH1h8KFhhtxUy2yXLRQ2ZWtbcSXY5MtswZQD8UKwKJdGAYoZ5uzRDPYpei8DEgkQYraFP/zjQdz+l7vRa+4M9B8/BGu+/3MMa6jDxbMmYe68Geg/dADCQRO18Vos3b8dT+wuRXl0KM4eNAW3jj0bA8IFSRePJnPisRh+8b+/QE1NDQ4cOIAJE8YjJydXLPsVK1bgK1/5Cs455xzcf//92LBhgyjubt26oWvXrlJm+/ZtuOaaawUwrF+/Hj/4wQ8EJAwbNkx+du/ejbKyMmEQrr/+OmGilixZInV3794dw4cPRywWk3tGjx6Na6+9Fp/4xCeSLEb7gwOBrsmEXSdtDEKbFmx372tygfD4dTRtRHqnqcuL1trynqnBU4sp/Ul6MDMDWbx1Ng5m0YubAg86MCZb8o+kE9ZToTKoGi80qaAbLyjR/rLGvUyd4snvUvdo2aT3KWUI6XHSgTdeDk/3Rfvg0vuezRuoti5pf50s2xn9y/bCaP8hW56Sn+pHdv+fR5k0AdqyA8nsC7r2Iepx8G7BkqC6DD9lW+bY0ZXlVia9Fqj0w+pSH6psiyK1lE7zfNqUDBgAyfTLJnMNcN6TdTBVimSVxlidLG94kgCZtP4bGhDIDctWNIbxiV/fYXZHddaBKYAGSFRXy0YAhMMSeW5T+cpc0NsEG1ve6QyCZgeUxc7gNklHRPDjJs8RadAHzPTQyY7asFnGTbTAx/FHKXZVSt2euke3SD5PTmn9Dw0JtKR9QNDW+UyAQKlVwMI9Tz6CxTs2ITG6H8zqHZj+3gp8YvpEDBpZBCNCjiEXthWBZduoRAxP7ynHPz+oQSJvID41cQbmDBqDXCbwMggx1RjGY3HcddddWLlypSjyOXMukzGnW+Gtt97CZz7zGUyfPg333Xc/nn/+eZmDkyefgby8fFlbtm7dimnTpmHevHl44IEHpMyrr74qgGDo0KHYtWsXPvnJT+Lee+/BXXf9Fqeddhp++tOfCCMxc+YsARtcswgQCgsLcccddwggyaZL2iq7psufEgAhtc813aJJ77ZWhBwsUjcEAsXFxUIXERVy0Pv27auWQU9Uqvueu8rVEP9RWy/vIKYsLrWQNWU1KuWRUsJepaKfz3by83g8jrq6WoTDEeTIcdzZd3+z7xUV5dJ/LnoFBQWCTtWl2pKpWLMBFUkx4ipo/T3rPnjwILZt2ya19e/fX+SZyYR4lbQGTro+tR3JEVqNLx5/07LNJiOW5RiSimO5vLw89OzZU/5NP10m0OO4EYGzXt1Xykn7ETXAyYxIVuOfcvNo32BTiF2XZX1sCy0DluVzSQnyYp9SSlgBRxkBj/yPjUXQ1MzV8yUZ8pVWkGq3MUBIPywps2aVhMY9V4HJjwwmSFY7C9RTUgDB3ZgmVTBATM59oBEvrmCqaP7wvUsBBJaxEUeCmRMZ3CXfq+yNKdm2BiAQfDjKLaH5AWZndHW0qoEAIQ3SggGeAiTkvVE9smUc05V7pqpvlPpZPvCCYHUOhn+1XgI6rwFBwnanAfe+sRivH9qBRGEAPXevwf/2y8EZIwrhROKoJ2NkR2A6UZmDdgjYlyjEj1/biBXRHjijaDi+Me1yDAlEZf6FNUCwLLz19tv429/+Jm6Fb33rW1i0aBEGDRqEN998E9OnT8fNN9+MtWvX4i9/+Qs2b94sLMHChQtdALATPXr0xKc//WkBBizzyiuvYNSoUYhGo9i3bx8++9nP4sEHH8Q//vEPWcv+9rcH8cQTTwqI4KXXKv79kY98BKeffnra2tR6ibW2ZFsBggHkRDpWHgSv1UkFRWWZ7eIiTIXFRfuOO27Hc889hxkzZuCWWz6K3/3ud6LY7rnnHqFyEol4UilpZoGBItu3b5eDVLJZ4s2JXCk4B0VFxaI4lYIiC5BSDo0WWFls+L1LmbqsAZVcVVWVTNKSkhKhszjRtmzZgi996Uu44YYb0qJgtYJjm6k0iYJ///vfy6L6oQ99SCYxQYVSUEpRZAKFTGWl9xZnyoEvD6k2KtHvf//7+OIXv5jmI/Mq31iswQUzKiqYddXV1ck2JPbp//2//5fcw5wN8LA8X8Irr7xSfHrsN2m3xx57TNA8A3oy280x1G1mnZSHDgjib84Nyld/x39rq58yZztpFQSFVs6+70jXT0BCq+HDH/6wgLJx48aL3Lmg6MvmXPIoFP2sY2sVZJup7Q8QTJcl0JY0DzZKPcU9QEGUo04hrL5leVLF6YmFNUBQ0jKEW7AR4Hx13R4J7YtNG5bWAQT9fmq5Czvgqm11gqU6f9LLIKgtoi6QcJ+ZDSB4pS11NJo2WQBC8jCc1i7knbucZntipoE3qvbjrrcX4/26w8gP2Rizfyt+f9pgFHdrgM2zNWSa2QgapmTdrDFtWPW5+NXrm/Fil17ItQvx/XOvxMyeg8VNFBK8aSAWj+P+v/4V7733Hnbs2CGxA08//TTmzJmDVatWSSAh4wcYK0AA8MEHH+DLX/4S/vGPh3DNNdegvLwcq1evxp133ol7771X1inqI7oQ/ud//kfiEBiTQDbh//7v/8Tg+ec//ynfcQ3ROyfIPHz84x+XGAiuV9pgPTYGxZEABNJ5ySjPzMl9/CeqVuB79uzBFVdcAf7W1q2mw6mIaS3/5z//EQVw1VVXibKfMeMCfOc738VHP/pR7N+/XwaCIIGITtehrdply5aJMqI/qaXLS9vrf3MAzztvOp58ciFyc3NFGdfV1eM3v/kNXnrpJVFK3mcSJXIykdn47ne/KxOMipBsB9tAFoB/s169zYZKkkE0rEdZyurSMiJ4Yl2/+MUv5PMbb7wRf/zjH2UyauWkrRlNdyvAkL6qcWKuW7dO+uFlNh5++GH8/Oc/l4nLgBoCFo16WUfv3r2FHlu8eDH++te/4vbbbxcETRantrYW3/72twVB8yJoY38of++2H2+fCOpIxfHlnDJlisiGAT3z58/HPff8AV26dE22nS8x28OyrI8/BIKWxd+JJFjg/OCP/syrrEnzvfTSixg+fESzQaOUCV/cjRs3imXBsWI/GbzUt69iEcTi9Iw5P2HgERcNPZ7eeXZsFoCmZnKm3ZtKRavvyA6PUvVpVa5r0gpfHcXsPWjZXUPcgjoavfHKwgL6OGRVG50VCkZLJENLr6X7LniKuadS6ja6jrW0ADU1Uur/Ls8jf534la9V3e0EhdS4BGxTdpI8fHAj7l35PHbWHkY0J4ye2zfhT6f1Rr9+IThmrmRPiobDMBIOtm/fBSMQRmH3HvjOsg/waveeSDhRfHvibFw/cBKMhIWAu/Y1xOP4zZ13YvOmTaIfbrn5ZjGuuN7RUKFuoQHA9ZdrTW1tDT73uc/LGsdyXE+4pv3pT38SVpHGHdd9ggYaqgQaXO9o3Hzuc5+TdY/Bj1/+8pfle71LYvXqVfjKV74qAEGvH8dubUgHCJblIBG3JTaJL4Doq7RESYaBnLDaZqGVbzo9dmLmI4VJqplC1pQuhUeLVG9LIWVD65QKiANFwLBgwQKceeaZMghEbUOGDJFBGT58mGAgKk6taJcufRuzZ18m1juVXiQSTvMZU6nw4nfhML9TQVz8rS3Rc889VwJPOMH4OesiEiXq1DLV91EZ0bdF5TJz5kxRbFrZa6XNfrN9fB6VLJUlI22Li4skmltf2uJnO7wAgUiUSosMQnMAQT3XXSQNA4cOHcLll1+OTZs2pSlK1s8sfFS6nNCamdDt5otCC/rrX/+6WNdUngQKQ4YMRkNDDM8884y8HARreiw4Pl7/fDaAwHEmeGPg0C9/+askg/HVr341CWDYVgJBypP7khkEpBU5wdrWrduEfeL4TZ48WdrPH/5NGVO+HLef/OQnGDBgQLMAgS4E1k+AcN5558liwGcRULFODQQz3xbKlEFOyt2hvdaq1LFbBI7lO5vug2/6SS3BjeSou/9obfmW+5bN25896iW9rvZrQctt9Es0JwHlkglappwq+ve9a/HHVc9j257tyA/moKsTw9e6xnDBaX1RUV6DPTv3YWjfgcgzw/jhD36Frt174JprL8Mv9tfglb69YSMP35kwGzcNOE0AggTmAqitr8NPf/pTbN60WQzkC84/HwsXPol///thsf5pfJBBoI4aVHV3AAAgAElEQVTRjALfZ67tNJyoh772ta8JCOB68PLLLwtTOnbsWFx66aV4Z9k7eOP1NzBgQH9Zw7j+kUGgbuL3Wj/QMONnGiBod+mxmSNZAEKCxlUzACESouLpWACBiy4V6MsvvyQAgcqRCvwPf7gHb7/9trgNvvnNb4oP+FOf+pSwDL169cJ1110nSmz58uVS7owzzpBtKBwMAgpa2LR6qaDefnspZs+eLUqdCpsWcjhMqhmiCIgMGd1K5fGjH/0QoVBYxoxujx//+MeiVL0AgVZiVVUlvvCFL8okImChMmGwypo1ayQohb4t3s/nUXmx/YMHDxZlRWUzYsQIoaTotuB3/N2vX78kKOH+XM0eaCXD4BZSWfycUbBUeFSAmfS2nnBsJ5/H9mnFxr7QB0a6LaW4HFRX10g7+TJQNvn5BdIWnVRER/BSWRN8fec73xGAxL5oep+Tn0E8rJcA5r//+7+zKkjWSarv6quvFvaB4JBl+UNmhXXThcI20/3C+UHajwo/Jycic0S3izL+4Q9/KP1h1DFBJPurgY2WoZZFfn6+vMBNBa1qQMZ+ckwpL86hllwTdJEQMHlBkP73yQkQjs2y5dfqSyAlgXSA8Pjed/GbFc9g087NyCutxqjxIzCtdCc+PqYvdm3eiXAwgsr9h8CMGZu2bocdjuCMyaNxX30Qr/bvAwTy8Z3T5+JD/cZJ2mzqOst2UFZRjq9/7WvCUA4fMhTFLtvHWASucb/85S9Fl1CB872nHuBawvWYBhHXxQcffABlZeWy5hEgcJ3hOso1n7ELXPvuv/8+DB06TAylJ554Anfddae4Kbj20LjkPVzjuLZlY1bbd2Y0BgjxODMpurA6G4PQEQGC9mGT6iGK40Xl969//UsESsVEKv8LX/gC3njjDQ8D0tg605Q5kR0ZBiphThIvQCB6o29IK9bVa1bj07d9WoAHFTYtYa1gqHy4/5XggeBDMwhegMB20mrl8/hD/zsBwuuvv4bDh8tEyVCB3nbbbUJpcSJq69abUCMV5BcX9uFnP/u5oFttDVMRcwJzQvKikmP/mppoVEqsk7QXaXta3gREbItGyd44BE5o0mysj+CKUbnaRUDXzZNPPimsDgMjv/HNb+ATH/+E0Oq04OnSoPJmvXT18N//9V//JSCJ8SIpOl5FletARLINbCf7RtBHfz8VMbcCUdkyFoGKl/VoFO614HVsBsGUvvhia9dQpmxYx4UXXih+RLZdgwjvi+kFCJx7HHsuFJ/+9G3i9mjq4twhCFUxF6cCg9C+y5Vfmy+BxhJwAYJtgpmu3yzfiR8vW4gtlXsxgakyQja6HNqHTztxxEorUVldD9Q1wGmIoao2jgqYGHfxVPyx3sS6nr2QG8zH98+ZjwuKByHOGCEJnLbF+OF73LVrF+RH8wT0c83hWsa1gus813SuI1w/yDbSFcwyDIYnQGAZuor5ntMYOXjwAKZPP08MHa5TXL+oQ7hGcm0m0KBOIxNBZvaNN94U1/jFF1+cdEUe2xmRHSAwzYmse41SLRsGOiJA0EqKCoGBcbROFy16Gnff/QeJCCVNTYFT+XKgaBGT3uaAcMF/5513xMrs0aM7LrzwIhlwLujf+MY3RFHzosLVDIKO/tdWNy1W0kY6aISsg7642HNi8XdTDAIBAhNgvPDCC6JEqZA5qajU6Dq56KKLZPIRVf76178Wl4KOPdCUtdfS5HdkJaigaV3rSwe0eCP8vQo+22Tjs/73f/9XwBUVHxUyWRpa5AQqXmX7yCOP4Fe/+pVUQ4aFDAAVOSk2xjrw5SGzc/PNt+DWW291XTURYXh03Afb9u6774rcqYDJ8jAYqKVLK3Rdjr7+5557HgMHDpTAScqSV2aApQIICRn/2to6aRPb45WrlpFW3BMnThIgpFkVzimdCU0DBh2kSGBFmU2cOFHmot7J4B0v1s/YDO3y4HfZgElLMvC/9yXQ+SQgG2ERsJm3wsA21ODnq57Fsl2rMc2qxsjiMNZ98D5uK+yOUb0HYefu7Ti4cyvqy6rQpcdQOCPGY6lzCA81AFXd+mByXn/cfs4VGGYWIuYGM3LN4DvONY9GodclqwOd+TkNKBovXOdYnuWoa7wB0VxPeek1WMdosW7qDxoGzK/Ai2s346r07jrWSbASieRI/U25KttvDpwiAEFbzgQHDBKhUnjxxRfFrUDlRDYgGs3FihUrZbBIETPinr4dDgL9QrTsua+U1r9OmamD91g/AQLL62h2b2S9fn5LNHBzAGHcuHHS5scff1yAAIMUX3/9dVEutFhZN6kpMgh6UmVOBJbRqTgZNEPKymsZ8zsCGT05qeComDPbzb+5S4IX7/ntb38rrhlOSPrIqXB1HV6Aod0E+j7ey+8Zm+DdXaLjJig3ImcCo/LyMrzyyqvJevkdo3/puuGYaOXu7TOVMINHGWyYmxsV1oB187msl7QfXTJ8PkEcmRNmNdPbKnVdBGEMkGQCE1oEnDNKYYu698RnQBgXto1y0xfBB2WSGcDK5+ptmGwXQWduLuM9UgBAB28S0GUCS29fW5pb7bco+DX5Ejh5JKBCV5nkiz9AaTCBJQc/wFNvPoap0RKMSZRhd1kcrzy6AsHKID5+80xMOaMfzHgIu/YCX3p0AWIXTcHWrlEUhwrx7UlzcXnPcQg4BhoMByHJGGZj1+7d+PNf/oIuxcWYf+WVYkRQB3BtIivAtYpggMwC48C4RtAIZfC0zpzI9YcuhRBd027OE5ajDuKWSa49NGTpKqbBwR0L/IzGIuPLuL5yxxpZSQYrjh8/QRiKY3edAgBBMraZAVGE9EdTyVKAdC0wSI2sARUsFRz97aTYubgzkp+fc3BI/S5d+g6mTp2K++67TxQMwYHakqiiNRmjcMkllwhAYKwCwYIGBiWlJfj3v/6dzJdN9wYnCy9OHjIbHPCWAAIVJWl6DRCYFOPQoYOYNetCmRy0QuluaCoXQygUlEC8MWPGikJW4EBR1ewDFRh9V4ycJbqltU86X9P3eqIRtZKW5xYcTkC6B8gIEL3+5S/3CfDSwECzKNqC53P5Qig0rGRH1EwFmU7tq6cVF3eRSc8XhL41HeyZlxcVwEBw592e6AUk3Ds8a9YsoeXOOmuquJQKC4tUVkDDFCCo28U6rrxyPpYtWy4KX7ul9PeUDUEP/yY48z5HMwdMpcrtSWQ3vEGd9Cd++MPXyI4T3WfvS6tjFVL3qG+10ierwPlFv6UGntlA27FbCPyafQmcvBKgDm8wDYRtyAmOh5wEFi5/FvbhdZhs7YJtR/DIQ+vx0MMvY/rpA/C9b34cvYq644c/uQ8PLFuLvtfMRN8LzsL5k87ErRMuwBDkSR6MmAHk2jwvw8DGTZtw992/x+BBgzF77hyMGj0aVdXV4mrkekn9wveXBhhjvLhGTJo0SdzKXIcZBE8XA8t59QrXGeog5ktgAPeYMWOEmaTeYFwCdQZ3fdFNzXWEaxzXbK4XZ545RdIzH7vrFAAImjLWVDyDSLiljBmrqGwZmMbBYhILWn9UQlQWBABUIFyIvYmTtHVO9EdrWSep8AIEUuek+jUIWLp0qShmIkRasVQYmn0goqQS45a8IwEIbBu3uWiF25wlSauXwGju3LlJilz73TmJWBfBzc6dOwUksSwBQ+pSYIKKjm0mkGA5AhwiZNZFZcwdCFRkWvYEBLw2f7AZT/3nKWEE+BknPyc9E4AQAWcqXQ2wpk07FwsWPCbAiP43zfIQIA0dOgQlJUzslJ5+mmUof4I2jjlfRgINHRegFbDKW2HKmBMQchzpI+SWWCJz1kNwwJeQgIP9ZQ51ghoCBraHbAxlR1cV4yH0M9RYOLLv+eqrPySsCwEVd1Rw/L2Xbr8ePwJNupMoJzIHdHPpANNsL7zPIBy7ZdCv+eSWAGPmGky1CTbMza88y6CuCotefRoHlz+J08eNxZ2/egxvvrUREcPBpdMmo2tuDv7z/Ks45DjoOnYYvnTHd3HVhZeiX1FX5Fsq1TjrjFoECCa2bPlAlPhHb70VYW4hDwSwb/8+2WlAo4gGIw1MAgSufzyngdY/DSPGGJCx5r/PPvts0QOpBG0ECHWyrpD5pjuhe/duYojSQCIDyrWH9XG9pBt3woQJomuoF7QOOjYjeAoBhN27d+GCC2aIIuZizMFQPhu1IYmojKwBqWAu+lSmHCS93ZDKgAu/VmJMi8ktjyzHywsQOGiTJk1M26nA72n9EnRwsijfNoNWqvD662/IM1sCCGQ/dAwClRgVJJUOJwf7QqVFBaRpKa2Y+Ux+TjDDYEyizWyxBVT4s2bNlEha3kMApd0XWk6sm8/UOw5YjpQZFaqXNaBM2CYiXQIi1kU3DF0iOj8D28tJTGCmAY6eyHwO4xAYnMl6GbRDSo3P4q4SPpf9p+Ik8+MdS9bBuulCYHwE3QxkV6iovQDB+9IQpV944SxhigjieB+fwYtt1uwSwSQBkXYh0PXxta99XeYVAQJdUQQWKQYgHSDQOqDLwesuyPbyKtbjLKEkWZZ9IJPgdV157/MBwrFZAjtrrd7tnXrLps4pQeXIkxG9OSl1yKzOCaEScKfN0IyMkPKGuAV0jorGm0N1xsrGCaRaPzIECGQOWHuIZ485BuoNEztqKvD6ypfx1vLX8Myji3Fw1RY48TjyAgYSto2442DY0MGYd8uN+Phtn8KA7r0kgVLYPYskbgARi8dmmGBit31792LQkMFuWm2gvqE+eaQz1zwdjEi2mP/WzCH1Ag0UrtH8t463Yg91plgGH3KNomuUP1wvCQKYIbd//wHJdY36ZMeOnQIkdPrl1kuqrSXTAYJtOYjFVEA5r5MiSFFTxbQCSeOQ7uHiy61yVMpUPqR+yCBQidD658U9rYwG5X301ZMFoAKgz5tUPZXHgAEDk5Yrv2eQIgdfhOOmx00PYFMDQBeAl07WizvdA/RZ0bokeKisrJBtjqSNGIPAxBkECEzHycGngtTokYqDCpVxFnQPMH8BqSxezC9A+pxb9xh4qal1L0jgv6n4WDeVLSNp+SwGR6biCdQOAVJhbCsjaAmQiJIJOngRPBBoUAmSAqPfnvKm3DOVW7pLIX3HOQEc20O6TMuT48VgSDIblBEZASp9BotqgKAtcYI7uj6IzFmG1Bzlpen/zFeBdRP00G3COaNpPpbjy0hFzZeX3zHA0ZtNkkGmlFFrAAJZAIIaHVjU1CtJtoKpUlk3gYEPENq6ePnlj0YCKjOke/SUATlBkoqV6YUZ7Effe8xwEHQPvqICJmhQRyrrzJYKBIgacdNOa1DATJPJszscBualp5ZKJtBykYH83WRyiWzZKlK9lzABDxSRA7FgIBYwUZGoR2lFCbZv3oJnH3kKe7duQ9CxMKB/X1H20847D0PGjUFuTi6Cbqps9pFN0SdEkkFgQJKVYJZeAyZ3c7nrv17z9FqnmFVXup4zc7iu6Jw86euyWnN5ny1pw1X+FZ0ynrpDbxUXEXn+znRZHs18aPpentOiDj6zbQOxhoTKg3CyAAQ5GC4pYEV707K8/fbvI5FQPmWyAbRwqRxoCZOWIYAgFc+MVx/5yHWS4IJuheeeW5K2R14PCGkixidoCtxr0REdUllyix6peR0F7xW6otsH4jOf+aw8nwqH4IQKX+9iIINAGovbGanoqPi41YWZH3nR988Uxuzjj370I/nhRT+YlxZXk1WGMKl82UbujqBCZdvJciiffWGjLYR011AWRLVEwgygI5iikmYQKPf+0q+m3RfsD+kxghn+UHmzPHeFcAyyWcUsQ8BDdkTHVFBBM36DzA0BAvtPsMKgQbpFSN2x77S8yTzwiNUf//gnSf8dQQuVbTZrWwMEHrbC8SHo0GwDXSqcMwREmoVhv7VLhWCSOzcYcERXBNkd9XKq7JekAumqIXji/dwGq5mnpl48jj1dWAScCiC8gz59+voMwrFZ5fxaMySgVJha6QkOqGSDzFxtmHJqZsQG6gNAhAnfZClxJAhQjr4GDaCAbCtUypRKhEdzcf8bM1wyBXUKINhObqOzPHRzdFprfUSYZhI0s6AOxWgeIIji1FvzkyAjPT8my8TjCTmrgwqcOw4CwZDUbLnvsgrXUidhKNCjUmPz0Cade18zKQQI3nUm0wXq/dvLvGauTVp/NTdBvW5ib7njwypmAISYBTIJJw1A0LCTyIsCY5IhWqWkZ6iESP1cfPFF4uOmcqBipEJiNCmVGhU1LVYqILoOGEtAhUYlQr87o85V+t24fK7TC69Zsxo1NbXiuqD1TOVLmpyKlUqYdetJov3c9E/RJ6+3vpCe1wBh4qSJeOH5F0TZMZCFioYWNLf4ERhQMTL3wje+8XWZq16AwC2EVEqS1MPSKZtTAIH30qq9/vrrhSrn38wXQUWvaTDFxCiwRUaAoIoypB9NZ5wkrU8lzXpIh5Eap+XOrYhkHPg5XS1su949kg3lUv7dunUVIKafz9ZyrLg1UwMEMgJkfShHPlcH6jDxFHMkcHzJDNEtQVqOgILj5j2sSR9gybEiGOH84NhwnFUOBkf8fVTW7C8VO3c0cFz5HRU5mQoNEAgkCRAUmleyfvnlVwQgpAcpNmkONTp8igCBDJUfg+Dr8eMlARX9rwGCg1DcBgjmcxhhz1M4aSWrFNtOJACDSiFBvl3OuJYDquzaOhi53OrMQgkkTAsGd1JJ5Dg/U8rFtpnmOCCK2Hv2CCsnrCDAaHyGqLt+8ajvVgCEpuTmdZ1yrdHWeMpoSR1SpxXx8T6CPZs7WPVHrSHeTPdtOr24XSbTSQ8QFN1PpUO6lgl6SNWPHDlSaGT+m3kEeGzmypUrcOmls4W+0ZH7mvqR6eiZGVT0pOB1XAIZiJ/85Mc477zzBYAQYJAmZtAJ/dlU3gw04UUQwlgAtoGTjswDXQK04gkeSFXzcy9AGDN2DP750D/FBcEsgLRgaa0yPSf7QL8V6+FzCWq8AIFuESo879ZDL2rV1P2//vVPATpUcGQruENAvxRegMCcANzySUBDpcUgPbXNJi7xC0xVzX4z4JEAggp53bq1uOyyObKtj3XxGYWFBcIg6Itt4ne0/ukOUnkUNJChfyveCCAw4JTAhFkymeqa9zNegACBY05gRoBEtwoDeDjWBC/agtcAhSCOCUfI8ngXAr58OhiRn7N+nd9AvZyK4tNMFE9Y69pV5cbQAIE7I9gOfQ5IU+8l62abvePEz5i1kzIm4PJjENplVfMraUECGiDQQqZ7wNh1CB9s2oChF5yFVx5dgJ4JA3Z5NayiQoy/bj5MM4RDK9aj95AhcApyYFTX4IOFizFgyumIDOoHcOtekJF9DTi8Yze6DR+Civc3oGjsaFR+sB15AwcB+YUqj792UjgOdm/bCiTi6D9yuDAZ+siu5MkaDvmIlhmE5rrrXeP0Oq/faXVAnXvKRvIIgfTajo+lnn5qbMeZwKcAQOAiS0uPB2PwGE1tbTPYjZYs6W4vQODkoLKg8iFtzu/oQqDfmMqfizjjFmjJ6+OTqaipGLt0KcZvf/s7CXakAqWlTQtbn/ClA+aoxMaMGS0BJsxdwFS+vEhts528SC9rBoE+ebILpO4JPAhuCCaYo4FKl0qEub+nTFHggla0djF4AYIGBnqrH0HJo48+Ils+uRuAyvzGG2/APffcmwzSzDzYiUwIAQIta7aJLAZjJLQPjc/XiYQoP8rz6aefwic+8UlxwWjFyt+k8vTBRHpnA2M5uF1QR/Jql0gmQCAoo0In4GKMgN5aStlS/ryP8ReULf9NVwtdPN/+9rcwbdp0GWO2n+0lC0QGSaef1m3kd3RjEOQxQRPZDyZB8uY5UGdvRKS9BHcELFrO7N/772+UnRR8ls4roQ980gFJlB1ls3fvHowYMVKCaClfMhOUN3Nc0K3iA4SOszSeyi3RLgZa/KYdx/bHF6HXiCHIHTsMVrwegfo4Djy2CNGpZ6LgjPGwEw5Kl66Xw4tCvYuw45nFGDi4L5z9hxAaNASJ4iIUjB0FxOJY/5//YOys87Hr9dfQd8oUbH1rOUZdcx0MulZdkzhApGA72PDCiyjIj6L/2VNgmwEk6B6lx9v1GajIhcyAyLaPTDYrXQEHbaA0XefxAght79XxuOMUAAgUE+ll0rw834CWJq1tKhHtP/cCBC7wVJozZ84ShUGrnNY/lT2j1L179gk2qPwZB8DgPPqhecoigQQZCzINtFxJcZMS5/ZHugSo0KjEWSctbbICdGOQVaD1LmmBKyvwpS9+SWIB+Brk5eUnKXcCAtLnVH5UwtxtQOqdFjuVSHMAwRsww/wCDExkpD4/JwXP9jI4USt3ykNR/crDRhqd/aNCI4giq0H3iz5lMJVlUB1Zzc/JOjAGQLM5rE+7D9he7lBgJkG+bLfe+jHce+8fk7M7G0Dgvdy6SLBExU9Fq3dnkD0gWKBi17shCD5oxXMOcKxYJxX99ddfJxTdU089JYAqM8kUy7H9VNJkGSgLbiPyukY4H/gcfsZ8EGRrdDa1hJXAz376M5lnnBt03bz77no5x53zg/OQLgT2nUwH4xQY9EnXDOfKn//8J2FOOD8JPnyAcDwWPf8ZSi06MOwErF27sff11+SMkrzhA5E/eADKl7yOki1b0fuiGSiYOBYNH+yGHcpH7rDB4i44tHQF7J2rEKmPo8v8m4HiCKyKw9i7dh3Chw8jGrdQn6hDvD4OKxBA/vBxiOdE0GPSRIAZB3nOQSKOHU8sAgojGHTRTAEIthGQpEcq1kFd3KWQHuLY9vHzug1cjOJZfzLrS2csMt2kTbsE2t6ujn/HSQ4QtN+c/mPSyxw8KkBuZbvllpvx6KMLGjEIVHBUHmQWaMXrwzO4QHPxphKhQqDSp+VIQEDLnxd/M7iOFLtmEGgNU3FzIrE+KjMGtvGHiou+foIDKgkqILaPhwvRguQpYAQIY8eOwZ133pX0i1NZUYHQzcHMW3fcfoec0aC3ZjYHEPThVVSKPCiEsqESJA3PNjHfAK+ammpUVVUnrWXKjmCIbANBDPtDdwD9/7xXJwxinIKOr1DomoyCOuUzRd+nXjJuEeJuDe5aYPu//vWv4Qc/+GGGSwSiKClbBZjURXmRRQkGA7j//r9KG2hp8/lUvBwvjjvPYJg06TSJg2AgJ11D7D+VNvv+xBOP4xvf+Gba+6gtA1r73l0MpPq9sRE6iJLPZAApd71oZonAiM8k08H5QoBJQMVDsXgxqJPfk30icCQoI1jkqZoaxJJdYK4IBkp62RxvYzu3FdPxl9GTsYUMtjesOLa//gqCmzajIRHHoOnnYtuqtegzajTy+/XBzheeR27XfPScdBp2rlwvjEBwYD84+w+j9NHH4fCsgUtnI9S7G+wt27Fr3Wr0HT4QVnUtjADgxOIIFHdFuGsvvP/Ocoy6bA6MUID7+4BYPXb/9Z+oMy2MuPVGIMgj6nlwnDpfQRS5BAsySkHtljhel5dZ6Nzv3kkPEFSWQCoBKmIGtZFapvK76aab5XAmUtpUOjoGgUqbVDIRM/UbI+/1GQ16jzuTVfDYTQbfMa6BwYNUADrjFVkBWuX9+/fDT37yU7HI2Q4qdioN0uCknalcCCBoOdLCpeKhAqNrgRcVHI/9pEuDWzDpO+eEpK/785//gjAcdGs88IBKgMSJy74yer8pFwP3zt5xx/+IQtaBc3wuXSZUQlrB0u/NgDwqKLoidE4IxkZoRU92hTs+tAXdCGu70bwsTx88Aysp36Ii5o9Qkb4MkKT1TEaCcmfQH+v1Zltkv5gwhNkwdSwHn0mAoPM96DYpC8CRrZocXwII5mKgrAlk6G7id0xVTaaG8qisrBJZZGahZJ8JijgmbCeZG7o2dI4EPkszJmwH5wDlp10QBGo/+9nPZP4wQRJdWsuXL8O1134EzM0xdepZ0h/OCfaZu1IY+8G4Eo4tmSGCxz59euPZZxeLK8d7VoaWd+depI6XWuhcz+E7Rw+g4cRQ+cSTKBg6GBWHSlBY1B3mwMEq0LC8DPUVBxAePghmTT0OrH0PATOEbe9uxvgZsxDIj2LTkpdQXRjFWfPmAqYNx66HU1cL4/BhlL70BiLjx6PwvPPg1DbAyFenpILopLoGJf9awH0E6P7h+UBOFAjmqAgF2UJw4gBC55oJzfW2jQAhJ6wsRUWzHC3xc/TDoAPfWBOVMBUFrWQqI25boxKaN4/ncj8sEfakqbnQ89AgnvrHKxtlREVA3z73zr/44gt48MG/yfYYHiHN/nOHg1ZkrMtrVfOZWvmRlaAly7ZR8XCLHve/MxCOZfShHuqIZHUIExUc3Qt0D/Ai20BrkyyFjsRtKkiRfdmzZzeuu+56iYxnfXpLIelvAhGtYPn91VdfhX379jcaCNZD9wItX1robF9LSooKj7sQ2F8tU/5mH7XSY4wAYysIFLS1rMeQAIOHGzFWgAqYwIwXAxpZRh+UQiXOfjBzGUEh2SBa5V7AQZBIZU124LbbPoWNGzdlnWzsE9vG7JCcM5QVwZ730uBI10+3EoEBAQfHhkCQwZyM1aBbhMwS8znw+QQanCdktMggaHfJ7373WwGwv/71r3D77XdI2+kKuuuuu7LOx5Zkf/Rvkl9DZ5SAadooX7sa7y1ZjOEjR6Jo0AA05ASROFCG2t0HUDRmOIqHjwTy81G3eRNihw7AzslB1b5SdBk5ClZDPaLBMMw+vWSL5ObVq2A6DYjYcSTWvIcwT1odNRp14RwkonkYcuZk1AcMRENhHHztbVi1NcjLy0EiHEbXKVNUwKDlA4SOMxcz8yBw23pT2xwB5ESoxFRUd0cACAJG3e0rbNPGjRvF6ufiTYVCpcqgQFrPBA9Mwczy3/rWN3H22edIPzIBAhdjKmsqSL2lja4DRsfTIuX9S5Ysxk9/+jPZNpdNedI1MWHCeHz3u9/DzJkzk4kweBKXpuL16V2hUOqEL37Hz6lUaO0zERG38ZEF4WUquvoAACAASURBVHcMiuPOAIIgfXIid0zQN64v9ofxAHRfUPGRmeC/GfiYsqAdsZxvvPEmeYYGSryXbSew4dZJshYKuKQyaDU1eWmNM2iQOzYyMydSjlSsbAfPTdC7G7T8KVMqarILvJ9uELob1q5bi8cfewwjR44SUEBgQYDAH33GA8/XIDtDBoAyYjlmzSSII2hhzALBYualla6OaM42F7RcNJDg32SpCNC4ZZRtZDpv5m/geFF2BEQEl2SH6AZhem+6Ouh+INAjS8A4CQJF5pogyGDfGfdBF5Y3QFK32QcIHWfJPFVaotyzDgLllUB1Jay6etQFLOQP64fY5h2o2L4XPWZNB4ywZA3a/sorGDR5IoycCDYvXIKekyah7sA+BLsUoPvYcTzaDQkmkjMsmFYCB599Ad3HjUSwNzOEBmDzxMMuBbLbwT5wCBsXPo1RV18h7oaNTzyFkbNmIjSgHxwEYcj2Ru5qUDkVTrwpeqqMelv70ThREsNHZF1sdNwzgNwcHl+pEhB1FICg/eFUMlTkpPdpsfNkLC7MDBSkJceteKTqCRyoUEn1NnfpgDEqx9ReVBXIx2fRb03r0Wu5sj4qYSovniPQo0dPcQsQdXGR94IZ1q+VvqLj1XN0oB9paboBaFky/4LK0qWC5fgdFRSfxVTGtGC9cmAZAiIqfyqxTKXDNjU0xCQ4T59CqKh0SAppfWiIkk9qr3Bz8mLbGO/AdnndAbyHMQHDhg1DQQFjGdTWQe3n1wwCfzMug20mQNEnU1J5appfK0oNsnSfuQOBMR4EhgQ1ZIr0eQp0mTQV/NeW1yXFVjno0qWr1ElAyjgRKnkCQuXusmX+kZHQQIbt16dKciwVUHNQX9+ApUvflnnC+cq8G3queNvmA4S2jJRftjUSYAIg5kLYu3oddr+7QTIL5nfNg20m0LB3P6zyWuSNHwXLtlFc3BNbVqzA0AumAfU23v3nYxhzw4dxaN0ahPv0QNeRo1LZikwgUVGFHYuWYMA5kxHu1w8wIpKEiIGJtTt3YNUzi3D6Becid9JECUq0t+/E5iUvoMdZU5E/djTCQb4HdjIBkg8QWjOi7V0mPdWyZTmIxy0QIKicUiaM8uqYI9mnJGmGg9wcDlzHAghaLFycOaksKyEpK3UkvZfuprKhQvdGpjclVq2EmrI8vQouczHX1qiqQ1nfSmkK9mpxJNX9KkkGA/TU/QpAeEGFVpCixt0gQa2cVcpndViRBiNa2Uv+M9tJ7tjQ96d+KyDUlAyydYDP0AGe0ktPtjFlgdNNkbpTy0j3VZ86mdqjnCqcWZduP2vT+QVouesx98qiRWG3soB3TL1zivMpBWBSY62yzKj20T2VpOY8IdW6zkwAkwkIfIDQykHyi7VaAnoVYgZFuYImnOpyoLpKkhcZNql+SSUIp6wKO/bsQv9RI7HmP89h7LnnInraOOx5+3WEevRAz2EjVR2BAOxEHJuWr0D9lh2YNOdSGAWMRwrCNhxUb92KtYsW4ezZFyE4cjgsMhhMwmQm4Ow8iHWrVqPf9HPQpYsK+pb1qLkszK3urV+w7RJoGiBI9ojGDEJHBwiZWaeU+0Bb8F4lmOlWyC48ZTkfyZWiq1N1HOkir9vqvd/b/pTyTD1LAxENFrwyaKk/2VwuLd2jv/fe25yS89L5KYCgxs/LPnjbz2doJZspC5X/XGCJ/D8FiFLHKre2D60plxwT2aWt3VTZmRYCBD1GJEt1ed0HL/hp6tlHOnda0xe/TGeVgMovwMOIBCOYBizmNjRoEJoI0aWpDosHYgkk4g0wGiw0lFYhyuRIpolYQxlMMwfBUIR5mBVLQIMoYUtWRSMYBOygmxSQWcnqEUvEgNwo7EAAIcdWAEHOcjDkJEbZ4eBZd32AcKLm5ykGEE6UGLM9N50paJwysyO11duWY729x6v8WwfSmoBubqCsF1x4SyoGQSDhEYG89lTILfXTCxCaYpjasz0dde757TqeEnCBNFlCUsXEB8waathIGDYYFSXnEMh/BA6ECgoDyO4CN+uhacRhOAEFIhgrYFvK8udWRc2WOgE3G2Jc4XcjJICE+Q0CjnoewQi3N0r6A0nJnLp8gHA850XaKprkbgyDGWBTLoaTkkE4UWI81Z57PPN9t9blki5jpfRVTEDT7hrviYxtGSNvnENb7muubDZmpSngkPJApPrmA4T2Ggm/Hi0BdSKhOvlQjH86FphzwLBEYSttbSJAn7MkRFVZDnlygp2cpJaCEHwPHUudBaN3hglAV3UolR9X76wRlOBDl5sQ1oJgRNgDOa3JUUDEvY6QxPUH+qgl4DMIRy1Cv4ITKwFvQqPGLTk69uBEKWVvfENykTxSX9eJHR7/6R1eAirfQIrSF6Qgf+uPqd5VwmOl8HleI0GCSnaotrwrF6alk7EqkJAECC5Q4JkP6htJe6SSIala+bdMcYNoxIcEHWPa+AChY4yD34ojlsCRMRAtP+5EgQNZSjPzwroBqC232i/hS6D9JaABgqpZMQJU9XQRqE9S7gXXr+CWaqEtLkORXopQQUdNtn9f/BrbIoHmAYIwSum7GDrmNse2dNkv60ugo0vABwgdfYQ6V/taAghKGumRAikGoTlZKTYhEyCkRSh2LlF3sN6mAwTb4qF3FhhTSggnhE8mQOiIiZI6mFT95vgSOCoJ+ADhqMTn39zOEpBDnZJ1qr+SJywmv2gcSqhcDC0BBH7vhyS2JKkT831TAEE2wWYBCIaBHJ773cEyKZ4Y4flP9SXgS8CXgC8BXwKnqgSacjFwK2w2BoFpeEPBZGCKn8LiVJ0Yfr98CfgS8CXgS6BzSyCDQbB54m4Clm3JbpfGLgYfIHTu+eL33peALwFfAr4EOokEfIDQSQba76YvAV8CvgR8CfgSaIsEfIDQFmn5ZX0J+BLwJeBLwJdAJ5GADxA6yUD73fQl4EvAl4AvAV8CbZGADxDaIi2/rC8BXwK+BHwJ+BLoJBLwAUJyoJvO6N9J5sIRdLPFbc5HUKd/iy8BXwKUQGZuAF8qvgSOtwR8gJAGEJgZ3L9aJwE9dbwgIRvIai8QkS3fWuta6pc6URJQefdbuFpRpKUqTubvZbNYo5dEpTNOXTpv3cncU7/tJ58EvADBhG0bnm2Op3AeBKYA1++kPjWMr6P3BLGTbzCPb4tl6rhyTMoySxPaK6u6d7lMTlv3yNnj2/OT92nJxLbthdpaEIUpxwir/9QjeSBPxsOzZds9eUXc5pY7jiUHFSnxaGHwtzpe2f2ChyN7T1Rq83P8G3wJtF0C3uyYBAhAImEhYZ3iiZJ0FigKTF5DR/1uOTVo20V8qt5xIgECZSrAwwcIbZ5eArSOOUDgCX88BNh0T/pzT+yjsWzb6lhfOQWQxwRnScff5l6drDcoOdiOpQZFzlQ24TQ6xIjljjVAOLKTT09WybdXu5s6sr296j+x9fgAQR046ihCz2cQWj8dNUDwMgTZXDQ+g9B6mR6PkscSIGiWwLZV7n4yB8IimOksQtK/7jhw+PIJMu+svgYqZkulr1erkJxzYCiT5bgwCG5OvOQxy60ZDY0xmxu1zlLm1AUJnRIgWLDcM835PhqOWsz4agbbS5sdj5X+BD/DMQwk9HGvshLQXtTmacpEbS+RavAhtlTymFmXSTjBsjjZHi8KgEe1cu4fMZugIADfHo6HbSiqnC4Ey7Jg2wmQk6Ti4yiZJtkEM5nDPUmdswGOQ66hCTHycwe2YcMUCzvb1Zoy6j6miDWc5qIjDNhyFE3zZfSRxE2XomzU7G+qDEUj4nfdLgQIhhFAIGAgbEQRcPi3smBYV9IVcYQTTgEP5fCxkXDT5RqwbDVujq0mA1vd3Gi0VEb1ufl62lpGl29q9PU601y7W1NGq8TmZ6OSE98hzmuTANhwYNoEdZzLp0o0W6cDCHzJ+PoTpZtIBHh0ZTkc24JhB06ZYT3C9aMNt3GJCcjqZpoRhM0cmI6yf8TP7OGwvefAteEBnqJJW1QpIzOBhN2A2vpaBMhPd1bD88iEyQFDMBRCKBCGaRMkqEASHSXQumoVpNbgwDINOKaN8qp9OFCyDbv3bULp4YMgiLSoeKiUDBPBYBAB04RlJVQed1d9qu+zP1nKtWDStraM9LOZ+aKU9dGX0Tq/uWepR9G1EIeDuOv3oYzyMHLIOAzrPgJFoZ4IBvIBw1Y/giWUMld1t2Xyu6fvCVPqIObU4nDdQews24K9+3ejtrYG8XgCtjAZTV+nKivgDn2LEk1NRYJeA3nRfPTu0RuDek9AcbQ3woaJgBEUd1FK4q17qzpeqWwAwYZlw3UTZh73fJKfxUDE5xg24o6Dmvpa7K/YjgMVG1BeeRiJBIMw2sve7XhD3Z4tIhQIOAEEjSAKcovQo3ggBvQchPxoYQZ6bp8INE1Dl1aU4sDhXdhbsg1VteViBbVNsbWnFE62ugwYZgjhSB66FPVAn26D0aOoL3KDuWK9m2Lpt/ZK+cpjBtCAOLbu2YCN25diz8ENqI8dUn51k4xBADCDyViETNtKOyOafbIAGL67zdMdBDsCTpvRcB2rjAUYCQD8ce12J4ScYCGGFg/BlBHno3ePEQgFclS8BtcvFyC0dqRS5RTLIgDeTmB3yRYs3/wWdlZsRF19tSz47aX8265smwckLcGg1rpEWqzHaDkOjXjacFkxkZjtIOiE0KfbOEwZdz4G9hiInEAhApz3LYCtto/h8b6jaYBgCTvowCivjjkMLDJJzZ3EAIGIm9g4blsoqynDB7vWY82WV1Bt7UMCpEdpEflXayQgHlLHRNAhUAgi7ORjxICxGD/8bPQo7odwgCd+KgtHBVwd2SULImzE7Bj2lm3G6vXvYNehrai3K5AwOWpucNeRVX90q1J7PbM1q1s7PEux2AGYRhBBMxddov0xetDpGDt4PIpzuyDYpnHS7oUA6m0Hh2r34Y01i7Bt/wrEUAWY9YpWlwjEABwulk1eBCdHPkfaQTQnsAodeJhaiGWYLBs5dggje0zEeWfMRdeCgQiYBAmuK8V1BbS54WQhHAvVdWV4adWzeHfvSsSNOped6Kxj0FYp6rFSrjOBrkYAhp2Pvl2G4MIpl6Nn/gCEzDDMVgCOtj79+JZvHiDQoD5lAAIFSwdDTbwOG3esxrINL6AisRPxQEPy6EofILRu+im3KMGBAcdyEEgEkReIYNLQS3H6qBkozitQ1g4BQlsM00aPN8QSPVR5EG+sewTbD2xEnVMPy7Qk4JvwIEVUtz44X9tS2XrrXSabmg/tVUa3vjXzrrk2p6TQChkQ6MNAyMlDj2h/nD3uAozsPQk5tFJbJFi1xJSH2XZCqEsksGbbW1i2aRHKY9sRN8kcKD+sqk+5I5q6JEaxEzv3hAHzbv1kvIETB5wECuwemHPmjRja9zSEAlGhtBXobs2MyZQ4BW0hkajHll3vY8nqJ1Di7HE3U7Z+5Fu3QpzKpTQwcF0+xHOynTeAiBHFxaddi9H9T0NuMAoTQeXCO2mvLAAhbsNyiGFtYdxPKYBgOTYOlO/Dm+sWYlvJWsSCdcIdaOrS+9rJsDZ6EU/mwW7PWaoWfVlWbEd2fwSdOHpGxuPCM6/F4J6D3VAoJa8jWc4UMjcRi9fh/a1r8OK6B1DtVMA2A7ANUwCC8m77V2slIPaq68sOOgHkOiGM7HkGZp1xHQoiha6F2praXEvWCaKiphpLNz6PlTufRQPKYYm/3N3e2AovuVpAO+8oZvZeIngMSyz93EQhzhk0D1PGz0RuJK8N45NtDPmuWKiursQ769/Esl3PoyZ8WAWHehPDtGb4O3MZwxYXg3JtcqxoqKi9umHHxLheF2PGGXOQn1uAwCkGEBwmSoozbg+wLcYiWKcWQIhbFrbu/wCvrnsEB+u2wgox2poDreKW9TpFXHCqxKEeu3fZXdrciHD6sAudfjhv7FxMHnE2QkYAlhul5cWhLbdHl1YR3XX1FVi25iW8ufMp1Aeq5TMGv0mpjOi11hpWLQWPtdzG9i3RmnaLCj0KPaqkqoJ0qYSCMBGxIuifNwZzp30MXaPd2qSACN4s28DhijK8tu5prC55DhbqpHaDMQduc9vKtrSvZDt+bZlhFZzTDF40DQOhRARn9LgM50++DHm5ipU7qsu2UFVdiTfWvoYV+xYhFq5SbqAjdVkcVWNO3pvdvTtJ48fmbgbHRMgOYGTX8zFr6hUojBYhiFAbWLmOKI90BoHu4oaGOGyHO19sAQmnDIPAl6s+HsO729bjtfcWoMzahbiZEJZAhTbxPwULZPsKt4F1xDHrIG1KDy5TFmVurAjTR1yGc8fORG4oR0BXZrbFlpufAgiMGa2uKcHbKxfjnUMvoSFY526HY9S8pmY7twXasjxVCTW/mQFNAQTu2cmxctA3dxTmnPNR9CzsJTkLWnvxHaElUVZ+GC+vXYRVpc/DNuolEZJphlx4wLilbPyR+5n7S5jzznhlZFlW4iADQ7kFEEgEMKX7XAEIBdG2MDzZhWlYNiqrq/D6+lewbO9CxMNV8hyVwVFf7ZcwqUVQmy3L9DGcBy22JxtpnKU9KQYhRb4QIITtEEZ0vQAzp85DcbRYgrhPbvdZY4BQVx8T9pgAgduZTzmAsHbLGrz+3mM4bO1CzIwjIG+l+2oKKCC1rcABQYJ/ZZeAglXp8sltKMD0EbNx7pgLkZcTVTEIbrbD1rsZUgDBshxUVR/E2yuWYFnpyymAwHERX63esX1yj1NrLMMj8zt7l32XQTAUSOCClmvlonfOCMyeehP6dRuAgKmCCVvzLAUQHJSVl7kA4TnYRkMGQPAG4TX9Jp3co9e+K4TaS+BmorRMTOl2OWZMnoOCvPYCCNV4bf3LWC4AoVJ2mAgmcbuhclm0b59Otdq8AEHeFwMwbRMhuuy6zsDMM+ehOM8HCMltMyfDBNAMwjoChA0LUMoARTOhOAO+EQbtK5WuRQMEf+FqamQ1OMgACDEChDmYNvZiRCO5rhugrUliswOEd0oIEGpk/7cKgGwl3D85JmfLrTzKVdv1mCoGQZK6mMi1c9EzMhyXTr0Bg3sOFYDQ2m10GiAcLivDK+sWYUXJc3BQLyyFkbSc+G/lwvPYp2lBKfpdc5FJM3LIxm60zXnVspBPRIkUA6bHqDFAmIuCvAJJynM0l2IQqvHaupexbO+TSIQq4RAUehJHSRsEeB89Smhp/Tz6J7RdGu3RJuaR8F5MFEaTkgzCmC6zcCFdDHnFstXRZxDaYSK1fZjbfkcaQHh/AUrjO1IAQTMIydQtTSduafuTT8U7mGCncb+i8QJMGzEX08bMRjSSo9wL7cIgLMbSkpdQH6xRrh8GKYql01zOt1NR7kfXJxUAp1wMphNA1IoKQLh46nUY2nsYTMZ3tGGfPV0Mh8tK8er6Z7H80GIBCCqUJ+hmG7JgSFBkarJkshM6t5/gvcy1RBbiFFOlKGLlzlLXiVAx+tEZzz5CtlEUiK4qebaII+4eM8kgzEVhfjsyCOtewtLdTyARroQjYM6rNjk/TrBsj26aH9O7hVn2DL0AKjcWivkQJhRfiIvOnI/C/CK1/fGkjmbrhC6GdVtWuwwCAYKKP9UWDhkEWYOSC9ExnWsnbeVi82TJR5Mbz8O0EfMwbcwcAQjCyrQTQHi79EXUB2pdgKDyI6SAfEt2wUkr6nZuuGIPqAKYxyLXykPvyAhcfPZ1GNpruCglbl1qjYuBDWOK3tLyUry6jgDhWdhocBMicWGUErK1rmlFLsttqo/ik1b5VpJJfWQx9saZ6CyCJw4fZIMlR7pmSFpet0IVr6P+kFwjFmMQLscFk+eguIAKhwc5HTkoSjEIL+HtnY8jEXEBQprC02djtMPUa81reeTdaXsD26E9mQBBtIe7M8h0wji9+GJcfOZ85OcXu4zP0bE+be9ke97RCQHCWgEIj6I0vl1SLaulR81Sb5LR1viF23MoTqa69EuS+b7lJAgQrsC00Ze7AEEdC9o2wjKbi2Ex3i55AXWBGnXwDxUIF8qjWCw7lLyzWZ/KePYoz6NfSbW1k8Yg5IzAJedch+G9Roi1c2QAYTGWHXwGDgGCjI9OjJSAQYDAeJFskfJyHgQpB5XDXik/t5/uGQ0p45oLrQYP7lt79CI54mnQaH04wrnYHINwrADCq+sUQIiHK2THiccDJHNOWcRHlcDkiOXa0W9Uh/ulTuqQ0F/NyiGMKUWzccmZVyKPjI+4hHyA0NHHVCFy7mKIxbBu62q8+t7DEoPAbHwy4O5C3HwW8lZ00z34yYu7tDLzLijtsa5pUHO0mQC8hG0reuhaN4pmywQItEinjZh/TADCWyUvoJ4AQVwMqqVttaZUDnt1s7ZJvWOl+6/71R7j1FqZZivX1NgcyZjp+uliYFpdMgg5Vi765I7CJWffiGG9hotsjg4g1CcZBME3wh7wxxuDICOX7K6iYFPJfzTdTR0lx7K7ZyOYEkmnvuVn6shona2xLVL2jmrGDHbPOGDdap40YXJKFWrmZNZGK1/dp75paQ4l8xC4k1IT/IwHaXeAYNuorKpGswAhaRG3AiC4oEgHc4t7KhncrV1DeoeYStDllU3m+5ZtFDPlp0eEY8TntiRfb52NRzN1fJVE5rfClFHGUTqjpQGC4YRxZvFsXDL1KgEIKmakUwEEICccVkeTemjAtryeJ6qsBgjrt6zGyxsexuFEysXAbVbqdU9NoZaVj0TLKTLQPRXPZNIgyaylt5UpNC7K1J1T6nVpvAPAYyp6RORdSDNoVnfRtSUXWqrlaS+M2y9OaK8lJnkeTLXtTeWmb3khyxw39knZdKkrauVj+sj5OHfMPORJDILedd/Iu9zMNMjOILx56PlkDIILD9pMIGgLlQlMAhK57UiuBhUnwZPZqCDpdlLytMRFwvFr6iVvQXJUuO6cUmcdqGN8lTSyny2XPITHYXpz7hRwT/QTwkQdMyaKR6Zq+vLYmsVSxSBwkQsgYofRN2cMLpv6MQzuPVgWtCMHCItgo9YN8A26rgIXHLgUbHaNmZrXHJ8AQsgPdwMTOYn8k28L/8VMgA4S8XpYRr067yEQdCUpvYIjZxso8MBsn+mXfsu18k4pLLEJbVNSyid4NoLIVyt7ylvlSZFyiSAM5uAPBBEMhCRrpGXFkLBisLmYyBliau7oEx2bmvDpMRgpyGGawSRAmDF5bvu4GGwbFVVVeE0YhMdSuxiSQYruZthWBCnmBHIRDebL2uc6htQ6IiDBRiJhgXlnLDTAMuJgroA08CSnaqrTRNMVd+acVons9NsTtJX7ijtozIB7GJiLx5qAcyJ6ZQiq58lYyqZ2G6YVQpQHYgVzUNHARGxxtc20mRUqfSV2BKzKKaF2CGd1nSsuhoL8olMWIIjksm5zBJAbCasTv05CgNAQi+HdLavxwoZ/SZCiFaKC5Fyhb1ZPo1ZCGIeKOQzLMlAYiiJsG67Scfea89hbx0K9E4OFGEwzrgLEJMCOisOz+LjWg3pyipBnKaUDuIykyssEdT8XBaeVjepMWge0MlCfGgg6OTDtMALhBsScOnmcak/KYGoJHDWyrdz9zHlWIaaPvArTxlyOgpxc6a86BEb917orO0B4/dASxEJKAenlPb3Klrdn2VZClEBRuDtyHCYxSSBhBJEAlREQCDmIx+tgx2phcdzCCuzJsbvpfL/blaadJyqZE8GAam/AicFwAjCcoCixlOJw4Ygb9alTD5tOAwIEf0a+KCKeoJZIcB7VyyFVapHLpv6al7LOS8H+ROwA+uaMw5zJn8KQPgNdgNT60UrFICzGOweehsNzGAQ38ywOd8wlossz9i1Q8QXBHrjh0u8hL1SAXL4lThwxI4GYERdAWFZVj/c2L8fmHS+jJl4COxhWmTXlKZRtjYp7kBea2R5cOSVPrNRZ8NS8F0hvJBB0cpEb6IGGeCXiqJC5q3ZjKDDP94zKX4BxrBCDeozD1PHnYGjXgcg1TOwv24l397yH1ZvWoh4lcJhymqeF8BjsprRNMiGbKyM3Pbm87zwzww5KDMLMMwgQio8+BsGxUF5VIbsY3tq5IBWkmGygO/burq4mQY1j4uzR5+OycTegwbCRsONyGi5TDjsOT4SMY3fJVixb9yr2ln4gCc4SAhAIptg7dTol57q8WYLnGjMWOm8HLXSBtZaJAqMYYTOI6ngFzGAQDfpI7ebP6HJBv1rp9DsZRAA984fg0rOvx7YD7+PVVYsRN2thKOuh8eU+I/MrZuiV0F87hHO7z8OFU/4/e+8BJ8V5ZYufrk7Tk3MiDhmGnHPOAoGEsiUUvJJlK1j2vvXu+r312s9eh7dre9eWFWwrGkkgFBFRwBBFDkPOGSbn1NPdFf7/e7+q7uqhp3sGBhAW5Z8MzFT80j3fufeeezcSYhP0tOG/MwbB7eVNDwGEq6WWSQwnKop3WbcjQPASQDidjzXH3ke5ch6KTd/d+/cgRmdGNja0E4zSkpGT0Rszh89DrD2Rdzgsk6oXESKUe7LwJI6e3YaCsgPwKLVQLXZeyMTOUgw1oW+nM6b6BNIrGeiDVIKF+Fb9Gtqx0C5Ykqxo1HyM0AN71cByzKpsxCJQuDkVV7LYEWdNw7wp9+Ps+T3IP7kLXlXmhY8QfmAZN/zBzRsbP11oiJ1oGmLURIzteQ/G9p6L+KgoXZqHEHZrohBCAYTV2FqyBl4HFZbRH6jTz4E3DP3O+uZC7CIUFTYlCVOG3oOhXUdCosqevI8QuwsFPpZ2PnUhH3uObkWZrwQeSyPvZolFMPFL+oLW/HfxJKJ7s59dgh0q7FIsMwiyVg9VI8EROkgZMtDywv1rRUJUPLq374denYYiMzkLPlnB6YtncPjcNhRVnoYPDVctYi0ghYNUde2aBe2j+mHO4O+hc1Z7BggUKyDyHCIfBFrKq8qw+RABhOVQUaPHCRBAEJVTdQTe7M34SXrDEpuVaM/At+/6v7yrO3/hGHxq5NwTAAAAIABJREFUHRTJC9nihc3uQIf0/ohxxGL9nreQf2ITPDTrJAIGBMzpbvwT3jPSLBHgWhzU0yQ37J8rko0BPv0mM7En7p/yAnYd3Yh9xz9mUM8VJTQrNMnCBo7KWkuyBd2zhmHu6CfhgIbS8gtQZS9SEzIQF5eOPaf3Y9Pe9+HT6nk8qRZZGLdmjkCJOMF6GIHSVFTLqtgwPH0uJg2eg8S4pDYBCBV1FQwQiEGgNEfSQSCFPNFGugoDg7gQBlsHd1TJdXzudMzt/ySulF/GlfJTiI2ltGYJsmJFcnwmEhISUFh5Fis3L8aV+nPw8PIl2BbqA1ojiQuggm/i2eJnIo3ZcCHRWFQgU99SLKcnGjOG3YvOmdlYtvE91Lhr0agHwYZ1Nmg0y4g14xkJhVlTG6KlFMwY9TiGdRqPXSfX4PPtf4NsqwesIm4m1BFYAwItRuu8ADB2jEmbjylDqL8S7wAEg5iPvJTc+jMI0BBAOHx6P7489h7HICg22qGIySCGQ+vQHoks9YgbgG9Nex5eRcG5ypNMfWqawnXvkxJSkOjqCp9cgxVb38DJK/ug2XgasGEwfK/sa/UTo+RbExSlX++bJrCxi2XK2YKunXpiTL/p2LDvS5wuOsTpZExXMq0qzKIBEEjxyipLcGoOdMsYgm9NfQEb9izGrpPr4JaIAjQoVGP4GymEzfWbYDSYiNPnEbEOsTpAGNN7LhJ0gMC1Lq4TIGzfuxpbi1fB63SLZUz3Fbc4Lkw/0Ua0sC8Oc8Y+huFdJ+DIpf1QbDI0zc66AESxZ6W1Q6I9Hvnnd+KLnUtRrRXD6ncPGEyCsYAahVtCtxO3DwdUWuCSYjFx7INwuiSsyVsKj1Ip+sxiDWKTCMREWeIwY8zDyG0/Bg2eSpRXnofTnobMpI5okCvxxeZFOF+UD9VGhcYCz2bDHqFRzLL7VMGxo6s/5gx+Hp2z2rUBQKj2AwQyOkaZ7rAOLAax+uzTJCTa0/HsXT+B7FPx7mevoLKxCBoZa4uXQVq/rmMxc9xCuL0leHfFb1DZWAGF08kEXyN2NsK1x21jJYZAuGmER1ho6dMmx26zQ5ZVOCQ7UmO745G7fog9RzZh2+Ev4LPUQyPgrVHdDzJpYrsfJUfjronfQafUvli/4X0cL9gJi82K9ITuuG/Kt5EYnYw3l/8ExXVnoEgq5AhjX5QONoxRgFkkIGlVrRiRfjcmD5nXNgwCFFTUmgACpTk2CVI03HBizhqHMckFhLBqDkzoOx3Tcx/Ap1uW4vDZ7YDdzVktiuJAQmwaJoyZjr7thyJv51LsOpkHj0R9KNwMHORHoJtSORl8E0ikDBhZFABlRoNobIXdSAT+JLsNnmoHFkx4At3ad8VbK15Gna8GHsktXE1GuexmzDo/j8/xMItolZPQs/NYzB33OFKs8dh1ahU+2/5XeK1uodIaobS4+TGCQbBAk+0Ykz4fUwnQxd8BCP5AnVtv/iO/gRkgrDn6N5TLF3SAQNcK2il4SxZ+D0UDolGyIjd2IJ6a8gwOXc7Hqv2fQtHq4fXJUHwyXFI8Rve9C9MGzsbuM5uwYvsiuK2VjCy5kAesvLumPYYw6AaLIPzP9DMrR+vrZZPZHhGNB/Tq1g93DX8Cy7d/jCNXtkO10gJKXyHSpgJ7AgtinQnokt4PGfE5yO08CllxHbBm9zvYdmIFPJYGjjgUxswASJTqFm4/ahhKff+jByfFqkkY15NcDHOR4IpiYxUACJH7SJxxNYNAAGFLEWnHE31sJC+0ZI8b/Ey7Cth8TsweuxCDOo/Eax//GuXeK0x90q6dgoxSUjMwb+SjSI1Nx/sbX8XJ8r2A5uPdkU1ziN0O71oER8D0J7U3+e+pFTVa9Ajk6dEm5I7THIhCKu6a9l244jR8tOJ11HuLoZLUNwOtgPvIqmro02E0Zo96DKcun8KO/V+gtq4IdlscunYcgRkj5qCi9jIWr/4T6rVi3tUah3DnhDlMQJQJeRXoED0Ac4e+IAACBym21B2ksdujrLIMWw4LF4MKAgikQEoxCHoqatg0RzHeedyzP9qCJHsqnp/zSzT6GvCXFb9FhfcCBztSZTxJlZFoTcX8aT9AZlI7vLny17hSfQ6SxYFoSwzaJXdAclw2SdZAltworDmHoooi+FQfSd1xafLU+GSosgq3242s9HaIjUtGcXE50mM74r7JTyH/zDZsO7oeFQ0F8Co1QseB5of+HQnWNDw+6yeoqK/Fp1/+EbK1BLBEwybHYFTuZEwePBdLN72Mgxe3Q6NhFQnFmgv/+GOTxAaCghRHZtKOlABCWzAIMipqK/UgRcEgMEAwDxrDJchGN/RB82BC3xmY2vceLNnyLg5f3ApVIs6FCvkosKgyOqf2wrOzf4ndR1chb/9n8Gge0CyIdiaiXXYXOBwxvJGqb6hCWUkhar1lANzMdMZEJyIxNgmFRUVISkxDSko2qqrroDU6MH34HGSkJeOL7UtQUn0JlZ5CyKqIO2l+xRKZMgQSNLUWdp8NHVKHYe70J1FTUYWeabk4eGEtPtv2JjzkwuM51dxMuvrngkEgptaOsenzMWXwHCTFJ99hEG5HBuHImf1Yc3QRSn3nOM2RDDBv8nguNOcsvHqi0PluiwW94obh0SnfxoHzW7Bq9yJ4yT/My6MFUWoUkqR2eP6Bn6K4rgiL1v0PyhovwGW1IdaegvYpOUiObQ9Vk1DrrUJBxQVemBpttbBJdtjhRJqzA2rrq+DSYpGdlsPy0JXVpejeqR/G9ZuHjfkrcbxkF0qrz8EqUVqZ2N0LrCHQeruMLpg5+mHE2dojypKIWGsUvty3GJuPfg6vVK9HIOjpg4aRjrSwsX9cNBybdE1DnJaMcT3vxZg+xCAQ5Uh0XuRdbXDrNgMQCleg0VHnT0kNFQ0devMQ6FMrl6a2466xT2JA55H478X/jFrpMjTegUYxUJA9jZgx4AmM6zcb6/Z9gK9OrISqNcJmkZAS3Qnt03Jhs7mgSD6U11zElZKTaFSqmf4mJibGnoxYezwaGqoRFxePrMwuKLxyHi4pGROHPYCEOAnLN36KgvrTqJUL9To5gXe0axImDX4AQ7uPx9Iv38LZ4n2QHER5WuD0JeCxWf8LHZJz8Maq/8Cl6sNQTep6vBMPgxDMdTE4IFDV0DFmIOYN+z46ZWXrAIG33xHQnHDB0Y6xjISSWAeBghTJoIoYBMa1hsstHNgkUGKsx5qGREcynp37O7iVOry94v+h0nuGwZaVYmcUGYlSGu6d/gKyEnPw6vJf4HLlaSS5MjCu70wM6z4aDpvEM5CqfjZ6a7Dz6FbsPrEVDb4quKQozJvyLTTWS6iqLMOoQSOZoj5++RS6ZfRGV1cuinxXcKF2DzbtXouikguwSMJfTnEKxP1FS/EYMWA6iisLcfzMLmiSj8IqYWm0YeKQWRjbfzY+2fpnHCvYTeF5rFkfLpr2al1/sXumPrCqNh0gzEdiXPJ1uxiohHRFDQlbbcKOC+YYhABTwBBTDzRsbhAIBmEmpvedj493/A35ZzdAtvh0x6oFPq8P3TMH4PlZv8GukyuwaucSyKqCPp1HY8yAaUiIT+LgRSsoLseGK4WXsWbfJyioPgsoNgzMGYEpw2dhy+6v0L/vQKQkpuLE5VNIjE5Cl4R+cDlicNl7FEfO7cTWfWvhUxtFwb0QMVj+L6PNj2aHVXYjzdUOk0c+hNi4FGzbsw73jnoMp0v2YNlXb6PRSgXHIo//IAaBS59boCk2P4NA7LGVY3Fax0q3dBt1c84z1mKG/eyKcv/dxyCcIRfDIhR7zugxCOaCMoHOjETVMmK1yOiSMAwPT34eR85t4V25R/NB1gtDOlQJyZYcfPeBn6PSU4S3v/xPVDSUIM2ZionD70WfTrlIkFJ5t+CGDyW1V/DlzqU4XLadA9PaJXTGgnEv4ODhXciIa4feXYeiqK4Q9WoZ2iX2RJI9E5XyZRQ0nMDHX/4FHm+1ngKoAwQ97dIuxSAhLhOyz44eaf0xf8z9WLXvE2w+9gV8oNTBplG75oERaigabIs+kRgEALFIwfieC0wAgQI12wggFC2H20bFZQJuEPFm4SezEUtLX0QuBkm2Yda4ZzCg0xj89+IfocFyUfg3YQf5f1SPD9MGPYHx/e7C+l3vYdfJL9k49OowANOGzUd8VCfeMXotXtQppTh2YQfytn0GxdLABMyQ3pPQI3sITp85gT59cpGW2A1b9q3AwB4DkRXTHQ40otxbhw3HV2HnsdW68QhYdTtsmDB0LrJT2mPNps9QVnsJqlXmiP44nwvfmvoT5GR2Y4BwrvogpaOYeJfIsQPcs+TjVVUQYOoYOwj3jHiJGQQOACVawOQ6CtX7htoiA4SKMmw+vIYBgmah/qFXIoBAsSfEjTW/Ew0s3nqao6Yh3p6K7877L3jkBixa/ltUu4lBIDDjhN0ShR7thmHa+AfgbqzBm6v+i+fVkO5jcN/IJ3Cp4BJ27FuJeqUBsbHtMWvoAqg2N95e/TJK688iRorFI7P/GUnRneFTS3Gx+DiOnj+CK5UF6N1xCO4d+gTyz+5G3sE3Ue2rRKOX5oYuF22wRpxtSe/rY4PjRCIsHgfapeZgztSH4fX5sGzzKyhzX4KHIr0jrOTsStTBeMBdJEBCgEG4t00AAr1zRTUBOhGDwLUYOBAzABA4YJv/GSYGAU5MJICQew+WbnoLxy59BZ/i4fawSTFwOhIwffw9GNR+PFbv+QA7TqyDXXLgibn/ihhHMnYcXI+LJYdgg4K+OaMxtPc4rD/6BfIOfM7szsic6Xhg/DM4W3kWtb4inLpwEKcunkSsIxYT+j+EzNROWL39AxRUHEWlp4CDdgXL01xMEBV3I2YPiLfGYXTuTPTtOgIfbXgfHrUez077Jxy9shvLtr2FRgsBhNYcIoOBw7xkKzMIxCKlJqZCImbyDkBoPdXbmuZvq3MNFwMzCMf+hmLPaagUg8Dl60WAkNnYRAYIIk+bEO1jU36EI2fzsWrnO/BYankxpyNKisKATndh+uh7cal8Hz7a8Doa6rx4YNIz6JMzAbtOrMPeA+vg9rrRs+tQzBoxH4UVJ/He+t+j3lOJzPiu+N7cX6KmoQqa04fTl8/h4Ml81NaUo3+XkRjddwrW7PwQJ0r2o6L+PKx2Ss+idD0d6PBriB0hUd8erw/9s8fiqZn/iBX7P8KWo8shc2pa66aEYZjNJAMFt8UhFeN7NQUIrdUraM7F8AXcNgqCEws0HUYfsTulGZxg6FBwD6vEIDgwa9yzGNBpAl754N9QpxVAkzxMd5L/1GVLxd0TnkKvrJ74NO9VHL+yG3HRiXh67s9gUbxYsX4JquurINlcGDV6Krq174vPv1qEA2dWw2ppxJQBD2B87r2o9daiwl2A/UfzcfL8MSRHJ2HmqAcRG23B8k2f4FLjWdQoJTrXE5hD7JNV7Sx77PPVw2KlQDcvZNWCbGdPPD33J4ClAW8u/w1KPBd54QsY2rAEgglI0O5f4aDNTrGDcc/oH6JTRjCDYJaTDdLwIMOvqy36FBVl5QQQVmNv2SoGCBTo6AcIvJePpKRIsQo6QFCBJFs6vj/v5xwVv+vwBnjRwDS9zepEp07d0T6pN2xSLNbseQ9bjn4OLUrG2EFT0Su7H9Z+9RmuFJ2CxUopi7GY3vVhjB01Hn9e81ucLT2AeGsSvjX7Z+iQ1AWrt7+BfSfy0KDWoVGSkZPSF8/N/hG2HNqMDQcWQXEK/7fh3xbMiGBohEdEgk2Nx4IJC9G/3SjYJBc8XhXvrHgZZ8vWQHJZAasVpLQSKuMk0Gk0P4khEj8RI4EYLQskxYpR2fdgymACCFSO+/qUFAkglBNAOLgROy59Ap9dF0ryB0CZNwbBa4J5PbRqdkzqNxuz+z+Kw5fzcaXsOGSvyPpISkxBny65iLclobC2GO+vewMlDRcR63Thsbufx6nzJ7Dxq48gkztKtSPB1hHPLvg3XG44h4/X/gn1vioM6zoHj4z7Rxwr3Y9P1v8RVZ5SuC0y7HBh9qgn0S2rFz5Z8ypK687AZ6XAb7F2G9V4Q9kMdtqoNvTIGIzpYxbg0Ml8rN//OTIyOuK5af+CI5eIQXgDHopB8DOjoW2buUKpEEqiOUHdaMPYjPmYPHAuUpPS2NUmYs1u1+MbyiCsOfouAwSRxWCSbjVj6QgUO01W0iDomtQLC6f8MyprfThxeQ+gEQ0OOOx2pKakIydtIGrkUizf9jZOXsxHlCUe86cuhKbG4vONb6PGewmqXUOi1AEPjn0K7VJS8NrKX6GyoQTZCQIg1Cn1+Gzrn3Gy6CAaZA9sqoohXSdj9vBv4fMtb+Hgpa3QbF4j2dcPEATNK4pZ0998Pi8GZI/Ft6f9CCv2fYRNR7+AYgIITQ1B+GHdBFA1AxDIPx/RDxv0oOZcDMvQYK0JKCmaAEKk6ef/LmYQnJgz7jsYljMFO/JXo95XzQyB1aIhIT4d7TN7Iz0+Hccu78DyvL+hTitDZkYOZo36Bxw5uRt7Dn0JTfVCkyW0S8vF0/P/N9YdWIZNx96DpNZgcr/HMGPAozh6cR9WbX0LNXIhGlUgzhmL+6c8D0eUA++teBlVWglUiePk9XgRk6HXK+qRrgYx25TWlRqfhQlD70OvdgOwZu9i7D66jiP7NQrC04+IngFThIcZINw76ofomJklDJBCBl2knnGKn84AGSJTdB3VgafDcDFs4VoMBBBqODedYzqYphYBZs2r8ukLu1/5CkiypuH7c/8NKa5sNCikU0FBhiIGgAL+imqv4ODJnTh0egtq1WKoFh8cUgwsihNeTwMcVhvsmgOJMamY1ucB9OrdC6+v+i3OlQmA8OisnyE2KhnvrPoPlDWchFdrBJHj3ZL74bm7/hWb9q/DpsPvw0cBKxwjZJhtlb+NgDDv+MkFoMVi1qj7kB2fg2h7EpIS0nHk4j5s3PcmyutKoEiS/v5hWC6VDKvgGQLLMY0JiQ3ajQEIAR0ECxXoUvWIJYOi191D5nkllkMBkGwWKyb1m4U5/Z9DnWaBR22ETIyKRYZk8cEj16Cw4gK27F+Hi2VnoVrdsCpeTl3VCJhSRgqlhWsxyE7KxUMzvodTVUewdM3LqJFLMLTbXXh4zA+xet9ibD30DrwU32AlwGTHvHHfQef0Hvj4SwIIp+C11kHjQEebruB5dVvTT0g/IdaWhvunP4u62hp8uvFduJ11yIjvwgDh8IVdfoDAmUdhNh1Ni48xQKDJZwIIKUlpuovhDkCItD5/LX4fYBD2YfXRd1HiOQvZKusiRlczCJFeWtCMNnRJzsUTU34ETYpBja8cMaoCig4XO1egrPoKtp9egwMXd8Gr+OCEAwnRsZB9VvZdk99alaLRMaEn5o94ELGuKPxp5a9R1VCAzMQcDtg6VXIIH218HVVKKXyaypoLQ7tMxqzhC/H5ljdw6NJmqHZKEdIVmfRgQ132RITvaBJkWcaA7HF+gLDxyDIBEPTtol8RTWzPIzSBvrgLFMIgJJ4ZhPswtg+lOVIWu/hdxOC5FgCEzYXL4A4CCJFTUa/6AJXSHKMwb9wzGNt1Jmo8F8Xug1LKYAftjMoba3G25CD2HVrLbI5m98DpTITNlYSaOjcUnw8xtJex29GjU1/MHbkQeflrkHdsKaDWY1Lfb2FC/7lYu2MJ9p9eAw+ZH82GeGc8Hpj8ImwuOxat/H+oUUqhSU6hdWAYeKPJyS/PBsiGOC0evbr2x6A+YxAXlYaDp7dhQ/5nnDJLUeAUQR+8kAf6zS+6ZDrBMEIUIU5Rhp1jBmHByB+iQ1YWL4qU8SKq+wkFAA5a9LMGFP0v7s+qixpQzsWayMWwAqqlWjAIHKSoR4KH8QsbrJ3BINCpifY0/OO8X3HQ6IotH6HWWyoCBCnfHkBJfQnrH3AMhMULVZW5T7NTuiGnfR90SumMWHssXI5opLgyYI+y4c+rf4vTJXsRa43Hwlk/hupz4L2836NOKYJikSlSAF0T++F7s/8FG/etxcbDf4PPRrS1XZ8GuqgY6yBIkChTgtgRTePgUdrZxkgJGNV3KobkTsDG/MXYlP8FZHJdEcMTBh8I94JOjfOSIdwLAYCwAFMG39NGLgYZ5dWUxZCHbRc+hM9eJ1xUTdL+g4W8/KPTT09ZLXZMJAah31PYcGglThUcYMEor6bwuGxwV6C2roqSPKHZJCiqFzbFg4zY9uiYlYsOmT2Q6EgFudPSE7OQFNce+0q3MECok8swottsPDD6OSxe/yoOXVwOzS7BK0mwKFbcN/45dEzricVr/oTS+pPwWesZIIi4K/OmxTQPSDUULkwddS9y243Elxs+wcnSfDTaJHRI7oKnJv8Axy/vxYptb8ONGng1WWQyNHsEfsdrrC60FgQQElNhlcjFcAcgRLKlX4vf+wHC6X1YdfQtlHpFkCJNUN6D8SQ2z+Rwvm3DOFnRPWUonpjyA5wpOIS8w59AotxHHWwTPUl0dH1DBQcv0iCmnPpoawKy03uhY/veSEnN4lzkRFcKOse2Q319MV5Z+StUNFxGVlIOnr/r1zhWsBMfbXoN9ZZ6ARAUCcO6TNEBwl9w6NJWBgh8BD6G/ykKiZCIh6CV+2eNxVPT/lkwCAQQyHdOMQi6StzV1qq57hM6+gb1SH8mWFIxjgBC77mIc+nlntkXHdk3HnhKaAZhU8HnaLQRgyD6yYhrC367ppNanGXsfugdnYoD94x9BkO7TMUbX/4ebu1SIM1QA+rc9WhsrIXic7NgCgWRSXAhOrYDumX1Q+/2uXC6NCCKWIF2SLe3x5d7PsH64x9AUxswte8jGNtvJj7Z+GccLdwKmSKnNSvinAl4aNKLsOoAoVYpBSSHziAYJXYNpGCHpljQJasPpg+8Bx1TeuBw2SHsyt+MK4X58KCUhXssVhcv8PpXikyAiLNNT54lTlTV0Dl2EBYMewnZmZl8LfeVIoJszexBUyZByDKTDoIBEJZDtVSyvTGCFMV6HdwnTWsYBGUPqRriHan40bzfoUF24/VPf4mqRgoiVbjf6T8yuoTqLbCzNC7tsvvnTMDk4ffD7amBp64YJRUFKCupRs/0/ujbOxd/WfM7ARCkeDx21/+Cr9GC9zf+AfVqpSj6BQ05Sbn4zqwfY+O+Ndh0cBF8dhkWq13P6lDEPJIsDDLio1NR21CGugYSarJA1myw+izoGtcT3733Fzh6eQ8Wb/4dPBqNofAGQjSPyeCY1iGb5sSozPvbJIuB1jlaj8opzfHgemw7TwChnvYNQeWexfBpnvWhuURVCyf2n4vp/R7Dki1/xN4zG2CTWJcVGvlseWNAriMJCpWTViSkuTrgntFPICejB65Q9kFdCYquHEd1Yy3uHvs9nKo5gqVrfwe3rxyju92FB8cIgHDg7HKoURJkidgtCx4a/yI6pvXAe2v+iLL60/BR+qQ+6sXYN7kf9dgqWqditEQ8c/9Pkepoh/LyIsgaQXcLJHscOiZ0R623HKXuszhwYTV2H97MrFIILbKrZpeAjvT/BLQMF8PdHFgpAMKdIMWIS9LX4YRAmuM+rDryFsq8Z+GzKUIZTY+ypgHdqkOT0D11FJ6c8gL2n9mIT3e+QbIeQZtvWlj8A1fTEGVNwMSRj2Bw9+HwehtRWl2I81corqABQ7tPQUpCKl5d9UtU155HdnIXvHjXf+LApS34ePPrcFsbeFF2qjYGCDOHP47Pt/xZBwi0vxKywcbh18Tj1EDhO+6XMRbfnhEMEIwthH/x5s1fBAZB32UGAQSJGIT7TQBBGOe2AQifwW2jIMxAtkVL4kR4+dW/hf6MUu24b8zT6JszHr9a/GM0aGcha+Aoa6LObVYr7HY7SHVRVRTYFQnZKRSA9gLSYrM4o+Rc2SmcvngYcZZozBnxEDYdXId1x5dAU90MEEb3nYrFFL9QugMK7Fy2N86ZhEcIIETb8O7y36BWLYMkOdjbTNHxYqcuKlRSoNeArpMxY+j9nIq4dueHOHRhL+qUGmiUCkauBSpwJNkhkQHyS9Ya2hnhRrHYZdG3Unt0ihmIB4Z+HxmZmcI0KAqDSQIIrJSmxwcYf/ISrK+cVwOE8iCAwCMoImIxJHhJ0FRDnCMF/zL/ZdQoVXjls1+g0lugC+hogunS6V+hH2FBgiMZD894HnYkYtna11BSewGqXYbitWFm7sOYOGQq3vryf3CqZBeiEIvH5/wTfB4Fizb+AQ1KLX8zLfFdkvriO7P/D/L2rsamQ4vgs/lgYQVLUj8lRUTKEJLQr9Morl2xbtdy5B/bDNXRwMyGVbWgi7M7vn/vb3D8yn68u+WX8MLDsSRNQVFQ7zQpYmWW0CaAMCbroTbRQRAAQUV5XSW2HlyHrec+gM9OYltijnLRLO4vc9C2+JF5ntHf6b0mDZiHaf0fxftbfoddZ/Jgk3RtWGNs8FpELhYLrLILEwY8immDZmD97qXYcoDYJh8kVYHDloLn7/89LroP48M1v4fXV4tx3efg4bHfw+K8V7Dv3EpoDlKytHJfPDLu++iY3gXvrvkvVNQXwseqpMZGxbRm6Z/DrKhmgUONw5xpDyLJlckAhxZSAsJOewI6JfVDrbsQBQ2ncejceuw++hV8hjYHAZNwgdbEHujMD0ktixgEAghpsFIK6R2AEImKbpXJvWEnBwDCXqw8HBog+NNb9KIw4SY2TxpNQs/0MXhy8vPYe3ojPt3xBjSS6TQdFMdsODAoQjw7qRuemfNznC88ii82/w017iJIUhUkKRYzhj+FnjlD8crKX6O65gzaJXXFS3N/i/yLm/HRltdZFISyAqJUG4Z3mcoA4TMdICg2nx/7+x9vlI81A4TMsfiHGf/iZxCaC1KMBBAEBR0ImiLjliCl3TCAsOHKJ+xi4Anv32VFHntmcEDtEq05GCDkdhmPXy/5MRrU87zAB9LRDLZDgEebz4W7Jy5E3w4TsHrLUhwr2YUauQ5DVOEpAAAgAElEQVSaV0UHVyc8t+DH2HJkI9YeX+pnEEbmTsYH61/FsdIdsEhOWBQJ8TpAsMc48May/0C9Ws75+1ZeUAkg6NKlqoTOmX1x78QnIddbsGrrhzhTtgey5ONsC399AKqayAGBog9Y154sdpM8x6vHsFgw+XuhoVP0QNw35EVkpKez8WVQoJGboPmAOAOksdSy38VADAIBBDIwRppj5JqAggvSMzE0FXGOVPzrPa+gRqnEnz7/BUeps7QY31cU6DHkj8kkZcRl4duz/wkXLxfi01X/DTnKAy/lsfui8djY72JIz9F4a+X/4HTpXliVaDx5z3MMEN7d8AfUK3X6VFHRLbk/vnPXv2Ht7lXYdOB9yHYvLFYW+2V3gkLSyZoVXVIG4eGpP8SFoqP47Mu3KSdFsMjeKAzoMBpPznwOeUc/x7K9fxa6GByoFvoIQbDowlcC6NnUKIxr/wgmDb77uoWSBEDQUF5fia0H1jYBCGLHr8OB0BkMRj4zADuiMGngfEzv/yje2/xb7DybBzsBBMZv4j7kumOlEAv5/xMwb9wPkNupJz5Y8VucKtkN0ObMa0OX9GF4YtaPcaJiDz5c/Sc0ylUY33M2Hhn3HN7f8DL2nlsFzUb3sTKIJ4DQOaMH3lz5X6hqKISP5oXBwgQFW4tVl9+GNzMO2K1OcIqZrhUjKRo6JHfGwtk/xLmLB/DZ5rdRZ62E15DHNjYjTVieoN7U60TQWCSAMC5zHiYPnHcHIIiBYI5yvGG2vU1u3BQglBKDoFdzNBiE1pZ7JvGWHmmj8cSU57H3TB4DBOEpNdA4jU0dMOi78q5p/fDMrJ9j7a6lWLv/Q9aOd1oVJLqy8a1ZP0S8Kwt/WvFLlFSfRlZKN7x09++x/9ImfLL5NRY1IoDADELXqZg94kks2/wXHLy0BZqVaj2An24+jOcbKLhf5lg8PeNfsXzfUmw8vAwypzkayVimRSKM7RV7UH2h1icP4SXKUecYBHIxcC0GoQhx3QzCntUggNBgNRgE3uqEETMJtIB4vcDHELhaMO4Z9MuZgN8QQCDJbb34iyhCRqcz2c7uBbuSgAemPo8OSb3x5rJfoMBzgEVinb5UDOowAY/O+A7W5y/Dl8c/gKy4Mb3fIxjZZxI+yHsNx8t2wGJx8BYjzpGEb03+PlwxUfjrpz9neptdDLQ7seiKcaoGp+TA3aOeQG7HEfhk/Uc4eG4XrE4PB8gZC7jweZKflFWJxA6PQUJ4ZUdzpo4RW9ApeoAACBkZgi0ggOD35zZj2PwMgoayKvJpr8busuXQLOVNdBBEbEr4IyASRedRoSYCCNVqJV757OeoIoDAqYYiG0IABOMaCQnOJDw47TkkOzti01cforKmGD6bEz27DcPInFGIdsbi863vYN/ZDbCpLiyc/z14PTIW5f0PGpiRIaEqBZ0Tc/HdOT/FvrO7sCF/MWo8FfAqoq4DyzjzMLIhFgm4e/yT6NdxCPYf2YxTF47CpwLJiR0xdvBkRDtULPryDzhTdlDPyw8fg9CUswxsL1TYVCfGdXgUk9sMIKgoq63EV4d0BsFGLga9FHcEgGD0IcddWJyYNGg+pvdbiEVb/hO7z2yEndQOTTsTlm4nBoFdElEY3fdezBl8Pw6c3I5th9fBYpeRFh+P0f3noMf/H6h4vPwkPs37C67UnMbInjPw6Ljn8W7eH5B/fjVnpRDQkFUVD457AV2zh+HTLR+gsOI4ajxXGECGD4YVmjBCZ9w0HjWNM1qevusnOHdxP5Zseg0NlMVgClBsun40HcsiBoH1JVkQbXwWMQh3AMJtW4vh8Om9WHHoTRBA4CBFZtXEoGmJBzcwQCxc24BcDI9Oe4b9cF9sfwcqSGM/wKsaBeXEIg50SuqDZ2b+AldKT2HN7k+hKA1IiY9H7679MKDzKPhkDYvW/wWnCo8iNS0L37vrZ8i/shWfb3wTHksd04Q2RcLQ7hOwYMT3sGnvFzhSsANlNRdYvIc8csEAQReCYpezitzscXh6+v/Gyv0fYOOhz3UdBJH7HsQGN6E+m04M3kUKB6aYcxSDYDAIfeYgPipaXyDbBiDkMYNQ5Y8uDkvbml62qRvCqUqYN/5p9O88Gb9b8lPUySdFmpI/ToJaQVTIJGEZ2nXOGvsohnSZjrU7P8L54gOwKHZkpfbC6EHT0T2hK7Yf/xJrjyxGUe0lzBr0CEb2noj3817H8dKdsBIVrmqItSXiwUnPIz2pIz5e/wbn5dc2VukqnooocqOqiImKxndm/jvaJ/bBvvN7Ueetgo2VN4XmIhksr+rBzqMbUFRDGg66Cj0bdlPAW7NWWSzjQQBh8AtIz8jwXxHIrAgPEGjBrqis4DTH3aUCIIisS7FrbhkwDLgYqM1djngsnP4SarzV+GzDItR5KgRY46Ax4fIQ1UnFTlCSJQzpPQXThixAjMOBWncNZMmO0rJqFF88iaEDR8FtrUPe7o9x7vRhTJ+4AJ5GH77c9QkaFZJTFjM/LaYLHpz+ApITUnCh9iDyti3HlcITuoKikEBmNU1ZQ3Z8N8wY+Qi6ZeRAspIwkwSf5kNpzSXsPrwOB0/tYPcC26Ng/HNVgwqwbUC/AP9D3AUBhAkdHsOkwXPbhEEgSeDyWnIxrMVX5z7g4mdCXKupwFbzac80n2hjNLT3GAzvNR1r93yIoxcPcF0T8al6jIseNELLiKRakGDPwH0TnkG3rD6oV2thkWR4vdW4eL4UCc5odMnpg/xLG7Hmq2XokN4DM4bNw4ptS3GqYA8VURGVPTUFEwfMw6j+81AHH46c+wqbtn0CRW3kfoqgpSjWDn/dCeE6SUvMxt1jH8OlglPYuH8FvBaq5RHolKYM5NUAQch6U6tY4MSEOwDh9i7WZACEEu9pyBJJuJoAgpHeEiGFjn12JJSsWkXhlgn34PD5nVi/exlXAQwqe8QUsO7H04AYazrGD3gQo/qOFmlTJOOrqThwYj8a6uswdehUnK47j+UbvoBPqcb9Mx/DySuHse4rYcxpklDdgG4ZuXhq6j8jxhGN87VH8O6KP6DOW84MQqg9m8EgdEkfjAcmv4DNBz7FzhNr4YOHqWWuO2iOytGj15uzM2IfZ3YxBAOEhKhoXQ+iteWkQwQp7lmNvCsfw60zCBG2pMEAybRjoIXYZXVi0oh7kJM9FO9+8hc0qKeYcQwsiTQijMAyGapXQvvUHMwf913kJPeAR6MywxYOottzcBcGdOmLjOQEbDmxBsu2LcHY3MkY0msEVu3+DEcL9rFaIcnQOrVozByyEBNz56PWUoV1+5dgZ/4a3h2T4JaIP1AR7XDhkZn/iMzorrzkkCw3tTP93TinXvZgSd5ruFBxGCqPIdFm1wYQ+uO+wS8iPT1d7389xbEF8TjkpigPARAMF0OLAEKT4Fj6lCibA4pM2QVGlRTdL85BZwaQ1QGCStHtdnRs1x1x8elQlCg0uhtQXHgZXu9ldGrXGzFxmbhcdBJl5cfgcDp5vHOEPe8URdyH6nMiMzUHycnZ8CqNuFJ4El65XH+DQEklMnZ21YkYSzJSEjOQkpzGAYwN3jIUV5xGTUMtZKofwEaGgvbClhG6Ku4+MHdV9vVP6LCwTQFCWU2FDhAWw8uFiURQajBMCQ8QyMg67U5mrGQV8GpU8uzqYFQRtyI2EXbNCqsWhw6ZXVmGmJ5XUHAZlRWViIuLQ4eOHeF216Cg8AIHCTudVlitVrh9DTw/BEDQEO2IRvvsXrDZE1FRVYSC0tMMroVcfHNCSWJJuAqM6bXEohxOlrD3qfQcoYTb3NF0w8Ezj90MtB4aAGH+HRfD7exiIAaBdRD0LAbBIOiFdfQgrLABcBzYSD4nK+ySHS5nNEfFun11IuLaZG4omEwYZxpJpOZlg90ah7TkbMTHJkHWZNTW1aKsspSjtNtlU9EcCUXFV9DYWA6XMw0+tQFuX5UYvJz+JnFBn47J/RAbE4d6lONcwQEGGyz5qY9uf2CZ4M2ZPrZrcYi1p8GrlqMeNaJwlIXq3pmq6jUJPg/VFrxQm7IYaPJSFsPEPg9ifO5cxDldbQoQ1l/+KAggmJe0lgAG9tPTt6oWREfFQlU0eH1eSHZRSzOg1cC8vX9B4WI+mhNJUVnomNEJdqsDsqLgSuklLnyTHJuFlNQkVPgKcLHwAmI1CQmuaNQobrgtpLbng8+iwC7bkGrvgvYZnWGx+VBUdR7ltVSIiJZPrlghyi0ronaGRaNMBsOnK86i9/R6PbDa7Wjw1olULNZBELtrUT8j3CIZWCJFuqLGxZoeGPoS0tLSOAhPLKQBMxyubc0Mwq6SL6BZKq6KQYjkYAh1f3bxBE1JAyCIgmTGLpBhE+mR0LdQ+XUe+xJ8MsXjUDEmqmBqgyyL6nxcbl2XQWdBMQr0tNh4zlD/695zUdmTKtYSMJOMIENqV90Vx81NcSNC4IhbyyhDyJ4vXXmEm/t6AEIUMwjsYoi/vnLPtMYRg9A8QDB6ovlCbU3XAY5TacaYhmL4aP2hexDoZeVjRY/xIH0SSYKVxr8OlBVF5oBhkisWZc9FjRm6XqHraOhTiq/uwtVncdiloOk78XhXRBqv6D9h7FtziFkppJaZQSBhq4F3AMJt7WJYfvANP0CgQccxCLw66AukoewWaaRwnKIAFlTTQWQ4kqENIHDyw/lTxKiemEGPUnqakYLo3ynRkkegXnCTklYPTY2DRsDASsruQsGNc7GpAiFRuZxKRCIlHr0yZfNpVTzByZlH72ShSur0riIVh0nbQCBz2OBzw9gaDILwMIhaDJNzH8LE/vMRY3deM0AQ0k4SLwQ1dSXYsXc11l8SAOH6Dj2vgw0F9ZEomy0WH3OylM4L6wsSrRm0SHFCIYM9i79kLJW+hVQD2VoFVY1hDQxSAaBmpkJKHN9gAWtXRMlx7CJQrBQ/QKqX1HKi3LN5jIio7MB4NOCB8acwkoQNJFiZyqVzWwIQAvc01BA7uQbg/mEvId0ACBZ6I/H9hkEwL6xmI3FjAIIYhMzSBcU5iZoIBjBlIMOVTXWGnGM5xBim4j0EXikAlPATGRsxuIWjRox3MurCgPNoYLEgsQ9moKVLilAf+ethmRhGCj4mEGHwdVyZkP5ngHEd0kWWWg7tYqD+JN89A4Qh85B0kwCCGIeR3lrfkbckD1CfsLSkicgeYxQHnJoECqj9jH0+4y9V/IxLQhvVZXQBJ67wqLubDHcWXxPkI428UhiVJQm4GEAvXD2HkGBWBwikHUYxCJPa34cpgwgg3ElzvG2DFAkgFDWe4mqOJL8ryoAKv6axGIZlEPTzaBFSJKde6c8HG2jnInZzOlTwy6zS/dhLTOVjmZYygq1EwJlxDROnOgiwUDyDFs3GhErPio0VFWCi/4QcKwcBEmtBi6NONTcdyOYUNdpp8TtYSFKU3sSu7xzFxBU7yMjVTpsyCHQlVXOc0vdhTBp4L6KJJtalaQN3bsGk9Ws/CoBQXVeCbXtXYdOFj1Fvqw7asQR9lyn9LtxTeA9psXM9eDLfFlaAE98r1hdBXfuXbVHlVxgTv6qg2PWzmI3igiY1iDLfcMKqEfVK1LLM/cLVHi0WTlek4l2Uu68QOJCoz4TwjrGw8RgxMUDmmBhzAqNuQhkcGLv+YBYh3C7IiEEQOgiU5njf8JeQkSpcDPSdAqYahjrY9RQOIIgsBrpSlDJvmYuhSewL94E5dM8YPQHQbfAgIgZGHOzG46JK9FzqV+NbaLz7Z6O/f/lbeXcgYiU4qcP/3WI9EP8ZIEBkdhg7TYZkTQypkDfSQ7f1rIFIRsu8YeXX1GMi6C6UxTCho2AQkhKur5qjP4uBdRC+xJYzpBYpYhAovTRwRCr1HjizpXFATefjVYqfBh1oeg1jV8+gK0Bu6jFPAWEpY6wYkD/c3L+KQTBYUP+6R2tpa1YrwevxnKY2VByY3OF+TB1sBCne0UFoxuMd2RDc7DPMWQwEEArdJ0W5Z5JO5UFh9lC15O2M7bbYsQvBJWMRC4x0ocMuXAwB89v078GDUuxUaWoQ4HDoC5+4N5cW9hsxfXH01x8LbRiCDanxneRrMy+KgWtbBMT5PcTO27gyVk3G1H4BgGAsji0yFHqTcywEt5cEWdVQUVeMDfkrseMs6SBUtSAqPnzfBfogQM3712X/pQZIED9g9tHQ4DcLL9FuW7UzeBOCVAK8iTsLOltkHIhlzKbadJAnlAG5J3UKWtgwoy2NHgj0RFOA4D/Dv4sTwDQ8sDW+VKQz+gHCiB8gK02PQdCDAP3vFkoPg0tYq5A1C8r0GARyMagoE4JGxKGYM+ciTKfQhsb4wmbGtNmW6vcPGGMxnzn1088aNM3w0OelUQI7YJ1Nbyv2vIHZaq54aoCO4I8zIAt7PWgURBAJayrYJ75B9LZdc7UZQOC78nyqwuaDq7H5FIlBURaDkI8OVk5tPgahJStjpHMiAYvgMUwg2nzH0OMhEhBr7p2awtPIWTfBdzKEkii7DLIdkzs+gKmDSQchHVbJYYrtiNQqX8ffm+3SN6SaIwUpfnHgr4JBsIpcd0FpU2Po01usHWGPprvXZgdgC9wVoR4lBm4IaB1kxIx/RHjZkC9nXNMiOBDyDiIGIfCrOAIIAx7BpP73ItpJzErrhZIYIPDCTkFDGkrripF3YDn2nlqGBlulrgUgnsl0qOnNDKno651q/g2ncSPdzxy8cJnbL3z7B+Cnsfc3QUXdwIc27MF9Y36K/zdB79aScSB2wQwQuFgTSS3/ANlpIs2RDsoSiAQQJE2BjwFCJWcxEEBQNBFHw0aZ/Pr+MurN98j19ll4GGEAosA8aTrag1ss1FxoSZsGvs98h0jgQLR1cNuI0tcClBBAmNiJGIR5180giAljQUVtJTYdXIVNJ//WDEAI3qxc71yKdH0ksBDp+lv9e4NBELUY7DqDMBcpSRmwUopzWGftrX77SM//hgKEZfl/QbH7FGRdSZEYhMBuOlKj3fk9L7s8doIXVHIxzBj4GMb3nYeYqKhrBgikDUBgjQBCST0xCMux98TnaLBXQdHV9IJ3PG3bJ60zCW377Bt5N9FbBOpERgTXYiCAMOqHbQ4Q+BktAAjXDk9vZEu1zb1bMo7MAEEsx0Z5dIpBcGFSp4UstXy9LgYxZyUBEA6tQt7xdyA76gMqhH6kr9fQuEmG7Xbvf4NBYICg2TG5PbkY7gCE2zpIcdn+PzODIFtJ/cssLWr2fbbNIvF3exe/qyMwxWOURMwa8jjG9r4bsQQQdBnXluykjHYiBiEAEIDS+iLk5S/HnhOfo95aCZUiQXVf+Y1q21Cs+o161s28r/B2iTHOjAUxCDEDBYOQnnltDEJVFTYfWoVdxV9A1kpMOghGPvzN/MLb71lNAQJFxIsgYIpBcGJS58cxZcj8NgIIFpTXVGHToZXIO/42ZDulEPqjPP2xGi3IcG2Thm4pOGgt7d8mLxfmJszumlx7lB1CmaKkpDi544OYNpjKPWewUuodBiESF3+je6uF9zfHIHxOAMEfg0BB7E19vy286Tf4NNZub7JFipETMXvokxjTZw6nOYqAnxYGq+ltaQYI5OMuIYCwb5kACLZKKJwq0tQX/A3uiFZ/ukgTZElllQCC7mJIz/CXCQ/nYiDjRWG2FPtPCoLlVWRwVmN7wadQpXL+uZAXNiX7ttQStPpbbq8Lgg2LePdggCAiV0Q6H1WFjcLkGwQQ1h97iwGCEYPA2NGPjG9sDIK/13RJ+/ApUxG9vbdkEJhDf2idoyBFTbFjamcCCHffAQi3sw4CAYTChpNQ7XqQokixDUJ7PFlawhHekuH5NXion0EIvIsfIPQmJcVr00EIBRDW7yWA8Bm7GGRr6/QuvwYt9TV6BQEOmEGgwDRVRUdmEH6IdhmZnDYpjJaIQWj2oLQ0PQahvLqaGYStlz6CJpHqITFyInMglDc7lM/5dvdDN9tO3ITh0VHoGASRakguhik5N4BBOLgC68wAQREKleJoeRZDWwzsv4e+FwCBxLYkTO/yCKYNvRupiXcYhNs2zZEBQv1xKHZBZxuR5ObJzLmxd44wLSAU98QSKBaXGCUJMwcvxLi+dyP+GoWSzACBdC6JQVi35zPBIHAMgpGCdiM75+8UHOqV7dgM6C4GAyC0J4CglyZuDiD4dRHYDSSCFAkgbDywApvOfwirg3QqKJk3kMUQDmMbxuHvwUhc62g0QzEzoCKAQEGKU7s+1SY6CDxPqb/IxUAA4ehb8NpI2E24GESKqwiMFoJbd46WtABzz1SGXCGAYMHMbo9i+rD5SE5Ig4Q7LobI4f4taeWbcE6Qi2HfayhgBkHT0xz1jZUp6C5yuthNeOmv+SOMErECIFhYB2HagEcxYcB8xDuirkkoKQggWCSU1BZh3d7PsPv4Z6i3GQDha94wX9vXC5gjUh8ULoaBWDDqH2EABD6jCYPQdC6wXqGmiDRHAgj5BBCWwOqsaRVAMJrpDkAw9u5m0pJqMURhZs9nMHHQnOuuxSBAoQUV1ZXM+Kw/+hYapVojJEWIgDHOvwMQWjt9KayHk4J8FszqvtAPECyacLXdvkdrsxgsgMvpZInR29nFsGzvayisOwHZQfncQrGN10TTducOQIg8rI2oeKKUaTIkqGmYOuAhTBg4l5UUjRiE1iROMUDgRcrKe9HS2mKs3/MFdh77CG5bDRQ7BQTRDofOFOp6dJDgkChn9HXd/ZjTIo22DfWzyO1+fWfoz+QaBio6xxFAIBdDNheFCnVcPRdINZT6wYLqujp8dXgNNp9dAp+llGVnDbVCepJQ69Tvyo8OkWh4O6+h19MZupsu0DwiNZRLQ1HVVkRjzoDnMLrfTMS64sKW4G7Ra2gWVNVUY8uBNVh/ZBEaLFUs2CWqZerVWblyZSglxQhupxa9wI05yUgjDnf3tjrHLGin68AJrRMiHb0SZvZ6HDNG3IeE2JSrsrxuzNffyLteA0CIcjiYgrqdAAIHVkkSvD4fjp4/iBU7/4qCmsPwOt1Q1GhY2PcqB+oZNtUN4VKzTQspN0EUIfvp63iO2CU0fwSt5s2eFtCOoPMdTIcmKh0we/hDGJ47HjRODPGp1oRysJkXGrhc2rq8uhwb96zF9mPvoMFaC9muQObKbbrQke7nIFpcIpXIMIJXLfmytjqHQYshsxMmLSLgpg5tJUVLCDng5g7zlc2fZdQiINlhFRbFCadiQ6/0EZg9+Flkp2Vy5UkxOkj90Ry0dvWTCSDQotjQ6MbhM4ew6dAKlMn58MGtqw9aoJDegl7/IHCH4O80KhWEi1Rvqz5pSTvdzHOE1BgFQInYD2ovxaLAYXHDpiYgzdkTc0YuRG7OEC5SdD04iq9VLWhocCP/xE6s3LEIVUoxVHudLtUugJxQV6XyyYabzVjD9OwXHeOFK1lg4MCbcY6xmkVqm7YDCALACbJFbyNK+1CjEY1EzBu+EEN7T0N0FAE6I2X1RhrxG3nvVgMEC6Ic5F805Fdbsze8kR8S/t4GQKCd58XSy8jb+zEOn89Dg60QPq5LIIwN02x86AJA/lEXqQjOrfu2W/dkPQOYFjctCg41Dr2SR+Cu4fejc3ZX2O16jYerdFXDv7FZI5/6rba+BkfO7sOqHW+jwnMZHnsdfFJjQDBJBwVc+ZDLDAuZ31BHS+FaJAilr5ERY1iN54kdeGgGQQj+Rgq8FEVxwpf9CX+OeDrJP1O1UQU2JYHLcw/tMgnj+sxHamwqF4sSb0q1JIQKYLOgRP8mKoxUXFaCrQc243jxV6iTywBLvV6il6Smydiofm39QHqYfmd+hF5W79YN5lv0ZJo7JJkupK1Zil2iCisSYizZGNBxIiYOmYX0xCw4rdZATYhreFte21QJsk9BQel5bNy7HMcu74MbBfBZ3TrTo0GTCIpSJU1Zr49gpH7rQMaooxVhj+E3yM2dF6jH1fx+pSXnXENbXM8lArALhicwr51woCN6ZffHzOELkJ3SFTabnefZ7R3pfg0AwWmnRfj2BAj0uVX1Ndh3fA++yl+GUu8ReKVangyiGFugih3567gAC1V7CVooI2HV6xl+X/9reb5TADzVEKCCSipVw3Eh3pmO0d0nY3y/yUhJIGOjl1hpJUBg46sHTNGfjR43CsvPY8OelTh6bi9qUQKfrQ6qVa+fwQABsHINAaGK+XU4/H51o3iPMYYM5UMjUFD/edu9dfN7JV7qiU3TrHCqqciO74HhPSdgQNfhiHPGMawi5sCojBfeBgjFSzq3vqEOpy6exuFz+bhcchYNnjKo8IgyvUKpHoqiwkElgrl4mZmuNsDB9buGRBrh16H3W/IOehuQn5pqPOhFva2SDTGuJLRLzsGQXmPRvWMvRDlcXOmQdqTXeggQQpUvgfqGWpy7eAQHT+zBxeITcKt1XOCKNlBCNtyDRm89XK5oEgiHxnTS7e5Pv9aWC74uABDEUCNm2uGMRWZKbwzuMRR9cgYiOipe2BNdbr1tnnwr7vJNAwiahkavFyUV5Th4fAfyz2xFed0lyGjgyopc/c1K5WIVLgXrZ0r8RWGMIja3zSp0Q0YVF7XiKoZOaKoNdls8encbiIHd+6NLVg7iXHE62KLaBK1vKzKuNPF4zyvLqGmoxvnC09h3ZA+OnTsIj6UWsMlc5IrrUJI/3OcTIOE6FtG2bCyjUiADBb0qpAF+jOcYFRV5Dx1OnUmUNgz/ei04h+JERInyaKQn5qB/16Ho0bkP0hPT4eQdD7FpgjngQlthDlEmTJTQpqqG9Y1ulJSVoKisGOXlJfDIVC2U2AMFbm8jLl8uQOdOXUAGUCNQ6S/IZNQ6uHbjJ3DB7aiNQX1KAMHKZaVtkgVOmwUdsttx2mlSXBKiXTGwUGzIdasXUVEwUU1W9srQPI0oLy/FhUvnUV5Tya4iLrVs8UFW63H2/Gl0zekCi0QuZVoLDaajLWfJ7XcvBggEsslWWCREuaIQn5iA9tnt0UsomLoAACAASURBVC4tE9EOFyw2h3+6Xj/svZVt9I0CCMJtQIuyT5FRVVuFC4XnUVh6GVW1ldAUMjaCXi0vK6dy70jPSNcZIgMY3AEINFxpcpDhowXN4XAiKSkLHbM7ITEhDjHR0XDYaLchjmsBCPwMLoctjI9X9qHB40Z5RTlOX7qAK4UXAc0DySqDQhm9sgelJSVITshGlIN2wrdeEdOfNqbbdaGrEWzoGSCQwAotzM0W9dGTSFuCs8JkZ7K7g4pL2STEx8ejU7suyErNRGx0DOySTaevhVOEAYKhDOJPf/P3KG+dqFiTKINMO9uAspzXJ8PnszBjQFQ1lbeuqK3A5m1bMXXiDNjY4BCLIK4NqCUElexr1apouKUClS1bdfktPJm+nwwvAQSJS1PbrRqiHBY47FSq2sLgQEAxIU91rYeo+qoDMxVwsKKyBq/shbuxgeOzJKsFkk2DR6nHqpXLMGPqXVwOXkT8mCuHXutb3P7X+au+6i4GSg2OiY2Fw26HnYEcjXvRX0FiYbflp39DAIK5b4TfSAUtZG6fF17FB1X2cYEUESil4eTJk5BlFT179hSKc0aZ1+uYoLfl+Gjmpf0omoyDJMHucCDaFcvtRAyMNSga/tp2hgZFL+rTayxlSjSoV5bh9bqheNywKmTIrKiRK7F91xqMGDgF8dFp/nz+5tr8ZqfViW8gP7z4Fi6UpJcDNv881PsaQIMBE9vU0EbCaCe+d3NuFjL2NuovG4M4h9UJBzEHev67oDoCJlswOYJUNVxw/Hf6Gc0LdjUynNPPE3r/7IIU8JD/XlZdgDVbVmPuzAfhsEXpz9AYhIu6EGKMNAVVLZ0zNO4YtEriz9vr0N9XrxhKETSkwcKVYVlFSez828J3QrFWbLg0wE7lsPVx4s/8Yc5cRb2nAkuWvovHHnoWVosdXoUUSdrkFW6vrgn1tjqO5bnB4Fmi3YzOpgkXp2ANSEH26+LwvNZm/wYCBGoqY0HiGgF6mhzlOxLFZrPZcODAAfh8KgYPHmTa9N1uC0/zg8KQX7/WYcPriL6oqyQhxofY8QswZd7BXzvJZn5PXirZVknQFB80nwcS8QeSHVW+cuRt/gTTJ9yHhJi0CDDu5lPRhvE2wIDhWjDAgvH70ACBDGegfkI4cCPAgWDJmj9EhIE55sbvu/e78EUfiv4UdxL/DrwLMQhmICLOE8Ze964Lv7oGlNRcwcotKzFv5kOIsrp095MIC2bZZyZXRCBjELbRXQcmrBHys4JA1G0HEII/yeBUDNPC/X3d7gXzMwSTKnzkTQ4mNFQ0NJZj8dJ38MSDz0OS7PCqBMOZDhQXNB/mErhhS8651gXoRl3X0ncmcMVxIwLUhqoNI4DvjXrRm3XfbyhAMDcvFxTSxUEoA9hus2N//n4TQAjB2+qLYdgR0JJzxMrbJAgyROfrfuywEbHGwhhuVLb4nPBKggwQjIVCf13SQjAMSfDSc+0A4ar1y2gqVYaF/iMtBAIIcgXyNn+MaeMWIM5F+cdNXi7oRjcP6Indt54NpTMhZAQNA24ABHMswtXfLFgac+BmqOWhKQhpbgmhyqUia6CpYRLMgFEvgAJ0m55kfgcjBqHZ5/glm4GSqst+gOCyuRgUiGcFAhY5jkQRbWPE/phjUcItiQZo8jMQN2v9vAnPuanfxC4NARCWLH0bjz/4AqxWBwMEiu3RuST/VzeXmhpgj4TLtvkxos+PcOcYMTwRzwlf0knEAgkE0Ox7+9fZ5t9b3MeAwITdmllPvqkAIcphv+10EMLNYwMg6NnfsFlt2J+fD1lWMGTIEFGa3Sz2YrpZy+LhAoPpJqwnN+0RbCCCwIjBGjT93rYDCMbHMVFKWhzsV7WiwksMwseYNn4B4qIMgHDTmiLkgwKUfODXxFgR4xIw5sLdEJ5BEAsQ+TrDGYtIbERA7MgACCITiWhSXjb1wjkGA2RmgcxCSf7deshKC4FvZXihB6gaAGH+rIcRZXP5fy52soGARWoLRVGCXA6G/LOxbW2OQTH//Ga7kG70SLtp30MAwaLC7anE+0vfxBMPvggbAQRNg40Awq1gZ8KCffNifPOAf4v6+xsJEABEOSMJJTU1EGaaokVNe1NPCgAE2lcpOkDYD1VRMGTwED2gKrSRi2z6CW22jf/wpjZKix6mG5qg/P5QLdL2PBtxFQQQGNRZbKjwlGPD5o8xfeL9iHUmm6rSXf0h15BU0aLWCHVSUNodkzIUgyAoBYNJUPR4hLC7GgIIkgAIdAhyKnhBNIMO8RwTHaz/W3i0yWUqYgcMt4HYV+nuBD3V17xb5Hfzp2ka1GqItjUBRgYSJFOvBlwM98x6GC47pc7pcQf8ioH54WdU9JgNlrm3CvYkENVgBG0Gf7+f7g2yGV8zoxFyJAXiL4zObTpjrjXQt9UDV481dftqsGjJX/HUQy/AaouCl1yvBMpvBUBo9UfcjAsMm2b0lDHOTOsfj+Gb8S438hmtdTEAcEWFk1puzkB8fVsqFEDIzyeAIGPIkKHQVErxoTjeqx1UTWn2q7vKnM51IzvyVt27aYrazckeEABBiJCoFjsDhI2bP8aMiQ8gOiqZg7yaO24mQBB23HAzBOaAwSRQhoaI4QgNDwJGzxwsqIOEpgDBCDA0AiKNwD895sag7SkVlNwMhtuiaTsxq9DC4dR0R9mUaWADrwGl1SIG4d7ZjyDKJhQBRVKHYRz1GAsDyFBlPN0V4/fB62mvxquJZwcAgD+/yNQut2TH28K2C5zG6QR+FVeirK9aLUOUVm/1Y1pwgWg6DY1KHd5Z/Fd8mwGCEz4GCIHE1HC3uj3avAWNEfYUsTkKyLrrM8afDi8uNs+H633irbm+1QBBgysqKkwthr8TgHBgPzRiEIYMhaqQn/QOQAg9QL8mAEF3Mcya8ACiXSncd18XgBDqPSibQVFkkQrI2TNXHwHK3wj8NO2GzcF7+qVily8WJSNt0rxYG4sVuUzJn2zOTgh+essBQiRDQYFalKRXWhUACC57jH/x5JLTukBZ0L0ocFHVQCqNApeTPgO/eEiaW8gMCWbhqowIE0i7NYts+KeKmBDj0DgTw6iwGPixLil4gz8gABDq8fbiP+MfHnoRkg4QhC5q6OPv2b0T+oupzxShG0FFzyj+igdfcAvdAQhX+SGbAgShIm8OrruKPmvFoL8RPERIBuHAflAO1uDBLQAIYrnTv6IJpUkDJiLLySMrQisY5xgBMmFON7IyQp1COxHjfSJtpSMGWJhdDPpNm0yQVnRtq069ikHwA4QHEeNKZvdQawFCpB5o1QtGOJn87BTjYhjyUKcbvn4rBSjqu2decPRYgabXNI1rCBW4J2YnZ8SLwPigjw4MVBIMu95DPJ+yGAggiCBFYhAIIBiGnEBAaIAQEMmiwnCc7UAgQQcI3A4m3QjxJAFszADBHNx5vd/T3PXs/jBKxvsl6K8+23yO8VvRRnreHPeFCJjmUmRmxuSmMwgtBwgENEUcjfgqY9wa7qKQy5CpvDTLe+sF8661j8x9Hu4eImU9fBYTnWOItDV/r8DGyEiDF+cKN6DxPncAghkgsO2ixhHRoiT/IXZBJpqCpVlFECj7Q/VBFaiBEOiSUAt2uII11zy42BAKipeyGGxWK/IJICgqBjODIJT6RBWvYIRIuzFRWVBINRt+Up041fc0euGTZl6Q/Yu6MW7OSIlzBEKllg1pUPiHVJnNkLi5+qzAfahXQtcsEKaBFNXCBBfymmaWbSGWhVQT9X2cH4Rca6+Ev65lAKGpkdP7mYenCp/PC9kPJCjd9fqNYku+lt5C9vk4GC8cMOQYfyvpC9DuxABgYSK1TVoLxn05E4GNqphhZKzFnRTYbFaul8GZBGybAmP75gOEQMuRcmZJcRn/ICMjQ4c0tGYQF2G4JIRRMoATy0ez3DaNQ5EJwdoIxreb+tYw1MFG2jBuRqhFAPCbsyoE4DD0roRxp+dQX1IwJYEZ6q+moMFsKMTfxf3NbhaD+amvr+OKiykpKYiOIXeM2BQYbpmWjLFrPcfw2rjlWry75K/49oMvhGYQdFcErQHEhJWXV3DWV3p6OrdDU4NN7WHO3GnKODQ939xeRiYQgUlqfz8TJpFstGGoA8qrgfYVIz2UGyz4/mLcm5PJGNzoQdAGoAjKNOLlWPRjdXUNqqurkZqajJiYeP0dDSbvZm47rrXXw13Xxi4GLnup0582lVCwPptEKoCYFNwbwtyKHY0hxxtsfEWpYPMhOu1GNHkg1VHTAUK+n0EgHXJ6rpEiYwwm8fIaPL5GNLprUVh8EbV1lfqwCXwLkazhkn0EwxLpHOOrmzfcYs7yMtlsGwW8m2QQzbtsur8e/CWmi/5OYQYPgQTVgqSkFLRrlwOb1SmMGd9Kn5wsydz2hrflAMH8bPpeitCuR1VNOdwNdWhw13Ga0q1A+pHGcSh409qWND+DgxDZ0IiyVrGxcXA6o5CYkASbnQqwBWjsmwsQdLElUvXz+VBaWoqU5FSuAyAMLQ0plg3yZ1uwEVJ13RKrjQ0z77h1ISoyKsTQGAbFHweiu2EMA97Q0ICEhAQdUARaN6AnQWXtA0aJNFIMo2M2asausyn4CDV7jOuaprYaO2n6ynp3PUrLSpCYmIi4uAS94qO+ft6oyDdDrloC6r1VePfDN/EPIQCC2AiJ9dDr9aC4pBCJCcmIiY2DzUqOCLPwlVhL6BqPxwuHw8HS6dSOBKqMnbqfSTHsg2ngGiyQz+cD/edyCR0NOgTIDq7d0hIzabAb9KeRJRMOONI9zTExAjQIa0bX0XsVFV9EQnwK4uLixBrMWQxtn8HVku9ru3PaGCDQbkVRfJAq6yClxPOEtsoslyY2yfSn1QrYrCxtLHYAJJYSIgRG7wA/2uZ9T/O74+tpFL+bgdJ5rDbkH8iHpsoYQi4GlfTLxTcE+QssJPFL+vPFcDodvOA2ldINQCJBHfpBkh7FTs8y0rf04cZmmgcWB4uJCn2ikh81SCiARL8TfDGhbBHU1bwpCf6NuDaQ827+bah7mL+BJKt9rBtRU1vDypPJSamcFsV1LIzI+K8BQBCLsgKPpxFl5aWsnZ6UkORnhAwFzaZjKACZdIZJUUXxrqugqwF2zVeEH5H6HvKqQL3mei4wBlo60oVcspmdE4A8YGgqKspRXVODjIx0loo1etdg9lr6pFDntdjFwO4OscMkuezEpCTExsTxGKZgU15ojUqHujGor63DwcOHMXLYMDYyy1euQIf27TnriOZgUVERDh8+jIkTJzBoDV6oBbO5fft2/PWvf8Urr7yC/Px8pKamomvXrn6DQaDj8OEjaGxs5HRn2iUaFLX5e+leBDKMneaWLVtQU1MTtHM1U9s0FgcMGICsrCx97usaF0bPUONbyOh4UFhUhIz0TNhJ2183vDcKzBpZLfTsWk8FFi19G//w0AuQrCJI0R+DwANIZTdeYdFlJCbGIz4uRQdSAhCY1zm6b11dPfbt24eRI0dyu6xZs4bbbMyYMdze5eXl2LFjByZOnIjoaMpyIYNMxl8E5xJIO3HiBP7whz/gV7/6FY4cOYLMzEx06NDBDwKpjU+fPo36+noMGjSIjXZtbW1QP1DbEahITk5m9oyuOXjwIC5fvmwCGoFl3GB4cnNzkZOT42dBAgAhMBJkuRGXr1xAZkYH2O0uP3i4njl0669tS4DAHKaKxrpaXHh/GXIXzMK5M2dwevc+WGWi4C3wejzoO2I4soYNROH6r9B+wmiiGajEIuUzsXwrUfsaTYjkRBKODzJ2ojJc2x+tBQg06GXZi6LSAiSlJMLligdAdK2hnhUwpOzvJcZEETUDYqJiUVxaxJPkvvvugyvKJeJh9ch7m2RFQVEBL5KJcYmmSFkhYkN39sleeL0+4Wu3AjHRMVyzYPv2bUhPS0ePHj25rcnwG/nsBMboOrvVDk3SYKNqixpQV1/HSnYhF3l9vjujnHDaHEGnCGFq4TFVNQ+qa6rQ2OBFSlIa7HanTltfey2GcL18LQyCqvq4OE2UKxZx8QmitHFzinL6Muf1ypAVGVFOJ8orKrBq1SrMmz8P8bxLMB2ahuLiUriiXUiIb/I7nUqm3bHP6+WLJKuVg33JcO3avZd3Rf365qLR4+Hfk7E2qyLS3HE4yUiIo76+AV6vN5A2qf+cpyDvrlXExcXy34PoXP28wCaUKNJKNLjrkZ6WFqDwxbb9uo6WAARO8YTKu3/69oqKCrRr14FButid6TS8ETlB9T8sFpw5dw4LH38c33/xRdwzbz7e+du7WLpkCT5cvIQNzo9//GM2KB9//DFiYmJ0F4BZHdKCZcuW4d///d+xceNG/PSnP8W2bdvw+uuvo3//ftz71P5vvfUWysrK8OKLL+L3v/89Pv30U5YSJyBOIICMULt27RhoELggAzRt2jQ+p0OHjrrbIRCDRUGpBEzoXjNmzAgoj+oqpCIeQeVS2wRoKysrOQAuKYEycwy3xHV2TDO96gcIElDbWI73PnoH3yYlxSYAQbghNMg+D0rLipGRkQmbNUoE6vnHl3hHt9vNrAH1K611Tz31FB577DG89957+OMf/8j9Q8DsZz/7GYM0+jkZbwJ9TeMFqH+efvpp5OXl8bWbNm3Cyy+/zGBLuGc0vPvuuygpKcGzz34Hr776Gj788ENmLOh+1FcERDp27Mj9PHDgQP7ZwoULUVxchOzsdlcxiXTPvXv34oUXXsBzzz1nAprBcQwGaGtwV6Ou1o2UlCQeI6RCeXsfrQYIEdIcJQq8kiGfPYvqejcyM7LFzpeDkSyoO3sWNbIX2eNHomLrLnhdNqQnpeJw3ia0HzWSwafik+GMS0B8x06AFFxi9GYDBApSpMpzAQZBz8nWVFRUlvJuMik5CRpVydNjA3hum7aBhH/cjY144403QJTmSy+9xLUennzyCaxYsZIXZjoY3eqiOa+++grWr8/jhalLlxwsWrSI29Hr8+JKQQFqqqvZ90VGYtDAgfj5L37BBue/fvdbZGZk4r4FC/hntEgaDAVNOJqww4cNw7//9Kew22z/H3vXAR9llX3PlHQgCUnoLQkBEbBiXQRBBHWtoAioYKVZsKCiYq8oWNZVsde1oGJXiuKu2FABBaT3ngDpPVP+/3PfezPfDJNeCJrvtywyM1975d5zz21YuXIlpk6dit6HHSYsSPBRVuaSjXvz5Mk44YQT9vPnqdwOsitlgvj37NmLqMgYtGjBMVGbtmFdDNYsBqu9TOxZhvUb1iI1tTscYazlQe2jApKMlW0lXmhpvPvuLLFGr732aqxevQZjx47De++9i86dOwWCJY8Hr7/+pgikG264Ae3atRNlwrF3uzxIz0jHrp27UFxSLEIprWsaZjw+HeHhYbj//gfRpUsXEaDTHpmGlatWKmCnreqM9AwcdfRRosTi4mKxd+8ejBlzmQi4Zs2a7TdnfO6ffvwJt99xO/r2/UelTSDpQ1616k+kdevqp3w121cb4abij1SQoimUFDpIUbW2IVB1lbmQkNhKaj4E+OdNxIvdDldpGQry8/H1t99i3do1uOLyK5CTm4OvvvwSpw0egtzcHDzzzLOYOHEiunbtKgqnpKREFIU1cJPK6YEHHsAPP/wg++jLL7+UeTjuuOMEVPB45ZVXZLwnT75ZgAJZBK6X5cuX47nnnhOQcOedd2LQoEGiCDn2AwYMQH5+vqwBswfMOPL+q1atEsV25plnatZPuXZ8NLvdlH9X+3X3rgx06ZzsA2z1ziAEAQSbI0Kad5ETFO5MMwilJUXIyc1C69ZtYbdF+GSYdc2YwlccDyp0ypIJEyaIlT979mycccYZwtBwPMaNGye9b9hIjHuEbJ+1WNeSJYtxzTXXCkgnCPziiy/QoUMHkUtkHei2eP3112W/3nTTTcjOzhZgwvFat26dgD26r26+eTKGDDkNEREREj8xcuQobNq0SYCe9eB5fLY1a1bjppsmC0jwM1GhAh0Ve75p0wZ07NgOTsoYT+h4sdrsq4Y9twYAIbBQkqg23zM7vG7YC/MBVz4QEYcdK5YhrKQY4aopL0hi5ri9iGnTGhERTkS0TwK2ZGD9j7+i66WjVPSi+JVIk6sgOmvgH4MI6wM/BzMIS//4HR53mbgYVKtTa5AidwjptZ1ISkyQhebRvn/l47UcejNRkFx55ZU48cQTcemll4rivuaaq/Huu+8JgjYHFzl9WFzYzz8/Exs2bBSQ8N5774lgopB78803cf/99wuNxs+4oYiKeUybNk2Cm6644gps3rzZR3Vy0zz11FOyeXjfyy+/QgTS0qVLZcNSWNGKDT7oY/z6629wxx13iODbL+BHl6gmSOCbZ2ZlyJzFxbWWIBPlq6z7JR2qDgILJbEOQozUQdBryDIbAhDWr0Na9x5i7ZhgJgUQlOSzAgSO1bhx4/HPf/4TQ4eehzVr1mLSpOvx6quvoEMHJUyoxKjkY2KaIScnG//5z9syXldfPRE//viTCCAKL1pGI0eOxODBg0WQcay7dk0VPzkp05TkZIwYORJbtmwBg9R43V27domCWr58GW644UaxvKKiIuXzs88+B6effjpiW8SqksWWat0UrgQnnLOzzjqz0up3Ho8La9asQkpKiipKpAzEWsdlcK0I9KoQIKhsCu6v/Pw8vXYS4LCzWqt5BuVcUaEtNsyfPx/33H2PjD8VO/eLiqT3ChPBPULlQP89gcGMGTOEvqYlqLJGlO+ae5CUNGltAi3jz+Z+pqXLuZg3b56AgnPOOQcXXnihBHZ+9dUcvPPOO7KXCeoIKpQfmz75MvTt21f2IF0I/NwEMJpdsHDhd7JPzznnXBljj5upjVaZQYCgBDMV1M6du5HckABBuxgMg+B1RMgcqp6SfoBQXJSPgoJctGrVFrYQAMEEJn7zzTdihBB0ETBwTEwMAi/H9cr5ohzkfD766KP49ddf8f333/v8/pxTyjPOV79+/Xwggtejq2LYsGHCDnC+CBDPPPMsDB9+gcTYEFC89tprAiQuvvgidO7cxQeEOf4XXXSRuCIIEFSgqQpyNeCGMpLgZfz48TKXPqbFMmVKlqhNuGbtCnTp0hlh4ZG6rXndy7+Gu2J1AYLNhshwBjSFLrtpLynG5nlz4dmwDKmXkp4CsjeugcPmRPO27VCwayuycwrQMqUrNv68EGn9jkd4ngcbf16MlNHDBSD4i9wYcKBULh+VSLY+jlAAgWjQAAR1dyod1U8dKEN6+g4kJbRCZASpYl2mxeJvFwtKhJ9XGIAbb7xR/F5UGNwUO3fuFARMgWQULy0R0o8mgIeMA3/Pa1CR0VfGzUCQQOvI0NC0bojO33//fbnHxRdfLP4+nrNo0SKxcvh7IutDDjnEdz8uftKstKRUcE3gQQtm+vTpQsP1798/ZESwUpTKjZKZtVuYhISW7eFhtCoBXT3MWfmFki5AFAGCbiDlAzTstyEMwkZ0TeP7G2Svo92t8llHXNPCpNVAAMY5orKhkKIgMRYmx4dAbebMmfIZrUjOBa1Wc2/ONYUQx1BZjeogffzbb78JI5GQkIizzz5blA4PziUFZeT/uyE4P1RCJkCOAGH48OHyPX2w5jDjTGF31113iZIjiAgGdYEzTEFIZbkKKamp/p4POtivNnuNgY6ms2O5DIJXCVzWGeFzc3/Fx5NBoIzxAwTzHHyX2bM/EoH/yCOPiGKXPWCpC2H8zNw7FOxPPvkEunZNCyhpTSv+8ssvw5YtW2VvEFBTOfAP9wznmvP/9ddfixXPfXnKKafgmWeewe703bh58s3CNHBOTMAb9ykt5REjRsi9CALz8nKxePESHHnkEYiPbylSbPPmLbjvvvvkmtyrgfERimn1AYSiYmEMU7qkNgCDoDsT2jzIK6GL4Q1xMXgckdJSXaKKfOyoG0VFuQJmW7dqVyFA+Pjjj4XSZ6yHkVeh1hXHjjKS7obevXvLuJu1S7DGcd2xYwduueUWMWo4djw4XzRkaGwRVJCdoJuH8Q10/dDYonuA8tCcw/MUg+DGxIkTsGnTZgEanEvKS8YccN/zGeiy4DoiwI+MJFOyP3ug5pC6C1izdhm6JHdBeJhFL9RmIx3Qc2sAECLClH8wWPDw31KlzV2Mwm8+Q9Sxp8C2Zy92/PYz4tt3QlR0NPIibcjLzEH7/v3g3bENuXszEBsZj/W/LEHXSy5UC1DnN8t/BtQHURNQH0cogMAYAwIESA0xP0BQ6YEMINqIVgkdEBlBOjIw9oDCzUTfmsU9atQosUZ5kPKin/TFF18Ua8McFHhEwrT+KLROOukkWeQm2IbKh9Yov+N5XOC0atq0aSv+N1pFRNu0VOnK+OCDDzBnzhz5byogCjEKPwpCKjNaVfTrMQDHoGcKVio7zievv23bNrHCaBnxsM67UUoGMGZm75BYiwYHCLoOwmn9z0d0RIIPZPoBAoGKCxvWb0BqWnfYbMY36AcI5n05DqQcyfiQAqXlSEGxYcMGmRcGShk6ku9NQcM5o9C/7LLLhGmhBc9557qhm4YAkcqfFKpZF5yLzz77TOaM9zz22GPx2GOP4o033hSgN3nyZJkzw+zI/nI4hAXi50lJST7wSKFoLGn6uek6ogIlINkfIFg3vQoGaxwAIUcAQsv4NrCXAxC4zyjAaZVyzT7xxOMoKiIVrYQ21yutbrIHpJsfe+wxmTOOuzkI2AiIGcTIgEIyCLToeT3rQWVGFq+wsEj2zwsvvIBbb71V9g3BNhUaAQLve9JJfYVdevbZZ7Bx4yZRLjxoERNk9OnTB+3btxM5wb3MGIVBg07FmDFjfMaWKphEgMBCSZpBEICwHSld0g4YQHDZIxDOwlq+Qgd8s8oBghlLzhXjPLgvbrvtNlHmxgfL/cO9xbVL+UXgR2Dbo0cP37gQhEyfPkMMKoINxm7ceOMNOOKII+UWhvnhf3POue94HwI8/k15SIaVc8V7cf8dddRRwsI+MC98HwAAIABJREFU9NBD8nvKO+5Hw1DRhZiSkirzx+tzLRB0EOQboG5dK1aAsHrtH0hNTYbTaRiE6uYe1YeGq+k16xIgEMYz7dpVhpJvvkBk96OAzRuxcvEiOOMT0a3nYchpZkfBnhy0P+kf8OzYjhK7G1ElDmz6+RckX3yBRgT+uP3GCBBUSmIpdu5aj1aJHUMCBKVI7ULxU9FQ8T/55JOCUnnQgiEipvCgoLceFPbvvvuuKBUuSC5oCiMuUgoXWqvcRFz0VPZc3LQUW7RojmnTHhVW4oILLsCUKbfi9dffkFzyww47TM5VFotXvj/33HMl4Mf436h8MjLS8d///g8DBw4UK5i/ZaQ7LdyBAwcgKalVQInevxJA4BzwfShQKFgIjDjWHAeOPZUuLRHOi9Vy53mcH8YfEMwRUHAOaHlQEZB25nUI9qgoKHBYg2Hw4CECNKjISUfTQuEaefzxx2W9kJmgQCP1ynN4PpmIX375RVxDdAlQWNFCIhDkeqJi5DuQaeJ/k/Xh7wKPgxUgKBBgLHbS0hs3bhSFQ/cCXQEMAPz8889lP5B54Xo3StyMwdtvv405c75Cnz7HSLAbXXhkZW699RbExsb5hopzzjgDXpdWqxlnKjsqKAbBMbuBc7N69WqZR+4lrpN9+/bC6VTsAAGbuFt0Dj8BBtcPmTwTha/kRSBAIH9aXFSM7Tu3I7VLmq8QUX0wcgb4i88/iEGoDUAwc8Xr0/AgKCNAM/59rmUaPJwvKmyCYZN2aNJACZap7MmKku2hi5ZM3oMPPijAwpp+SJDBtU/ji/PGOAcCFO5bXictravsR84R9xr/3rVrJ7Zt2y6y1FyLz8vnUBkVXnTo0FFAC4FhKEauCSCwupTu5lUeg6AWGRMZylAwZz4K8wuRkJSETG8pIlu3RnObE3neMuTuzUaHvidg52dfoPXJJ8CeU4y1P/6E7qOGAR6VrqfKKZFqc0hdBXU0DgZBAIKtFDt2rEPrpE4VAgQqewoZBou1asWiL0oJ0ZdGC5EL2ihiLjwCiPj4eBE63Ez8jkqESosHBRkVgYne5WfGIuUiNQCBioSBVNOnP4a9e/dh7NixwgKMHjMav/36mwRQkTmgf46+cwoxg8Z5LwpWc13+zY1IipXK5q/MIHAMKMCoRDp37iwC3ERBE9RRURAEGIDAseDYcN6Y7bBiuZozgjcThU0rhMqfDBJ92cbapeLitWnFECBQ8PEeBBqcOwINKp0pU6aIK4LCk3NGUEllZa5v2BsTJMfPeV1asQQIpGsDhdrBDBAYGa8CPc17c31yDT/11L8kCI2sD/3UhnkhwyNxQh6PUNCPPPKwBB1SgZBdoMK/5Zab0bNnL4kdiY5W7Bl//9prr2L9+g0Cpskw0HVDUEBmhvuQ1DkZICohunw4p1RcBHBUJnzOYFqdrB3jTgj4jDxQ7/LXAggKzDHQUs2XWfd8VwJqMnHp6enCqnIs6E7jQdnDueO4EfCRmSOIYxEmyjGCYe6Lbt26SUCwsuhVijcZCII07h0aRgR9/fr1F8aNxhbn6I8//pAYB16D96Jc/Pbbb9G9e7fA6HLyxCUlIofpmuXeNfMVhLi1m0jppyYGoRwXg6hwdonzurD364Uo9LqRfHI/wFsKhDnhzitE1tIVKLXZkdC7J36Z9R5OunI0PNv3YPkXc9DuWFJGSlE5o5ojrmsyvNzYvsixxgEQbDb2NSupFCCoHF4VNEVXwieffOzrnsfFv3Dh9+IXs24MKgBuGG4iUl8UbFQ+tFrps+aCJY3GBW9oM/6eipuggoueG4PCi9YnNxD91UcccTgmTZqERx6ZhtmzP5QiNNx0ZDiItonuzXNYFz+vSUFKqpYKc/+N4U+9ogA4mF0Mxori3xw7BqIRKHAOGARXXFwiAotpVVS+fF+OGS0bo/gJ4EyeNRU9XQ9cAxRcPO+oo46UsR4xYqSkxXFtUKGYOeNvOWcUmHTp0NfKueec8zwCFAIBfs65M1S2f14Y2FaCjD0ZmDF9Bnr16uWLX7H+xho5ejC5GGj9UWEQJHEcjELhmFMpU4kY948BSmTbSOWruIPLhYVhhgNdb2SKGO9BhUHlQcXP72k50p1HNofWK/3ZZOHIuDEbicFwzHogM0SQzRQ8AxC4z8jq8RyCQ/4xcUbcv4xjIDAhkOGhAIQBbX4Xw8HOIHB/0N3Dcfnyyy90LJJigMigrV27Tpg2GkRWAMtgXPr8CZIZA0TXBEEy549KnnuQIIAG1nnnnSefcby51wi2ySBxr9GgoauPII5zzD3E/UyAwX8//PBDwvIwgJJsH1lTPgfni8DBFHWiMUa5zDXUBBBsKCoqZeK+n7nJzi/1MnCwKgwC6Sm2krUXFEsdZU+4QyLEuQky12/Grp+WoPupA1CYm48dWzah1+kDAa8Dnj3Zgr5MuWJbVCTsMZFCKDQ2BqFqAIG0hyrDynenkqUyMEFQq1evwoQJE8VapItBBdqUChjgwqQgIS3GDURlwGhpuiqImlVAoHJfUIBR2BEw8PpMheMG6d27F3r3Pkz8tQQnvA/Tde65517xv9Kq5EYkkufCJ6CwZlMYZUIGhJH0BB6kRP8uAIFKk75nwyjwb1qK9EVTwHNeOGecTwonKgBaSRx/Ciq6d66++hqZF7oVKCj5W7p5KOxIp5JW5ZxT4bEmBoUa/eEUSPS1UgFx/p5++l+4//4HxGXA+xsXEdkBpjqawwhZrjXSpwwupa/1rxWDAEml5Xhafc90N0ydeocod2WZm/4AXlnXLNJDZWNcD7RQqSioHP7443eJdmcaHvfaKacMxHnnDcXdd9+FyMgoGXPOKWMQOKYEdgSFBBsE3wy+ozuKc8o5pkVK4HbMMX3QvHkLocVpCFDR8Zn5e8aqmJgefz+Ovw6DYNYc1yrHzmTmmLXKeALugyuvZJxVP19WAb/n2HG+mG11+ulnyP6gy40gjLFX3BNk7ThfZN0Y7El2juPP/URrn26nl19+xRd/QlnKvcjfc3/RNcW4E7IPZDK435n6SNlLdofGEGUiD+6l0047TcCjtdSzVRY2uRiqABAkPUoawLth93pQypRH2KR8kBADQg7YWDBdEgK83jLYwkkPsUASS/TqEsE6fZ1sBOsPMLVRHQcTg6D8IlZazSqoSVtRMdP6oNUTfFDgUIjQmqQvmpQZBQsVu1V501rhwmVENaN/ibJJgXKB0//GTcCKYwQY3GhUQBSUF144HKeeOlgifonAGYBnfH704dEKI4qmQKMCZJrlX5VBEKZHD6op/brfhOjMAgo0RtGbtFJDbfI8Mjy0WgwAo6CipUjFbw4Cv1NPHYSbb75FlAaFEa1XpmCRBaKflIKToIIKiJYULRuyPVT2FJAUulwPnGsyGGQWyFxwnilcjdVKBoT3/usABN3bJaivAtco359paFT4J5xwvK+iKEEb1zhBNN1CBHCmVC/Hmr8n80DGgOuf6ZB0I3DuyOpwThgUyjnh9Tkv3JME8rRWObaMdaCLiJ/zGtu2bcWsWe9LhT5S3I8++pikydJaZWwR2TwClUMP7enLYlAVUP86AMFY2iZw1AT2GRlD1wIVNtmF4PRpGi2USZSLHGMyDDwYr8DP+TfnkNdcvPg3YUUJDAncKKPoZiLTdtVVTCv/B267bQpyc/Mk3oT7g3MZG9sCd9wx1VcjgSwRA8f5HRkHZg1R1pItYkYDGUIGupr3CI4DaQIIFoBQXpqjVHFjOpnU+FdFclQlA6YiMPjFhlIH2xoBUUyPZ7yCSQ+BE25pROTDAjrzmb82nx5cAMEEVJGuDvZDMjiG1oqpJGZem2PGxf/JJ5+IpUpqmoqaCJnWCwNlzEHFwAXNjUZ/J/1otCq3bt0qwIACizQnz6OQJJXN65M54MYjZUoBSkTOICsG/lABEWhcdNEoLFu2XJQPaWoGKLZgzn1QCecDFaSoCnTrdYYwZOoshiH9z0dMNbMYOJ7SYkq/G+eKc6YK6yhgyu+okKmwKeQNQDDvTwaB409rk2wAr8Hxp/VoZV6ovDlf9HlTQTAGhS4ijjMBIH3dtIjIDBFw0CoiQCNYZGApKVVem35sAgtSoxSapECp1DjP/JzCjZksFLL7g56Gj0FI190chwV3cwxIc6wsiyEQIHB+vvvuO5kPKhWW3yWFTIFuDY7jDNJiJICypvIyg4TKnZQ158+cw/gOKiWpj2FXjZg4F2QHuIcIoE1FPwJ5MkvcY8xC4bwRZBDU8178nq4MKkLOK2NJyPARPPAanE/jq/e5GXQWQ2NxMTDN0QmPaullTXMszEVBYflpjlaZZgwlKnfOEZU4WYK33noTRx4ZyHJxfXOMuXattVmYcUImgHEkxrWm4hkYfB3uc5FSpnG+CJ5pQJG1o6xlYSWyGZRzBIaMU2FKOfcL5SdBHueLzATBIOOGKBdZcZPPfc45Z0uhtKoEKXZNTYbjb5nFAGD/Qkk++15bzapyur+eu6EEbCi1A8U2IJpEg3QEVMGILDTEOl3+/oDqGnRZ+A5ddjWUdVfbz6qT5uh3MWxA66R2iIxgNTs2dBHcbHkUm2wECg+6A6wHETSFBOlQCidzkOJiGg+FCBc4FT0FFi0OItj4eEZZGz9emSxuKvShQ4f6ipBwc1FxkFql0qG/bvToS7Bq1WpxXXCjkF2gAKMVxcIz3IhE39wojCom20ABTGXH5+TmYY4yf3PgghT96UJqRdETxlqO4cgu2YsFCz/C4P7DEBPBQklq3cizmtrxOs2xq6Q5mgqd6ndWgEBlTUFPi8KHV3XQGsEUqWFjcVKYUYlw/ClYqCyMACQQoxVq4hV4LSobjjfnhfNs/NO0UimcGDxKS4fKjsCB7gIKPM7TczNnStXMjz/5BPPmzpXS2r169UZychd5XqaCNW/WTPyuVERUiLScqawCD+saZXAX0xxXIiU1RXUilKZOtS+UZNd1EKjodhEgfP8lzj99FKLDVJVCCnfWP1BtClkHoWoAwcwrz9+wcQMWfrdQrtW6TWthcKQuCYPWWLKdUkU6MKoVY004Y2U+FrYywWpmLk0mi7mPsRoJvsj4sRQz04qp+DmfnOMTTzxBlBSrMrZr1xZduiTLfBLAEFhwrk22EvcgQTyfy7qfGheDkOkrtawKJbEOgt5KMl8uFBXlWQAC40EqbnrGOaBrgeufa5pp2pRrVvnHMbc2c2IWkKqm6MWff64UJpMxU5SThu5nMTKHQ6WbWg+CRso5phdTftFlx/3GMScTxHllLAJddwT83IN0Y3AdUC5zL/IefFbOJeft0EMPDVnXRRkKNGC9WLPuD6SmaIBAw7geetHUVt9V/fzy0xz5rpRBtsAYBCBKIoJZ4ET52UOVypNmwl4TP6A2ptBNwU8mkkiJ6P3r6YS+dtVfruq/rBlA2IzWSUmIjGDOczBAUNYOFxUVtMlCqOyJeA4FDtFyQkJLicClsr/55pulKl5ysj9ljX5YKnPSX6auu/X6RL8MzGHsAu9Pa5WbwhQRofJhsBerfjGCm0CGVjAtIVq+poY9QQ4VFq1S4w7Zn2JTdTHqN0gxqEmSjdUbuUbCkVO0F98u/BCDTh6GaKmkqBW/T2iwX4RLKlOmde0WAiCIOpDho4DYunWLBPtVdphx4LgwOprMA10+pLwJ3OjSSUtL813G5SrDjBmPC7sQqnQ1C8GQBidFyoNzRsBCGnbQ/7smCoqKJD6BYJHCigwTLWGyQffcdTfidZoj0+yWL18h1nQoF5b/vQgQWEnxT6SkJqtunHS5SCe6yt6+4u/FatRNxHZmb8dXC7/EhaePQkSY7tIo3Rjd7O9WRYCg5sjn3/Z1DDUzZ0Kcra12leA25yiWUxde0ymtJvW3vLfhuSZjxPqb8tg0AyyCr2fWitU/r0CSGujGABCkP4ktsBeDKbXM0GxfJUVvmXRCLfQxCJUDhPLGxR+kGTC6Wq/4WSMV3FjmS9U2DK1vbi3zyiuZsTVpk9VbzSorwjyzdc4qug6V5qo1fyA5uTPCwwmE7fVWu6d671PTX1cAEHTjq0CAAK/U/K8MINT0cQ7UefUFEMwirs57Gb+dVQBZI6Gt1+LnJs87lMAyEbmGKuW5xqIybg/zjLSGVOElp6+nu6GnrYBAGk+JArYIa11ZsyEBgsfGGBcKLQUQ5v/wIQb1G4bmkS1V0y+LMpDuc5UCBDWy1vrvVZ03Mz4cF1NG1lhCVgFlIrhp8fgtW4u69noFVBqrygTiydzqrnZlrjJpZkRBznt4XG7pq+FrRawvxz2qFH6FIi0IIKiKoHYyenUAEKQwCrzYmbMdcxZ+ieFDRiIynLnlUmK0BgDBvAtZR91pS38k/TY1BW5sScMc+M/yg4ma7E2jeELRzOoePg4+5KCbe1r3U2MHCCG7OdYQIFR1P1l/x/Ex5Y2DDZOaXM8ofXNuXV1TZt/jxeo1f6BLcieEh2tmuZ6K+9X03at3XhNAUNuasRMiYFS756V/LAWtPVVJUdVZV/YJKS8GU7IOQuUMgn8RVrZK9i/fqRSxH8UGT2xlqNZYPsEbQokx9a6KpvNXRwwEAvtThmqzmj7njRUgxKvmYDUECNXbQFot+HSVKeajAFTw2Jux8+u24CprJm1UzYlvPmjF0tqkua1PNoKTf4uLRFwD/gqn8rkuzlORQgtkEOoXIFwweCQiwqJ8XUm5p4RdpIshvzIXQ+DMyAhr14HfEg/cL8FgTzs7azLF9XSOn0FoDDEIgQzCa7jiwuB2z4Y1rhmDUNNBtK7lml4jtPxUHUPr6mgCCH8HBsHpxNLfl4h1Jv3ltRWkAALb5xqAsAmtk1pX6GIIRsLlLcTyBbiiyir6vqaLuzbXNVG7VpDS0C6G0AzCUDSPigfcBiAYtwStVauLwXhUTQyCGUUjAGs6qgIJ9otF2f9qFVua/t/7A3TFo07Q4PvS/19Kyapm4FZPezD9Guo5GgIg7DYxCINHIMJJBsEcTJ8W0wv51QQI8vaWLkcKTCmBbzxLjR8gqD4mGmYGlFo+EEGKCiB4kFfMGAQNEJwRKPOw0R4dRlaAkFdtF0NtdtXBcG4TQPhbAAQHlv6+WAGE/2+zqzIwDIPAIC4LQGjVFpHhLJ8cOgbhYFjUNXnGxgsQ6GKoOYNAhRLYPKcmo1M/50g5nYDeJP77KICgoIk1lPNAAwRyG3QDCUBY+CWGDRmBCEcz3XJFUccORit7XdUGCEISidtFsSd+gOAHVcHAuvExCI0RILiRV7xHByleC7szqhyAYGIQTDfHioMU62dXNK6rNgGEvw1AWCKtepl7LgBBmqhQkNHFYCopbkbrVm0QGV5+kGLjWr519zSNDiAU78X8hR/i1P7D0UwAAt/VK2m3ptEWmzWxm2Na11BZDGpsmgBC3boYDEBIz9qOr77/EucOGYUIR6zYosIcEHujDPCWIC8vWxi6lvGtfEGkRumHWrmGQfCxWDoGIdhNZj23CSCULwN8bYztLuQVp+Ot91/FlSMmaYDgUQyCziggoCssKrAwCKrLYV368+tOWjXclfYDCHUQy9NwT1/eLjOAm8aTv5Ii51raXwdkMfxtAMJi6U9w1FFHSAEn0TgaIIjH18Z2zVvQKqkJIIgqPpBBit4wZBMgfD8bQ04ejuaRcbrdswYHku3A/BkP1m/YhK4ECGA3R6nxKbvCnx9RFy6G+tnSDckgSJvmWvpmJYZCMwgZWdvx8YKPcco//olIZ5RkEqjvmerkgdftQmFxAeJi45GYwK6H1uDK0A9SHkCoaPSbAELFa1MFw7qQX5qB1955CReePhpwRMDldYNmkc9hpzMKGBjbpnV73e65CSAEAoQYeKW3UHCcUf3Ih/q5arWDFIGoyMrTHOvnYevvqipIUVmdzL39/ffFKC4uRO9eveBhrWeLi8FOBsFbiqyc3WjbqiMimhgEDRCArGz2ImC753Zq3MA2y7XUNL5pD0xz9LCstwS5hSGneC+++nYWTjr+dMSExUpkv4/1kZLXLE/Nsq+ZSEnpJpkPoQFC/a2x2l65/gBCmU5z9NdBEGNcu8ZrGv9iBQh7s3fgtdmvoUNSV4TJXtKMjQ76ZVApWakTTvgH2rTpCO4xv0XaBBAaopujb07sbhS7s/Dauy+hU3x3wOaE7DWpjKsCPMgkcFZY7KtL51TYbFVLc6ztHmjs5zcBhP0KJVkRRmOfvvKfzw8QbHDYbfj9j8VYvPhXJCUlwm6ntenPYqB14/EUo0WLSPQ9sX8QQPDfo6aC9WAYxVA53QQDOTkZcAlAaNtAAIFBeWGS5jj7y1cRG90e4bYoVQdBmZgaKKgeISkpaehxSE/YQAWkXUe1wvh1BX4qn3XT0scYJNY7VxaDICMRVEhG3ZHFTkqwes0KdO3aDQ4qZqlPYKK7VT8RdX5wqaHKrVHODkMMsvJ3Y85PczGk39mIDo8MiJNgVCHnq6i4AA5HGFo0T5RA4MoBAh/Ikklj0hwreKwmBqGydcYxdaEUefh87kc4b/DFCAuLknVikxq4as3wT25+DspKS9Eyvk2QS6iye/x1v6ctJGmOXTpKHQTvX7lQUkgXAzvYhas+50rg/BUAAqPDxWMtwtBuB9asXomi4lz06tlbVXkUc8qkOTrFb7p37y4kJbZGRHjzAJL6r7v8KwBYolDKkJu7Dy63Fwkt29QzQPAqq0bC05zIK8nEoiVzcOLRpyI6Ml7mS+q+a1VEf7fbUyp931OT07SFWvuZasiAxuBEWWvAYkUAQZ5RB/IFvzF3r9tbhNVrlqN7Wi84vE643GVwEyR4dJVDrRMcTgccrKugGVN/pdTyx1H2EwFC3i589eNcDD7pLHEx+FJABXmoYk1k7FgfIj6O5aEpY0w1x3IYBEsGQ1VnsnECBCNDjUvMLmnXDZ3FoMaQLgYPSj25+Hzuxzh38Cg4CRDkeUxhMulAguzcbClc1KolgxRVy+U6IwurOqGN7HeBAOHvWAfBZkNEQLvnvwpAUAlipM7YJGrtmtUoKWUfgt7wsokUS8L60hydcNo92J2+BS3jE3wMQiNbqw36OGQUPN5S5OVmNgxAsLGFFwECIYICCL8smYsT+5yK6Kh4KViirGClzZi+5XGXSYXElOSusIuFWvvjoAEIlqJW1rfm7nV5C7F67TJ0S+0Nh8cpwbllbrcUMTJ+Bo4l/c0syGR3qLFT4CzwCHYnBQOEU/uehUgH0xxNjQgV/MsA0qIiMghOtIxv3QQQDihA8KLEnY/P58zGeYNHwRHOuhWK5TFuO6ZC5hZko7SkGK0TOuj9RHeiBhm131oH7RXIIHTuTAahCSD8hRiEcgBCTwUQRFgaBgEOOJ1epGdsQ8u4lk0AQQcpenQkustFBqF1/TII5QCE444+BTEsteyjyJsAQnDGSTBAcHsLsWrtMqQl94TN44SHFTWliZINdocCAWRjJGLZblcggT0baGwGRa77a2uYegSKQcjO3y0MQjBAEOrargBCSUmRMHhNAOFAMwhAibsAn8/5EOcNHqkBArGiiethui0BQpYGCIwZUQG/TQBBuRiaAIIEfv2VXAxVAwisgUD/qMPhRnrG9iaAoLWNYhBUqtqBBAjHHjUQMRHxOuDUTyg3MQj7V+rUngNxMaxa+wdSOh8Ku8cplRqlyZEDcDpVC3bOr6vMBZfbJdUZ2b9AiuZYeglYgYe1xDF7smQXZmDuT3QxnINwe5QlQ4IAQQWQlpQUis+WaY6NzcVgjd+ou6BbNWL+VM7G4mIIBRDIIOhOOpz2gwAgWOOkVC8NU4Q0sAKscB4h43NqRmI0AYS/k4shiEFoAgihN01jAgjREap/vLVs0F8BIAR74kN55kMVSqqMQXARIKz5AymdegiDwM59doddAALdCYpeVtHrbpcLbo9HenWY4kQsB76/q0U3aCOYsNmQQ4Dw8zyc1v88hNkipOKTYht0nX27B8XFBdUCCKpcot/NUVVnZ7BbpLwkNKuCsSoQ1fUxVDRDzXzwjQ4gsMmcuxCfz30f5w0eEeRiUNuqsQIEa2VX6/yR/TLsljBjusOntR9NzeDA/mcFAwSz1uvq+g17neqmOf7dYhAaAUAIzhgItUCCEXBVus+Z69SFRdQEEKy+V24qw65Z1U9w3oFvBoKm1JyjMgiMgrdaOuJCUVUEAo4aA4RVfyBZMwgECM4wxuJAUn7N+jB/c215vB4JT5A/mk0M6B1hIJpN5YtkF6Tjm98W4LSTCRAiFeCQYWK/CFp2bgEIHLequhjUeASlvlYgPa3Kw/cz7SYJFV3H92UQHrummnMJjPiHTdCC91xYmBORkVEhOz9WJNQbF0BQ5asPNEDwu6r8LEtl5ejFBWazyXwpF6PqRWLmKziIkp+zbbuvQFQdad4mgNDEIDSgi8FvlRirZf9AMKtyUqucm8V0EawMYDQBhJpLBr/lbILubL5+9sFXtSpYCi7TKVOyLSxNsFhHghS+AQT++VPzbIRfXQKElauUi8HhCYOD1Q3tKjaAa8i/PtRaZHaDy0WLTCloq0UWaiTtbjf25e3GgsULcMaAoeJiMEGkSjjzum4UFeWJ+64+AALHymGzo7ikRLplNm/WTOIpzM4pLSkRxcI5YZtzvhPBwVNPPYmffvoZzZo1k3/zD1tr//jjj7LH8vPzERcXJ7/v378/brzxRt++qypt3QQQAleNGQ/GubDcPceY42+sfq4ZzmFhYZF8Zr7jb//1r3/hp59+kjnkv/l9p06dsHLlSmmbXlBQIKCA6/rII4+Utvbh4eG+vVhzSeA/swkg/C0AwiqUlBapLAYP/bAUiCzK0/AxCFbfGZchN5Bpy2xd0PxsxYoVyM7OFiuGm6B9+/ayKfbs2SPnGYHPjZOcnIyOHTvWif+tMTAIi5bMxfFHDYRxMagUx4YIUvSzBFQKhr2RHgGWHvVm3oxVw39T0H322WfYu3evb25atGiB7t27y3cUcrRWKdR4JCYmIiUlRflTg1pCGWWBuWbKAAAgAElEQVRneZqQnTeta4aK0+UtxspVy5Ha+RA4ES51QMDCUnZ/N0i17hioaNJHJedHZf3IewZa8uYeEsvg9SA7bzfm/fK1DyDoZqK+AmQECIWFedXKYlD3CIytCNUzVZ6PIXRuN96dNQuFRYW4dPQYycrgGG7fuhV33XUnfv31NxnnyZMnY9iwYTKPd9xxB7p164YBAwZg8+bNePzxxzF9+nRRKMuXL8dTTz2FZ599Vs4jg9CxYycN7PYH7eUpn8YIEIrdhfjC4mKQ1aZbqNe3i8EwUfybQOzTTz+VeSAQ4Gfbt2/H3XffLd9Rnt1www245JJLZE4I0Hr27ImTTjoJu3fvxrRpj+Chhx5Gy5YtsXr1atx///147LHH0KpVK2mp3q5du5Bt12sDFBRAYLvnGN3W/GCuMNnkYlD5u1L21aQ5erB2zSqUlpX4AQIpVZbrlV4MDtjtLsliSIjjQmM6S91mWBtFQ+TboUMHxMbG+tr/FhUVYceOHcjKyhKFwUUeGRmJvLw8XHXVVbL44+PjBTXzOyLwr7/+GjyPQtEIs7Fjx2HixImCoGt+6PqTpg5CXpYKUkxoBY9b0ex1wVCo57MooRBZDD8vnYsTjjrFH6QoLLYVIJRiy9Ytug5CXaU5+oN1qSQJ0p5//nl07doVp5xyis+6zs3NxRtvvIHZs2dj4MCBGD9+vMxdZmYmrr32Wpx33nlyzh9//I4vv/wSN900Wa41b948zJkzBw8++KAIw6SkJHTv3k2XKQ6uhmxNO1RuDgEoUsOjvCBFDRDWrEBap+5wesNV5oL2MytwqubY7XKL0pSZoA9X9otmTshs6E6TppW4WVMc6az8dMz/ZT5OJ4Ngi5QHl8vqCqXMYlAAIazKDIJxrwiLUV4+lf5i566dAp7HjR2LMZdeirvvvAtOh0PiKSZNug57MvbglltuwcaNG0X5vPrqq2Jh8rOlS5egTZu2so/S09Px4Ycf4L///S8WL14if1999dWyp4YMGYKEhIRqW6OBAMH4+IUrQnFREbbv3IHULl19Kbt1t59C73qvXbsY5ryPoYNHwBkepdvD6+Jj9RiDYAA198uGDRswdeodcDrD8Oabb6J58+aSgjt16p0yl/fccw/27duHW2+9VYDaP/7xD5kLfse9RUaIYGLWrFny2a+//opPPvkEkyZNkvk655xzBDjU7eGVLAYaX2Fh0TrW5i8KEDwsshbci+HvEINg82Dt2jUoI0DofZjU06b1RCtHVSMnQChFRsYWJMS3QYSumFVVSrGyBWn8aLRYqDyoHI455hgR9lTyRMBffPEF2rRpIxtk8ODBuP322+W7sWPHym9bt26NJUuWCP15/fXXC4NABcXjsssuE6FP8EBwUHOBE2jDslBSTk62qqSYkKQBgulWV14oWGWjYf2+YoDAOgjH9xmkAIL46LkxNbRggJ27VNVBSEmDo87qIKgbcG6ysjKxbNkyjBs3XgTbyJEjxSKmor/55pvx559/YsSIEWIRUdg988wzwhCMHXsVyspcIqwyM/cJff/SSy9h06ZN+PjjjwXo0aols9CrVy8BecrzbwUIgQBAKWld/VBp4nKYIg/KvMVYtXYlunfqBoc3zJykr68AnqwRKzigVa67R/pmiOyJ/EODRv0FnzargABBMQgmBkEKIckZ3FsECPmiDKrqYjDvXx57YeaFDMyTTz2JbxcswOLfFuPqa67B1DvukHTNrOxsnHnmmZh8000C0sja8N90F3DOpk6dKqCsT5+jkZGh9tADDzyARx55BOecczbWr9+AQw45RD6ndcrmbjXbT1buQxUB445RAGEnUpNTdVU+P2Crzs6p6m+l+JbNjlIGKVYAEMgw5dRDmqORof/733/xyCPTZA+QwXnrrbdkz2RkZOCiiy7ChAnjMWzY+bK3xo0bJ/KOgOGmm24ScHDcccfJb19++WWRjWR5Roy4EGvXrhMGjkD93nvvlf1U+8Mq2zxYveZ3pKSkwumIFlBXs/VQ+6eqmyuUzyBILBKzQwKaNf2dAIKrNIBBAFg8hovBAbutFOkZm5HYsj0iwtVCqCuAQF/ZtGnT8P33C7FkyVKxILngudCogEaPHo0nnnhCPvvmm28EMBAlk4KjsjnhhBNF+dPyYdDUoEGn4LnnZspmom+bbgVuPKJuWjw1P4JJbheys7MOKEA4oc8gv4uBOs0CEFzuEmzdsgWpqSwpXFcMgrLOqYRmzpwpwO2XX37Bc889h+HDLxCAsGvXLqGoZ8yYgX/+859Yt24dRo0ahYceegh9+vTBNddcg2OPPVasDoKIxYsXC2VKfyoFH11EnFu6jnjdTp06agBUGUBQL2887aHXpwtl3lKsXLcSh3bsDrvbISqbUeoSiGhZHLLypf6BarLkAwg6JlOAhET3i2pWv+E5Xq8AhK9/UzEIYVIKm9UTCQwUMycuhqI8hDnD6xwgcJQYY5CfX4AbbroRaV3TcNuUWyVDY9vWrTjttNPx/qxZ6N27tzwTWTW+C+fr6aefxtKlS4XB4/7hHwJuAoIpU6YIvU0/NgED//vwww+v4XZqRACBDIKrEF8cAIAg8JIp0x43SkpK8c477wiLRsBMgEBWgSD7lVdekVgQHgQGNOhefvkVPProo1i58k/ExDSTPUkAPmHCBLz11psCODi3BH5k+a677jpxR9RebgcDhCVITekGhzNaBfEe1OUlmwDC/i4GwyAcIIBAIfTtt98KpUn67PXXX8fxxx8vm4HIl4qdisiKqCmsaL1ceeWVvsCpLVu2CO1Gqvvzzz/HBRecjw0bNgrDQCH3/vvv//UAwjGnKoCgCyUFAwSOSdc6BghKwJBByJIgtjPOOEOE0AUXXCBz9r///U+oz4ULF4p1Q8FF1odggfNl3DzG5ZCTkyMgkEDh7LPPFiF59dUTxeK577770Llz57oFCCjFqnWr0KNDGmwECCLQVAgkA/nk7bT7wIADgQDyM+3E0a4G6c+lDwMuCBCyCzLw9W/f4IyBw8TFoACCUgT1CxAUoUFXSElpKcZPnICU5BTceust4iLhejj11EH4/LPPRVkQIFDh09Xw8MMP44cffhDXDl14dKvQJUSwQGB+1113iauIQI+swuTJN+Hww49oAgi16F4YrEy59ukWMACBbNqYMWNE4R9ySA8Za4ICgvInn3xS9hgPxheQDSKryvmi/KPRdf7558vfvB5lYP0BhO5wOAmEmwBCiFCpGu6RA3ZaUAzCAQYIBtHSfUC/JqloWpi0tp599jnxUTOwjYKLbAPjDoYOHSrUKD9nzAKZAcYpMPOhqKgYc+fOxaBBgyTCl0rp0ksvxQcffFBLH1wjZBAOAEDwB0LaRSidfPLJYp1ceOGFonBmfzQb/376aQ3qWshn9H8SvJE9oIXKqGu6DijQCAx37dqJzZu3yLUYFPf88zNx661TBCTUNYPA1jwr165C9w5psHsUsyIuCmnOpHziChgYT7/mCDRAsG5bqnv1P+UC4XkCEAr34JtggCAgTrMI3jIptVzXLgZNZkhRp9LSEoyfMEHoXwJvKvzNmzbh1EGDxO1DBoEK6rbbbsO2bdtEkVDx0LVDHzgDfgn+CASpcBifwKA4Mg0EC6S3CdJrdjQxCD5g6cvo8Qo4tgIEBhrSxfCf/7yFHj0O9QGE3377Tdg1/s1jwYIFEoMwfPhwccPSoOL8UFbS3cA9ZQIaa88gWGecMQhkELrDIS4G42Kt2ao48Gc1MQiNjkEwC5bWyumnny5UMwECmQUu7O+++06AAH9Ha5TWad++fRETE40ffvhRhBwDFvnvli0TJA6BEb30q/72268YM+ZSXH755Xj77beFwq750QQQrGmOVDicjwEDCBAmiXAiGKC188ILL+Krr74S1ocH2YUjjjgcnTt3kUhruiJ27tyJ+Pg4REVFo2/ffyAuLh4nnniiMEYvvviiWLb0c9NFZGIQAudOdTf0KXhNbfojN0K5wVxweRWDkNahK2wCEAJD/mx2f5aCL7pABRBIAKS/qZIgAl8zJ4UfvHCykmJRBhYs/hanmzoIeumoWAmXsAispBic5lhRkKu6RNVce7JXShRASE1NxZRbb4XD6cSunTtljz0/cyZOOOEEed4rrrhCABvdBnQl0E9NUE6gMHLkCIlFoAKiS4guCM7Na6+9JqzPoYcqpVX9owkghBozyigrQCBwozHEced8cX+RrWNQIxU/WYS0tDRx6xEYcE4Yi0B5SUBO8Me4hI8++kjceCojqC7io3zwxgIQmun4HV2BsvqLohGc0QQQDhqAwM3wwgsvSOAaLRjGE9CaYZAO07LINjBegVkMZB0Y4NijRw9B1YsW/YyuXdPE/00GgZYr/XiktWt+NAGE0ABhgERKGxcDM0hIZ9JtxIA3Aj26DgjY6F6glUTrlXNGtwMtVc7r1q1bER4ehlmz3hdKlEKRzARTqEL7NVUmQfkAgd8EBTPaWBmxFKvXrUJqJ80g6C6KDCDkfUjFS80Aq/vAuBYMUFCXVnUNNe1gyjiZGAQWSiJAcEJlMcgp8lsWuPGigHUQ4JBOoHa70xdg6o/yD1yp1QEIPJPgjS4BZotMufUWAResDMlYkaHnDRVlQvfOueeeKzQ240S4T046qS+WLv0dq1atkpgRfs9o+unTZ6BZsxhxlXCuuf9IbYcqUlb5HtsfIPAcBinu2LkTKcmpkkGlsj+skSGVX7k6v5AgxWrEIJQUF6FNYqd668UQDBDIrnGeTjvtNAFyjM/hv5kZxL3E+WX2CZlV7rcjjjhCmFXOC8EDWToCgqFDz8OQIaf56o1UZ4xC/9YXMotVaxaja0oPOBxs96wYsoP3aAIIBw1AoGAgVUZKk6iavjX6SrlRSD0ztoBWJjcLWQeCA7obKLgIDAgsuMGY6cB0LfrjTH59zYROE0AIBRDoFmDAGseXwogBoYw5oEuHQWyseUAgQMuHczVu3FhcfvkVYoVyXtq2bSsBcFRWzLvnZwzMosVE4UdgqNINgxVFVQBCYPVBrxUgdNZZDNIJk84CSwaDlnDW2g7Bib1+cKB+bI1BMFkMp588FE5bhIpfYJqkpFTyHyw6lCufJSa2l+6AgXpw/3RZdYnQ9ReCoQSvRRcD2bZu3bpL1gJTHFm74Llnn8Nnn34qc7Rp00YsX75C4n6ioqJE8ZOBIztEpUR6+8MPP5R9SOXD63FeyTDQ5cBYIQbGmSJlVVcMoQFCYWEBdu9OR3LnFJ1T30gAAtzILcpFcVEB2iZ20nUw6r5ZE4OvKbcYVEj2jWNLVodZDVT8TGNkXMK///1vJCUlYvjwC2WuyIwSzBE8kD3g/HTp0gW33HIz5s2bjw8+eB8TJ14tIL32h47Z0dk+69YvR+fOaQgPo4uhLtO8a/+k1b9CE0AoByCsRpkEKTLNkcKKGzg4i2ELElu2q/MshvJcDFQKtCqpLMgOkBrlBqIwI2VGgUbr5tRTT8WiRYtkczAIh8KKgTyMR+jXrx+ef/4FsWBpjda+BoJVSbl1FoO74dIcvWz47EReaSZ+ZrvnBo9B8L8/541BiqQyTZCicQMxtZTzQ4Xy6aefSYbKu+++J0qLgIKuhL379okLITUlFb/8sgjTHn0Uxx93HEaPGYMHH3hA5opBisotpLIAAg8rQFABhDzsIYCEWWMGIKxZuwqpyd2kkqJp1kQtTutY/VspJsMokCVg4J+EMJbD0EoMAu/v8SKrUKU5EiAwzVGAhg8gMKXPg+KSQuTnF6Jd22Rd88N/YQNWrO9rYhwCHsCcYlmWBvxyD//4009o07o1UlO7wuUqk72Rm5ODRT//LBkkBN2cP7oKqFiYIUSwxv3DxlVnnnk2Vq1ehe7duuPkk/uLYiTg435j2jFje1ie2lTJrBx465oTIl/8D800Rx5ZWfukOFVCPJk+R+NhEOBBUVmB7Pf2rTvXS7tnjh1TvU2wtbH+TV0Xfsc9xb1DBm7+/HmyP8jePf3vp+FxeyTuiiwDs7oI3qKiIpGTk4uFC79DQkKipHyTXaj+4c/WMSXL+LwlJQXYl5mBpMTWcDiZQi55o9W/fKM5o9oAAYhkYR2ps2rshPqjvBpmnBikyGnWleHsqlCSAgiH7wcQpJqi3YXdu7ciKYF1ECKD0hxrtyCM8GZaG2lOLnoT/MQgOBZnoeAyv2OwDcECI3hZcYybgW4FBlbRGqVSIlIm08Bce9ZHYEoeBR/9sTX3wQUyCLQ6KdB4tGyZqNo9+4J0ajcmah0E1kEgBW63AIQfl87DP442aY6qLLBsUE1lu1wlImzoanHYmJ0ffFT/Ga1Wrioq5MHHH3+KXj17Iq1bV63ogC1bVBW+n3/+GYcffqREvKeldcX8+V9j2qPT0KNHT3z+xRe4+567JZ7kjdffQKfOnaQiXLOYGBHEvy9ZIiwCKXIezAAIBghWi1o9G4l0K5BgsKEKHlSRBm5xMaxdt1rVh/A6YGPzJbHqFUdgKH4BCPzO1ytT1ULYDyAEiQMClKyCDAlSNIWSBB5IFUYdDGn3wuMuQ3r6HiQmtUVMdIykFFeHTad7xZplwRxX34wSzEjtBnU/t8fla2nNlFfCzJKSYoSHM1tBvfPC77/D+vXrcfFFl8j4/7b4N2RmZqG4qFAs1/yCArjKysRPEhUZhcMO640LLhiu61RUVXKZeA8FELQtKimmdGNs37Ed7dq2Q5iDSqz+AYKqkqgKJTHNkc2aQhVKYu0Kl7sMu9N3ok1Se8nyUPEiZp9Wfy8FjxjXt3HXWBkZlQapmnxxMgnIePz55zL8+usvGDXqYolJWPr7b8jLzZP04H2ZmcjPy5cgYjW/wKE9e2DUyDFwsN2o2hUhFnN588h7qndUz8Ly4y7s2r0dsS2aIzo6BqCMoVuoFlkdVV1F9fe7mgIEH9oNppnr71Hr88oUiAQIyqoB1q5doQol9ToSXg/9oXxP5oYb4epFVvY+UVkJLdk90AjTqgVN7aeadKqc9XPek+iXm8+/QZQVx5xufkcEzeApWixM3WJQIhmG5557Ft8sWIDOnToLRcqshoiIcJSWlol/Lj19t9RLGD9hPCJqWElRZl5bOkoweJCRno5IPlPzOFWDgL7q+sKPbPTjJVwLQ25JFn74fS7+cfSpiImIU4pM09hqTFn1q0wKJbEcblhEhPaXKxCjkvnq5lCWPTvGKevQHBRO/EMmwPiq//P2O6J0rrjiMsxf8K3U/V/0yyJs2bxZ8vRZylhBVy+cdjtGjByJ26ZMkWuQIt9/HQW+iZoC/+9MuqLfWvWgqDgfu3ZsQ8eOnVX55BDDYBS1YRHUO1LB7/9j81t+xZ6PBiAwzZEAIcIWpU7SIEUpJbW/mHGTl5cv6zgyMgZuiWiXbk6+AMxQsyRqNiBGwi+WZWf6HpSgwcWd7DNyFJeh/qkqQyqlzdbWfN9wJxkPNQ8mIFN1B1QxGibLg3vQ6bACz6quKSND1d7msxWXliA7K0ukbEJ8AsKd9Q8Q/KySTeogWLs5ynqxrjfdP6O4uBBZmTlomRCPmOho+QkDTetwO/l1t9rG/hhay/ByBj2eUng8LjhlrPSPdSFR0+9Ena6ZNbtD9phhAPwAwQis8qgxK5jgfV1y7+ycHNEZiQmJsFGJCKD7uwEEAJGRmkEwk7AfhVk3grYhr2IFCNzja9YsR1lZMXr1OgpeT1ggQJCgLZqnHuzauR2xsQoxOuwUDuXXpa/ofUJb8ca6MMtdR45LCpoCM/7Fbcfvvy9FUlIrtGvfXsrisrIfadS8/Hxk7tvna0ZDqo5/OnbqJHRrTQ+xJQVY0SJzS+YEi5sktExQG0937LPVG8WmIJ0BCN//MQ99jxqEmPA4Tb9bLQJ5SrEs2LAntmU8IiI1SOBIstBVnUo1PaoaHYW2TWzIyc2FwxmGmGilNGmN5OTmoaS02FfkSfUzUOKLQXExzRj8FMoXrQCJNqx0umHg79Q68yukMlcZ9u5JR/OYGERFkwlTX4d+XgUdfCChEouLylbEpNeLzIJ0zFs0H2cMGIYIh8oP9ykkBkPqceK1C4sKkJ2Thehm0SgoLNStpitfpVLs0SKLRDRrN4hhTNTbVy1oTNwrhi3R7IQ8M1M+1QSE6Kfp100aBVXy4FoZGYZDWhErlyaBfVh4OMId4bB5w2Slq7GvfCxq8gu/DLKBvRjKbfcs4I5DQwbLI/Ul0nfvRFR0hChIsh/7u79q8kRVP0cxUlY6S7MxPlATQtnr9F0fKKwinpNOpBosMng3PCxc9i0zkRITknRcDC9GYNsEEEIES1V9YhvLL/cHCMs0gxACIGhqlJZRaWkR9mSkIyo6Wqp3KUu/+ju47pSTUQDBytGMdCDoqMmzmispgGCH2+uRUs7cLC3jWyIsLFwJf6F4lfKtnyMEQDh6EGLCygcIrNi3l+WM3W7Exsdqi49vQo1V10/pV8TB42ysTwp9BuS52dZZJe0ZZBHwMPxW1SZUJXhDP6xRWMFKxP9i5Ado0/N8xktk7stEZGQE4mPjJGBQhB8FZ3AZZRHAgdUnFf4rf9AMg+DwerAvnwBhnhRKirCzRr0GvaJk1dizQBNpdeMqcOlSrvI8VZgaRRjpbpf8T7b7tShepUTUxaq237QzReudUM9Q/Z0e+kWC55QA3nQvdLBYlcefwdBoAALXos1Ux/BKRgiZFS6eymMvqjChNfiJdY5kbiqbIH1CVdaXX+75H0ykrM0uIJ/ATvqxuDgGuptaSD6uBi92wE7xg2SJZvKyrk6pSKHQpZb/NgxCJQCBQ8TML68HpaXFYjmXlpSirKzUV+WuOouu5nEAB2jlmPVvswvdzch6yYgQOti6gRoTQKAiUn7NkrJS8U0WFhVp67UySVKTcbZsLu2KkasIW6uFKC1TtlSuQJAoQedRFG85KVOGOTDNlahsA6w4Nhmjy0MUvwIJERGRiIuLRWREpPLPa6GmrhWoQlX2QqDzwRfdUM7QCUAgbe/1Yl/BbswngyAAwVphTilhPq9Yxwb7UNEbq123Za7ODEgwpXYZKBZBuwYtHTarc70D+VuRI8Jw+eJO6+Vxqs0gaCamOnKuXh7cQOo6rWdQ3SdVBpmwWCFcf9W9WuP5fRNAUDLbEoOgXAwVAwRSa2rjukTii6fVWEOa+g+0BitTQNqyL2+3GclZkUO/rn9juOZQq9XnprNEzotpo6k1s2nFkquv5V4Zg2C0jbm/7kTooD3OjBSLUgoyNsw0VPToVf+NCevz2yAmgFCtPZu4E0xZ6ODRMn0PCA5MkJ1aLX6mQEbdVDzUmkSBBBVYaA5Zk5phZ/tjMl4CHLR1Le8kVrffBWCsJJ8Frte3T6GXY6YpgKBASVaBavfMGIQwqFLLqkiSpoJNT3PeX2ou6HVl4hSqxCGotzTXFScc3Rwa3PiAj3rJ+lqU9XNda72J+rmDJU6jCi4GPdL7m+gHblwPrJGl3lsFRZt9aVWu9TRp9X7ZJoBQI4AghWclAMatosTFuqr55lA+zQq0qZWmL0/jNuRvLAszUInuH+J2YAFCOehGGBDrk9d87mq0Ry0+d+pvBuOZHgihrqcsf1Lm1oA7xUQYIW18qSrOTlkzooZ9jZGIQkxmiSpzrDIJlFq1HsIY2NmcSa1r/obR/oFCWN27PDpZQEswQJBCSRHwuA0406DSgBQDDlTkX4WBiSHHXQdRmIBDiYOwMTtJjYnCPw081zVaIEEnNUqAEFxG+MCOa+OYVyP/zL6oN+uoLlZVFa7RBBBqBRAU5UtJXJWCLeXPx4Hy2VVhhVTyk+CAr9qNQ/WepyoMQvWueCB+zblnWSKx+E2UYNCDMEjRLj5fKnQtiAWgKkWvFJ/u2xiCRjf+QvFSeJX/MPAI/jcbNUFiNFQ2hnJMhAIIynLaXxDyaSTmwQtk0sXwy9c4jQDBGw63S2cAaP6NN+N9JLjVBAJWwYUcAGrkQXTDaa/KoBAGwdJwqu4BQv0FDTb0WqyWi0E/nL/GxIFThOa5TdpjQ49bRfc7eOW6easmgNAEEGq1o5oAQq2GT59sAIKkuYUACQIQdLCeXyDqgDyL1awuZ1w9JLY0mDDlk702uN2hiiztDxB4HQbK0Q0hxX8qAAhWkGAEtZVBYAzC14sIEM6FgwyCBggqTVCFYPJZJTBP/qjmUNVRO4oIaTiAcPAL/8CVWxOAUB44rIs90XSNxjACTQChDgCC2CW1mk2rn7hWF2rwk4NFeO3GoXqPXxsGoaGes2oqjmqNKXoSFxFcRlkH2wUDBB/Gt5RzNUyBrEhrbIGwCoo9cLkUQPAruFC+UvWZMAfM73c6tS/fOm4Vv5vxXEiQYj4Bwnyc3v88AQis4eBP1dQBkCbDwG6HXeJEgl0MVbufZHuQQdBsiwRgGtdCQL+I6q22gF9r940/ZTTUtQ6uKno1BQiVpwrUYpwPyKlViR2onCmtr2yThh2SJoBQK4BQV1ZEXV2nYRdPfQYgVuVNagoQRF1U5QZ19JvK8+4lNMAEFaom8pZ7q6BBQwYE+1pVUJ45X+WgMxedil3S/GiRa/eDuDPc/KMr95Urxfz3Z/oWaXqHQ1cjrKIPXxEbqsjTvrx0fM00x/5DYYPKGzfv6A9+1HEC8rKKSfBXYiLTUD5AMGmZjHkwe0ncMdo94gMIdRaDUHH8hX/yKlckVVmNDaVsVCKLqqRYYR2EOtoZjfIyknFUEUgwcxoCAFrXqH+JN8rXrNpDlQ8QlCxxw5adX+qlVWPXOa9/j0JJlaU56iBFkVlVsxIrmhB/RHjVpq0x/EoEW+1fvRavUlOAULnQrsVDhTi16gBBAgpDAAQVA8AYhNCVOq0ggZuWhasEIAhIUH9bqyCKBR/AIlQ8JnQxOI0LoIqpgiZ+kqnA+/J245uf5kk3Rxsi1I7Ra8ekICrWQ9WDYEiPuBp0Gd2KBbbOnREMoetJ+Aob6feypG7WPpjNCE39dyisKe9mVH/FECAkVGVwp3SvcN0AACAASURBVAZiDe/nt6PEUwOAcGCFQR1tWU6cKgBV/mEC0sWJ5vuZmUdf8HM1S4XX0QvU8WWaAEItGYQmgFDHK7Ial/trAQRVH0FZ/6HK5TlMbGIF0fgG1bNMMK1+Wv8GKPC6BoCwkU2gm6Ey0OQF728t4BNK0VqZMIkhEKXtQaYGCGecfB5QLkBgYCRhEEsnuWBjp0ftJlFItAIGQcCqrt5gqcpcezBQ3nI0hbUqUySqhkFoxspkh+jgUrmVICM4pFQvQZ01ALShAiKrDhAC3FRiebv1NDUkQ1cNkVHRT31rTL9Hub9VAIGJ7ur9FVBwMmVYV7vUSqXeql7W0RtX4TJNAKGWACFERz097NUyrk2RmCpMWWP4ic828r2kqplv8oDrglWp/D1rChAaWnhVvhLoYlALUdF2obMC1HVUkL8lm8EyUFUDCG6wBoIq1mS1dMsfcWZKSD8IxiJQEFpLDwfdX72GqgspV/doBuHn+finBSDobyUU0YQj8nEKiwtQWFyIUleJ9A1Rv6tsDNXdbGw2Ve5rBLptKnhb/VV5VwpiECpcqMbKrOhaFvjgpUsoDImJrRAT01y6DyqQwz+NCyBIMSobpDjcvn37wGZo+QV58m/fYfRnRWNUl78xy7m8+5klEJq2sbgWygd+avbVquX/WGY/rkWC9KKIjooWkKDAXWVrtnIJd+B/0QQQagUQuFTYGY6d4HLzcuRvJRWrN7UH42Iy/QEiIqMQH5cApzNcl/FtKEFWFYBgnQj/hjWWZWOpeuYDCLpugY9WNnUGdJqjWVwGJASvMhXHoNgBlZ6ogAT/WwCBtIl2Wao58gqVsQdMDlBVHFlvnm2PTXyDNFxSuitAjRNQqExK1eSHpZa/JUAYMBQ2m+75IPtEi1qdiVFSWoLCokKERYQhLj5eLGnTKMm8qy7rpO+nQZNFpWtV6scUvtLKVk2k2A32oqDlx/Hxb1x1TeUGUWPmX0WBFSV5DbbsDg+P0EGgBsTx+oplUArDDFIgSGEnTVXn0dxRJYeyaRX7hjRrFo1mzZrrCqX++IrqSZfq/rpqDALfj/IuKzsLkRERiI2L1UCP72il4UnZm/fWZb5dpTK3ZLj87qP9FWpZmUvODA8Ls4yR9X2C68/QReeWsuDsCyFl33XFE64b/8yaMnb+TwiaeT9WGIXNpduMsc5NoDD3w1l/Z1Q2wWNl1kiu27hElfb+V8AHAbEYgaWWm2IQpJtjOb0YpDgSI87dSM/YJTXko2OiWBlGC71qIoTq7uED/XtDfeoqfTk5eWjePBZxsfFw6qZVSsBW7H+t3WtUBhCC720ElU1KY9PSYT8CP9Cvrx1dcQyCFaMHj4cpmczNyKVV+0OtTzIBFLoEdapEbMXrla4JVnFUBZSY1aBYBOk26at26NexRngIk+DxIDN/N75dNB9nDhgGO0stq/JLaq9IaiLr+Luwb+8+xMcnoEU8e0PoIk1a2Vj7TJqmTFQGRrHLr72MvTA9I7RyNz3OfIJevce+fVmYPv1RXHXVVUhJSbEMLa9EIEVFIygmqP6DUvjsPZCZlYlp0x7B1ROvQXJyKjZv3iRthQ/t1VPOIVBzu0pRVFQk3Vfz8nKkGRVZAjZKS0xMFF0qYM5XhdQu57ncpdi5cxs6tO8Am82pynGHbNJV+1UReIWKAYIZE4+H7Z7TxXKOjW0hFrPqR8D3BrZu3Yr27duTQkJeLjt0JkoDPB7/+c9baNu2PYYMOV2PrQkM9D8JweKM6TMEIE2YMF7Kue+3PzxAfn6eylpxqPLhXBMlxcXSXn3UqFG6PboBy3bs2r0D27ZtRe9evREVFe0DHpyj22+/A5dccjHCw8OQkJCINm3aweYrk+6nHyymhg9IlpaVYMfObWjVqj0iIqJ0L5q6npuGvt5fgEGwBlXXlNWpTqllCkXVEc4tXcwio8IRH5cIu52bWCklq7itCVQwC1CmR8rwelCQl4+o6CgLmvbbHSqtK3DxBGw5L6RfeV5uLuLj48Q/Xaap7HCnv0WtbzmI4cfsfC1+dSGb/ZanCCz2Qs/Hvsw9cDrCERebKH8rSlRZavVzVB0gqDXC1DoPsrKyxOqLjY0Vy8/B96/WQ1ot0fLfTFGwlc9+RQBBMQLK5WA81daqxKK+WD3Zo2oWhDoUG2GdBC+KiguQnZ0DhyMMsS1iLRZfOe+jKzmKJSyKQNVH8GUJSHdRXYFBnscj603u7fUiqyA9ACD4lC6FLy0+r0s6WNKCS0xsDZsUaAqTmAla0mwBzbVEJZGUlIAwp1NKU6tsDH+Bb0mOdNgljXLr5s1o3boNopvFqPkNNN6xft06DB02FG+9+RYOO/xw9b2vboQX6bt3y1phvIZ01LTbpW06O6aa4MmN6zZh9OgxePX1V9E1LQXz5y7ApOuuxXMzZ6Jjh/Z4ZNoj2LdvD4qKi7Bj2w5xmYRHhMu1Lr/scky64Xo1b/sFfqomVrt3bxcFHBMT22gAgllz7EGTsScDbdq0RpiT72SYEpt0dr3kkkswaNAgdOrUEZ9//jmmT5+B5s2bS8vzO++8E0ceeQRGjBjpW7dcKwTsxcXFsm5ycnIwZswYjB17FU4//QyfW4vfhYU5hdrftWuX3CcyMlIA2KhRI3HmmWdh48YNmDLlNjzxxOPo1KmzbqIHREVFSdfbu+66C9deex3OOecc34IvKirEoEGnYurUO7By5Sp89dVXuP/++3H88cdXKr64zzljufmZKCwsQnx8olQtVZVID+ajjgGChW20jEqgkPQJkgCx5afx/DgtgCW0dMgylxbe1R8trEzWGvl+qgMQlDjyoLAwH3m5ObJBHM4IiaD2eae0YkhPT8eGDRs01UiU65TmRhSeXJBOdgHTi4s/6tOnj1h3fn+jUkabt2zGHbffgRtvvBF9+hwjSlltVKWAi4uLRJCZtDBuoogIKj9lTfGJN23ajOsnTcKLL72IVq1aY/78efjll18wbtx4tGgRi8WLf8PevXuQlZ2N3bt3Y8f27SgtK5PNNXDgQJx91llwhqnW1z7C1BI7Qd85z2fr4GbNmsl9JZut8iD+Gu6g6gIE1ZK6sLAAiYlJMg+hDtKFFFIEEAz2c5W5RADxyM/Px+Ili3HcscfJZ/4qhoatUGs9M3Mfvv3vAgwcMBDx8fEBtzHAwRqdziEirNyydbMIxp6H9hIgyNn3ENjQZSDzbce+zExs37YNvXv3luekAlVCM1yeR2EdL2Jj4/Rzm8JIgSDB5SoVC5Bgjp1IK3M1BDMYBhyIG0BbwMbFwSwKsh98JyptAoQFi+hiGAaHna2tTWdFMggEQBzzItnwCYmtABtTK8NEUE+9605hFqKjm2HHjh24/LLLMG7cWETI+Kt4B466qhOhQNm8uXNxww034JlnnkH/AQMUYA8ACDb88MP3GDN6NObNm4eU1FS1WHUVR877B7Nm4ccff5QxJgBbunQJxo8fj759T5I9ynvv2L4LN998syiSE048Hs2ax+DfTz+Lxb8txoMP3o/0Peli2TZv1hyPPfYojjzySFw8erQAFq4/tgoWF4akogaDSTcKCnPEv9+ubScZk8bAIBiAUFJShJzcbGnvTrlmuhkad8qaNWtx6aWXyntOmjQJqampIlcIHl999VV06tQJp512muyNo48+GjExMfjss0/x3nuzROYQSKxZswY9e/YUWWbcagQCXbp0wUMPPSTXO//88zFz5kw8/PDD6NPnaKxevUbmjfc54ogjZK44hzyGDh0qv//Pf/6DOXO+wssvvyKdaHk//oZg4/rrr5e9xWvw3ieccIKe7/IAv4pFEIDjLsHmzevRpXMXYX2UTqjcSKihAGyA02oJEER9iR9RpWDR96KayPh9O14dtKHCOpguqdSoCAn+Tqc22ZiaRatA72baJAEtcG2k3swkqevbbKXSKtcN9ku3wSHCpvoma1UAAhG9/9IupKfvRlyLeEHFqlmTH7jwFagw582bi1defkXTb3ZZjPkFpNsSkJWZhZSUZEHQubl5Qnt9s2ABEpOStEVrxtCGP5cvxzXXXoN///vf6NX7MPHrigDWNOazzz6LpUuW+GrzcwwmTpyIo485RgAIj40bNuK6667Fiy+9hISWLUXY3nDDjejZ81BMuv56PPzQQwJcEhIT8MH7H+CUU06RDcbNww1z1NFHqzQ0aelqSTyzBFHt2bNbrLu4OKUURYA3EoDg9bqwZcsmdOzYCWFhEVpJ+feYUTZLly7F7NkfYvz4cViwYAHatG2DQaecKkJi06aN8vlLL72MDh066HdU8yD+Ur0G5sz5UoTW008/LRaMX0iwbzwrEzp84EItZDs2btyIiVdPkDXywgsv4qgjj1TzK3EJ3Dc2lBSX4JFHHkFpaSnuuutu/PTTj/jss8/EksrLz0Onjp3knB07tmPCxIliwYkbIKRDlCC3UEBCQkvFgFUkzKTWgHYnmLRKaewk2RK0lhySXsk1JLEdZBm4J20QF8M3QQBB+ed1G2uPC0XFKiCRAEGVSbDjvvvvx+9Lf8eTTz6JpMQkzP/6Gzz22GN44YXncdhhvTVAUHMo9qvNi82bN+Paa64RAT9r1iwMHDRIcXq+Dco25TbMevddGSP+7pBDeuiFanpAAJs2bMDevXtlv2VnZWH8uHEYctoQ/PTTz8IsUCFSqfzwww849tjjMG7cOFxw4fkoLSnDrh27EBbuFKvWNMF86MEH0aNHD5w3dJhSGTagbZu2aB7bohxB70ZJaSG2b9+Kzp1SARuZrtBlretUU9gqr4PALe8DCAkJcDrCdKyIkuuc/0WLFsmYpKWl4ZVXXhGFznXKffO///1P3CuUL3PnzsX06dPRt29fcQvQNcHzuNaUsWRpHGazyZ6cM2cO3nzzTdkrI0aMwFNPPYXJkyfjxRdfFEAyduxYTJgwAW3btkVSUpKAfT4TgUaLFi1k3S9evFie7fbbb5d54lwSLJ544olo2bKlyG+eS/DXunXrCoZYAQTFaJVh/YY/0aVzCsLCIrWQ/FsBBC+iiNwpAGyAi8jX60Y43LA7SAnaxQfktXlQRmtGlIcdXpsDHrgR7uEf5jmTVnPAVuqGNyIMxaz77rEhXKq80fdnh81pB8q0dtEgwg2P+D9VzJQH9tJsuCLCUeSIls5xET6fZPU2UiiAQArNxCAoZUdFYGrfu7AnYw8S4pOkXa6KUFILgdcy1gD9Y8uXr0Cvnj1FKcz+6CN8+umn4hfjv2+/7TZRusv++APXXnctvvjiS+WXNJa55InZ8O2CBZh651S8+8676NS5sy6q48+L/3PFCuzYuVM2FIXa0//6l6BlLnrehwcVATfWueeeK7TZWWedhSWLF+P7H36QDclDlFBpKS4aNQo33XQT+vXv79sYJnKdvmLlP9aUsrYGCaD27csQoR8Xl9AAFs/+DMJJR5+K6LBYn1Xpd/Z4UeYtEyXcLa077DYqaB1gp99Q+cu9EiQ3ZcqtomQZq0DLj62sSX9u3rwRU6feKdQxfcP0VXbpkiLjTF/0zp07Ze6XLFkiwosKmnQogS0FFK3JURddhL59+ymLSI06srIzcfPkycLedOnSGRl79uCee+5BcpdkWVZc62yWtG7dOoyfMA5PPfkU2rVvj5joGBQU5IuwXLVqlQhJ0vC0ajn/FJ6G5fBNpE4H5H50ecqwZesWtIynkA+X5kqitrVMC+kisbBGStEpkMB1JjUYCBC8XjjFH63aPWcXsFDSfJwxYBjC7FGyfvyOGsINN4qLC2VBtUxIkuDBMpcXt992O9LSumL8uPESCLdp82acf8EFmDFjBvr36yeuBHNw7ZaWlOCG668XtxEVz8xnn9UAwRd1KM9LZmzqbbfjmWefxcsvvYQLR43UnTIpl9QV/7tgAR588CE899xziImJxuhLRuOlV15GVEQknGFOucfWLVtxxRVXCGihv/3rrxegID9flN0XX36OhQsXKlbRZgMtarbX7tiho6zP6JhoXH/DDeh/8snlKB+2ki/A5i2bkJLcvd73k3+uK+/maABCLhmExEQ47M4AgECQdv31kwQQbdmyFffee68o8cGDB8sfUvyHHXaYyCLGF1x22WUYOPAUmVfupTvuuKNc9xzn9eWXX8Zrr72GPXsyxE1B+fXRRx/h7bffxjfffIM33ngDTzzxhOyhs88+W/7w/QheCUDIBFL5U/FnZmYKQHjvvffw4IMPyrX79+8va5ksIdlQI0PLRQm6I6vLVYb1G1cguUsqwpyMQ6hT6HYALlY+g2CCoYMKJSmAQCUuzVD4/zY3kLUHOas3Iu64Y+DZuAH2+BiACp6NYRhcEhMt6U7e3CzsW7wMSX1PEB/Nkk+/wOGDBsCeGKeUjsuDfStWo3nbJIS3awdvxl4UlBSjWZvWKCt2wW0PR0RUlDIG3B64/1iEzGbRiO5xGJweINzLqFetqKvBJFQHIKhZL8OejL1IiEtCRHiUFip+gGBQL90LpLRo+R933HF46qknRQB37NhRBBgpUKLat956C1988YUsTiqjQL+xDTNnPoeHHnpYFj7pfn+kuvJxzZ07B8uWLRd6jJTkRRddhLvvvhsZGRmy+HkQvfN8MgtEycnJir2gQnn99dexZcsWUSa0hPksRPek8ngvovLLL7/cF8wVyIaaIC439u7bLfeKi02SSGIDrOpnZYcGCDHhcfLMhvRX9/bChVJs2LgJ3boeAjutsVCHaC2vCAsCJM5X//4nyxzSpcSDtHePHofI2LVq1QqzZr0vQOKCC4bhiisuF/cFv6M1zWZHyg3kFav/hRdfEEVz9tnnSldjfk431JQpU0RoPfnkUyKQrr7uGnEx3HPPvbJWuN8YZf34jMfleldccSWum3Qt7rn7HnTpkixC9tjjjsVVV46TyPLLL78Mw4YNkz/BAEHRnlzFbkIEbN++Xawqpz0cDk2JCiixWG7WoSqPobMWYzJuFLKADgEIqlkTXQw+gKD3p4kPoUVKIJWQmCTWmMMZhsL8fHGdEBzQj//Ka6/hs08/E3amc6dOcJHN0hQ9x+flF1/CihUrZO747tMffVQBBBODIExPqVDTo0aOwtnnnI3ly5bjmeeeFSZQDr24iwqL8Oi0acjISJc9N3v2R5g2bRoef3wGzjnnXPQfcDJ2bNuOUSNH4pVXX5Xzv/vfd3jllZdx9tnnYPiFw8VFJQ7J/2c+773nHhx+xBHyOceHrqvo6Cg0a1Eeg8AsgXxhRFJTGytAyEFiUqIAbpVtonYdleuuXTvRvHkLccsQAHzyySfiUhgyZIjEIFC+ECDwe7oiBgwYIECL65cgvLz4HQMQKLO4dyjreF3OKRmIyy67VPbllVdeJQr/5JNPlu+5PgkQKGNpKNGdy3XEg67WW2+9Vf4mW0pWgQaUYgZLxRVc4aFdvWUuF9ZvXI7UlK5w2CP/3gCB1KVTIuhKkfnrTwiHE80O7YEdH32EqK7tsGHh9+h2/IlIL8hFh6OPxvqff0V4YS68Kzcg/NBucDkc2L5sFdqkpaCgRTR6HdcHYWUe7Pnld7RI6QxHm0REFHuQvWMHmse1xJaNm9Hu5P6Ipo9S8TnAj/9FbngYmvfpy2BZwOmC26YrtWnFUBWcUG2AYCvFnox9SIhrpQCC1R7yFdxQG4X02rfffivUMP1kZ575TyQnp+C6667DBx98IPQXFydprVtuucVfXVavSAZijRw5UqwRxiDwN6bIjSmCw81B5cSAKfr2iMCJpgkWqGCodBi4w01D/xspNqJ4ggKCCrIye/bsVYrD4xGridZv9+7dhZXgZ7SKFPMRHHhjBQi7REA0PoDA0jtlGiD00IVo9t/yFNyffPwpZj4/ExER4SJc6JccPny4CH7GjUycOAEvvfSKuBtIjX7wwWyUuUpx/rBh4lvleBt/vnGRKYurRJgJWicECPxs9epVuPvuuwTEzZjxOA455FBZS1u3b8NNN92I/IIC3HfffTi89+FYtux3XHXlVTjmmD7CNNBV8uADD+DPP//E2HFj8cy/nxGqm+lWY8aMxjXXXIMhQ07zxauYt/UBBJsHbq8LO3dul/WhAIIKNKsOQDCAIZRAJ+gP0wBhHgHCwGEIs2kGwUL5cyxKy4rhdrkFILglO0YFJZLVWbd+vSgPBpgRNA0ZPFhcKnn5+QJe42JjZRxunnwzpj/2mABbKqJHH5mGgYNOEWPClG4mYHr/vVmgW+75F57H9ZOux22334Z+QZY8WRu64S65+BKJKRkz5lJcf8P1AurF7fHUkyjIL8CFw4cLE9HrsN7CYDDOp1evXph49dUoLlG1HIoLi2BcDBdogMD9TvBTvovag+KSPGzZvKVRA4RWrYwxYNwLyo1GmUHZx/X74IMP4LvvFop74dhjjxXFTHqf/83fECBzXzz66KNinFDW+IGo32XMa5KRYCwRZScBAlkyAgG6MChf+YdrgYYXGcOkpETEx3OswyQuhaCErggybpRzZBAICOiO+PLLLzBgwECsX78e/fr1E/DC9VWp29oCEDZsWo4UAgTb3xwgEDE6PWWw7duDvfPnoUVKF7giolC6fgNaDD4ei195FcdcNAbrFy1C1yFDgKISIHMfSlesQ3ifnkCxC3sWLUbi8X3gbRkDW5gTq2d/hjaxCVKlavee3eh57InY+PUCxKekID4tDd52bVGYlYNNa9cCLjfa7lqPHI8d3jbJYiV0OKQLnN16iWvDyJ9KJ1e7BZQ9aoPDCaxZswzluRgEFlYKEIwxYpPgq2uuuVYWKK01CjouRkbocmMceuihGD16tAReDR48xAIQVCjgtm3bZVGfdNJJQnvPnPm8uCHEStb0Lt/x448/xvPPPy9KnUiZtN5tt90mwpJ/0xIhHfrOO+8IvcZn4cZiIA7BCg+eR0XG5yHTwE1r7uFTMDK2Vu7s4AII3dN6iMUT6uCY/rliJXJzc0QBvfvuuzKOtHDef/99FBTkCRB76623BSDce9+9eH/WBwIEL7xwuAg+AgTT+8B/D5uAi9tun4JTBw2S9K7X33gdb735ptCcnNuRI0dJhPz/sXcVcHKV1/eMrvtmd5PNbtwdCDFIkOABGmgIxWnRUmq0QOVf2uJUoLS4tIUWDR5BAgSJB4hBNp6Nr/vu+Px77ve+mTeznt2FDdnX5kcy8+bJJ/eee67JnO/dgwULF+CLtWuxfPlynHnGGfLnww8+xMpVK4XaJsvBOeScHz/9eFx26eV4/oXnUFxUjDfeeB3/+te/MWbsmFAMSlcBBOFnjHiYaLDQPoDgEfcEKWulEqzCzHDcn3v+OQzo3x/XXX89xowaLTEAt9x6qwh50vZcv++88y62bdkiYI6Bnvf/9a+4cO6FmDt3rtDZViNgt6ykVGJxCNJvv+N2/O7//k/chffcd6/UXjAfnNf7//wX3Pun+/DsM8/i9DPPQGlJCa695hpxFU2dMgVzL5iLhx55RMaa++cnN96IkSNH4VrGqjzxhMwPgxSrqpk1YpfiR3RX3f/X+zFp8mTYnUbgb6MgxcMTIFDuUoYw/oOsAeXejBnTUVxcgi1btoiRwbiZPn36YPjw4aLIr7rqKmE0qdx5zpw5c5rcnxwixoAQANDQIUNKgMA1QrBOlwZ/S4OJjA6NqTPOOEPiVQgSKHep8P/xj7/LdQgSub/p1qBbjr+94447xFjj5+PGjRMZHWKXmqMRegCC7sUQdjEIg+B3o3L1CpSvWI4qtxtj5sxF7arPkTxzEtY+818cNfdi7Pj8Mww46yxsXr4CVTt3IcHtQX1dOWyZubC46SMHxn73HFgSE1CzZCnsDCaxxqC2sgrJE8bj4Ko1SB05ErVlFfAGLciZME4JYL8PwZUfoDYuEYljJ6Nu8ybENVTDOv0kBCUITBXs+aYBgqawuAlIX9HKJMLmZiCtzGDAO+64Hc8997wsYDMbwY3GQDcG5hBYcPGSimMQjrLYlKVF+pr/JivAjfPEE4+L9cgAKgpPImZG0xMg8Hveh0KKm4LpRldccaXQa6TeyCb885//EhTPDccNxXSgfv36hWi/5gECXQxkEDIlivdQs0pa5vP0t+1xMYQZhJYAghHyAdLLVP6kM+mWYcAThUplZQVu/dWteOD+B7B33z488fgTIpxIIc+efS6mTZsm46x8luHgJEb5kwJ/6635AhZPOHGGWK4ce9LRt9xyM26++RZhALheF729SHLFSZmqeXkHN//yZhG2N954gyg9Wjj02RIQ0g/LNUCBV1NbjdGjxoiwY/CgDvQKAwT1XIFOYhBCs2Gi6nS8Cu9kDygXQ/MMggou5PNTITOVUJo1wYp5r8wTi50s11lnnYUYh1PiG+i+Yb0BrmG+H7cC4zBWrlghufAE5QsXLsKE8eNx7TXXYs4FcyRmgADwHw8+iFfmvYKn//k0Bg0Zgq82fin74qqrfoBLL7sMzhgGsKoIWzIE1193HVasXIFpU6fh0ccfk8JKn3zyqewHsmkXX3QxHn700QiAQAbhqquvFjaj6GCRrBlmXRBAMEaBtRd++9vfCmuh4zgar/nDEyBQNrMeBNczZc+SJUskvZDrkUwV/07355gxoyXugHE1XMtcM2QBOJ+KSW06uI8MA90LjEEgQ0r3H8EI9yEBA/cGmQgaP7wP3QsMmOzXLx833fQLcTU8+OCD+PjjjwWY83qMV2AtDBpEd911p7AI/A0/Jxs7btzYlrMRegBCY4DAdqo2iw/w1cK1/gs44pJhy8nF9gcfh61/L+z87AtMGncM9sbFYuglFyPoditfcFkpdrzxGoZecBHgtGDTgrcwYtYZAhC+fOoZDJ02GTZLDDa99wFGzToTVbsLkZA3GEG/BfbsdPgSY+Fl1DQ7Sb39Jtx9+yFp3ETUbfoKMfsKYTvxNASk7K/Opmg9b73zXQwm29FikYVLNwGVB6l/Kt3Vq1cLhcUFy0VNSlin3umcdkbUs9gH0Sx9qtwIjGegZauobOUSSNiM+gAAIABJREFUoGDVsQRc0ETTtKQoQPl3nkvlRZDCeAeid37385//TKwdKkBuTkYXMz5Buy6IrBcvXizuEW7i8BGZVK42M2MQiqJcDOa2wm1T+20/q3MBgnjLAix17MPf//4PCSblGJGG5NwlJyfKv2m9UClzvDmuBBAcf7I89KsqgNA4vYm+TCotCr/Zs2eLcKMyJEjkXNG/zTQ4DRCe+fczePzxx8V6YREXCk5G82/YsEHYJ1KjBHBkhBgcRVeUUPJGiivnms8XGc8SbrDV2QBBMwl6/qSLZJsBAkGuW8aeMRxUMgQMl1x6qbgPCIgZm0MFyz8cf7NVx3ckmFYBzhap8cDAtD/ddx+Onz49RHl/vGSJ0MwEHAQDVlLhfj+eNYLayLSdP2eOuKA8bpcoIQJ6ArXbfncbzj7nbPzoxh+H6j9s3rRJYnMefezxEED48Q0/Est4xgkz8PJLL0vtklt/9StVbwOAq6EBF86di5/fdJM827cJIKjAX+VaZZAuYwHoYuA6p3zjmiB4YwYOA6WHDh0qgbV0M9BoodFEA4Xgorlj4cKFoXnhHqArlIqdTBv3EbMTaPlznxGIMViXjADnlvchY8p9RQDAe3M9cR9xvVHGUdbxmlxTdA9JurgR6N3sQ/UAhMYAQSkFL9zbC7D1jTfRa/hwpObno/6rLcg8/TisefpfOPaCS/DV559jxLmzDT+gDe6SImx95QWMvvpHgLseWxe9jsFnngpLTCwKHn8aOeNGw+5IxM73P8KYM05HRW0V4nL6YucXGzFw5glwpqRJpkTA7cHGJx7G2LkXItg7D76CTXDs2g3rzJkCENpTRrczAUJ05VouNEbwvvrqqyLkJR1qzhyhSS+55BIQBLCQCJWDas2rkDP9a0Tg/A2tqNTUVPmMwo0bkMyCTr/hvxkQSbcAXQr0odGa5MKnv45jwc1EYUYGgQCBG4IxDUxzvOaaa0VBURExHoIon8/NHHtubP4hcIhWNmrDmF0Mhy9A0GDrkYcfw6rVqwQU0BJ57NFHsXbdOvH9M2qac0KFwbxtumpycnKE0ibIo4uBftamrB+ON4UWx1FlFyhfrY7E5nxR8fFzMjm0kjRA4LMxToHzsHbtWgmwIvtw1FFH4ec/v0mup+st0D3yzDPPSnrWKaec0ijFUTfd634AgQyCT8aUKYQcU74X3QiMJtc9IKh06NOeMmVqs/KayoluMroPJk2ajIb6eiyYP1+A9oXfu1DSexOTjaDEYFAKiP3tbw/imWf+Lfdk/MBHS5bg7w/+Hb+77XeYecopWDh/Pj78cAnuvPuuUPnnrVu24uqrrsITTz2J0WOUi+G6q68RNxDdGlImORjEFVdeqQpasUlWMCA+b7KBx9OFZ2QEfZsYBMojzh/lCRXzzJkny3xRRtGFQCOFgbF0N5BhoDwkkOB+Y30CBgarOCuW7DbSvQ2Giq5SyiUaSwTZZJZYZ4Hrn2PMWAfKNQJKGj7cl4z7evjhR8SVwP1HWcfnI7jnetIFnBjcy2uRydOAl/tRB+D2AAS6Sj0SAtBqFoMgRYsXMQw8LC2W9D53rQe1X2xA5pnTsfKJpzDlku/jy1UrMWr2+YBf6mHCXXwQW+Y9jzFX3QBv4S5sX/0Jhs0+SwDChseeQu/Rw+G0J2Drx8tx9CmnYM8ny2Dt2xep40YjIT+XLeXoLEftyvUoKz+AfrPOQtBug+fL7bDvLoL11OkIGIiuLe4FWQhMX2x3DAKzGLKbDFLUCoIbhcGFTLfhRuGCplVChc8FTnqLqXL0h/J7ImoeDI6igN+4cQOefvqfoc/5PgUFBYKUaa2SQmMBEjIUN954o1iMRMWkL6m4+D2tSgoupuBdcsnF4sqgEqPFRTDAiWagJDcMQQh9bvr5CS6YrvTTn/5MAoq+7QCBY19VVS1MQV1dvVS7+9e//oncvrlC11M4MSJbW5a0TG644YYQC8AIaV0fIVqYUDhRcNF1QyWkaXgGUhG4kVlSLiY0CRA49gQJnC9VqCcoypNz/OSTTwro48E0V8ZMcD0wpaxxFoN6su4CEPRaUy4GxSBoi43rj2vXfFBYU/g3VXpXn8cx4lgR6HKsnv/vcwIqCMhvuPHGMPsQDlSSWiQPP/yQMAZXXnGlAHjSzmQxEpIShWlgeqTX48G9d98jcSJ79uxBclKyxBlkZWeBRbbIJDEw7uZbbsHCBQukIt+xE48NFS3zerx45dVXZM5OOvnkUNZE8wCBWQzDu2maY5UoWJ2xxLgRzieDn8lyEagRBBCscW8wFVRVMHXKeZQ3zOR4/fU3MG/ey3jiiScllorUfyTIVu5iylMyeDwoP2n0cC8xpkHXLmCQLg0yyrt169YJg8piR1xf3INkkDivPJ9xPATllKVkCpiWHhsbJ4CA8pHn0wVMQN6cy0PZSLq3hw/bdxhBikduFkNMKECOAX2ubVtQ+cVa+OPikDNkCKre+wTJx4zEjveXYMikaSgsLcLAOd8FfCyKZIO3rASbX5+H0d+/CpvnvYakjET0OXkKYLVjzVP/xpjTZ8JujcPqF+dh8okzUVpWjIzpx8NbVgHrgRJYemWgYtNmlOzdh2HfmQlLWgr8JVWoWL4OaUnpsE0/BgHWTWhj/EHTAGGDKUhRUYMqEEvVtlNBii0DBJ6/fv162ShMxSEypRJ+9tlnsGLFSglau/32OyTgkKwABRqVO6N7aaUy0EYXEDELD16X7gkqFaJmAgmyAjyfwIMggRuUVciYnkUfHzcSNws3xAsvMNahj6B70tCMU6Afj89B9E6kr4POuEk++eRjPPLIo7JJjgSAoDNEmDbKeAEqjIz0NBHwBGd0CxGALVu2FB999LEUV6GyoguIc0El31TZY84v/aKzZs0y4gNIt7okPoTrhHNNS4ZAZNEixSBQ8dDS0gwQq/kdPFgka4XzzQp09KfS7aTBBT/nWuNaouUWzaR1JYNgXqcS3BqEZDpVNBGDoOSqaiSlXAQuUQDsZNiiMG7WjGv8habvd2zdJtVIWXNAU/1qU+vfSOknGauN69ZjyLBhYo2yVK7TqKKpz2R64tuLFmFzQQFS01Ix6+xzBBzwmQM+n6RZ9h8wAAmJiXjl5XlISkoUBoL35dgzfuK+e++TLIujjzm6DQBhpwEQurZQUnjM21oHoV4seVZlDQMEI74lEMDOnTsFaJPlJBCgDOJa5l7Rqb/aNbRmzRoBzoz54dqmW6C5NUDZR3cC2QHen2ufwFu7nHhPFhCrra0TIEADSoNJggSC/OzsLGF3+ExkNBgzwfRuFaTtEqDHZyNzRVeV9JRo6YgGCAOY7fXtzmLg+HC/huogUDnawEGLCQX+STB4Qy1sfi8szlgEGtzY885HyD9pqjS0spTXYffOneh3ykmq6BHzSqur8NX772Lced9F0OuSCqJSdMcfxJp5r2Ls6TNRsnUXSvftx/ipU7HsrbdQ7/XC7/Fh+okzUVZTJYVU+k88CpY4BxOmUXewBPXFZcjs1x/B5HjJgtRKvXV5wspqlBVWqTpnsQaxZcsmeDwNGD16HIKBQwcIa9asxmeffS4ImtYMBTwpYSJkLnCz1UdlQBTLwjDMuSbSpS+tqY3Cyfnqq6+EqmMQDhc5/WaMBA6JPMMvy8BFxVSoWgb05/I+BAh0U9AnR0uTioYWKdkJXSqZaJw+eFKi9Bl2d4BwHAslOVPFapakq1DdbhbuYqGknRguhZKazmvm+5Hx+fSTpVi9Zo0AMFqgTK+jVcvURwobzhvnhXNAtw6FCOeBe4P+82ilrGMSmGrKmvQEZBRWZA0o4BgYdcopp4YyRuhioL+Ua4LClQfp2b/85c8Sa8B4EgI2WrmkZ/Py+hp+dhXsR+uJQXt0MbTEIDB0k5kxzaU5tr53mj+DhYs0QCivK8K7q96TNEenNd7IrGDjJ1UyiUW23K4GebcM9mKQBlLmIi3RDZPa92ShcDdz4FtU/rPcT/dE0NGq0bfRn5uLRUmRNLXQJLPI5CYUAcp8jCgfts5AahkI6SDFr49BUAWyrHD567Dg7Zcx+9QLYXeyuZZREtWoE8L6ni63S1wzWVncC+EGWRr4NTVDel9ogKCBNMdJu1e1cdLcDPN7VXRM3VP/NhqcNp46FZOmSzab79MS06yftRWEINVxCDBYB2FA/4Fw2OO/pXUQvPKukQDBELishxgBECyqvabqRiaNu2Dx+GCJZSQwF5VRg9JmFYpONgQ3k88LOBzwGp2ybAGidRsCDQ2wOuyS+0y2weKwAV5/qLJgwEZqlWVcVVc51vGVNW3qxaKqN6oP21IDQc6TfgiqOx27d23ZslnyskePGoug5IY3xSC0VAchnD1hXsy0GFnJixHQ4Vr+SvipzoJqEVPI08fd1GYzL2xa+Lq3AxWX+V76mankibSp6MgSEBzo73QQDr9jfAODvNjgxuwiKSzcJel3ROjdHSBMO3omWChJb3gzQPAFVR0EAgSbZFg0HSVNCvO99xaLhUHgRCDFQMKYGIdYQFTYOjea8QAcXwI+KvOzzjozVGY6WvgzCI+Kn/5N+qfJ7DAg6vQzTse555wjjaP0QVaH1hRBIkGKEop+aQOs/fEUqAQNZDjOPPPMUIEtrjHmc3/3u3PkPu0BCFaudWPbNirI0T6drAIUgyylFkRFfQneW7NYKinG2ggQVC0N1WaZfmaWWq6D3x9EZkaOqsXQiQChnY/eKaebcEMEyI9WRs2DhK8/i0EMJYsFLp8CCOeFAAJL12q0rVhUFraiCyirV24jgNApA3gYXUS3gA4DhAFw2BO+pQDBJ+XfeZBNUwxCMwBBV+QXf6rSOlKPINSaNVSzn0BCNW+hcg9YKDxE/Sl0avzexxKt0o+BGRLs68ByzoyPV4fXxwqOLNCkuheqanR8XAKFsMAXRdvmBdYMQPCw3TPrvbcfIOhNr4UBF44OsmpE+SoeNAIMRAsNDRzMoEdbIdERtm2jZ0kPqQwDjdz19fQ9NP2rg4TCSDp6ZLtPkOKUo05GolNZ3DKqJgahJYBgBl3m+dH1DLSwj8680u4Ijg2BBH3jzVkc/JzAT/diICBkvAB9uOE5JBAISqQ3u8LRT2qeT/O19XMSEGgwqYGfAjQxEt/SkotBMQj7BPxJudyACSC0ef80faIABFjgtFhR6SrFe6vfw5knnY84e2IIICj5EYA/4EVDfQ3rGSEj/dsBENo6fN0TINRGAYTopioECPWoqalGVq++sMBuiLC2S922js/hcF4PQGgVIEh4Cqya24+SqEIW6i6AVgY3Ag6DQQzVfYcFXksQjgC/t0pvBUEpFtXAKZSsGFC/FcbCiAlgxzsVTa9AG8FI24+mAYJXejGMAYK0gSwSfazLwrY1BiGs0EOaKvRYYaWvLakwUDD7sDXI0BaVVtj6Qvpc9Wym3Ptm8ojN99UAgb+kharHMKRgjXRRuXKjAkmhswwl9s2nOU6ecBKSYsLFbtoCEMzjIUDXGDdT/JqMqlRFlF4+2rqNrrFBsKWaMDWmLPV1FasVvodet2bWq6kU0sjVHGJITHMcDUo16GmNQTiwfz9SUlNhtzpgYS8V9kpRsN04wvVEzO8Vrdj02On1KGWWWQ3RClQ2lOJd6cVwHmJDAEGxB/zj87vRUF8rFRQz0lWg5uHOILRV/nQ/gGCFy1dvAIS5kS4GNTGAxQ9XQz1q6wwGoQcgKGM25GLoYRBCwkM1IxHVElJPorwjzmi8XbR40Io/uoAveQizF1IDibBaooWozjCL1Jb8SU1v2qYAQgF8HhfGkEEIECAoP6lyX/Bl3SgpLkJGap9msxjMVn9bhUU4ZdCsRMxpPtptEnafKMEcrazDvzffOxKURI642RpuTmiFx7YpJXa4AwQziDPm2Qw0TSW0TdFtUVOroETrR9vPaxsj1PwdWwMIDGqUsr/2GFVqmQxeE23To/eVAiDh+5JtMafpCpNogKEqVwneWboIZ55wPuJjkiOqO9KH7POxJHG1wSAw4E/HcYTnpKPj0PqcfDNndD+AYIPL14AFi+bhvJlzYGUMAkVeaC+wm6sP9XU10oFTXAw9AKEHIFAWRMcghF0Myno1A4Ow/REpMs2e30g1E+kVNoMDuZbBIkRvYx2DELpfu9gDgcSRMQgIYNvWTWA6EgFCIKDa5cr/xO3BOzagpHQ3MlLyEeNkrECI3wh1c+wqgBDNILQHILQ2RmaqvTlx2TgOofu4GDrGILRFsX/dSqRjwXnK4ItsKWfOYqCLgW3L2X7cYXPCRkEvDBz/NG5FZ1ZmTQFx81rkfcQ5FwSqXKVYvPJdAQhxDu4XE2MCNqLyor6hVqonJiQwhiQaQHV8HL7umWvr/bofQDDFIJz2PTidccrnrOO9DNa2pkbVOegBCGIi9wCEtgCEtm6KrjyvowxCMOjHti2bpXHMmDFjpSeUZhAo8hRAcKO0dBcyUvMQ44z/RgCCFiyRnoSwIG3J4mr/GEXOWPOllr/ZQkmtAQS2Cx46aGhEkOKhAbmuXMHma3dcMbYVILDds2rWpGF/x96RsFoYBACV9cWY//FbmDBsKuymKqfaZRcM+uD1udGndy4yMnKlbXzk0fFx6NjbdN2vuxNAkHx+awAufyXeXPACJg6bCticDCOVluOKHFPMEVMB09IykNtngDiTQtHiXTdU3fbKPQChDTEILbQl+1ontv3KL5JB8Ad82LatAD6fByNGjpLwRyWuuAwYdsUqUg0oKt6B7IzBXxuDoKzBxqk60fxMGDiYuZrOmYLoeAh11W+eQahyV2DpuncxZcJJSIxJN55Kr0gVCMc0x12FhRgycEgPQDAKJZkZhK4ECHWeCnyx/QskO3vBGkFMSMIU/H6PZA0xPSwjoy+CjGKOyDLpAQiSD96O2i7t3fESO8KaFBYFEJaveh95KQOk/40wCEYLdY0gWc8hMzO7ByAYmqEnBqENLob2LsquOL8jAEFFrfuxa9c2LF/1IRwxdulLL5X1Sa3RwmL3yGA9EuItOHn6hYiJYT/3rncxtDRWYdq/bQzCoY57SwCBVmB5RbHEMKlmTbQqgmQmu+jQtS/tqHFXYNnaxSCDkBgblcUgVTL98Phd2LN3H4YM6GEQJHvIynbP3pCLoWsBQiX2lO3GgNwRsFlUIzVV64CBscxi8EkMAkOd09KyexgE2TE6zfFrLJQkIAHwBOqxa++XGNZ3nCH1/ZI1Zj6qqioR8AdlvsSEivb1dtGu746XbcwgfJvrIDSV5hgw92KIUXUKQgtC+W6bCZr/Wuez3eEHEU9nKFdLEJVVFSgtp282lcDZiK3ge+omPC5UVRcjP3cMnFExCGosVKR7Y399a8PRWMG3BfB0F4BQUVEqGSSpKRlGbrQeg85lMyLtSwuqXZX48JN34GnwwhZaiBZYWK1L6M8ArA4LBgwchHEjJxiFktQzHdo8tTaPnfV9xy3naBeDaqFES9EPb0ABBDbT6WyAIHdhKnIwiAZ3NQ5UHEBuNgWnM5RTb9QvRDDgQx2DFP1BpKcxi0E1WwuzYx0fh86akc6+Tusuhl0YNHiYWsfBcAZNZz+HyC1WoLVa4Ak0oHDfJgzNGSkuBk3mqPgV8glBqYFAN2x6umqupY7uGMfTFSMVfU0Vg+A9IgoltQoQYkNd0zrHW/l1TGDb7qFTterq61DfUC+NY5o6LBYv9h/Yhcx0HYOg0tXM9QwOTfEcjgCBioACggxCmayN1JR0WKxGBUoirOgOVm2bjmbPMgOEgMWPBl89mK6XnZUNmxTfUQd94KJsLD6GwuHAwYMYOmAkrFIoyXAcHRKQ6+ALtPnnHVeMjQGC8d7WALx+T5cBBBl5w4hwuWpRUlGE3lkDVB+JkCJR7h+yT7W11WKRpksdhB6AEGYQCjF48FCwjq2kE7S5AFybF1n4RAaCs5MlAcLeTRieOxpBq8MIPVB2suZKdZ+MjAyyhZ1rABzCk3+zPzGVWlaVFI+0NMcIBuEIAAj/64tQW1/TBECQfE7pYnngwC5kZeQjJoZR2T0Aga6ZispSKX2amsrOahogaOal8/ZwGCAEEbD64fI2oLy8EjlZfWC1OkSQqtqYisJm3rYn4MGOnYUYPpg0N0st9wAEX8CLgwcPdAmDoCxSZVW6XfXifsrK7Ac7K6Vqqs+IiNcAQUot9wAEY6OEKyl+XQBB8IfFBk+wAbv2FmBEn9EI2ggQVAyCPogHampqJe+f7FMPQAg3a/r2l1ruYRCkYUgPQGis0JuOQdAMgh+VlWXw+X1fG0CQ7BICBJ8L5WXlyOqVIwV/QkxOiPYMwhtwY8cuAoThR3SQoq5yShcDq0vqNMfOdjFEAAR3PcrLewBC02xkc9Z3D0DoPJOii69kMAiUfVu3rUe/fgMQ40w8gkot9zAIxgrrYRDEJozwD38zAEGV6WZfDj88PjdKy8qQ3as3bFZnaK6Uz5TxMgHxt+/YtcsACLq5zJEYg2AwJwIQdB2E9E6PQehsgMAo+3C1z8Ob0m6unkSkJX74AgRztdEuVs3d4/IhgOAXgNC//wA42awpurpf93jadjyFOQ6Ibj+WlO9hEDqBQVBxWE1XHgwRdaaJalwxLrp0bkuzag5k7Oo0x6YCL3X2x9fFIIQSGIkALAGpxFdaWiatZ5sECAiqbo67dmL4YDZrMlqINhukGF2op0nbr4mgrLb+Tl+vtaCuLoxBOAwBgu5l0VQ77XZIvW51qvS5MYL8vm0Age5G1YPG1OupW41++x5GV5uN7n8j9SPYg9Dvx7Yd69Evf6ABENp3/e53dg9AiJiTUJBiB10MIfFvlKPV9fe1IleCwJQaaUq/iFbwbclioC+QwV/mI9pK4eI2l8LVTEB0B8iWFqlq/NNYqX0zAEHlbGuAUFZahl7NAYQIBqE5gBB+80gLqCklbu7ZoDdRczVCIwFhtL82Oogwup9Ge4Bi9Nw1BeYiXQzdm0Hg82swwFbk7IB52mmnIiYm9hBlqcqqMWc7UdhLW2a2p2YUv+lLfX+za43nNaco1He8lrpOc3tLN0YrLCyUVuJs9c1GX5HA5/BlEDg5e/fuxYYNG3DSSSeFOsia5SLHQMustsi45lgJ8/6Q9FnWcmA/EWMe9ZzquYiUweGMs+bko/mZ2YmXLd7ZvZUNzkIN7swAYTtdDD0AwQhMaVQQ+RA3bvf4WWcCBC1c9CIyL0zzYteChB34KKjS0lKl0yL/zTbNffv2jRIckYqsrKwMixYtwnnnnRdq+Sv0rhFZzGvu2LEda9euw+mnn47ExMTQBQoKCrBx40b5bSNUbFjXYSug+dTNbwogBCy0vhSD0BggRHZz9DJIUWIQmgcIev41eGo6TVUpEn3o+TULKvVZeJ4oq8JNtcKpalrZhMGiAo0819z5kVfS9+F/OScUrq1VywyvszDIORwBQklJCb7//e/jrLPOwpVXXintts3vTmXEfhJshX3gwIGQwteKnGOVkxNuY87fbt68WZTYySefjE8++QT5+fkYOHBgaJyLi4uwf/8BjB8/PjSRek+vWLECxcXFmDVrljzHnj17EBcXJ0HNunMr24avX78ec+fOlb1lVoK6wyZ/d/nll+PnP/85zj777G8NQGAbec7XtGnT8MMf/hB2O98/vB/Y/+O9996TsWHLenYk5fhwXcuc8X+BoIwn5Rvb1HNPcG7V+FpFRvJg19Lc3FxUVVXJuf3795drEExWV1dJe/XNmwvw5Zdf4bvf/a78fseOHXJt3UqdnVW5Bjj//fr1C60tbcjpZ+ecX3vttbj44otx/vnny/3lHAJD9jDx08WwDv37DzpSGQQgLjbm25/m2AkMglb8zzzzjAg0Lk623+XBrn8ff/wxnnvuv6iurhGXBjfViBEjcM8994iif+qpp/DRRx/h4YcfjmjnGw2lvvjiC1x99dVYuHAhsrOzQ4JIC1BuFm7Gl156CX/729/k2gsWLJANx41JcPHII4/A4VDPFn1w4/3nP89i0qTJOOqoo5rs6qgBAusgKJCTIdHQkpIlHT6jS+d2FBCqPIbOBAhm5obzwTnjmCiLU0dwK+aAf1iHnmPDds0c49WrV2PChAmipMItlsMskf4dFf+9996LlJQUXHfddcY9VBaMtmJ4Dudk+vTpOProo+UZ2AKac3bnnXfhkksuwdChQyMUl3lE+Xv+hs8SBjvqHbofQKAvzo/aukr4fOEsBi18uZ6efvppvPzyy5g3b55YbvrgmFLBcK/s2rULV1xxBf74xz+KYtqyZQso+EePHi376IEHHhBFoo+33noLr7/+Ov7+97/j1ltvESueSlqsUIsFy5cvx+23/xF3330Pxo4dGxpHzgH3JK1J7lXuoRdeeEHucdddd6J37z6iqG699VYB33fffRdmzDihyQXPd+Nz/Otf/5L57tOnj+m8w5NB4Phxnv7yl7/g1VdflTEPt5JXr7d16xb8+te/wUMPP4SH/vGQyCfKpeTkZAwePFiMmNGjR+HEE0/CH/7wB/nsuOOOw1//+ldMmzYVH364RNY/QeGnn36CJ598SgDbL37xC9x0002ybygPCQQIUF599RUsWvS2rCM+yxNPPCHzdemll+LTTz8VML5u3TrZL5RxXFOc8wsvvFDWgwb3/DvXDGU6r0GQIcCvEUAgg5DwLSgL0W4XAxAb4xSBGabJW/OjdlQZfH2/bzODEGSa415kZeYiJoa9GJpOc1y9ehWuv/6HePTRR0V5WEl/sYmNzSbCg4v0s8/WoK6uHj/72c8waNAgQctcxNdff72kEN1xxx3NMgg878MPP8TNN9+MxYsXy4aJPniOBgG81rBhw3DmmWfK5iD65uYkcKAyJBiOjY2TS2iFScT91ltv4plnnsWDDz4ojEZTvRiYqsY0x4AAhCwDFETSuZ03k10DELQ1SMHP+aBgMrtVCIS0Vf7888/jueeeE+HOz6jsad1ybHWuuhqnMKggK/TQQw9h/vz5wgD84Ac/ECEoIDF/AAAgAElEQVRk9tHycwIUzv8FF1wgVur+/7Vkvv/++0UB/vKXvxShOXHixIjhNNPgpHb//e9/41e/+lVIiOk5MwMEf9CHg9Ks6WsKUuzV32CqzDKDfydAqGgSIBCE8b2vuOJynH32ORHMgV6jtEhffPFFEer33Xef0Nqkgqm8ue+4/jkevXv3FiDBffbmm28KaH766adw002/wCmnnIJzzz0X27ZtC1mR77zzjiirnTt3gu4ADfxWrVqFiooKOZ9zRGDOPT5p0iRhHAhGuMenTp2Ku+66C7/73e/k75qlM7OJlZWVmDNnDn784x8LQAkfYYAwaPAQgI20urhQkjTEs9jgDrIOwqGlOXK+uKa/973vCZBVwaVaX0CYG84VQQTX+Lhx4/Daa69izpwL8Morr4ix849//AMXXXSRjCfP/+STjzFs2HABHQQKixe/hxEjRgrbunTpUjz//AsCuAm2ioqKkJKSjAULFqK0tFTGfcOG9di0qUBYDT4TgcD7778Psjw0zIYPHy77kUCBcpBMBf9w7vj8Zvct5+vyyy+T9+N76v3NnU6Au2XbWvTLH4BYFtA74oIULRbEOlUe85EMEIICEA4gO7M3YmKoUBsDBAp5Km4q5B/+8HphDbQ1R0HBjcRiI1zURLo//elPRYDQIqVrgdQjlTiZh6Z8dPyMypsKihYpNwppVH0PrcgoKLkZqGAoOLkp5869AFOnThPFQ0uIPjWeTwuGm4g0nZnCpWLj81AgcoOpIzKwMggfKipKhPpLT8s2AYSuAJCdDxA0o/KjH/1IFMQtt9wSYhC0C0BbEtu3bxfLZPbs2SLQeDz22GOidDgf5nnQc8f18p///EcsEAItChoqMyoHunhSU1ND7AStIQIUWigEA2SJCFruvvtusUy5rqgMKdBoUVM4mg9+ToXDeaRVJcWJDLCiKimyII5fShx//QChMZtEN1FNbVmTAGHt2rX4yU9+ImAsK6sX7PYw08U1yr1CFwTHgHuO8zFjxgwR/gQIVNgffPC+KBEK/xt/fCP++Ic/in+cAIHzxTGaOXMmTjzxRFn/d9x5B9JS0+DxuCXw9fHHHwdjIKhYaPUT3BMgnHbaabIG8vLyBGzT8nz88cdQUVEp64fAgWwd70GFx/2jWSkNwqk8uZYGDBgg8xredyaAMGgIwLoiXQ0QpBeDFW4plHRoAIGWOMeQ65xuG76fYsbUnuW653z8/e//ELaHTB3BG90N7777rhhIpPu53vl3KnCucYK03//+96LwlyxZIsxQTIwTy5evEMChYkl8iIuLl33Iz7g2CDI413Q5cA4IuLm/jjnmGLjdLixe/D7WrFkjspDzR6OMoIVAhL81x3cpNjEo64X/pUzV80gp5/MHsG07sxgGwmaNheVIBAgxDgbD9QCE1gAChTqVMemoaDqYQoZWBmlTAgUqYFrm3Ag8n77J3/zmN0JjcZM15Wum1el2e8RKfPbZZwVoTJ48OcLFwAVP1oCbkhuACkfHOvzf//0f3n77bdmst932e9lg3HBM0UlIYPEn5ffWFBsFNClDPh+/D1vW4WZNLIbjJ02ckYOglDlWv+/8o3MBgn6+ZcuW4cYbb8TLL7+EAQMGilBT7xlmATimtOLLy8sFFKix8KOoqFgEI+f6tttuC7E5VNYEgFTsnOs777xT5olggzQ2hQ19n/wt6U3S4rRcli1bKh3zaFXSQqZQpMCksKPiJyXLgwKPa8Ac48DP6f8myCAdPmTIkLBf1ZiO7gIQ1PoiQCiPAAh6zZNtIf1OGr9xIB8E/JKVoTAn0CLFzP9S6HO8OdZvvPEGnnnm38jM7IVrrrlGgACvRStWAwSCZwIpKhYqIgIzggxaswQZnCsqJ/7uscceRUHBZqG8P/jgA2HgqFjomyYjd/TRR+Gss2bJ2qARsGjRQmzbth0En9pFYt7TtIwJ1P/0pz+JwlSHGSAMUy67LmzWJLfsBIDAd73vvj+JPNKBfDpAUL8zATYNoquuukrWJ8ERwRfXAl13lFFc8wR63JPcIxkZ6eJeO/XUU/HGG69j3LjxIjNfe+01cRNxLxKcUD7R0CFI2LdvnzB7lFv8Q9aPYJIykfKOgJuuCN6Pv62rq5WYBcaTEDCGXAgmAcZ3oOzmeiDgN8cC+QIBbNu2AQMJ6IJ2tqKJajrW+ZKwa6/YXheDxYIegMCUnZYZBE4aBRqVKgUOhYpGn1rhkrLkYqVwofVxww03yH8pzCmUaKWQwqLA4EaJPggQdu7cJTQ1BSEDuKj0zbEERNC0+GfOPBnr1q3HVVf9QDYbLVgqo7femi/Ck5tL059mwaUBAr+jkiOdShqQFnbYNx8GCBUVxUrIZ/SWnNnDBSBoNoYBSGRwaNlwLqLfkRYplREtHQoJxowQ7FE587+kpyn0aN385je/htMZI8r+s88+k/HmXBx77LEhZc0gUf6h0qegIhgkqOSa4Jx+5zvfEWqbQpIKq3//frj88ivEOqWLgffk+uAzm2MouFZoeTH4jVbs739/W7h41GECELRl9sor8/Df/z4ncTAcz+hgWo4BmYA9e3bj2muvA88fMmSouN4YHDdlylRxK8ye/R2kpaXjn//8p+wttf6V/597grEeVDw///lNwqiRnuY40+pkTMOvf/1rYW3IpHEN0KIlQKBCW7durfjBaVESEPJ6v/3tbwWU//nPf8K5535HKGnOVTSQ43vyd2RKuA913MjhChAoHwjoyJzoeBwdW6MBAM8hYOZ+o4waNWqUBAxqo4QgmUYNWQUaSdxnI0eOwLJly0X2UK7SdcR9xliTC+ZegJLiEgEDnBuycXQPEXQReBMs8N90AzHOgXuDa4LAnL8hs0OGiHPJoFUqfoI57tVoA4f7jDEvNK7++9//Gq5Z1YvBz+DIbRswaKByCfUABBmWrrAQuxYXNXf1tsYgtAYQKLS46WnFELVqP1xkamMAe/bsFSXQq1cmrrvuevFf8xkoTJhxQGChrXZteWigwXfgRiMCpyKgsCK9SeGoD1KuBCr0yc2fv0Ao7eXLl+G4444XYcVNTAuNyo4KkcKXm1oLMVrGOmaipLQE580+T1A36bdo5cmOiQQIikHobfjfAtK8qfOPzmUQKMBo6VER/PnPf5ax5zyYWRIyBxR8FA6kPzlXVBL8N5U6rRaeT6uTDAPni5QxLUxanoyYpxvogQfulzgPrhFej9YULRoCMP6drMU777wr4JEuJlKcZA/uuedumQuuF7IQBAga2HC+omsD8PnpemLEPdeJPrqbi6E5BkEDBL3+KYzNa5Pfa7DNc8iYEAwx6IxjS981AR2BAOeFDAOtVlLNHD+CAMbtEDCQdaCC0rEbyclJ8Pn8wiYRpJNx4HW5TzhnZP4IBrnneFBJ3X3P3Xjg/gdkvgikad0y2v68887HCSecEJE9FHbRqlkhg7Bt21ah3W02ZqccvgwCZQr3EOUK4zfCLKRFxpTrkQYQaX7KJo45ZQpZGjJk3AecO65ZzgnXMBU5g4D5Gx50QRAU83Pul7lzLxT3KfcLXWs0ysgI8N4EH9xXZBM4j4wTIrDgc3KfU9ZybfAc7nG6F/iMNBIIGvVhNpwI4FeuXCmslJovBRDoYmChpEGDBsMSdEjH0si25Z0vCbv2ij0MQsT4dhZAoJCgMuZCp39NKRv2BVD+XwpznkNhc/vttwtC5jlMndEBhLTyucHIENCy4KLWQpHnUoFQ4NHffdttv8P3vneRLGgGROmgGp02REFIAcv70Wrif+l/YwYFrzNmzBgBB7wHlRuFm0LzYYBASp3ULS0j0m9NAYTySsUg9Ervbfjf2FK4+wMEvgsFCIUMKcopU6aErBkN6mjpUJDRd0klzd9QEJLipotH05FkcDjvDIzjeZwfgjGOOQUbz+U5tJJo7VDx8DNNsVJQ0cXE4DnOKSOyCS5o+VDhUcDR+qLg4xpigCH9700BBN6TAJXWE91HsvZ0D4puEoPQHEBQShRYunSZuFCoMDjGOrZG7wWex+84jly/VAIcZ+4Zr9cj8QvMUCBg437inlD1B9aKn5zxBbT4jznmaMk2IN3Ng8qCvyVAYHAj2R0d4EhQaAYIjPO59957cP/9D8jz0fLl78455xxRelQ4VFZ6XUULdQIRghsygKo8ihLMLncNCncVYtAg7WLoqqBf44k6wcVAxcmYCsoZZjBog0YDbq5ZggIya8wq4JwQ4HEMGYzKPUH5Q0XPuSIYp/FCdw0VOt1C/B3nhACcsosGEMXMZZddJmCbhtWjjz6CY46ZKMGn/A1dP5xrfkdGjsCQip4MA+XZrl07ZU+OHTtO2AGuOYKF6IPvwe/olqCMVgdjN5jmGMCWreswZNAQBIJ2oyBb16rwrr16D0DoEoDAhU3LfunST/Hcc4pBUFSVCnJhwCIpLW4CUmZEw/Qlk7qmf5no+8knn5TFTBBA4UTFraqSqTx6LvYXX3wBjzzyqARCfvTREkkdolVDRGwWoETLpM2oMHiQWaDA4iamYOWmotKKjY2RoCyNlvkePHhfRgcTINCK0tarOUo/IM2aFEDITM+B1YhBOBwAAt+RSpgA4dlnn8HkydEAQQkBsy+VFo32oVLwE2BwvuiLNgM5/p1CkcKMvyGzpGMNfvazn+Ldd9+Teec60C4DAgH6yqloCBCowPbu3SMxCbwGhSIVHgUnhSIVkTkVS4CAkY5HOpbCsbsCBF0Ku45pjl4CHnM3RwiApeLg+NESbwogEAQx7oPzQSBFi56xIJwvAi667TiW/I5zwT/0XVMREOTxD9kjBh1yb6mMHoswcwTbXPtMYRw4cJDMLfcY3Qe0/HlQ4RHoE9yTlub3/DfBIZ+BCoWBjAQCmj3Q1DX3IoEklSr3l5E1J+65Ble1gJnBg4ZLu+euiecxicA2AgQtQ+hOIUA1F2Cja4aBm0wRPeGEE0NMnNkCJxggGKKiJ7jVdS7I4h111AT88Y+3C3AgSPvxj2/Ep58uFVDMPcaD59HdQxDOGB3GJXBsyNzwetwPXPd0KVB20jiiC48ykOcxZoFuBjJHNHg435wfPiNBIA+6fM1psfyO+5N787LLLpWsC50GybZwss/9fmzZtg6DJQbB0QMQvrXtnlupg9Cai4GLiX6vRx55WNCxTh2kQg1IXQAIUuaCZ4oNwQKVNIUFc7LpAtDZAlTiFDik47SveeOXG3H1VVeLQOQf3o+blX5qKhCCBx1BzO8IEPh7fm4ulPTW/Lfw5htvirVlVjCautWsB7+jEKSg5qbUuf/auhbrAH6UlRdL3YOMtGzDUu3+DIIWjxRsxx03DY899ngo5oPzpYUy502nudF6IHCjdUhWQQcu0aokgNIBhOZrk/7k51VVlRJsReHDDBUGRGkwoBks+kIZjT/3wrmYddYs8dPyOSjUGAhHf7iOQSDzYL6fttgI6qjAuH7IcujCTd2NQRDoxZbdrmq4XF4jAybMtFEo09JbsuRDvPzyvFBsiB5bzgkBEGM56HPm+xNMM4WYCoZKnwqBSoVW+qpVK8XSY4wH/dwEZgyIo4VK0MW1TquTbB6VBK9Pa5f7lJYnz+Wepg+cMQo8eM1LLrkUZ5xxhrAO3MOMfaCVy+cnU0FfN/3b5kM/O9lGGgSavVDn+FFVXYa62jpkZfdh2klEsaGIC3XWP9oBEFiXw+VyC+jSgEoDYypmrjvKHI6p2eCgnGKcyIsvvoT77rtXmJjPPvscTB3lWibbNnnyJLHkGez5n/8o1xLlDtk7WvycT4IxggHKRgJmzheBNMeYbj4CF4IKgmgydIy10kHhN930c/zgqqswZLCK9yKI5LzprCGH04Gf/PgnGDlypIysfn6uLa4Bshp8Rw0gpKy+BaiuqUVZ2R70y+8Pv88Kq1FCu7Om5+u/ziEwCEdamqMSVcrHZPxV+terLIYco+yrLohjnG2xiMCiUCBIYM4urRZVB0GdS18og2nIFhAg0C/KYDYqYS52KmEqrZ07d2DJko+EEqPflHQqo50pjGhVUUlpRc2FTmuFwIPCi4KOG2TBgvl49dXXRGFogMBFT0GngEy4UBI3qDlfW+cwU4gRXet4hcjiQWybFEBpGX2EFqSn9DLQc9cCBJZaZoqct8leDOZKikGwtfGOXTswTCopMhMnsuEPLQMGpDEglAFKuvqdZn50JgNpSAol7UvV7hjON91BtGIYk6Cj0fl7ui1ef/01oaBp7TJ2gUwRhQ2VEIEbhQ6ZIB5UbAIQ5s6V4FN9EDjQOqJ/1OwGUcXcFEulhRnXG4UeLWDOWaM6CN3ExaD2FKtDulBSXIr09GwBTepdVN0J7hWOE61szZZo4MbvOSccG+5Jrm8qZsZ78N3JphF4s3gRlT+t1dYsce49MkEffviBKCodX0IrlHFFBBMXX3wR8vP7yeNzn9JlQdDA+5PN2759hwKUFqBP7z5Cj1PRmS1pPi/XCq1gBj+G8+2D8HrdKCk9KJ1RY5wcD1VDpUsPspOsgxBowO59mzA8dwyCVnujds8CX/x+odm5zjkeZhaB8od7gbUrLrhgboTxQUaEBgmZFoIHjildo8w24bhzrhlgyvnk+tXxNZ9//rkobN6LMov0P+tZMC6B40ZZSjco/05Axn2TlZ0lY7Z61SpsKtiEKy6/QtYCi9Txfpw3MqhkpjSDwM+Y2dWrV5a4HswH54tylTFY3//+lcIEa1DPDIbikmLExEDmzOcNu/O6dM669OLtBQg4EgolAbUGg5DVK0uFmRC9s4hICCb4RdDExsQiLTXdJJjDAIHomlXUqui7vuuukI9ZC3FFlUKUB6OgWbHt888/E2aBSNYZE4O8vL7I7ZOLV155FQMHDpAN9LcHH8Sc735XirsQHPj9XmOhKgXBKmWkNxm0xQCfU089DfPnvynXYP2D99//QL1FkFkQO2RDksZmQBUF8xlnnClAhPnmYkEjiNKSUvF9U0jz+8aFknhWAEXFRXDYHUhNThf0LJ92iVSziuDlPS3WIDyeBmnWlJOVA6tNp4kZEICFzhAEiwJt27EVw4YMh01qUoQ7OnI4KMxfe+11sVYJnDIzMwz/qTFYsAi9+NRTT4rCpUto/LjxKjjJ5xMlRaaGTAt9nsceO1HYIvpkSVWTJbjyyisk7oPBpLSGSbOecspM/PCHNwgDxPiRIUMGy9+vvvoaXHjhXPGp60AvFtRiUNWvfnWrAAQlnKxG8F4k4Cks3I0L5syR4DkKwFD8iwgU1n4OSGvu/Qf3g+vcZmXUNVNTjToJnSB4lAEVhFu3e5ZCSU1U1RSfu1+s5erqOmRkZiDGGRPKnRchv3qVgG6CJoJe86HAUbjpEb9j/AHXMMGTArnqHF2PpKXX4z4ie6YUgDqT12CevUUqhEIyJMKHijHi+S5XPZxOVrA01wnRAZW6FoqqaknDYOmyZbhgzgVISkoMBbt53C5hN2x2iHxRz94yQOiM/pYikwQgeLB7TwEG542Che5RI11ZReWrg3PicrsFJDAGIMbpjOitQMBEGUS3ibn6JceWyl/H3HDf2J0OdR9/ADYjPosARJ+j4xc0y8n6FAwO5MH5UZ+HR4DxVcx4kQqHCIrriveNdTplzXO/UnZrti06fsecvaXfNxBU7ioytGT1yJzwM16D16ysqhJZl5GRrILSfUpvHN5HewGCBYiL+XaXWuY6q62vRV1djRRmsQTtsErKXlBK+xrbQ1ks+w8Kle9wUJAoa0ctWv7XKpHJRJq/u+13OOl/ZUN1xTxl8dlEgSxY8JZQo1dffZ1RY9xrCBgDkARZN/4rFJeUyK7khpw581RTvrRSzhYJPlNRsw0N9VKCdOKxxyIlOQVLlryPd997D5dfdnnIgjJbUXrf87PBgwYhL6+/CGz+m9Ysg3EIPO6778+SKhYI+qOqhAXg8bjk2myYZLdTSYsGb9VaO7QNZFVNWfjeliDcnvoQQAh1czQAHeeO/2Mhp7379kgufHx8XEjQa98uzykrLxeL59prrxEWJxQ7IqSPBbW11bjm6muwq7DQqBXBvgkW5PXNQ/8BA5Cb20eyFjj/Dz30D7FoGWFNS4S59RR49I2SLbjyiivFTeGMcWDv3n1Ss4C1FBjU2qdPDq677oc488wzhFolZRrwU6H75ZoUyIq6tWLAgP4Canr31kWylFK+++57sWXLZmGwlEUeEu3i3ybzUldfi/KyCuTk9I4qh905gq3NAEE2jSrLTTfKgQP7ZawIgBWbpVJpJWiWNVhknXe1OX1oK7Mtv9LN28JuPVrkPvmpz+eVmAfus9TUFFjl/a2y91vC2p0xY0pu2eAJeFG4dysG5A2XfQb4EIgo+mNE5wcVECsrKxU5kZ2dJUBBybmgrFk9d02xNsroIveo5pIZNlrNm8FIy2Oq2VsTeOHqkMwCxfyGrikF7dT6MX/e+ApNr65oEMZ3qquvF3YqOSVFjAqLLagCtP28S2fMSltWVFed016AgCDipNa86n72bYxBiAYItgABAhmEIPwWFbQnbx5UwX5VVRVIz8iQIDBrCCBouteGTQVfGjXhxwBikesFq5ryECnTsqG1I5YOLTk5S8Ur6HHWlovcnyjb6w6BEm3l8JlofbLbnQIsuu10QEBDfLxhpRgUQtjHrp5KriM/UkqGB3+3dt069MvPR25uniHIwm/BTVJbV4Pqqhrx+7GSmQhAo3JaqI1Bp65hAyDQxSDR3nUCEHpn9w63ew4BBIodblQfauqqUVlVKfRxQnyCMba0zAyrOQjxddPl8qc/3Sd1BzQDol1NNTXVcDhi4HBENgwiUOFckeb87PM1OG7a8TJ/K1Yux5TJ0wRQuNz1eHvR20hITMAJM06Cw2EPWZ4UMgWbCzDp2EmyJpgOSfaANGl9XV0oeE23BqYFxbGnpURAIRSv1SJrkPT2Lbfegt/f9gehyH0+T8gaV2tFNcYpKj6IhPhEJLCBV4QC6BzB1h6AEA4+VIG8tMrMGEBbexqAm6n6Tl1aX8PFdDOiMEAgO6GMD86h0+FQTIdpY7dGxHXGjGmA4PV7sXvvNuTnDzPWjReBCGtYAQQCOjVvbJjmFSPBalOGkjKRDAqesiAKz4nqsRjwwEADiq01OrfQxcSrtIUakWsboEVrJTJHUMwv762eh2OsjbzmJjp8nZaWgmKZVIdcskkWW7iJG2UeQcKRV0mxByCE1oxGyG53A1xul9BWfp+yAsxUQYjGMrf3C13FtAFobYcqVGr9bNpVUb8XV4WGK3oT0cpQqr5tGyuMA4znbrwl9PNrX5tYMuFREFrRZnUgKSk5zGqENjWFSFdI3LYABAWzCO6UuGJNBh/KK8rhcqvGR8qaUG8jrA4VrFUxPzk52VLrXVgQOUODIrOka2RTyJkEBrq0rBYiahSomFVd+jCtaQZbBhWOILweL+w2m2FBNmUtm+8d+X1ZWbkE4ak8cVULX6zvgBKTPNxuL+ITEpGUqJiISAneGeqG46neuVUXg2nLqLlQVQPDIKCrXFVdsTa74prKYDh0BiG8VvR6b3JFGQyCAgjb0S9/qAH0NUAIW/gifQxWg1tJuyO1ha6UcrgteiNAJwqcIEG5MfXvFIehgG5jO77p/RYWXgbQl+sSDigXAw8uRTpLjLtGxSBF8gxtmUHKRZH3hpuPYCf0vAHFWvYABGNi2zKgh8M5soijXAxNMQgi9iR0VWOBoFTRkqjVtiDeJgajqe0QfVrnnBOm2JqdEyPYrSkhon+ji4AIU0FsTreDCHcDrqt/fcMAwSLuIQ0QVEyEYlPI/qhYirDQEMtOMk0ChnK2IiillqMPPTItTXZnnWMGJy3tIiXkNJjxetkWl6LWcFUZFpbVaofN5hDmQGXXGGeYOlYe8iKOerz2AITwuuIeUhZnKHrcSA8+HGRI1zxj6wBB270avqshVNxZMGgLGR9WkVt++EWph8GzGnBa/3b4fR7s3rsDA/KH0tEIWA2XosEyCUUvFL74EMU1wP1vsQYMUll1clXyQNUI0LswND4GqSDxDSHlqpQqM23cDfWwwguHUbjNEgjysWFxOJXlblMyR0MCi8+r4lAYO0UW1mIX1sMPL6zcw0aLdjmf95P/G04AnwewK0ZQZIJGYjr4l78hwPZ6YJGOvEEEvF6136wcW5tyeYrxxAurce0BCEcsQDBWN2llIz9eL65I+9LYRC1IDeUPa0kVq80VtmKbvpjG9i1dqy3nGPxDi8+kNpkCBjreQqcAagpbu4lbixg/NIHaBgbB5HlUYkABGCqfcGaCoXxDsSUGqJGAt5bhkbpYR89R92v5Ood2jnpHs+Wo5szk4BLXimKbFK0fPjqnIM+hAATt6pJnawfFfmjr6HD5lbaym3/e8ExTiwbhs1rgs9qR4A/CYnXALaA/CEeAxowPPrtNWE8GBYaUOSywgwDBi8I9WzEgf7jQ8lT8ouyMQMmARAbaxDpXLgEqbz9sDgt8VORGq3d+J6SVwWqK1zGKgBOAIOCEMSiEBhYmtWDfV18i0eJD+khWhrWgdsV6NKQkInXUcFH4do8PsFsRsFsE0BS//QHqqiuQO3EiEgYNFYUvT+aqQ+0X65EwbjgQG4egxQ4rAQ988AXtsP+vk27VstVInDYJ3ooqWOrdCPp9sNId7LAjdkA+gr4Agq56bH/pNQw+70xYYp3Y+fFS5I0cC1uf3uJq8Tvo8gu/Xg9AOIJjEPSSDwng1hyEh4scavdzarFk3vmRUuCbAwjml1EuBu2JNPsrGyt6fW7LoK1tQ9U1yr9t927urGjXhH7fyPM7Y94ODSDo54hkZzrjeTo2bt/kr1tfizqExAYfbFK11YqAzQ5rcTlgSWD0I+C0IeAIIpASCxu3g9cr1jtZJXEZSBwN45t8KDi4Bf37jEACwXLQA2+ME3YqSo8floQkBGixG8yALWiFxwo4vT74vX744hNE6bP8umIYlOIMh1Gbd52J9id7ELTCFgQOfvE54uOA5MHDULNqHc5Qlb0AACAASURBVAq3b8Xw78yCLS0NwYpabFu2XIIp+/bug+QBfbH9n89g8Izj4GpwIWbYSFhS0mCJiwcOHkDJy2+g17mnArEOIEh2wwM4AkB6Ntw7ClFZsBlZk6dh07y3MGjieBR+uR79R4zEV8uXYezcC7Bq/ttwl5ciuGkLEgfmwhsXA8+BEqTGJ6MiORn9JkxEv+Mmw28zrVmZkEOkk7/JpRZxb5PbhGAryAB4X8htw3Viqaz1BEmzWsVa7glSjBy/zvHVdpv10AUP0jWCvS0MQtTLCK3IDau8kS0f5o3RBYPS7S7Z2I3SGfPWMYDQ+YCl2w17FzyQr7Ic+1eshtMbRPrYodj+5tvoN+Uk7Fy9EoPHjcDWbQWYcMUVQEM9St59B5njR8OS2w91xWUoWvsZHK4GeGPtcPSKR+74aaj4dCkSs9PgHNAXgToPCr8swMCpU1G9ez9iMjPgTE6CxW+B12mBZ9NW7Nm1B8NOOw0BshhkE4wyxFbD89iYmJOIPgUhggHYGL/DbJY1K2Ap2Y+K6gbEpKUj/eTjYYlPAPzMr/ShbOUapPbNhWvPPjBmovh/JcsHTZ+CA+XViBsxGnE5vRGXnIyDCxfCavXBzl4pPtIdDlg89di7eSPGXXAxihYsQmJmEop8FmD7Xgy88Bzs/HQJ+k+cjC9eehkTrr4KjE231DXAvXIlYsaPAYsd+DZvhb1fPvC/ZmhwxAvb4BP3hBng9gCENtCjXbALuuiSjWIQemWD6Fi7AcJpjsYDHPZ5rl00kKbLdoaiafyUPQChc2euByB07nh+Q1ezAA6/D8G9B1G7vwhJ44bgy4efQv6Jp2DnkiUYPmEkNhR8haOvvgHBijIceP4/iE2MR9wxUxA3YhTK5r+J5FgHvI4g/E4fbInZ8LD4VL/e2LO1AAPGH4MN7yxGal4/lNbWY/iJMxCXlg5fSRWsRADbC3Bw927kTD9ZfPOIj0cgJRV+BuUarv/GI6MBAlWJD57iEtQVFiK4ZSPqVyxFypijYR80CPWpTvgCdgQSk5A7eAjK1qxFTEkZLP4g6oqKUVd6ELnHjMeu4gqkT5iIrCHDULLhS/gKtyOpXxbqPX44G/yIGzQAsdkZ+Greixg5azb2LHwbNSX7MPC887BvwWIMnH0W9i39GH3GH4V18xdg3LVXo/xgMSq37ECctwGVGzYie+RIuCxAQ20t8k86GY7cPDE+dJVc9Y4qzfLwPtrNIABxsTEqcEve/dtlaWmAUFdfJ3UQWE0rHORGf1q0II2ikVpnAg/v9WJ6+rYu/a4plGRRhVVaSnOMHmnOXYhB0ExCc9Px7VrXrS+67g8QWo/TaP0tD9cz2urBpHwiQMD+IlQWFSNt9DAUPPVvjLjwImx/dR4GTZuMDWs+w5gLLsb2115HYtEe2Koq4cvrj8yjJqJs43qk5/fF3sItyBmaj9qdpaj2NiDeYYOnvAL5Rx2NrctWYuissxHMyYGvqBjemFhs+WQlYu1WJBVvR0VpGZzDj4bb40VCaiIGnH02vHR1GCXmG4vI8CeWoB+2mloES0tRs+lzxDitqHf74az1ImHcaHgcsXDFxyIpLxeWqlpsfvAh9B46FAm9++LgxtXoO+N4lOwtRubEKRIHsXb+Iow94ViUf7oCGZMmwlZbj7LSYmQcPRIbXnsFY+ZeDPemrfCUlCFx6rH48qEnkZSbg4rCXRia1Ruf796JqTffBGtsAkA2xBZAwf0PYPiV34clJRFFH3+MlOFjENM3TwVjmyZK8e2mCryH5eI7BIAQG+s0DcS3S5DqVD5GuKtCSZkquc1gClS0bUuHCuQ5Eo62eti6plmTqgWhfKCBJusgNGYu1FpV9STa+vRHwkzyHQ8HgHCkzEVT79l60CgpfcnSqSzHgSWfoL6oBINOOQk7Fi7E6IsvwpdvvIRR06bj85Wf46jvXYya9z6Ae/9O2KrLUVJbhyHTTkDZzl2ITUtFwujh8Dn9KNu8Gw6LBcnZvbB96VIMP+tMbF64EAcZZ+ADRo6dgN4nTZeAwICvAZb1q1FWVInMM2bDX1aE2o8+RvLZs+BnS+SAUpYthvWy0iWDnwMuHNywEvFOJ1L6D8KBN95Br0nHwTZ4MLwBr7gu4oIWbPzbX9Bn7HikHDUZW557HCOOm4I92/ciZ/I0OLKzwZ45Fp8bRW+8g/Rxo2B312NPcSX6TZ6ItW+8iPGzZmH5M8/DnpSCPoOGoOaL9Rh28RwcXLocOWOPwoY3Xsfoq6+ElcEQRjbGZ3+7D0ddfhWsycko/OQjZA8aiZi8PCDA1FydFaWCoVWa5eF89ACEiNlrGiA0t6SbUjI9ACF6O3RPgHA4b9qOPHtzwKgHIHRkVLv+ty0DBF0G3s84saAH9qJi1O8pQsqEsWhY+zksGZkofG0eBhw3A+UBK3KmTIJn62ZULV6MYEUJGtwe5J/7HRz4qgBOiw1J+bmoT3aguqAQfrcXsRnp2PfZSkz8zjnYu2M7+p52Bnx7DsCSng5begZgsSMY8KHinQWwJaUhZcZM+Mv2o3bJEiTPOgdBO79nOmBrACGoXLr+BpSvXS4FyeL79kawwYPCFSuRNngg0kaNA+JT4Nu5A2Xz5sGenIKUU2diyxsvYOhRR2Hf/jKkjZ+IpLy+sMbYJBBz35vvIT4/F05PLSp9QeROGIsv3nwZ4+ecj6DLi6ArCFdVDba99wHGXjQHhStWIH/UOHz16msYefUVsCbEq26a8GPNg/fi6MuuRsAVwNbFb6P/SSchJjcPFgY/Gh17lYehByB8K10MBAmRDEJLmDc62O3IAQjcA62F+vGc7g0Q2pJl0PXi/+u7Q1sBQusWa1ueuTODFNtyv2/XOea12XaAYLf4YSsuRtX6AsSNG42yrV/CGhOP8nfeRe7kKXD1ykHvMaNQu3MrKhe9A1tpCWrcbvQ/bjpKPS746+qRmZON8hg/HEXVSM/tC1t2BtbOexHjTzsNe1asQtzAwSgvKsKAE06AI7MXYLXAUlOPnW/OR7+TToE1LxeB4v2oXboMybPORYC1CQKqTFGLHGwwCFvAAmvAjerPl6Fq7Zew9R+IXlOmwBZwY9+HS+AJWJB/zERsWroMI48+CtWlJUjO7YUtr72G3BGDcbCyEilDRyM9vz/sWRmqRgFBgJMVagMI1NTDv2MHCpYvx5iLLkL1ylVwJ2cgNa8vCl58Gfmjh6PsYCF698pEwdoNmHDjDbDGJQNwIuhz4fOH/ooJV16FsgPFaCjaj7xpk2BxJgoAMrvcWSdC1Xk9nI8eBqEDDIIuQMNLsCyqistgURJ9GPU4Wsx2acs5oVXWkvdCr8Sv6RxzgqN5EHVBFFUwRFx3XXIcuouBrglDUUoAqq7PHl014NvuKlLNtFTdDFOgGGdL1b/p8NE+gKDmRI16pPc2vLQ74aE6/FZfxwV0po0S0NIUqKXbGkuVNQX8lRU48NEyJMbGIPO4SQj6asSttmXeAgw/40x4U5PhSErBwfWfIbBtG3BgH1yVNRj4/SsBpwNla75A+sD+KPdVoWr9VlH+CUkp2LV0KY6dfS6+ePddDJ91OuL794W/zgtbWiYCLjfK31qAmPx8JE2aKoWYvHt2o27deqTOOgcBYRDatp+kg0HQC2/pPgSra2AfNBg+RzxslLFuFwJ1FbCzX0RFPWJ6Z4mb0Vtbg50ff4xhx0+B326F2wvEJqUg6HSE9rpUe/b74K6tQ/HyFUhMTELq5MmwBzyAMwEBjwdbF7yNIVMnwZLkZCcqrHtvCYadezbs0nzLDpvfgy3zXsGw006BJT0ZCLrVrAScUnRK6kMY8kQFKPYAhNYw4dexmzrtHu1xMYSKe8jWjZFmQEyn8fgBj9cji0P3ZmjR72Z6+pacGfq07nCOMGhRWb7MXWY+NcsD21jmVCi3rmrWdGgxCIwhUcV3dJCiekbJ/zYUk1JPh3/8cdObwhycqau6sLBNVI16xVl3+GgfQDBX29PiVUrZqRkJzVGHH6vbXSDs4FGAgNZ2uNsoSyy3DBB07wMpueb3wuJyweqwAUXlgLsWsNtQsORTDJtyHPyxsbBnZ2Hb4sXI7p2G4o8+RanLhWOvvw6WlFTsW7ECfQb2R62/DgeWfYG8CeMQm5aOdS+9gHEzZmDH2rUYdPJJCLoaUL1lG+IHD8ba+e8jfUBv9D9lJoLxyXAV7sey/76IkdMnoe/UqUbVWbXDZKW1gBUURPTBZvFJ9qNPCjKxK6ey0G1BD1hVkU30qJAJngROsZeFgw3wApJBIQXsjDZ2EqvEIk8BL1iqwBZknw8rfDYn7EHeR/U1sfj9MlYBG4s1+cXmY4Alz1Wg1Q+7zw+6cgJ2wU5St4EAgWyBX4A2y+2LUDkSKykCR16QYtOSUrayBK4odeJylWP33q2oqnGZmii1DTV3O4nVhgeKAAjMcWY1MT+QEB+DQQOGIiYmU7aMqr7WCdom6pkOhUHQQabCIJisLinoIgGMhkFgtHFtbhh0N8HWgV/LVTLldqHKjs2r9M48RzuGLBaH+E1V8RqDRZAXMtxknTBl7QEIqsMptYe6sbm+n2iKVgOE27Bou+kp4eqnSrGIIg0xkap+R2t7KELSWFhPwAvX/mL4vfUS0BvwB2GzKUWWkJODioICpOZnY++ST5E6dBCSho0EbA4c2LkdmWnJKK2uQHLQhri0VARdbtRXVSE5Lw9Ve/fCU9cAh9OJhLRUCeDzslZBbha8Tjs8wSDivAEEKqtgTUuAz26FD0EjG0xNQKtx3CIvqGw1q2SWNronhWouZxYt4YZfRolnY751iTRhY4y1zsBzVbcxAFuoqBE79qo9EIJkchM9uupTJfM136WKO0nBaan1oIKgmfUpMqUT9tE3t2x7XAwRY98uBsHonc79XO8qx6aCz5GRlomsrH5wOmJD7ME3N7lde+doBkFwvx/Yf2A7SkuLMWb0NBkHSC+DzvFpm9/okACC9hJagqiuLcfuPVvg9jbAH2AzGpOYliY0h/XObnrydZfNYBAOeyyys/KQm9MXTnusKvispJ/xp+Prp60AQekBVvTzw+N1obi0CAcOHgD7SdBC5B+/WH0df6ZudQWj1r+hWeTRKIPYnpudU9NSesFmcar+BGQVWtWs4bezsfts0CdlkK2MAfDTUlaKzmK3AT7uSx/gZlVBGwJWp/QuIFvhD3px8MABaWUPf0D6DtjsDvakll4HBBKi/qRio0r/rmmowI7d21BeVakKHtnYU8MKvyUAr0QC0HL/ZkdfYIeh63XXSP437BQOt3Jqbqj1FmHWiDRds1gF/FgtdvTJ6ouc7H6IccSpKSXY/YbfuWMj3gMQ2gAQGg+xalaiOoZ5/T5s27kWsU47BuWPgcUSY+oC0KycbvRFW7mG1q3Wji2JjvxaNmDQg8I9BaioKMWY0ccLStfRvZ2pc9sPEFTfeX/QjQMH9mL/wb3o378vkhKTpamRIioVN1DfUA+X2/AvdmRAutlv2VAmJTFJOjxW1lRg//59sFudGD5kNGKccUYZ2lAXnQ4/fesAQa96ClsvPN5qbN25HVU1Deg/oD8SExKkU6jL50Ktq04aorV06KuZ91L0fonoJdaBNwyRLSYna1N7WD9x9Hfi7LHZEB8bL+tPNz5in4TKqnIUFe1HeloW8nMHwmlzQjWNU6rMbCk39wo8h8BKHapnjMTbMBCQ3HiA1rJiQMXtZriVpAKz3ysALS+/vzQp8hudRXkdq8Umrag1e8on2ntgDwr3bkV2TiYSkpIQSzeGxabadpuSaM1jEJ755iehpXnUv2rLOTJmxjyZ50MbOWbgokFE83JWpy6KTxXk4LimXB4X9u7ZD7fbjxHDRyAhNl7mS6fId2CpfYM/bTdACCI2NsYQ+MaCi358mbFvBjZ1VAE1ZhCymn8T2VNB1DbUYMu29RgxZDiS47JDTUX1ojT2p9KRmkaNEiphYtE0mE1+2EqaUGcupWbu35ZbuHxleHfxSzh+6nlISswIpdl3plXeLECwsU5HdOyDZIiDNVOLS3fhYNE+DB02Gomx6bAiNiK6ui2Cqy1j0J3PUcKSlrkLO3ZtQ21tPUYMHw6bNUH1t5OuMx3fw20GCMLDurF1+3oAsRgyeBzsRvc9vQFp+bUED7QCaKrev/lN2pJ50565U86p8GG+vo7s0FupOSNA/57fU+HyGh5vA77YsAp9+vZFVmYOLAEqG1u4w+UhzI+5dI8eL3OnRbJowiv4fDh48CD69esnLAFr7jOeSstHia1iTIA1gOqK/diwcTMmTp4ER0yCuEYkHklXmQ33B2skS/UzNAtyQvCmdRDR2mrlvVopcxe6SWvXMqtNU+UDBIN+7Nq/C5UVxRg1bCQclpgQqGvPmuo+57YTIFBoxMUyYpPgqaXl3toQd90QdEQJRQKEOmRlZTVNNcurqzal1Q1VKNy7DcMHDUe8Pc3wX6n3U61WgYY6N2KcTmkJ6gv4pVWpzaY8v01aPYEgvG43nARj2jFuSqJpanRN+/CQB1eab0ijNhtqqmqQkBAPm8PezutR8bix5otPkJ83GJkZfQEJuurMgMUWSi1LUFHkvVSFzCACfh82frURvfv0QmZmL1gsTtgsMRHv15rQaudgdPnp7Xlefa76L1eRDw2eOixfuQxjxoxCclIuaBOJjdSKtd6WF2sMEPrBzoj2CMcxA1qDcHuqsHnrGowcNhHxsalGLIRxlxZiJimgzUq5NSbOLPLa8g5NnaMtT/1dtFUqa91QSAQQ4TZheufqT5TK1s8v/nD5pfqkvPoAVqxeihOmnwqHRbmBdCvsQ5Fz0c+tn9MMYIRB8JFBKEL/fv0QaBIgMGvLgUCwAQWblyEneyh69cqVZj6aVTe88qFoZhWppZ5AwRAt+yI71Ya72+qMFjXK5t/rIMBDNUQ7YPtEgQg1nwG+t8Eq+4JebChYg7zeechMypFYhEOZq0Ndm537u0MGCPQXNofFO2MLHvprdmQy2goQFCPHTulBVLsqULhnJ4YNGokEOwVbWCBwO5SWluOeu/+CX/3qFqSlJ+GjT1ZjV+EuXPy98+Bgi1DjfKJ28YtZgJqqajz20EO49LJLkZuXF7Jwqbi1iIkGCU0BBFdDAzweZlQYWynU51yJUVoCsbFxcEiPc+CtN96U9q/Tjj8Od/zxdtxy663IzOrVzsnwIxh0Y92Xa5CV1RtZmaxT3lhpt/OiUac3BRBK0Tu7D2xNAQTmabN5jM+Hz774DBPGjUdMbKykJtlClRXpYjXoV0PL+HzKl6qDoUxYLWRgs/66gD1GXPv8sNtp5RlCjX7I1jSW8WbSS56R1OwrrwP1mt1jYRHZkXFULIIPBds3IibWgb69RxlUdBAWI3akI9dvBBAy+8EubXHDq5duOlLh1bXF2L1nHcaNnAG7je6O6IFjJoNSGnQ1aItWxix6kEUEqeY/oSgx/ptRtHQdMeK9TSynAalkAUQvQSJpKxgWL30HjMh5Ue7GvKlceHHWq/boYoWrS5mZB6242VpZVQtQn7j8tVi85DUcN+V0xDtT5Z1Drcq7yAbjZb1eD4qKioVBYFaAyCbNIAhG4Rp3wOurxdbtn2Lk8GmwWRMFIKjHUjogFAtsUawEwSHhUCCoZKdUTTTa3YdbsLN9s0/cLmQJNUyQbAULYyS4TwKSMaVhbhhsmPdFJHTm731eL+wOyjrVtVJBs3DsUVvXeuOVqeaZc8p4i+171sIZtGNQ7ghZfh3RSW19pq45r0sAwjdbXLIjk9ExgDAKCfaUCIDAnhVvL1yAdxYuwi9/+Qv57uD+A7j3nntw6y23oG/fXCQmJYvP+8V5L8Ll9yJoUxHHHyz+AMdPnoaMtDRYrGziCnzn/PORlZ0l9GtrAMHv9+NfTz2NhQsXygKlVbBn9x4kJiUiNSVVFFF6ejquv/56TJ46FQ31Dbj15ptx9jnnIDk5CT/60Y248847ERcfJ8KBmzstLQ1DhgyRjdv0oeAOAcKGTZ8hMzOnewAEEghWwO/zC0A45uhjYLc7BPWraGOrNFr58MOPMGLEcOTm9obb7caiRe9gypTJyDKBpLq6BhQVHUReXh5KS8uwYcNGnHDCdBGkL774EmbPPhcpKSmGfgoIW9SWg7/n4fV6sXTpUhnvqVOnirAm6BHharGA88o/EiDFdRAMYtu2baivr5ff83OHw4GhQ5lJEsmORD+HroGwY88mCWjLzx2rIrApQL8GgCC+dL5zwI+q6oMoKt6C0cOobGIjAAKfc+vmLYIZ8vL64v3338exxx6L7OycKDZC4QIqg707tiLd6USi3YaavfsB1vgvK0Lp58vgqigRJdTSobIqLMKmuV1uAYo2qw3+gF/WSq+sLMQnJUqUfmxONizpmfB7ffA5Y+FgdUFhYpyqAl91DRwZvRCXlwdLRhpgs8PHzAIGuBlqSikdXVqH42KFy1+HDz59HccefTKS43t1muunpffmWHs8XhQXF6Fffj9hdzhWes8LdBGAYIPHW4ttO5ZizMjpCAbjIrxSVOI7d+5An969ZY4WvbMIZ585C/FxcSgpK8O+A/sxasRISYtWakgFMvt8Xrz62muYPn06ysvKROawpTMhBdOnd+/dje07dmDGcdNRVFIMl4uxQgT23AsKW/Xp0wdOmx11DQ3YvHkzRo0cidraGvz72WdxxZVXICkxCXYBdE27raIZhqYYh8YgIQwQdu3dCIsvgCH5o02FYDo/ULstcqVj53QYIKgLKH2hEZtKQ1EJJQoJm8kiRtKKFaDC10IJJcpgCJN1IjwYJUvJbmhDujUoSMVlaQgXoazon2QUtDbHD3FU2gMQ6M9WDEIldhTuxKihYxBnSwzhZ6b41VVX4OoTT8CV583GimVL8eWGDQhSwHv8SEtORsDvx9nnnoPjJxyNd997G8ddeB5K7EB6/6Got8TA67XC73fDHwjiqaeexhVXfh+TjzlGkKr5aM690FBXB7fbI2CATMIff/8HzDhhBk459VT5ORVMvASC2bBh/XrcffdduPeee3HnXXeK4ivcXYjBgwYhPi5eLL9jjjkGP/vZz5CUooBQ0wfn39W9AIL1/9l7D/Aoq7Xr/zd9Jr03SIAEktBCB2nSm6KCnqNgB3sHe++9F+Sox4J68GBXQAUbRVQg9F7TK2mTZJLpM99772dC8aAivkf9/t//uS4ulEySmf3sZ++1173WukVlLC4LH+vXr6Nfv/4Y5CSh5qIOr8eL0+liwYL3KS+r4Nrrrqa0tJTLL79cAaiEhAR1ApINt3PnLtx8803MnHkRPXv24Prrr+fBBx8gPj6BCy64gCeeeJL4+DilRI+L0xilY73kHgmg+9e//sVNN91E1v90sbv55pu5+OKL6d27t9L/FBeXcMcdd6hFVwDeyP9JsxMgJ8Iw7aQnIMPHu+++S05Ozi/+ag0gBNEAgoeM9nnK8/1HAwSPz0tDYxW1dfvpkTMMg150Tofeutvj5pqrr2bcxAnk5uRy5x138OSTT6rxEUAlgEmef4u0KXb7CFbUs+61N7FU1WLTBSitriIqNRlvbBg5UycR1znz12+JLGJujypLzX3gAcxmM5fcdhvOunqefehBrr3+BtwtLbz20stMHD0acyBAS2MjGzZuUOubRBZbAnqM0r44CFaLnrgoG1FRUXTul4exZ3d07TtCeLxqF6wJlBRcCumYdDj9Dr5Z9QmD+08kMiwx5DQ5fLuSzIRjpxLUK+VzhZiYnxsEGc+KigrSxcUgAEHW3BBL0wYQBPh4vKK/WkXvnqMIipYntHzLki2g6u6776ZDxwzOOeccZlw4gxkzLmTcmLHc98D96mc+eN99hNvksx+6HC0tXHnN1dx6220sXbKENWvX8MhDD9Mpo4N60VfffsNHn3zCww89zPnnX0B1dTWRUZGqgaC6ZW43Cz/9hPiYGL5d+R0vvfQS991/H26ni+tvuJ4X584lKSERj9tNfFwcZglTCrlrVZhSiP9oY3UOMSKHB6kder8aUDgUiOQjQGHpFoK+IJ079EJ3mCPq9xxef33C/jde8TsAgihh9RIo4fdqlJrGpWmJgorOc+PXGwnoTUq0ImDBIL28D0ZQGtDJ9wfFKy/0jxuj0Lnys4xm8HqUNUdiOhXWl4ALQd0Bf8i3GkJsknyhwi/kT9v7OL7B+i0AQa9iMYI0uu3sKyqgZ25fjHqrkLaYJWSjqoqaRQtZ8smH5OR2IqgCObSaY0NDE2FhkWpyypuP0BtoCbipra8nVVTA4TYFn+z+ILvsLmp9QZzhYcy88SbSOmcpgHDIJ679dxuiPbRctNX8tLHwejzcdMONjB8/npNOmXzEAMmCcOPs65Uwadr0acyfP18BhYcffpi77r6bxMREBSb0RoOi+Qxik/rZS5CyAIR1fx0GIQQQ5HOuXbeGfv36YTJLV1K9YmNKS8v4xz9eYtmyleTmdCU6OorauhqysjrTu1cvBSxk85XTzMiRIyguLmbpkqVs2ryZ8vJytWnJqXXb1m306NEDh8PBwEEDufjii1QZ6ZeutkVDNjrZ9BYsWKBOT8nJyQrUbdmyhcrKSgU+ZsyYod7HsmXL1Nx58823GDNmDJ999plaCBctWsTYsWO56667FIjo2rXrMQKEHfhxkdGut3IyCNWtMQi/7/q1EoPC/sEgHp+H+sYq6uqKQwBBE5q2nTl27drJpZdfrublBx9+wL///W9io2NIb99egQOTyUCPtFQuHz4GXVEFtfsK2FhcQEKvHDoPGsi9997DvS/9g9j0dIrKymif0UHdf40DP5SJ8R+fVnuDlBUX88orLzNhwgSKigp59ZV/qpOogMsXn3+BC845l7GjRpHdqxeO6iq++nQhy5d9y+iRw4mJjlTg2mrQY/Z5WPPVUnp1yFBAxuAXx6AFY1g4YXExJKanYZGNMDkFrDaCJjf565bQs+9ErOFph+r5ktonRythSwIBJRc5FqJcK8uEHpwJ6QAAIABJREFUFtOjlL60zV8qMQHKysoVW9OWwaGOdep72jaNIG53I1u2rWTowMkqzEh9NbQPrM3fyIYNG9mzZxdjxoympKQEh6NFlS0+/vgjTj/9DLKzu5CT3YXde/YpZkben2zwDz70ENdcfQ3xCfF89c3XtMtIJy+vFy1NzXzw7gLWrF3LpZdewr/mv80999yjnjlhQA8cOMB9993HvNdfU5Pn8quupLaujk4dO9HsaObLpUsZP2kSFnFhBAKcMnkyfz/jDIIhRtYo4xNaQNWnPIby4JFAQlQ9fopKN+L36ujSqY/WBTJUUvt/DCAEobycki2b8Zk06CXVbuV3DYDR20LGiJEQEXtwQ6/bthuL3kJE18wQWjYQ1AfRedzQ2krltq0kpKdjSkrGV1OPr6UJa0Y6QRHrGXW4GxoIevyqn3egrkn9Mn9MBH6xm4gXVfl4j78fwm8CCEG/wo21HrvSIPTp0hu9yyN+F1xbtrLxgw+praxkdVURF916Ix2HDMPrcVNTUMQT997PnU8/S3hKKmaTEaPJyprFH/PFvLe49rwLKasqw9naxLZN60mLjcXoD5KemUP2xMnoO3aCsAjpux0CWxpQETggFUz5I4BBHtfDye02gDBuwnhOnhwCCCF0m792LZdccgndunVj0qRJ6mQ6fPiJXDRzJh06diAsLExN8nPPO4/c3K5Hh9IHV1d5IKTEkP+XBAir81fTr19fzBKfGhSAIHYsWLNmLQ8//BjPPfc8paUlvPbqq5x62ql43B5l+ZJN+qSTTlJAyeVyqdPr888/r8YsKzOLF154gSFDh9CuXTsFEAafMFgxDAbjL5cYVPJbMEhBQQHvvPOO+tkCOuRkJL8vPj6e5uZm6uvrOfXUU8nKymTu3H+ozerll19WZYgPPviAOXPmKNZBTm0PPvggt99++zEABG3BLygVgOAgo10fFSmrl7r+HwYQAnh8buobq6mrK6VH9jAM4rMPAQRh2f7x0lw+XvQpc158kQfuv58zpk7lvXfe4ZabbiUpORkCPkq+/YaI/G3U1B2g19ST+GrnVoIZaUw87UzOO3s6r7z6OvX1Dbw67y1uu+NOkhOStBkbAghHg0Oy+NfU1CCn2rAwm3Y6XbSIN+fN48IZMxT1/sorr3COAISxY6koLyfcZmPo0KGsWbOGTVs2YG9qVCWgzE6ZJMTEkpuVybCBgwgPiyBQVY2zqAB3cwMeex3O+nrsNbV4nC6s4RFExFiobtxPRpcB2CJTsUZFYI2LxRARCbFSqjCr5D/RP4QUjL+A29t2PoUmfvny+XAfOIAlNfWgnuLQNxw6Ywc9Dmp3riExbxzoTaE1XStJ3H7OOaSlpqi1xC8HPb8wrtp4y3/LPJfxnHbuubw3/x1VZpVnS8b7h/wNdGiXypDBg3F53bj8Prrl5dFv5Il8tnAR36/fyAVXXMXcV17hiSefosXhYOHCTxUT2D49nUsvv4p1a3/k+eee566771LloKKiImbNns0Lc15Qui5ZJw1mCzFRIUFsCAzIX20HrmMrDraNjLYG+/FQVLqJgNdAVsc+Coho1/9jJQaDIIH1W6krLiRp9Alq0qkhkvHweNn+7ny6nns+uoRkUB2zPPjsTZR/+R0dz5qMo3AnxrQMzEnJBBsbsG/ZTMnafJIzMojL7oxvbzHVzfVEd+xEdGZHzB3SaNq6C3eLi8QBvSj/5HNM4Vb8iTEk5mSjj4hWKVaBgLZRHs/1WwCCTAWJ96z3NlJUsofeMYlsf+FldHYHXp0RX1oa+wMB5nzyMY8/P5eSkjKWLVuu6mJLlnzBaVOmEhkZyZRTTyWvezcuuvBCUlOSeeCRR7jyyqsJiwzD2NpIus5DfMBPB2uE6lHe4nQRm9mJ9JMmYcjMArMZv9DKanJqfn5B+1L91PgJ7VIA4cYbVXlBAQStDqROpK+/9hr2xkZ1Mn788cdU2UE2uQvPv4BLLr1UnZyFuenarRsxsjD94nU4QBCRYvu/hEhR6EM5ba5eu5p+/ftiNkl93oBRiZ105OfnM3PmJYwePYbIyAh1elq0aDFut0udUE4//XRyc3I4UFOjTvoXnH8+q77/Xt3DztKG1itlCieVFZV89NFHXHHlFUybdqYSW/3aVVtbqzZ4KWtIzVQWVCllSNlg165dyk2TkpJC+/btVblh3rx5iu2x2+2cd955CqgIQLnhhht49NFH1anq1ltv/Y0AoTkEEEx/MEDwhxgEAQjl9MgeqglNQ1dJUTEXXniBOs1NP+dsmpuaOPvss7nskkuZPv3sUIkMPCWlTB44iNmP3s1F995O/up1yqVyxtQzOXuaAITXWLR4EQ6Xi2uvvRabyawF2fwMQJAauohO3/n3O7z37rtMmnQS1159NcWlpYqhefaZZ9R6N3PmTJ55+hl1Mv762294+qmnufPOO9T9+vqbb2htaWXBuws4ZfJpSm80ePBQ+vTujdmoHaoE0mtcqDykbtVvAEcLVNfir69kx9ovibRGEfTo8LvdtLicqk7vdjq0COYQyG/L9vu5uaaxAxoLcKQ/4LDvCC0Wiqp3ubDarJo48eAq0oYthFkxEJCeCd56CCahk/RGORkieiUDTmcLERERuFzaxi/PgcfjxmYLw+VyqnKdZI1YLFb13AhoaHO4SElJfq9ZWB6VF6FXXxPLZ7PTRVHlAQacOIr3P/iIU6ZOJT45BXdzk3qN0WYDk4m9GzZSVVVJx07C3gY5UFvDRws/5bTTT8cQGU6ds5XWAEyYejpJnbqosRSgFZS5pzQWmqj0SH72F57kUOnGi5/Cku0qkalzh+4ElCA2BBGOw5r6a2vHf/frx1tiCAQxmvQEN+yktraa8O6dMDQ2q8nnlvQuk4GSJV/Qbdq5kJiEp7KGguU/0O1vpxEorkSfFsvWZx+h09/PxtwlF2OrA+y1NHy9jJhuXdFndcC7Yz+e1kbCevQEs9w0aNywDZ+9hYj0FBp27iStcxeqSvaTPPkkdBFSFxeFtJD/x9ck49cAwkEaXz1kUurw0+JqoHb/FixrN0FpHSlnnw22KNxR0dj9Ok467Qyee+4FOmR0RhfwUF5cwi2zr+eVuS+QmJpMmMXKyy/OZeUPq+jUoyu3XHcdL1x7PTfMmkVEajJBf4BtG9dTse5HJkwah87VTGD7Zoq37sLQpw8dJp8GGWkgCWdSu8WEzx9QpRrZFNtqhxpAuIFx4yccARBkgskmuH//frVJPfX006p+3tzsYOaFF/LAAw+QmJykqEzZDGXT+mVp/l8fIPQNAQSR4xnl5IOOH3/8kccee5KbbrqZt956kwkTxiu9Qo8ePZXAaeTIUXzzzbecPX2aEm5J6eDhhx8hMTGBzZu3MGvWdeTm5nLPPfcqAeNFF81UrzkWgKD2Bq+XDz/8kDfeeIO77rwTR4tDsRo9unfn/fc/4Lbbb1NshQgQhUqdNm0anTp14pprruH+++9XIEEAwiOPPMK9997Lbbfd9n8VQKhrrKShroLuSoOgAYSAz8fLc+fy4zffYnI5mfvOO5hsVlpbHFw0fTqTT5+ignkEUAwcNIiUTllcdf0VxERH0zM5ncioKIaNHcuM887l3nvv54F7HuDRJ56ic6+eIeisuQtkbTmy24H2pMsxo9XlVGNrtzdy3333UlRcrMZYSnDyqksvu1QBsq45uWrTK60QFiGMxZ99pk7Dw4cPU8/UjAsuor6mgYL9Rdx44/UYw7Q1TX7H0Wrfyh4Z8PLjms8Y1GswVnMUNEpfBUk09ILPBQHvkS2G/zd2C5dLKyvU16OLi9XG5zCAoH5F20bnbqWhaAuxHQZoZWGzXjySWp1BGE6XE0dxIcGQIFRYMdHXxMXGcs3d96AT8a/ag8QL7uSHjz6ktLhYsXWjR41i/foNnDt7NqYIaYwUwL5hM+u++IJ9mzeR1zWboNuN1WLB6XIpEC1rVFlZKZmZnRWoECZDDgWK2lf+bT0+vx93wEuz28mBRjuxCXFEREcTHRtDeFQMEXHJWGNiMUWGY4iMgPAojR1RuQ6H0QyHtn3t3/VG9HIYttnYW7pTSU8z03MU8Gmjw9ocN+rvNtDwn/jsVwme/43bfGw/43cBBAPBjVuU2jWme2cMVbXKG+vT+yAxjpKP3yfnrHPQJaaA28/Gef+ix5STMCXF4ampZuOcFxh47Wz8CckEmhsJ1lZT8c4CEjpmYR3aD+8PGyjZt5cO48aga5+G0WomUFCKs6SKxoICvJFGXOWVRKYlQ49uWjlDUK2coo8z4fKXAELb9JAhkxO75PdLzcrnqML+8Xs0b99Lx3NnYMjrr00mnfRncDNq/ESeeuZZ+vbqhdWoo6SknMsuuZgF7/6L6Jgogj4P1XvL2LZzF0t/+I77Zs9m1d33kKZKCH5cyp3lQ+92EBtmwOtrVRyB2WfD7HWh93vQt0ukxhyONyKJyMR0LNFxpOZmY0xKAJsFbGbEsnfrDdczZsJEJp1y6mE2L81WV1RYwJNPPcmTTz2lAYQmB3//2xmKCpQSg6rpXX4Zk085RSm7f/76I0oMOgWApMmQQEGXuwU5hWs2R3mYj6zIapGo2jgKg9BnQF8sJgu6oEmVGORurvphFW+//W9uvfkWnnj6ScaMHsWWLZvV6fOCC8+nc1Y2F1xwIaNGjeSzzz8nKjKKd99dwBVXXMkb8+YpMag4Dj7/7HNOGDiAMaNHc8GFFxIRGXloKWjzuLXpeeUrOqg9UMszzzzNju3bFT29c9cu4mLjGDlqpLJmiUDujbfeVAyCaAvEJSElIdEpyAn2zjvvVHoR+W853YpA8cYbb1SA5ZeuNgGWVmL47zIIdfUHSErsgElyEEJLoFhPNQ2Ci/rGMhrqK+iePRK9Mo9rW3Tlzp2snf8WLTs30a1PNzX3BHTt3bmDrNwcLdFPyZ50WExWqkpLcDY2ERsdhS8YJCE9jZWrVpKVmUtFYQ39e49Gl5pI7vSp6CItGj1/2HKtKeHbpGfa6D31zNOq7COswJKlSxWrIy4KqZkvX7FCaVqkxDDr2usoLCqirq6OtWvX8OWXX5KYmMSKFSs44YTBtDY76d69Ow88cK/KF5FfpUD8waexrYulVtn2BDx8vfYTBvYaQ4QlTkX6CmXdZjGX8qy818P1SL94v48h/0qeJ58/SFlpCRkZ6ZpT5ic/VB2/dAE8nia27VxNn55jMOjNmhxdiWT91DU0albGkENh547dSlw6ZcoU/va3M7CFh6lNXECcPJ+bNm7i8UceY/bsWQok33Tzzbwzfz5JiYlqvTSbjdx/74Ps3bdbMS3PP/0UN826hvPPO4+vv/maW+64k+2bN7N40SLufPAhzDYbn7zzDqu+W6nmnFF6OfmknK2x2RlJCUy75GI1+MGaSq1RU6ODYGML7sZa3I56PMIyNDcqK7DWhCnEBByuT1D9F/QYJcQqoT3xQ/vhTjSii04mLWuAAlhi5VVHSmV31VIs2+66iGvVT5AS+cGuKL9WAzq27f33v+poAMGr9asU8aq4qewOT1BNSs3QqQUlKQbBSGDzRqprDxCWkohvx3Z0aR1p2L6VrKmnU/Tum2T+/SxIkqAcP45dO3GWVpI49kQaflhLU8MBOkyYBOYwfC0tVK1fTVRNBdb4NBp9LnxNTSR160rp7v3E5nYlOjMD1+ZtOPeVETTpiemRScGSr8gadiJFleV0mnyyetgDgf8OQBARpAyBZP74dKpSi94PLZu+Y9/br5Jz0hSsY08C6T8QWnBkcx03cZJStgs9LUI2EcTdcP1s3nzjdbV5yMMmrUdXrfyOTxcu4qYbr+fxe+7lissvIzYuVo31uvXr2Ll9G9dcfx0mqWmrFUWHe+c+Kuc+jvFAFWGjpuJOaYfOUUNABDsV5epUmpiaBknx6OIT+Ofb79Cpbz/6jhuDUxanoJ5oaxg53buxb98eRZ0//fQzyorkaGlVdLbUs1OlFikZdxKhGrLbHRtA+G+VGI7ezTElOVU1pDnapZ5Lv4c1a1cjDIJEC+uCZhX4FcTFxws/ZvfuEs6edg7PPvcUQ4aewI7NW7nlltu468ZZdMvtzowrr1Qb9k3XXs1JJ5/M22+9xX0PP8Rbr7/BmImTScvowOUzLuLW22+md5++xCUmH0q+CwQV2CoqLCSna662yId2huamZtblr1OWUhFSxcTEKNuigJ727dPp17cPJouZxuYmhg0bpk6mIlgUICfgQGq5q1atUhqGq6++WukS5MrLy/tFBuOPAAiySbjcrQhASBaAYGqL3g5l/igLrgN7cxHNddV0aTcYV3ERFVt2oHf7MFbVUFNWxIbiHZx83jnoLGaVZ/DhSy8r66HJZFY0bnbX7mQPGYpR8i28XrYtX054RDgZOTksfO9dTpp2HoaIJNW5z2cx037EIHRWLbdQxqGutk7dn7S0diFraluQmY4XXnyB0rJS5WhZs3o169av59prrlOL5BVXXsndd91FTk6uioaeff1sTjxxBDW1NQrwCXh47733mTRxEnV19Yq6f+CB+5Uf/xAW0RREmgawTQyowxtwsXjt+wzvNY44S4rWl0IcBaGN+D9OtL+yr6gv/wLNrZxjcujxeygt3UdWemdlydTe2aFAJ03z5Mfpa2bjzu8YmjcOk/6QG6FwXwGPPvoYrS53SHcADQ129uzZw4nDhyvRr2wusu7dcfutlJQWq9KYANwxY8Zy3XXXcNddd6vXPPbYY+RkZ3PJJZeq8sT3P3zHZ4sXq3Vp+rSz1Pxftep7Wloc7Nixg0suvoThI0aocbrj9tuwWW30HzAg1JhJK5aI3fubr77mtXnziIiJhKCWFaMWd80ne8hSelhc9ZHryuGDHSDY1ELdpq04dmyivGgLYeEWYlI7EohLIim7B5EdMwnKeq4C22Q4Ja5a4q41gGAIGDCGApf8+ramUtod/vMaPh0NIHg0M+6xAAT9xnUcqKvFmJZElK8VY3YvyhcvImX4SAoXzKPz2WfjTW5PECNmr5eizxaSlBhB064SkqZMxB8dh15vprGsElfJPpwF2zEnpuMNtSuNbPEQnZuLvl07anbswFFcQoTZis/RSkRCFPbv1pA2aBD7q8ppN34c4dlZBP0SxHF82OmXGARVjQrpLFwGHcZgEP2GTWx7ay62DmlkXzQLXUziEWycLDgnTZ7MRZdewtYtWxVtLAv/po0bGTZsqJqLkrB48w03qlPJwoULFXKedtZZqqYpG4VsJIWFheTm5iiFrtncdnrX421p4p17r6N7aS3pE88k6cwz0RkFyRgo3bSBD+f/m45+E2l6M9agl7KKMvY0NlARZsaVGIfDryc3szOzb7mZguL9PPrYIzz04MOkpqQhm9ZVV13JE088QUqK5mVWB95fTf75I0oMxwcQZGFanf8jffr3w2qyYQwaFUDwuj0899STDO3bj44pqXw8/y3yunSmYNt2Tjp1CsXr17J5/VpOOW86AVcrC997T6mhlyxezJTp01n11dcMGD2WsPg4VZK58bkXycjrHaKvQydUHaz9cS0v/Y+a/rkXnlfWLHWFDhM+j5dPP/mE5cuXqTEW4aOouGVeVB84wHXXzaJHXk8lWLzuuutUuUEWQWETpNQgYrlOnTqSnp7BtGlncfvtd/D0008rW93PXf9tgKBJgYI4Pa3UC0BQQUmiFD9sLgW1bAe7vRRPUT7Br7bTJCe5pBR0JgvhsXF4EuN56J+v8NqC9zGazNjr6rj8gvO56oorFasip7LY+ESMIogTVb/PxxsvvqhO76PHj+PKSy7l0aeeJK2TZpWzmI3qj8r088uJ2cc/5v5DZXxMOvlUFap1SIoHDz38IIsWL1Z2PdGIDB06nOlnTlfixTPPOlOJ4US0Wt/QwOlnnK5+lmhEvvjic5qam+nXt5/KzhAVv9y36dOnqxwOLbBH7UwhLYIcZ0PAkQBev4tFa9/lxN4TiDOnana8o4hHf/WRbDv5HmVdPDxoStMo6PAqgLCXrPYhgKBChY4gHZVby+lrYv2OlQzPG4/JEH5wmglgczQ7tAZooQZh69atV/kVN9xwvSqTye8VBmbjpo08/vijnHXWWeqPMJ1XX30ld951p3IfiItHSmhi2b3//gf44Yfv+URsjg8/zPTp03jggQfV8zHruuuUgPfll/+pyg0yp+6+5y769O7DKafIPT1UIpB7+OCDD/H6a3JIO/S+f3YjPpqb4Yh/C+U8ysbjcVC1ezWOwkIsjiAtB+ow1Nox642E9+1BjGSwJKYQEIef6iQtcEvssAb0fo1t8P1fABA090zglxkENq+jurYWU3IC9UsX47Mm4mioovelV7D136/S95wL8Cek4dWZsEgP7+J9lM17jYSBQ7CdNAqXPBbSrQxpEdrK9n/MIefUv6GzaTYn/3f5GPK6Y8jNhtYWnGUlNFfWkNQ1G29BETVfLSOqey4RJwzEFy4Ue6Sieo7Jn3KUVfOXAIJkwcucEF+z1wBmeyNVDzyKr2sszbKx9B2DCRPSRa1tExUB4EeffMyQoUMVl9j2cGsCGCmraeEfQqM11NcrICCCuNWrVys1vPjv5WeJGM3n89ClS45avLRLh7PZzsbvvqJ/Yjrbtu6m1+mno4uK0GhBeZ9OD0Z/QInOpGbp2V9A0eIleBvsZJ1+MqZePVUPeGna0uJoZsOmdQzoP5CIsCjFPixfvpzBgwcrsZGIFA8Jd34JgP0FAULo3slGsDb/R/L69cNmNmFxewk2u3Hs2Mn8xx/lhOwccLZit9diNulp8bQq1Xh8aiLNLc3UVlcSLu1tvX5aWh0kxCdQXlau6pdhVguOymqig0Yyew8gbsxozP37E7BGoEc75b76+mtKYHbpJZceQbWrtTcAa9etpryiQmkfdu3arZTzU06bwonDR5AYL+BTx4rlK3j9jdd59tlnFdgUcaIsouJekPkjlsfMzEzKysqUpiQ8/NAC+NO79kcCBGEQUg4ChLaoXT2GgJZEaN+7le2vPUlmYkfSzjsfklKl7aACWes3rOP+xx7lg3c+UFbb8soyZs2axbNPP0dGuwy1cdY01PHIE08oLY1Q1wWFhYo9ad+uHXv27KVzZid0Ph8RVjPnTp/GpMknq69LemZTUxO333Y7t9xyCx0zuyjR4OFnp2eeeYY9e/eoZ1M2uWeeepZOHTPV5n/WtLMUQOjSuTPfLPtW6T8E6OevW8fLL71Enz59ufbaa/j004W8//77jB03lpkXzsCmynZyS9W2H2IQ5AQrAEH7tzaAMLzXROItms2xTZT4H/fydwrgDgL/3wwQVjA8b0IIIIRKQ1rUrCYOrKlV4tuVK1cql8ENor84zCYtrEJJSbHK8xDQ1NrawpVXXs4dd96pxL/yc6S8U1dXq0qdYgOWuS3g98wzz2TwkMGsWb1Glf5EsyDAQMpvw4YN59Zbb1FlwtTUdiFWVxOvNzU14/d5+fiTj5VdWOaAAiyhQ+Chsf2JDbbN03i4B1e7iQf/RebO7pKN6AMmunToJfUWaG3Es38XOz9diK+skuT2GSQO6o95YD90MTGaiFsn7yOAX6VyHrKt/lUZhF8GCNIRTGqBmzdy4H8U2AlD+6H32sGaSKC1Cb0xis1zn6HXzIsgIRXsLQQKCilavZaUHlnU7CnEGhtH8pDBBGJjlE3S7HezY84LZI4ai95qURujZ+1WLAP7YuyaBX4PLSVFtB6wk9AxnYrPl5I6dCDVW3aSOnAIweQE3GYDBr+6zcdFIfw8QNCoN1XLVqWGAPWLv+LAym/pdPUZbPP6yO7SH0vQpNk8VbSvlgfh8QUwm8w/KzxpA6JSH/dKFoRRTrWmg9Gmhz7IobrVQdWzX9IBvcquo1wkEoikKkRaNUuElFIKUR3F2uLf7Y24tm5j++JFqk6Xe8rJmPrn4ZP4UulNpmqyGkshD9vBemdQwlLalL1/TYCQ+pMSgzRPUZ9Db5BEXPw+N/vWraZrly7oqw9QtfhzGssq8OhNeA1mwtNSSO6ciS2jHaJGlgU6JiMDfWwiUoZ0VFSpxjWy6NXX1apSQUlRCe0z0lUb2fyvvmRwbleMfj8b9+7ghHPPwRgndjojHo9PaRXGjR9HVseOIWX4IbDX0tqirIlWm4URI4er01C71FTCbBJkJWUTbaY4W5w4Xa1KvS/qbwlWGjBggFpMxQop4FLum9S65VT7S4zPnwUQ5LnQom7FEu0j4Ggi/9knicJFl4tnY2yXodVuQ2qFXbt38uGC97jt9jvU5tLiaOX1f77EuRfMIDY+QR1t/V6/8rx7pOe4Gq2Qrl9sdYGAlqHi9UDQr0p3EdHCrCgVAIViMZ0/n+tvuOmgcl+j0bVLfp+85x9X/0hsXDR9+wxQQkpx/nzy6SecesopxMfGUVFVSWFhEbldc1nyxRK65uSo+2C2WJRbqLikhG+/Xcbf//63Q8yOTguUM4i0Wlm0ZbOQRUbmn1MxCAIQEqxpIT1fm6/+SDrgd+KDEFg5HgbhKABBWSV0BHxB1q9fz4cffaT2i3PPO5euXQ+Fd8mmLIBZWDylHVKdVFt4/LFHVM5BSmqqaqOsykDBACuWL2dtfr7S93Tv3oPb7rhdZWGMHj2anj17qvCj739YRVx8Ank983j//QXKkZSdLQcrY6jdtY76Bjtbtm7k3HPPwWoVC3coP0rZe3+ytrXlZBwEB0fRbIYiAWXWBfCxu3iDRGXRtUNvdbCSnpaKv3C04ikvx1NcxH55Tu0NxISHETAZaDdkKLYBgwhGROBVEdOhfSzkNjuuDe13f9PPlxh+ESDI7xV6yLFnF/bGBjIG9MHvd2CUJEGfh4IfN9NcsJteU6dQuX0/dZt2EBlpo93g/hgzMwjaHTRu2aGsf2kD+hKfkwkBD6vefovOfQeobAD5+VW79pHSqyexWR0J2O2ULf2SgM9Ls85HemYWMQN64ymrpezHjXiTEsgadWIoqONonNCvj9bPAQQtfFZAkWzurTJJAAAgAElEQVS2AdxbNrF3/rtknjmVQG4qO0uL6ZrTF0PQKhwCyvquE4GCW6laJT4ZSbk7PAIx4AGdC78lioDOiEkKU343StiAEQJaTKu2ih6unpXZ7FLRsYTHETRoMcymxgaCOg++qCiCSIyw5CN40GNTMMHmB32jEyLNoPcSqCiles2PNK3bSru+PYmYPBXC5LSpLZqH10oOMR8aSPrl689hEKSGrDQIajOVS96HT6uWGvUYxZZaXcXW+W+hq2/E0eQhMy+PlOFD0CUlgTkcTGaQYKO2LP1QWxk5W7SNiHx61aUvqKI5Qnmh2pi4AwGsQmXKFx2NYPARiBBbqIQPgcfn0wSeoSS7tmJR22MoamyTXo9J6O+gH5/Phd4ggPGQrgWf9ouFvpVlRGXUHxZ9fThl/Gsz/s8CCCIolCz9YNCLsaGeoncX0FC5h3YTRpA85HSCApBD4jYZYWFfPC4PljAzekFieiM+twuj6BFkgxXXjoBgcT8c6lysxlyNkzrRCiUZVCBaOz/o8Ph9mAxGldjqcjsxSulBaViCtIYaJ5nFNq2EZjp0Pr9GAYv2QSCebHB+H0a5R6H2yhqM18SEklCqrkAQv05Oh8KYSDKhTwFyj8FAhE77XgEuIlRTb05tRr5DACFvAgnWdgeJ0bbsjF+7v7/168dXYjgSIMhGrpGcGpMr81OitNWyYdQsxUbVV0Hq7+oOqdd7dQbVqEr+uFwOzBYzPp2sZFIKksAb7VmTEpLW00GWV5cqV8g9bFuVDpVCBXz4VdNJCVWWlUCeQnG5SValZGdYjFpLKe0opa18hqBHdc2UV6veOFI10B7Zti37IHA8hBnawJooM7zsK96EzJAuHfrgD/qVOFH2EK3YKJGuLoL1tdRu2YxeXCOtLZSuXUNsTCzxOdlEDDsRXWoGPpX0KutYWw+O33pHf+/rfw9AkEH1uhRFpvyrfkGC8oDqCLp9SpiouhfW2DEIektJIGhBrW8GeWjljoiiVG627KgGPa7mRhUQollrBGt40QlTIeLDRjutO3cT0bE9gTAzuohwdLKYy81sbFHWxkC4RZtMP7XlHOM4/RxAUNuDaqQTRNdiZ8/jDxOblUvi9Gk0+hvYV7ifbl37oguGY5TPqg9g8LbSvHQFZpsVy5A86jZuhMJKjAGtf7hsAH5DI7aBIzFnd8WxeydNe3ejD7owS+khIN3bzKr/utcfJHbkSHRxMQRra9G5ajjw6WckXXiO8vzKwDa9+RrGCDNhU88EU7QWgtBUA04vPr0BY4uXurc+IjqzA8axoq4VMY6bQGE5JfPmEzn5ZOJPOlnbINUWqCF69SyF6p5t4/NXBAj1AhCSRKQYSn9QTgbZPIX9cREsLyT/uecwWoz0OulvmLN6QaJ2+sSgCVu1fSOUt3qYR177vLJCyaInf6nJqy3oB49uIjrSHmg5BdZ/8zWu0n2kzbxMqaYR8ZyUcoIBwlvc6P0+iBZAJotXCHSElh6ZxTqnW3sv1kORV20ckgZ/jneWH7p7fwZAMJhksdOeaZG/tSxeStnyb8k4fwwFVujaZayqz4aMjuB2gF9qemLh9Yai/gxQVg1JkWANATq3fC0UGiRjq1Z0tTuAL4DX3ogpKoaAw0EwXOuMqPdqKa7a6IcWQ9nEwq0qnVDNd18Qb20DpiTpryDR70ackhtokNLoYTHwCiCEtBWhA5TWO1m+R96bJkyT96Kp1GT/1NYCpGfGwR0uVA87DCCcmDeBuBCDoMS2oVjhY1zWjvllvx8ghLJw5DPJQq/WGGFSA1qjLPUZZbeVZ85HUATdbg/BqgZ06WkQ9KJztmrfK0MrLiWJYpb7aG+FiHCCXg8+txtTbJTa9PX1DvTCBinwcZhOwukhWFGOrn2i0BIEouTniLA8QMDjQ28NJyC9Nfw+DI1OAi6Xcrd4vE1YDVZwONFZDGC0EHS5D3aiVM+7XltbdOFh2j09ePP8SNSyBhCMdMnIUwyCxmdp762t/4mytkoqrcwByUqoKqFlwzqq89fS3Oqnx2WXo+/UCa/RpPbKPyeF8TgBgnpwFPWhTXa1EIdiSbVNpE2hrTX2VMN52MOjNn85Vet1mELISr4sNjGTPCzKnqwXUK3Rg1KzEvuMzLOQ0FcwhV4apyiRh4YSZSClb8FRtDjH9JD8LIMg+fSCAv1O7N9+yYHvltNl9t2QGEtdUwllZQV0y+2HIRCpTjEeow+jKGN/XMvmZ+bQ+64rMegD6CoawaeFjOD105C/DNOg0UScNB5fwT70pcXoAy5tEVE7gF6OnZQv/Jq0WbPR5XbDvugzwnxN+L9fifXSv1Oxexf+GhfRX35OICKcxoFjITqFjJGDaHpnAZVVhXhNeuK8OjxbC8BixZfbSSlm3R4vKSNOICoxmfxPP6DPJVdj6dpNtQEWiuz4rj+HQRCAkJqUqsozbadoFUjrdePZvYGihR9htdlw9+5JxxEnYzTGKhu5YFqZQd7de9XpwZSdg7ewCH9FBQazNgYy19UJKLEdhpRkgq56fAcq1T3UFkCNEtZyVYIYu/Sg6euvaP1uBcnnXUDl1l2knD4VvdWmKEj9klVISSH8lJFg0hNQq4W2mKpFw2/A8flyTFFRWIb2PWSWV3SnbJS/xuIc2537owGCiBQNJkmuNCIafn1tNcUvvkFy91yaxmRT3lBNr84nqk1YO3sHaN69DdfeYqIjItCZJWynFaPTQ8vi5cQO7o03JQFTaiqN9dXoahrw+d14GxoxGM0E9HqS+/QlaLOyYckX9D3jbxQtXUp85wx8Hg8HNm0m1t6EJcKCy2ql1Q1pAwdhHToQ374igmEWjDGJ/PD4Mwy56AJ06Um0bszHlJmNMaGdCiY7qO3XKA/tCrVV0IsAcvd2AhX71ZyU1uJVu/ZiFHFXQxOBmAgCHjepp09Hn9XpoKtFMzIcYhBG9J5ErFlcDJq+SQtIOrZ7/Fte9fsBQqj5Vn097o1bsbbU4Q23Yawso662QW3UPoMVt81Geo8sLCNG07x6HTWfL6fDhJEYMlKo+e5HGvYVYY2NVE2j2k8ajTU7i/IPPyMyoz221FS2ffkVvU87SeXjlL+zmPhTx2PrmHXkc1FYRvXr80icPITSNetJGXcilq7d8VdWULrsO9rl9cUn5R+XC/sHn1KyYRO9rr0GvdjmfS5qvvsaq8uBrWc/SpZ8icXlIcrtxymAJiqClthIOk49DX1s8sGSrABYKSYogBDUk5nRU0tSPMq90uKnFArSsKxOGGU/wfoGit54G0dVFTnnno2xVx8V/td2aP5jgcLvBAhq4VQtY0MoqW3dakvsClE06p/brCOqJqyj1aj9bQsI5aTtm3KpFqChhk4yyG2LoYyR9O2SwW47U4n10GXw4dYFMAfB5tcp8Hm8z87hAEEcB6KGbfthisgvLWTnM3PI+NvfsQ0ZocBJvb2Qiooieub2wxiI0uwrxgAenQeLz4N3zTaM3bLQxUjNU0JEQrUll5emd9+D+I5ETR5Dy7ad7Fy6BLzNhPm8WIJBxC0RJn0Y1u+i68MPoMvuTNmTTxFXsJO60iJ0E0aRPHAQxKbBm68SiDCiP/V0MMdiSoml9u6HiDn7TPQZ7bVNRgJLZB+S+RYA56r1uJzNJJw3jT1PP0VEcjvSLpgZYhF+PQHw6IvPnw8Q1DlFlWX8VH/0b+qWLiNl6GAip5zMxn276NlrCCZduBoLlT0vBZk1q1j30sv0v/FWgvYDsG39wbknhEFLQQ21udlkXzqDwI7NuNbka6f80Eam03nRB3xUr84n+cabMUbZqH3hOcIONFHrcpNx/bUigsBZU41pxXpavG5iRw7CH2nFMKg3zs3bqNm8nRZdgEiDGcfazTjdLuKG9McjnfNMBhI6ZZM8TlieIxvc/JZN4PDX/hEAQdkcPZrNUXIQRIgm5QCzPojr43c4sK+KjJmXU0MtBfYC+mcNV4xj23EwKMzh3Ndp2biexNuvI7B9OzqXA//CLzGNHEIwKgF69oDECPyffsm+rRvJGHMi1ug4mlZ8T3S3HngsBor37Sb74hm49+7FuXYD0RNHQX09Le+9T/jIwQQ7SeOkNPTxyRATjf3rL6jet5uci66k9NU3VdfB1GlnsPPh+8i86ErMud0JyOkxBAwOxwdtYyxBat4dm/B9+w2OAzXE9+lP07IVRJ8xkZZFXxN20kgCy1ainzwN/eDBRwAMmZWaBmEBAhDExaDUCn8pBqGZDTuWMyxvIjpDmDonKzrf3oxn+UqCH/8by9RT0G9Zi+6E4QTz8wlGRhGMScbQ4kQ3+WQann2e8I4daNiyleQrLiTY6KLiw09IvepiGhcvxTSoJxF53Qiu345z107Cxo/Gs2UbZgngk6yCgioiTpsIYsV2yVFbNl0/lJTgnvcmlkvOwLVzvyoFRYwbpwKdmhZ+qfVouOJinMu/x7F2DeGJSdQ0NdHxovMhIgz/3j3seestOp01HVO4TaUBB9ZsoaGohIQzTsNvMWHKygSTsIBtSRS+YwYIWrFBypFSvgoSEFZCwJ8erHXVOL76hr3ff09vWTc6dFalEEVq/iTj5Xif/WP7vt8BEATCKnV8qBNAaO/WAHRI0BcC0wdjfdtgryBkFTshTXRCy7D8v4YrtMqOouEPdqcXoKU5hVWFXDFQWvVIqj5tDgPFaIU8msc2AEe+6hBAcNDc2kRiYkoIsAQxOJvZN/cfJBqjib78EvxWM3781NYXUFlVSl7X/hiDkSFq00/j7u20LPsRlzFA5jlnaadLe13IYSF0SSuOxZ9BuxwiJp4MNbX4KsuUJ18oJ6GgAyYpmBhofPNDYi66UKVS7n3meTJH9MK35EtMp01RWe/ugB7TV18TCNeBeOANUURndcK1aAmtyXEqZVJcENIsRsbMazAp9Tj1zVjiYog+fzr+0kKK3v43GePHYZLFSmc7niEM1f7/270Y/tPmqEoMyanopYYcDKrGX96dWyn65yu0mzadsN598ej8rNv0Pb37DsVIlNb9U55RQxCzu5b6b79Fl55LTE6O1kQstPkLsLIvXkp9UxOZM8/HV1tO5bcrCHdrfTC02ezF53WiW7iSpDvvQNe3B84F8zG/uwinJMrFJ6vmZdKbwdbsQO/zIGKVgM1M9Okn07hpA4a4aHzZ2QSNUnkV0YgFv17abfvw7C+k8UAdnW+8Daxa19AjnrnjuFt/BECQGrTL46ShoZbExHQMQpkKQPA4KHz4HqJ7DiD672dRYi9V3Rz7dRoeKlVqn86/dz9NLzyPs3A7aa/MoWXNBnQVZRhWrCYwtB+umESis7vSqg8QERPD9jfeIOuEXtRv2Emq2wgdM3CbdVSUFZI543wIs4Dbi9/lxLvgU6pXrSR92EC8mKh3Gkm97RYFkD0FW9n74hy633YfwYAOT2MLZn+Q+tdfJvaW2yA5MRRZ0GbbDFkj25oyyvKvdnMnrPmehj07iD1xFEV3PoAxMxnPjxuJGNgX/e79xF9/Bzp5bg+vG+naXAwCECaqHIS2lshHszoex+3/j285KoNglELQf9oc5a06vRpAGNpLXAxhGu3eNimbG2l68j4ir7gK78uvcKDVi2n/DgxWK/6oFJKy83B2SMf5+jxMWe1oLSsjetQwDHaHEl2XBZwqfC955nRcy9eDvRGPWdPyCCtosJpweb2YhDU+YCdu6niK163F0uQmxuvHVlGBa8sOfMP74kpKpNkdJDanBzGjhyEn0qDPTXP+Whq+yyflovOwpLej4b0PqKkqo9Pfp2OKTSLYWIuuQwcc5QdUM0BT4QHq9uwl+cJzpT1nyL2g5VJoN0/WAz17ijepzT8rXRiEXzqxaiUm9Z1irZXpogdTIICptYny+fPw1zWQPusWgrYopWXQ9tzjZ8l/2zz5zQBBgvlMSlugbfZtyV9HLlY/fRM/9RS0/dqDJ30l9jpEnB4kItraaal/0MRCCj6ECjqHdM6HAkB+Tw+6tgekpbWZptY6EhPbYVJUewBDZSVbHnqM3MuvwtytqyqlidCour6QiqoSenUdgBHRT2j0oLtoL47PlrJ18SJGvvseruXLKPrX64rCkgQ/s7+FYEszqWeehV4fTcWK74k0BPHIzff5MJVWEEyPxSoag8JaSEzEnJtLg15P6uih+OY8g+7kKdRVluIN+rF63JibmnGWV+LLziGmezcad+/DZW+Qeo4KcDJtXoneeQDniSeCQWpy4US260TSqBEQbqFp8WIqVm8gd9YNCoyIrkMQq1rojvn6sxiEWpKT0xRAEOxjbqxh68N3kdTjRJL+fgZ6axgeXzP5m76jd9/BGHSxWnqZTE5XK+7dm8DTRHieWFLDlHBIU5U6VHKb/fNlNHk9ZJx3lhLM1q/dhNnlxSP1Zb9TmkbjDXoJfLKS1Fmz0PXIo3ruHBII0rxiGRZJj0vLIBARRuDr72mpKiGyczqe8mr0IjosLECfnIQzsxPBxHhV4dFFJuEMRBCebCK8thZXRR1hZ88E2/9NAMGvgpwaGupJSkpVnfMsAfAs+YI9q38g74qrCbZvT2ltIdWNhfTLOpGgTgqP2rnMWbAPU/E+que/SfLkSXh270fvasUlUcCRUWqh1rXPxO7wkhxuZN/unWT1z6Nu7VYSzTZM7dvjNOmoKi0kc9Ro9i36gvhBfYk9cSjBXYU4P/+CsHOmQl0z9nc/J/qO2ehSOoG/mcbnH8GcNwDb+Cng8dD09jzCDTYM55xD0NKWCKnpTg5tEZrGSisz6HFXlOBd9BH2/XtpN24i9s+WEHvOqbje/xTrhEkEl/0Ap5yBbtCAn5xWJLU4xCD0mfCnAQTRiIV8d4e9P00n4fI0s37HCob2Ho/RIOWzUHJiYystP3xP63svEzN9BuZ1m2FQP1i3nKDVhj86DWNLAE6bTGDus+jSktBZTTTs24stLh5r/z44Vq8kYuJ46JpNwycriOqZR2NxGb5Wh0qPNfi9+FqcREpJsKCciDEnootLgIAJqmvwvfQM7h9XYZt2FvppwqpGgiEcx6JPKF/7I5kjh1O0YwcpGV2ImDwRnehOikpwrPiBZoOPim35JHg9dHzwEUo+WowlMoyE2CTsq/KJGj8JX1I8YZ06IqY5YU00gYGUE/TsLtmk2KXs9DwFEH6+LKDpnbR9MKDWLSk3ymHYovNgKC1k4zNP0+3C8zB2H45XJTZqjQSOlyU/5mX84PGj7TdpjRCdTi0o6aguBhkGi9mkCb9UeeFwhPHz1P7Rtpfj+4BH/qSfDtTRaL7fMiBtAMHhbKa59QAJSRkY/WZMfi+ty5dRsWIFWbfeji5cC7kRkUxVCCDkdRuAQWhrdc8DGIMt+Av28e3smxj/r/fxr1wBJbsxXjgDdFEqRz1QXUXQZsAQG0frex9gdHkwjxIGwITz3iewnDUKff/u+FZsBF0sxvFj8VcUENy0DddLc/EPGkHE0N4EEyQNTIe+9ACt3y7DeuZpGPr1RxcTjWv5SgItHsImTcH/1qsE9mzCcMtsCIRBwIo+Po6AzodeNsOGWrY+9gJZPfoRdtZp+ExW1dBGhRG3xc/+Klj4cwBCbW0dycmpqjOm0emk9eullH+5iKzb7sKbnIFFiT2bWLtphWIQDPpY9NLuWQetxaXsm/cSrevXMuSf89A12il8+QVMFqk/OLH69LjLG/GPGEK74Sfg3LYXa6tXe5iDXgyeZrwmH36DjubvNhPXqQfGrt3YX7Kb7DNGU/vgw8SefR4ly9ZilyY4HhdhbhFjuXFFRZExcCD1G7bhtzsIirrfHMRWW47LG8DerhO4mzC1thCfmEzMlGmYuvVAH5d40HHSBq5/C4w7xD60dXP8349alh1e2vgKQGi020lMTsYgNt7iQrbedz85551P2PDRBAx6SusLqbJrAMEgRcS2QEFnC/7VK9n7xBN0vOYSAhXlGB0OpV3SGSw4HA1EnHEWJKZCTTk731xAZu8eOPO3EynugowMnGY9lcX7yJo5gwP5a/A3NtHidkJJFc7yA0QkxSuxWEt5LcZuOWRdcxX6iAj829dS8No8utxwG0F7E6Wvv0r65TPR5fQOtQjWVjEtDyp0/FfgQFwLQfRuL83FxbDgbexlRbQffxKVny0lOj2Rxh9/IKz/cOxlZWTMuhlDX+mkeeQe7PW5tRJDn/HEWZL/FAbhZwECOlyKQVjBkN7jFEBQTgGhwOuaafpiMa6l84mfch7uLbtobXViLNyIPyocd3wGcWmdCDv3XGrvnI0VP25xLCTHY7LYsLpdVG5eT/LUqej6D0DfMVuF7TVt3IzP5yS8sRH9D+vZt2cv7a69lOgThoMlAgwWCTmgceEHRJSU4isvxtUhDcuosZj7D1VZA3q7ncq33iC5Tx763nkUPDmHDhOH4Kmrp/CL1WRdcRWW3EzYt5V9b84h67bbKXx/MbZIG4nxaWx75U1MnXMxdu9GzimT8EXalDuibS+UqP+dJZsVOMxNF5HiLwGENo1ziMuTUoNMfL00i/Ji8TSzc+4cYt1+kmbdidNsxapEj0d2Dvkte9xve+1vZBB+ChAOKn9/22/9y776IEBoDZUYkoVB0GOoq2XDU0/QbcRgrFIDDpgU2hMbThuD0LvbAHT6cCWilJRFg86Dt3A/K2ddz9i35uNe8TX+ykrCL732oOBEmpn49m7HmJNFoLSIuk8XEx0Wi3nYMBpvvx+pWES1T6U+6CZq2sUYUzPY9to/6BgMElawF+NV1+D+4QeCbgfB+BiM1XaKV68lZtQQosZPxJzVhdbnniTYPYfwSdNpffU1Gj96l+Y+3cCpx5uWQcYZpxORlansm0KT+zdtZ/dr/yb75isxir9fxa5L/oEWDdp2/bzd8c8CCDUkJnfEZjYqgWDVRx/R5cKz8ffvg18XhjWgx+NvIl8BhCEY9JJtLypicQ0G8VcUsnn21fR9ci7B4jLKPnmP9hedS9AmXf90uEqr8EaYiUxKwfPlDxiaW2BQD4JWP3VzXiFyUE/MQwdiKGhSTbt0w4dBXBi60l0cuO12rCMnEjVyLGR20Oys9lrcHy/EMvkU6JGj8rt9BZU0b99O7ORTCX75OXX535Fw/WwCzU349+ykuqSAmm1FRETE0uXS8yAzXWgGAmg5+BrPduzXH1FiOBwgSO8IcyCAY8F8ivftpcetdxKwSSOeIGUNRVTaCxRAkIVcCd2FQcjfQN33S4kyuDGnZdKyfj1RMRGYpJFOwEDl5o2kXnYFwcxsfEs+Y/+OnXTM6UJtYQmROgOR7drRbNRTvn8P3a64DHt+Pt46O4njR+D/bh0GqVsry4Jebfq6UUMhNUVjkfxOWl+dQ7C0khadkah+eVhPPRWMWm+SNoucon0VPlDpZ2ptUOu8+gQBgquW0rB3K3ECZDbuUMLU5nfmE3n62QSjbOjSsyFZyzk4LAcNDSC8y4g+ErX81wYIeoPYqYVg13QI1FXR9Pz9RM2+E+oaoK4Rli0iKMmFg0ags0VCWke8zzyE3mZVTF6Lo5GA2UxU//4Uvf0v0i+YgT6nG7r6A1BnVwcncTq4v1uNcW8JhuGDoF17jVHrmQuxSbg+/IDSbZvpcuoU7B9/TMQpEylblk/706co0C4itYKXX6RDz2wMQ0ay87KLiLZBoHNnUsadjqFDZ82dULifA688TdKUUyjZuI3wmCii22dQt2MHyWefTcAarvJVVKfKkOtO3XRfkF0VW9XcyGmfF8pYCD1pR1GWHskuaHNH4sCVcccQRL97KyVPvUD7p+fgCQvHJNk0IYBwfIfsY18fjtzfj4NB+P8uQGhVMaqJySmYxJ9csJ8f5zzNwFtvwpAgvcTNSkwi/o3qhkIqKksQgGDUhalsbRWmhAd/UTG7briFnvffQ+CH5XiCeqyXXXfQcxsoLWHXEw/T88rLlFvG89U31G7YRly3XHRbd6LP60jV+4tpLwrqqX8DWyTBxmZ0zhZa//ECYXfei2/LVg4s+oK0a2aCu4WCl18j88YbIToGf1U5+y6dTsYZp2G78Ho889/Dt2sbYdddAwELQWmwIh3bpENjiOaito5NT8whpXNHUqZNhogYAkFjKP/grw0Q0hI7qYeq5LU5RPoDxM68BL9ZgI1VlRO8fgf5m1fQp89gjAIQpOAnTibxqNdXsPWqmfR5/GWCJVWUff0F6TdeA+HSJVQWfvErO1THOv+WnTR98iXh7RIxn3oiB+54EFtEFLbBAyn9fgPxw0cQOWoshR98RNSeLQS3byb+2lm0FFfhaWlGZ9Nja7JTvXoDCf0HwPghRAwcQN3n31O0bxd9Z92Kbsli9s99Evr3VlkWAZONxFPGEpmaTvV7n1JVtJ/2g3qRMHIcJHZAjFgH45QOr2X/wnrwXwUIKlFUGASfauvb0NhA++Qk/Lv3Ufr6m3S69BLo3DnkBIAqewkVDRpAEG9TWykxWFWJztuAY/MaTG4jvvx1hEWFo1cZ+nqq1q0j5Yqr8ZrDqP/4A+ImjMC9Zjv11ZWknzqRYMBLS3Mze/Pz6Xv55djz16GvqCeyb0+2Pf483QVERlnROT1sWfIV3a+7BmOHzsqPr1wqK5dS9fiTeG1hpN9xG/TuD6pVuIzeYRa3Jid16zYRN7i/0iepRFWxW0qZ9NulNHz3LdFDh9BQVoTV56Zx8RJMYybQHGkibvgEIrPzlPtL6WJCSO+vDhCkF4OUGIb1GofBIJolrYeAQT5zWSktj92K+dTp2Ourqa+3k7B+jepj4xswCFtuDnE9T6DpoXuxRtswWI3Yq+sgNlpZw/d+toTksROwdMxGHynx+g7F2VoNenzf5RNmtuEd3IOArGFGM+EdM2hd9yNNRVWknT9TMbT7//lPsm65m9YduylY+A7Zk6diOWEkNW/OISGzPbqug9j75AOqJ5B5wFCIS6JgzjN0OulkdN4ApfffTWxeLnURNiISE4nK6Ejl7p1knDMdv1lEmQZ1yFDCdHS4yytpKeKGXiMAACAASURBVKmkORncRiNdQgBBI5iOziQcDhBEZacxeyZlwVSpAQU7KHriCTo9OQe/NVwl+WqjfCR7/1u2/WN/7f/PIBzJ6oWyyFtaWnG0ioshVdV8vEsWU7wpn87XzUJnlWhio1Yv+glAMOtsSjQp3R71kmm4p5BtM64gfegAosLEdmXCOvMSlfkgl2fzZko/XEBybjfKSouJSkoitVs3dInJtHyyiLBrziW4q4jyRZ/TatST/rdphA0YBvU11D/2IHF3P6qmU93iz4k9IQ+9z8X+V98g85Zb0ZltVL38Mp7CjRgjIwnr0YuIXQUqtMR2641Kf6BS20RfFyW5CbLYieLHi7/8ADvfeJOEdpEkn30+QWuMsp0eXkT6KzII6Ymd0LscrH/2QXpPnIi+5yD00hzIYFFx0tIJUxiEvn1PwKSL0xTPAhCEHG0oZ+flM+j+4LMEy6sp+X45HW6cRcAapxC7315N878WEDVpGHo5YW4rpOXTRehiLbg3byM8OpbabftIvfJydBPGKadBoKQKvbuZiqcfJ/WJR3DtL8Wx6PP/0955gNlVlev/t0+b3nvLTMqk99AhCb03Ubo0RRQV9AqKV7qoV0S8gu3auIoFUUCagBAIkJCElkJ6n0mm93b6OXv//99ae8+cSSbJhExC9HKeZ57AzD67rbW+9X7tfSm45grFM9Hx20fIvfwCGCctblE67vkOlOaT++W74eV/0PTsXym+9vOS2CMmsayJY3Hl5CL9eIGly6h782Xi7hjV192AWV6NRzGwDfZC92YMDj5AsDDNGIFwkI6eDqoKCmn442P0Nbcx8WtfJ6Y4+YXT3aK5q45GO8XgsXSKQf1090BDHTuefIyiI2bT8/oisiaNwZefhxmKUPvSK4y+9jq6mppJ7+wmWl5Ix3Ovkzp+NEGfQcm5p2H4Q2z+3R+o/o8v0PnmInqffIXsGRNpePENJt72FczsFKxgiOV/+gszbv8mvoJSzM3b6H1nJcEdW8g/ajqRUIjad1eSXTaKguNPwDNtGiiJeZ3ojL/7AWv+9Ddm/tfdWMk+XZQci9H58ut0vPwiphmi7KQTSBVW2FiYyCN/xHfppVBeBMmZkFWA5Un+14kgGIYqUlQ1CDNOw2sDBJlTkdo6dvzyEZKb1pF+zFxyjp0NGTnw1NOQnAannQo+UcIN0Pbss+TPnIK7s5tgfT2p809QwGvtT3/FpCul/XM8VFbquWCGobuL0OPPkFxaDOedoPuUcdO3fj01f3uCyZdciWvSDKyabWx55NeMueUuXOlphN56mU0rVjP96uvo+vOjhDdvpPCc89j+xgIqz78Az7hJWF1+Vn77W8y85w5igSDbH/kd4+bPpX35KqUmmV5cgr9mB2lnnUkoNY20MeMgM1MSyipy0PXYY/T5knEdN5buSIyJVXP6l99wAYJ6TGkCVmkGC9f2jez80QOM+uHDWElpuE2d2naYU4a/2X+YIz8GCLsBBNn4/H6/ElYqkJy2ZdL5yC+I/n9Bl6IbvqTZwSSQZgj7lqQYalSRohNBsPm+VAQhuHI9NQ//iilfvEZtsJt++Ts621oIuIXhyyDL8DLmonPImnuSIvoQlrfF330A184GCitHM+6ub6gOBJobsVZ/gFFWCZOmQkszDT9+kJJv3omRlQFNO1n3059jrF+Pu6yE8d+9n8iGLdT94ueMvuPrGMkpNP3xV3S//R7+UJj27DQsQTGGm6Kqicy47ZsgZCNKjtRuWd1Zz8YH7qXoExeTc+I5dg3C4R1BKCusxOvvZfH37+aYG76Au3K86gCQkLU4NeKRvbvidWbPGQAIQknhlZFsrqXu5i+QP+dorKQUOtpbKP/qzZCarXeq5hZa7/ouuZ++kNXvvkVk+04q8gooOfkkOl9+mexLziW47AM2vbea0pNOJXfefDyjR0NPL7W33kr5g99VGgG13/sBpRech69yIpsf/jHjvnCZ6pwILXyRuoe+R0ZRETmXfAlvcw0d6z8g71sPaCZNR4HMl2oDTAvam2l++i/U19Yy/TM34amq0umroSp+h7APhwwgRAJ09bZT7vay9UcPU/GJT5B61HGiAq+luS1o7q7vr0FQAEG5UibdS99l/aN/Ibswkwlf/izNz/+TgjPn0rt5M/VvvYe/s4sjP3ctG6XwLOZj45r1TBKK6+pK2l54kVjYT/e6DUQDQab+1x3UvfACGa1+Mo8/ghV3f5/qyVPp8QmxXpxt27dy3J23Ubd8Je3/fIsZxxyH95PnYRVkYUgaoq6evmefZcv76yj6zHUUz5vfn9bpeGmBWrdZ11+txkDVQwnfQW2jZkfN8LJ1wcs0v/4mnlgInxTyZaYR8nhInzSZIz59Na5cKWC2k0T2fD0sUwxKe2AAIEgEQQMETRttdAmoEyKrNLrWLGfJ089ghOPkd/lJcnkJpCZjpiaTPa6K7IoKCmbMoPkPfyNekEPlVZeAO51X7vsh8264iqRKod0W1k2T3jUrWff7P5Ha1cfUay/HdfwcO10r4dy4ltn1JWuFxNoa1v7+fxl7400YBcUkS81cLILV20Xtn58iPzOT9AtOZsef/sL25Us1G6nbS9mkaYy5/jpNbNbRxpann8F6b40aMynOl+6E3tRM/Dk5zP7kRfimTCQqvB3BMJ0P3E/mFZdTkxwgGIoyZfQRNsoVoDx0QmBQisHmeRaAELdcCE+Ta9M6Gh56kNIfPoSZnKEAgnZOdS3Cwf18DBD2CBD8/l6KiopxxSxaH3mYcMyk/Eu3SMxU2y4JnxoGjQkAwWek2bl8oWSVCSkED3FI1q13BMNYAWlv0zjRCEegMLu/4EkKAqM7WzAiJp6CXAzx7OWjnHd7golrEooQ37oDY0KF6ut1SUVvQ5MSBXEX5WNklyhSEqu3A1PlNk088aCq1reiYpAdIiYNElwCMnQczGZ50e5bz4KXaHrzDaq/8B8YpaKaN8DodThGEMoKK/D0drHgnts55a5v48oXdjaRctUVb9FYjPdWLGT2nKPxoiMIMS8qL25u38qamz9P9Rlnk3TkHFb8z0/Iyson4vESM9z4+sLk5xWQe+LRhFK8JFeOIrhqJf7aenauWMPEb9xI2rhqzI0N9Dz/Ou7KMjIuOhd6Imy6/XbG/uA+3BlJ0NaMf/HrULOT2vWbmXzf3VjBKPXfu4/cs88kpWo0tX96EvfG9/D3tOI76iR6xNOOQzQnl1lXX4u3pGKAnS0UovUvf6R59ftM+dyXVc52UCXCXooSDipAUDxfMtfiBKK9BDqb6F74Fmn1bVR84QbiqdK2paWW+wGC3cUgNLU61B5TnpmiUpZ57/Ni9QQxMpKwhB0vEMFI8eDKSFNslbIJCcg2MoThLgaivSDtwp2dSiZa0mmWaNjbJGDxpjbcRQWaWlvka7u7cWemK80GoVU2UlMw3RJf0m3VhhXDHQ9h+aMYqekq7SMRQ8m5my3NKtIUKixWrclqhcfj+NxuQlYMn4AGuZ9oDEMKzdSGIa1tcRW9M5KkwFmL1Dmo47BNMdgt504EQeSonQhCyIzpwJxl4TO8EBGbY+vDqB5FCysaBI8k/qMYQo0u5+vowSV1JekCNFwEGxtJLshRip79PAOhXmINrUrS3cjPIZaagidBpVHem7xaRYsfDRLvaMZVXEzM5cVruYlbBu64cCfrd64IdWIxrKBfzQtZN1KcikdcBohapgIWynFy6WeQCKvNbKQnrlCny2gLQ+POOnW9de0b1WGTK2b2dzDsqZPB+b2aDUqXQy6jJbZTRFXzz38gq6Od7C99lZg3CSOuWyNNdWwid//BgAofA4RhAoSfEDFNyr54i97w5aOKFAcAwqzJR+JDwva6xUmLO9n7rt0pL+vDLYpdkkezLaMyaHp3tlkfJGCmOSaEN1zsR9yrSGaVWRMjpJSDoqZm4PMIEbStYGm3gw6koGUKSSxDvmvXRjitHg4YUBNSVlXiZLPju4E+6n/7U1q6I8z6xu1Yiu7Wfvw9djN8dEWK5UWVuPs6ee2eOzjp7m/jyilWRU1Og7lEgd5fsZBZs4/uTzFEPNpOuEWKe/07pEw5QoGueH29qnaP+7sVg6c3JYOU6nEY6ZqyVQx8+O1VBJta8FQUkzapGis9DZcYflFwkxGTquowNL/8IgVnnYGRlIQRC9Dz+ivQ2Y63rIKUY+Zj9fYQfn8ZycccpzkO2juJtdYRadyOkZpBzLRUvYSroFABCKlF0VuWZhZ193TR8dffE9xcR/m37gIBfIkOyx5AwsEFCC4VzBAu+mCkG7NxGw2P/p2iI48i/9QziLtFL0SMr0TkLB1BsAGC1CBI37mmNhbDrFaEAuWKol2eZ9feaZstWTp6pUhYs2DpTG1ErUmDJFxqPcgphFjN/rU6Jmpz7etTyx8VU4sS+VFpBEmFKIpXzenvCJqp9jS171lYSl9FTiAzyqMwgAR/nNcvs0LOKlugGjd73ev1uvsg/asBBHFEJKqqnkcI8GxdEiWGLGtGPaIOjwvjoFZQ0MdHVeeXJsqz2W3U773OHiUbtLxfpVWhKkRUKF7xoam5Yisvir1U4xRVheKEe7E8aRiGtKDb5G/igSeMS+ImIGMk9yHnjAhpkf1Hx1cfSOHp+SVPomsHxAbrWq21O1eqNTutYkY/Tf0eWx1tx88BCM7zuV1xPD1dLL7rTmZcfhkZR89XgEVPa6d/b+ioxMhBhf0ECHJzDg+CfuDEE4zcbX1UZxpMtZwYQfgJEcuk7MZEgGAoJsjmzlp2Nmxn1uSjNEAQXKdUHyWCIOFtmxdePJT6etzJqTof53aptjjFD+7WwiDKEEnkQdBvXQNG+SgtINTf0CZHyAoIEdq4EXdZGV6R8xXJ2vpGMitHK0Q7ADW0oYsbcVydvUR6AySpCm3HeIoRl03fBh39RsrWI4hHaH71WWpff5ej7r4XS+7dqZYfFkAopjC/Qtc6KIM8chNaUXGrRW4SCvtpa2uloqQKV28nC++5gxPvvBdX7mCAIOI8AhDmCECQCAIuwkJMIh6PDECsV/VKK0MiFlxpycgmZVOd7mLDHa9DbUS20qVW6pX3KcbMA24PhPo045qcR2gZ4+LZ2uIPqrbDvp5XzJNsH3bTlBJ5EYU5m79fOOllw1I8JPbqkykk9qmjjfrbbqPs+/dDfr4epgRvdKg1dbABgtymIkqKdRPbuprm3/6V6q98FXfpaOUhiYCR9FbvChBUm6PzFqwI8aYW4q1t+CaN0zz9wagqIBQRNEOQRGqG4vnQdYMC0PxEtmzDW1EM6ZI6kxSTQ1xkIwM5OBwiuHojKWNHE8/LVF6vak8UkS8hs4oIx4UiwseKxYkFwkTDYTwZafhGjSLa3K7+WzQClACXadK6cgWZVaNIEhVP5ekNFB5KBFymVZKDxRPJSocYq381gKBTlHqdGzK/ZV56TBXt6dq4hZzpU9X4iNsiUTmv0IZL8a8AJ6EY9wfo2bKFrIkTsHy6H8IlOUCxo0qjQTb8MFYoRFzGJAohEWzKyyY5L59gXTPJxaWQ6iPmjuIJ++lc/T7pVZPx5VQotKaWtfbh+pFbolUSAOfsanKMQzjvAITdOX3kGwI7dS2EfHnjzlUKIExSWgw6+rWnGgQlWWB/lO0XYTg1Z6KE3l3K5sf/xqRbb8VTNpqYFdc21ElDDfICDsauuWeAIPchqrFGV1/EklyaqG/JQkmRUJ2sfBUadERODsbNHfpzJjIp6hRDiZ1iGAAIloQIbSppaYtq66tj247NzJpkRxBk6klb3I6ddC5ZSoqE/QUdx0xCK5aTmpdBvKpYs3lJO1dBBaknnag3Eo+wc5mKj6DtRz8n75rLMMZVKwOnIK+QJolR6aij8f67KPr8LbiKK6C1lRX3/ZCZN38RY7SkFETkJ12lO0JLlqie2tjSlYT9QVLmH6/Y+2RTSyoowDN2itpwJBQ8OG0gwhcRml/7J1tfW8pxd9+NlSR4Wlu1wzHF0A8Q7r2TE++4ZwAgqF3bIByL8e7K1zhqloC5PKWJIUptXqWjIPM7YDNIuqE3qNNJ2cIQZ5sFW4Wxf0ErYGVidPsVPasSHlO5J1NvVHb40/J3Y/jSiVoxvCJWFAyquhCh6o4pf0faFEWfwI9LQGbcIh7w45Z2K3utaVET2wuz60W116ENntXTyc5v3Myo+36AWVCiMc1HCBAcwVqxYdFYD8G1S+n601NU3vdDrNR0YnGnEls3bTkRhCOEB8HUXrve7IP4n3gK8+13cB05jeRJ41n9wkL63ltH0uhRpPW0MPnT1xCdMpuYpBLiAdyhLlx/fxnjpKOJlVdiRl0YHg9JFcUKbIi2g2WFsXp66Xn2n+ROmYQ5c7J+10keXNUVrPn5H/H5u0m3TAI1O8kaX01vegpmWgo5Y8dQfsbp1D7+AsGWdiZcfyWG9MpFYqx54EEqzzyZjFmzlRaE6UnBqakQgCDDKNGL/o8DOu3fJXLDHc4AYcgaBLUfaIGq4I4GRfjmckVw1+9g+zPPMu6KS4gLIZEoN7pS8VRPILx5DeG6OuUoeRraaXv5NfLnHY1VmEXMlUJy4SiCSRbb/vwUGSJk19lJqKMTa1QZpGXiSkuhcPYk0mZNYesjT5NWPobyT56DIWnc3lZafvEwBZdch1FaBUleLInq2Xuswi+7bDO7Bu13VVzdFSAMCH0NyAJsq11FPG4xtkoDBL1XDnaOdCTCAav2TUg0WVK+Mk96uln63bs4cv5x+M66EMtI0qCoP/I7cs7WnnfaoQCCxHr08wwNEFSF7v8BgBDooUjEf2LQ+sgeAILbRYe/ni01G5k1yYkg6PC8FfIT27oJo26bMvhGJIa1+DVclWVYo0VYRELQqTBxOu6Vy1n51GNEzDhJIvBixjBaWnHnZ9OXnoU3ZuI13Ey98Ra8x80lsmgBHX/8FT1ppbTKcUYMo6GVtNRMQmmp9CT7mPrZqyicMpHG6z5P0YlHKIU8l9tLzCvpjTiB2lrM/EIKb/6WvfEPbHs6ZCZ50ghNry5g86tvMffeO7F84t3qJfUvARDyROAmateZa4Dw3qpXOXqmgDlR5/MSdcXxhvqw6ndiGCHtVQSixN5dg6cvBOdIIZoqONGeqrAcqrSjHWXpCrDjv39HyYVn4J02ye4GsZXsJD8Zi7H2B3dSOv8UcqSVqq2bNT/6H6Z+7hqozLc5xz3Ekj14/M0Q98DmJnoXvEzGuSdDkUSbpAcWKJKaE2HwG9j8leKdBMW726m57UuM/vYPiReWa0rajxAgyCtSpXriSEZ7aF3yAvHXFlF65wOYwqYXF29IZtJeAIIIsW1cR/dTj5E1oZK2F18j75s3Y7YH6H7jHfJuuJbmX/6GounHUuePsG3JQlLNIOki3PTWStImjSMydiydrhRiuTkc/dmr6fnnKxjb60iuLsP/zhIyzjgNQ+pMVn2Au6IcRpXinjqByN9fx2rZQVJnDw2rVpJ//DH0+bzCFEdqVRXJZ52O1RujefEy8nJzWLNsCSk7dxJ55x0yJ46hPa+AtDlHM/6iizCSMrUEtD1ldHJoFxdWY9gB2nixEIcrD4JdpChESYO6GGyAYHb3seyXv8NsayIr1kN57Qb8WzeRetwc6lPT6LbcZEyaxtSrrmTHT39LvstFirAgBvwYYytVu3Zw8SK80m0083ji6T7an/sHGV3NpDa20NlQT+oRMwjGDbw+L0nV4/Cedp5KJzYseovCnEw2Pv93MoMBgsveJD7jBLrSMsk54XgmnHNh/xrafbP/sE5p4nhabFcAAcYMAyAMULpr+ngldCiRwq2bWP7rnzPzlv/AKCwmHtPr/tB+hgIIolep7yQmzvJuEYSPAUJ/BEHSBO3+BrbUbBgEEFRO0ohh1m9n9e3/yZRjjlMqdn1vLSSjopzImBnE/X10+COU3/QVrOeeoaN1G7ljx2Ksr8GaMVnlr/veXEjamecJFzANL/2DwuPPwDfnGFZ8/YtUnX2W4hZne61SH9NjJlEIL0jYc0q12iHqLrqCvDOOJp6dhScsGuwqBk5883ZFMpJxy91YvuQEk6UFuBRAsAQgvMrmBQIQ7viXBQia8NwgFIvx/m4AIUa8s5XupW9g7ViPKxwizZuCsXw9nnCM2OxqtYnFjFRC5ZUUVBfT/d5yjJj8DpLjFv6F7xIfVUTK2DGYXo9Sykw7ahru2TOw6lpp/MaNZMw7mUA4mXikj8iKNeSUlxEozifsTqV87om4xlTSfMdtpOVl4ukNE+nuwpOXTp8bOgMB0osrqbjpGzpkrlwS5x+JfojkeZsGCPf9kJhoHnzEAEEnTmxHIthD3dO/I62rjdzP347pSyIuxWF7AAgSVpZOIVHXjC1cyM5Hf0VelgtXRxhz5nRiwThp4yaws3YLREzGXv0ZjIoSiPZBbT3xvzyFlexWqo/MPxHmHAEpaaLvTOcfHlf6B55ki4ZFb1J1/ukqmtGycg2Zk8cTnzCWvMkzYPV2DH8HIdE8mTAG18RxmHGtDkNaOmb1GLqFNXPusRiV5UTaOvH09tL061+TN+9Y3FOnQmYO7vx8DJ+W9R747BKwTohp9+vK/EsCBImKWsSEKl4eRCJp69YT/+sfcU8oprthB1kXXA7V03QnjivIjgceIsttkdLeR2dnFxmzJ6sCw5rnXiT/tLPwHjWPjMxMYps24IkGCL66gJRxVRgVZZgSgZVXmZWOVVZJ58rl5J16NuTkYkqBYkcb4T89ivfCy4kXlUFOJl5h3NwnG+z+bsMHChDs79t1GhKRXPfLn2Clepnyha9ier1a0fGQfz4GCINe+aAUwzAiCLsCBC9pyoCYQnvsNjHrt7H+pq8w+cR5KlfatWwR2UUlmGOnE+3tozUapfy2b0HrDmLhXlz+EI3PvIgnv4Dc6bNpeOpvVN75X5BiEK/bgTs9m9iKd1h++01M+fEvSM7KomvRMqxoSNOwKiVJj+rTzz/zTIxAD3WXXUv5ZedAaupAiNo0iW7cSiApmayv3aUiCANT3AEI4vqFaXrtFTYteIt592ogcbinGNxSg3DvncyXFIMdQdgbQIhIBEHC8T3NdP/3D0nP9GEkeTBXrsMjfvicqViSHuqLknLDjUTXvcXOlxYyqmoa8c4OvNWjlaqjuWE70UljMJOT6Fn0Pikzq8m65Dyaf/MXUgPtZJx0GtbmOixXREmHq4iE4SHmS8F9xByM3EJ6rr2M1HlHEcvKUsWOkiJSIpwNTUTbekj/3oOQkT2oAFGRs0phl4ogfJnR9z1ArKD8IwcIqlZP1eKA1dvJ2p99n1FTq8k8/zpFArMngKCJkjyK2Eq6BqwdW+l45BdkEMadmoMrYmKIxO7osTS+8iQlN9wI4yZCdwvhjRtpXfoORn0rWXOPJi23kOb3V5JcXEHm7Fm4xpXQ/cTzeKNRkisLaXroF5Recr4CzLVLl1J56aegejS9DZ2Ya7eStGQxsUAv6dOnEBWRKVeSqhdqT0nCM3USKe1BmpubqDhhLmYkhjscpv5/fkn+8UfgmzUL05uKu6oSfKJTILllp1723xQgOCWHsShIinX523R/8AG+Hj8FF59NqLGBpvVbKZp5DFnTZ0BJHrU//TElkyvxhqD7n6+TNfdYldqseeopqu65C6NwFN1rN0BrM2mvLyQY7CFt2iRMX7KqYzClRqi8nJQJE2h/7x1ieWUUH3EMVlcrhjCQPv4Y7ouuxCyQbgYLX0UVVnKSsncffQRBfDiReNeJDVnHouroef99Vj/9BBM/8xncY7VktE5V2GGmQwYUPgYIIwYQZk46Co+RrgsEJQUdjxBfv4LYE0/gKS7AsCKEVrxPSnYusbGTcAXDKprsu+EGSPHiX7GK5tcXUTxlIqmFhUTDcRqefJbKe+8HqRmQ6dHRyfbv34PxwVJK7/o25GbTt+x9DFmQYozl2l43nopK0o4/Eauvm62XXMyYk+dhCs+BUt2WIrk4wdp6zIJCcr525xAAwc6NSYph4YtsWrCEeffeawMEvawOxxRDeUkVnt5O3rjnTubeOUyA4LZU16nR20bDV2+l9NipkJ5E7N338cZixI8/BjMYoX35BxR/70HM3kbCbX34XBls/PNjFEyuJu/Y2XT9/H/JFSXAvHys1Vukdh6SLJbd8CUmf/lz+KbNoObJv+EKRQi73HgtF14TQrmZTLzmajyuFDquv4zck+YpNjkVxFE81y6snQ3EWprx3nc/ZEh7ZqI3oSv0re4ODRC+/QNihYkAQdMID/XRoPBgaTEYuFXNhqFopd/89jeYcfFFZM89SwHovUcQpL5dF1eYdVvZ+YuHyA8GSEoSxr0MAi4fvY2t7FyzmHHnnIdn1pG019fh3baT0tNPxCgtJvDqElIvugB6w/Q+/yqt3R1U3nAJPf94FW96KmmjS2n99f9SOHMqVqSXls5Oii69EiaMA38Q690P6PzvB8morsTILyRu+PAYHvwdXaSdOh+3aKZEo0Rr6unb1kLrpi1k1tQQW70K93Ez6MvKJZyey6RLL8Gdna/BuzjNehXaw2GPy79LBMF+qlhjE+t/+1vK0lzkzj2CmD9OS20NpeddiLV1Ey0vv4hRWEn+py5nx68fpuyIiXhdSfgXLCZNZJujIVq2bqDg9m9g5JeDP0zs1YW0PPwgJUdOJ55fCKZHdXH5/d1knnUe7qOOh2A7Vl0zbWs30rd2Ne5tNUTb6vDNOl5xF0Rz85h80cW48nLUEtq1/uDD77sfLoKgJJxVXW1Ubf0eKciM9FD/4wdJHV1J7sWXY3kzlJ7JSBZ4D/85PwYIIwwQhBdfAz1vbxdsW6eRrNQbBPswX30NV1U11tRpGMEosYWv4rn+M7YH1Ed8xQoalrxK2fVXEdqwlboXlzH+W98E6R6QMHkghLluHWse+x3Vn76M5LEVKoSt3X+pdLfA48bIyMConKJUB1d88hzGHTFLtShKT3bMiBMQhrcdOymunkTObXdg+7sBRQAAIABJREFUJqfrtkxHbNvpUJEUw2v/YPOrS5l7z7dtgKA3p8MRIJSVVKr3/uY9d3LCnfdg5BUrMaW9RRDCIvUse2x7M9YLz2EUZSqeCkuKOwVMHTdX1ZBY3V0YF10DviTMxgbaFy6kYHw14aYWvFWFdP7qx+Td/SPIK9YTIBan9ZHf0PX7P1B8+1fImHcqbFsPoZhuk3T2Cen7Hj8R+uI0X/0pujNyaLD8pEo9ilRxe714mtspHDOKvAd/pqmfZadJ/Ehuu0sAwk1U3fcD4oWlKryvK6SdYsndzcLBBQjCUa/rcYyuVl6795vMvvTT5JwwD1MKnGL7qEGQ7wqPws6tNP70YfJENMzjwiP0x4WlWEfOoe43P6XiP++AUZWqsJdN29mwfSPFFeUEl66h4JPn4Zk0ld4XFpAhHQ2zJ9D0q0fx+v10rN9I59Yt5I+rIBrtI9DWTe5xp1N569fxL36DjiefpqxuLbHcLHrSc4gZXnyGh7amFko+cS4ZF55DvK2Tdx97nKOv+aziz2/8wX9TeOQc3CdM1ms2M1+n/CwpjHNp5T/lBNqdMY4P+28AEESsqR+2SgFqTS1m/Q56a7fgTU1m/arVzLnlNjUn/S+/RNrx8yA/j9q7vqlA9urnFpDldZGana3E8To7mim+8EJyP3U5Pc+/SvM//kHajpVkjK8ilCX8NBJlitHcWEvl9TeSctJZWG+/Qc2GjYz+9DWwfQtND/0PeVdegFcEz0TcTIqsPSINpYms1Coakcj9/gMEubR0uwnDq1dq1CRuFgVz5WJW/uVRZv3n7Rgl5aoDTBcnSsfP8Lf2kTnyY4AwogDBawg/ty3zunkdXS89T17Yj+WOQMRP4N3lZOWPwqyqxApbdCx9k7QzzqE7K58da9eTZcRJDXdLITWBzdsIh6K4p06jz51E3JNM2fx5lJx4HMtuv43JV12hCpo2/elJfL5kZXwEjyZZMbLKKij93E0YjfUEXn0DV6YbtxDTvPM2njkziBYVE+9qJ6mtE68IA2UWKvpopxdbq9NJpWqE1lf/zrbFKzjmW/cc5jwILZQUVpIU6GbJffdw3DduJ15YoqS39wYQRBTFHY8Re385gWVv4vLEMSIhWPU+PkzC04/GiMaIbVxOlkRzivKUeFL3U38n8ME6Sm74Ki6fG////py0b3wdsnJVkZEZ6KP5xZeILl9J2twTyJw8k85nH8flF055l2JEE8wXzc0m//LLMbxZ9N1wPemnnopVmq2jQpLDdUG0roHolu2k3vsdTe/bzzSY0KrV3cm2r9/EmO/cT0wowgXw9QOExH66gSl/KACCmlPdbbx2z23MvvgqcuaeoCtc9gAQJMWgiJJsw23VbKbt978nxeXFl+rDaGqmLSWd7kAP7YtfovTk0/FNnUl+Vg7e2iY21tdSefp8vMWFagMP1tSRGo6zec0Kpv7HjbQ9+hRZ55+KKyOTyIO/Ivlo0UCI4F+/gaTLr8UzYQb+t5bg8UXxPfMHjBJpm9MFrXLjPZs24z3hGFLOuYDgm6/TJBvS9Z8n8so/8S9fQc5/fI3A8nfwL32Tgi9+DbIkGiRETEKL57z7fz+AoImSbG6JeIyVP/4ZFfn5ZDTW4738HDo3biazvILGd98mLxQnGAqTe/n5tHzn2xTc+k2sPhedj/2C3DnTMbsDdK1cSc5Xb8FdOpbgG0tJnlBM0zdvpmTmLMgtRTMUxGha/TaZF1xB6vzT6X3wAeJTJpJ92ukEn3pStXYnXX42zX9/me76RsbfdiumV8jsZG0kgIMDBgkfDiAIWBQOG0k/GRJ2rq9l289/Tt4JR5B1zlnE3SlK60Eykk43xMhs/MM9y8cAYS8AoZuiwtK9dDFIG5ZhFyluZOakI0kypBfbpjQKh+h7+x0CG9eR5I6SZIbwL1lGRsEoIpWjMcImkY0rybn3blVsE+vtxh3uw+3vJrb4TWIL3sQ3bgyuE44nNmYsVloW7rxCXNk5LLnlJqZdcxXR7l6C76yi9JPnYyZrYhpr1Tr63lxK1q23UP+jn1F05tm0PfEoxV++mcDb72OGTdIvvpjgWy/SvX417oJCCi77DPHkDLuX1yGKEQqACJ3P/oXWhjYm3vAlLMVqpj97jyCEWL3+PfLzSigsEB4E3R88kmGy3XkQWigtqMAX6mP5A99n5pXXEp80BbcQ3vQXKUZ5f9VCu4tBeBC8IgiI2dxM1wv/xNfTpFpCXbEoxtqVJFtSpHg87nCU0KvPErnoCjxVlfR0NuMJ9eHb2UJWzhjC9VuIb96G+6zT6RWudK+XlDGl5EyZyMbf/oHcidPIO2I23S/8TTHDxd0eotJWGgNPWia555wGfVHaf/AjktMzCRZmYW6vx5OSRrg4G6uvl9xYjJQbvgx5hYr7PbGNUWnOd7ax7ZtfYex3f0i8SNj8xAjqvvQBUp/BhiERIJhGHxWlMzEsEUqyuReGa0eGPE5HEByAsPDe/2TWRVeQM3/ukAChxSZKmm2LNWkqHAgvWUTfujWkFZXgDvqhuRnvOedh+ntY8fD3mSM1POm5tCx4lbzKKmqWLiWrIJfM42ZhdPWy8+8vMOaKK+jubiczOZ3O518m55IziUgUZ9Fq2l9cQEYyJB87DWveXDw5Fbiklz7aSfC/7iE5M494SqaS75V6ivaaWtJOO4WUk86g66Hvk3riqXjTCqj/wXcpmjmOnokTMNpbCD/7AsmfvI6ciy9SUSdh8bO7o+0iYHm6f78Ug8Kk3X0s/t79HPvpiwg99zLeY6crumpXcyc1K1cz7rxzaV2zmsxMF5GFb5D1uS8SbfMTePFv9G5YpVgNC085lficU0ipmoKR5cPqa2fT569l/NQZkGVTUlsRGjYsJ/uiq0g++lg23vNdJl7/OUId7Wz/8c+oPPFkYkVpxHfuoGPhWxR941YyjhO1UDvXY3eVHDA+GDT/h9vFoBgPFOeB2CdR/m3862OqzbpCOpzyJBqtCfAUP9KhDx/swnPkqDnus4shaYAh8N+ZByHQRaHkcuMWrb/9CVHTpPSLt6B5EPSgitfe6W9kS+0mBRCSXSmKmMg0fKqNy93RhtnUiKerDXo6aXnlVfLnHIExc5rQuxHatpmUc8/FiltEG5qJbN9OYNlb+HvbKTvhSGjsoHnVBrImTMV7xBySpk3ClZLEW7fewvQrrsTT2k3386+Qc+bJxJNF4MbC2lYDNbUkXXQ+zU89T+mNX6Txe9+m+NrPQkE+NNQTDYYIvv4imVdeStviVRRe9WmszCxFTKI/4uPFcHX1suOhH5B57PFkn3IGlhJGcQDC0F6p+rYV5IO171BYUK4BgnhQQ/QCH8j+MxRAKC6oIDkcZN3DP2bs3Hl4TjwJlymATRMPheMRlq96iyNmHkGSIZ6dV8mquqNRzJWriW5fp2oHRDGN997DFY8RP3quSgtEX36OlDu/SdTjUvlmVzyC0dtFYX0rvc//heRRk3HPP5NAViaxpCSSqkpJnTyB9T/5HwrHTyKtqpLtD99P5VmnE8lIVcbBu7OThiXLGfP9b9H2j5dJzc/Ht20b3rNPpGfR25jhKNlXX0Ro/RbiK9cRTisl86JzVReAbOP9bYyKhGs7O//rXqru+yFmXoEdybLbLfdQjjUAENYjAGFU6QwVKlesnnvgjh/umGnCFzvF0NPKou/ezYyzLiTrlJMUOVJMIgiq9U+PTVtPvdI1mTHueEWFrGaMGad70SJSU3y4SwqVKFnmmDEkn3Iy8c4+3n3kZxzz5a9CUhpWZyNGVhrRjVtoX7iU7khQBZLzJ44l57TTVKFgfOM6AsvXEgn0UVdfz5hx1WTMmoYV66Nt3Ro6tjWRmV9Jyac/pQjOun/zc0V/HBZaZYHPpklnfSNF8+eRefRcGv/4S4ovvAQjGKdr4SJSMtMIpsRJK8gj2tRJY2sfYy/+hCJSUtwk/U7rEDUIzsqzGf7k6Gg8zHNv/5X5s049dHLPEnMzI+zYuZmx5eNU0bMCMoPC25q1UKiWV6xbxLEzTsbtljlt7ymSYmhrwchJpn3xMno3bqc3GiQdD8XHnEDKUbOVndz8wt/IEyKlbQ1EAmGyq8tJnjBZkVI1L3uTWIefnGlHknbSiUpdseb+O8nLySeaWaiu5bUitNStI/+CT5MyajSNL75CuUR2WhrpfO9dUnKLSEr3kpxkEGvvZEt3kMmfvFQXnMq6d2zZcCf1MI6TomFpc5SOlzFVwqRor7J+YkGJGWjPXOypNHNE13zAxl/+kuQJYxl36RWQIxEr3UqtdBekXlwRLg3MoGHcyggcMlQEQfMgyEe6VQa1OcpSThFpYMmJ9PNNHfLEyAg8+NCn0ARIBn2BXnoCHeQXVZJsGnQ88jMiXR2U/sd/ErW8QqKqCFliHjetfS1s3b6JWVOPJdmTrpgOLUurPXqIYJgR2v/8BDteeBkzN4NZX/0SxugqDKFjVbzlHnqeWsD7jz9D/sRKqk86mpTpEyFXCHNc0NhJ25vvsuK995h27hkUn3AMb37ne0w9/3zcjW3UvrGYCVIx7RE9e4i1tNLb1ELpdZdh+HxQUEDo+X+wc/EKRUInSmBSKTvpnJPxHXssCBd6chIRxeKlecU9RFXeuOW3f6Bl62Ym330HrkIJ6zlYW2s47CmBF4x28uaiF5k9Yz45WYX9x40cCjZUz7DmALD6mRRzCsvINKDlr48TaW2lQmStFRmJ9JcbRE1pc3yHOTOPUEWB4i3LLisV8/GGBkI7NuANBfHFLcKLFuFzG5innAwxk/ZlSyi88fOQXQDhIPT0YL72Ok3PP0PBhErCMYu++nYKjjwG99nnQ2mBYrzc8uOHyZ04itSSiXT/+Y8U3XQ9pGq2RNbX0PWHJ8j++hdo/PGPKLr5a4R+9b+kfuZTID35QiCTX0Tt/T+n5PzT2bpoLWOuuRRvRYnitHCAj2FGiaxbyY5Hf8m42+/HyspLqNIevD71/+lxdPqZa+rWYxFgVOk0DDvac6AJT9mchZJYWkENfxsbf/VTqrLLSLn6SgxvqtLFUJ1bInomgmh9zTS3bmH6uOM0u6d43LI1SbpHXHf5CQVB5rRXePwNkIhCipBJyVy0iYyl2lsmuvwr61kqUN1S5Ct85SHNpR+VOhCt7SBU5YqMQhrXIzJXfFgpSdrLD3Yp2m2tGOhYxbgS9RFRIELd4MvQa0HY/lSbmtyvUHGL5bdU9MAhzBo4iWNi5Td7rqWPxiM8v+RxTpxzGlnJBerrMp0PVrhZdXGJBTMj1OwFIDhQJxj1s2rjYuZMm4/Xnaa5NwaZVk0kplJlpla0UGNhq9kSDWtiOGGslHcm46FoqsVQiW6F/N4DSeJ4CT9Jjx4vNd7i/su5oyBtpGoMIlqKW92ErZ2gyMwkuW/pziGJ4MkBNrX2SGy5zjbaD7hr3lc0+WMrZ6tb1OOmCKdVDYpb7kXoT+WFtdWz8cHvkz9hFnlXXqrbcYWF0uEQUcy8dsHyQdv59nRikWzXRdCyuQiwDwYjGrAMRZT0fwEgKDVHBRDayC8cjdcyiLz2As3PPEvOEceSdcUVxEUsxIoSdYM/2svGzaspyCtlVFG1Ds/ai16Y311ifHq6QfTMpUgmN5e4iJioWaynlru5GysYwcjNhDRZQLIA5G82cg9FiXV34c5IwUhNJVy3E6/0V0sveTii8qn9dj8UUQqCVmE2htA0y+CGw9ArlKYOE59L08MKe2N/vVxcPZPRGyCydClbF7xEWmkVZZ+8CHd5mRJ8GsAHYkbkHgfXATtpvbauOlauWszxx5xji7gMLJKRmeOSThHvMxEgtJFdUqbIrs1332XdE48z4/ZvaSEqKRCTvLdl8c6Kd5g+dTqpqZlYpmxhgujlPcvzxehZupSGZ1/Camlk3KXn4T3tDH3LAb/a2INLlrD5yeeJtHeTN76ailPn4xEKYFnIW7YrJrjtW7Yx7tJPkD9vLpt++ivyJleSWljNqrvvIue46SoKIZGptI4+Is19jLnj65htO/HMOoG+Rx5l68q38WamKj6FaF+AvHHjKf7S9Vh9cYzMNEUlKwqV/T6QFaH+2SeJblhL1c3fwkxJ7Rd01MVYA0zyymu3B0HBfCvOuk0fkJ2ZRknhWFtNcGjt+v0ZO5lWkj+V1rJItBPeX0rzX15i1M0346kcTVSoxu0TCoN/X7CdnXUbmTbhGFwSibPv07l/TS7kPMdQ0avBZnrwvfaXpNnn2NWpScwhC6uoo6Pi3OGuQWgdGRnYhJyrJXpczjEJoFpvFbu8xj0DhFA0xDOvP8ZZJ5xLui9XvwGbmW9/xmK4x+4PQBALEI6FWLl+MdOnHkuqV9sg52kH5tjQV3eeOvGNOd/fX5fTedO7nmuoKztWd7jvZE/ncBaYmFfVcDRgsVm/9S1SfOlUls3on7ICEExDO49JypRGMDetYtujj5A5bSoF516CkZmneCQccK6jTpayWx/NRwCCM6hSC2EQDEUU9v6/DRD8vfQFOikoKFfm1dvdQfDNhWx7ZQHjr70K78wjMQUJK2XdOC3djdTU1zK6YgwZaZkkCce4YPF+JDtgoLXMxoDBUabL0pQyqu0lIS+mwEb/3LCpaRXXuQ43ibEQmVLF0tZv9J2lJxu+9tAGjJKmr3GEfvSdSGJB+O176V22jIa3lqgzFc2YQdYJJ2Ll5GBaYVs4p7/PwRbQ0efSZi+uwmld3e1s2bqW0VWV5GePVpIsyld1oPSIzPShAUJhaTkuM46vvY33f/ows845C8+cI22iI+GJgA/WfkB+QT5lJaOw8OAWgRXbWxUlIEXFu6WG5LRU3JPGKESv3q3wy8s/O2oJb95OsmjBlxRppU4VJrfHKhTG3F4DmUm4SkvoW7tVb/bpOYQ2biJt2gTVaaJuptePf9N2Uo+ag6HIGKQ6NQz19dqrkrHzekBIgFIEEDhjm7hRCiFNgA0/eQhvdh5jr75e8f9LhbR89EY9sNE5IX3F1yFFmGE/i5e9ztFHzCU9WcCUQw17YAOlt2SJIFj4470YzbWEn15IOBCn4rNXQnaOKs4S7QPRZIjEQmzctIqxVWPJzhBAqmGNs7XrtbCPLWA41v9QHrOPVzgwQs5N2XZBaTZY1LftYM2GlZx83Ol4TO9Bz0PvH0CwiFkWa7csJy+3iIqiqkF2KBEyHdhMOvy+PWCT9b0J+ZyzIiNxP2vWvU1V+TjyskbpSFf/J65ErNzdnfS++wY1C1+ibPIMci66lFhmJp6YW228A5uy/uLHAOEwmQMOUVJfwE+vv4eCwkJcklJQzmWAjhf+TstbSxl7+ZV4qyZCpk+1zQiffmtvM5u2ric1NY00ry1qJBuHmjxiCAUEiDSsUP/GVVhbI2Yhk9F5PqXwLUxkImJjxFUu3GuLekqYyaHPlTknoVsVee0HBvpciuZIoqqm5nxXOSzDVGEq5W9bQtmpN+2UeJiMWJicQIi2pe+x44M1pE8cS95JJxDNziYkSFGhIAEhkpzoh5M2tNDQQH8s4tEowUCQiorRFOSV4xGpE/WcgpwTw6oHOuBDA4TS0jJFKuKNm7Q//xwdi15n3B13487JImrGMdwG3T1dbNm2haoxY8nNKsTjSnakkWyaFw2bVIDSFnVxgJQaL4lYqnHV70Ln0XXqRgyHrf2n1ORUJBEJV+szONuAjg0N+FoC/ZRkkQJ/Mlf0WEoEwX57Kgwu55Hx1uZIAqWqFBGrq41N3/keRVdeRtbsYxTXhUpzyd8V2dLAGAkoEBlm2bxDkQhbazepiO24qhmqnloPpcyTAx0jeUh9ZX80QG9HE+XBKLW/+D1Z844i94wzVag4KgVa6tkNGhvqaevYxoTqo0hNzlLgVwEc+1b0qOztM9zdP3HeDnW+Xf3gg3iMUubTH6eyXsa3va+FNZtWUj16FgVZ+QdcEzKc0dwfgKBAv+Gmy9/BmrUrmTp5CtkZuao+yzmPXh8jMZGGc/eH5pjE7d6xe3r1uolG/WzZsZJYxGD82OkkuaVjQkdtlVx4JIxZt52a554k1N5C4ezZ5J9xPpFUccKiyt7bbDaDcjUfA4RDM7b7vMpADYKf3kAv+QUFeE2v9jBdJi5/Gxse+hnBbTtxZeZQfOQYCuYci6u4EtKTMYkQ6O0hKjzzKoRqKYnOqJInlUC2qXQTVKxAtMl1OZj2cO0NQyZS3IgRM6J4xLhLhsCWApDviBSpbAohl5YldVoT1eZkGfgkrIulpEqTTNXkpzYU8dR0raAbT9wiJRTA2rCOlnfepWt7A0UFxVSefzYtlcW0+yySLAu3RCjiQmeqAvcJG5SjBilPqI223EeSJ5WcrAJcrjRVnasDKNp7PRQAobykTAEyYSF0d3ax/oHvk3/uOeQffyJR0Z5Xu7tFc1sLNTt3kpqWSV5eIR6PI9mqKkhUbl68VS05rGWybROOW96vXTzks7Mu/n4VWQuvUs80tYqfKa2jsknLRqffk1Yrlg3aMTVK11D9LuiK4bPcikhJtvVk06XAaURt6HG8pouIS1QQ9f2KFG6ygLh1G+h78WVybv4MfWmZGJKXjXswlehR4keHOQXlRKNRWtvbSUlJZcqE6ZiWV6sYqnSLDrMf8MfuVQyHQ7S2NTCqrITeV16n5/U3GXXj57BKioh6fSrlKhLPErqs2fEBzc2d5OYUkJ2dbXNzSNhV3tO+AMIB3/EhPYETNRy4qGbP7At009RRT2l5OaWFk/DZhaMH++aGCxD01JWVInVAFh1dDWxYv478vDwyMtI1QLB/1NJxqI0VAvrXBgyOLVBPYi8RAfWRmEFby058vjhjx8wk1ZevLL5eAqbSl4h+sIINf3iE0kkTybv4SigoIWaaxGLisum6CFUAn9AlptJKI+pc7c8s+jjFMOhtDY4g9KoIgkd5z1LfIox7cYxAhGhzN+GGWnqWv0nT+lVYnhSSiyvJHTOa9OJCkrNz8WRmYWRmYaYmY6Wl2UUqFhHb91awwO6DVf6cWjeSYhAjrjXm9aY8QLDZb7KVZ6lTC5o0x/mLGH8p1tIfx7t1W17cphNfCGFuW8/G5/5BZEcdo6dPx338iaoK2JWaQlSiF4rdS59Th6rlTKq0x/7o3+ml7hQrinaD3InOVfXTnQ+q4t2fybm3Y3ePIHS0tVEqPetqsCzcboOmRQuJvLKAUbfegZmVjRUPKwMs+oki3NTV3UufyMhKa6N43bYLpyGbXdzoZPpFlthp2xv0FuR7snXpdyKSwQMfOYv2gd1y3f4XOHizk7F3UkvaOgxktwUgyBjoCISAD5kfcoiJx4qSE46z9c/PUl1STPTM4+n12gVzcUtFMJzIhZ4QMr/Ew/OQlOQjIyOHtLQMPFJ0p8CMjmWMFEBQdSJYhMNB2lqaKC8vwehoYduPHsby+xl13XUkzZxDREypAFGZ8S7pke+jq6eJUMivZZRVMEJtRweBR3+k5uT+n0dlAO0olP62Xtc+j4/UzCySUgS0yU+Squc42J/9BQjaZZCniBAKBejp6SIY7EO13dqp0oF7luNUjPRgP8ZBP78GPQOXkciky+siKzmX7IxiPO5kVdmk6vusCFZXM/Uv/pPoitUUz59Hyvx5kJajCmfjRpx4f12J2M2hxvmjemcfA4RBk2lAi8GP3++noLDA3vQGzQcMVUUrIaMoVlc3waZaujauJtJQj9HTRywYJhYIEfIHyRg1iswZ08iZOhV3aTmRpCSt2qUMsRMBSAiiSqtiPygY2Gx0QHtgg3b8dvnNwJRyNm19Bmnxc0VDKrQVrWuke0cdgW01hDZtImXyOApPPAnvqCpI1hoSGuDra6qq20Qn0tFQT3hjQzmZttPdL3aojMWIxKsTh2pogFBWUqYPsln3hBtgywM/oOC008k6+Wzl88TMkLJR6nmVzPUApVo/t4OduukP/dqX3vX/nTva1Sfa5bU5e/5AKHkYJmzoa9u/VReQCI+FUbuDLQ/9N+WfvQrv5InEXDbhleiBqOpjp25EWzV9BruXTrYjMUgqT5oQDB6hFIO2dRbhUJAW0Swol7ST9Mn30PnKK7St38DYay7HqqrAZequEt2NYxGNx4gKH4XyRAUXOG1ee355evxGIPIxjPEZqUM0/EncbTTkdvrE9H7qsotHR+qqQ59nfwDCQNZdLTg9q2Qq2RFDPfKJn/6FdnAf4hCcXT2tM2TKVshoSX2BtB/7cEnYQJEXhLDaa1n/m9+QQjLF55xG0pQpRFypeElWTpgw22rVZxsufgwQDsEIfshL7AoQCgsL1cA5c8Hx2/Xp7Q4D8f6EM15C2LGI+hGiHWmNEy37rnfepmPdWgKtbaTnF5E9aRJGUQEuKYJLTyYlLx9DWlsUeYeB5TaISeuhdLoneA2OGZF5pJWGdbWryjHHTcxQmGhrK2ZPD5Gwn3gohNHXTWjdalrrt+NN9uFOyyKemk31Gefiqa7uL7BT2W1JUYjn7wAEvbf0f3YtzFEGIOHve8IAeuILSPiQgzLk1/YMEJRHJqkRj4781D/9FP5lSxl7wxdxjx2nUg3Ks7bBkCFtVIrXQudO1dofAgyN5N1/uHMlehaC7OO4+rrofOIpulatZPQ931FREu3VDX4Gp97FGTMphNLmW3sITl2DHiOtfDkS45UIEETUaFRFOR6XF9PlxRUNsO3+7+GJhMk+5WQyqsdj5BVg+VKJi4hVTETPHDgjCMH2Zj7cyzssv6VjfxqYO5FCCSVKa5nuMNE/Q629g/FAHx4gJO6YCTZjF6fGrqL6lwNxu77rwf68PUZ2TFeik15XHMPfQ3jLJnY+8zSe1HQqr74KMy+PiETrLFF81fU1DtAacKL+D0YQRlxd8wBWx94M354AgnM5WcQ6L+1s147G+wBpjYTiHeMrVfHKH4iZWK2N9KxexbYlbxPp7cZnBDEiEXwCBkyLtPQsMosLSBf2xPHV4JUe/QTvInGDjUagsx0r6Cfa1kZXzU4adtRpsOAyCMXWKVRHAAAL30lEQVRjWKaLtIwCxsybS/rkKZCZAukZ4ElSUtIa9aiGVuVZy+nl2RxjpEKE+wEQ9jQkzvveYw2CjuTv50dv5nJ/4lmGwn462lqRCIL8XjYW8YwVV0AgRONvf0mgtZYxN92KkSfCO9KarbsuXC6pDxGQMMAOKSDpcPNDVdeBTUxmuOJ4on30vfAUta8uYNINX8MYP0PRcQ8lZTtQQ6HHVGMjZ8PVipHycTbkEQMIavpKp4SOIJRLBEFYJKXlXQoPWhtoWvg6dUuWKzrr8Zd9gvSjpxHzZYE7hbhU4top7OHYkJEANfs5EQ/ocN1hklgMq4uUpUA5sbjPiTYe0MWG+eXh8CDo4GfiNqm938ExzoHnskdxt2OGeUuH3WGDn1zGSzc5KufECuJqaqD9r4/TsmkLZfPOJPvsCzAz0qSxUdtZlVJWCbX+veJAAcJw1se+XuTu62eoFENYSU8PanPsz2RaJilKKtN5IQkFKPu6+r/I3xUPQp+kGPpUDULiR+VCd+kc0JPFKTlzPDOdkZbIrcvlUTkmxYkQjwgJvSYOiYSxAkHCXV1Y8t/d3YRbWmmv3UHzjhpcQvphy4AO3IN2fT1eHylZ2RgpyaTk5pBdXk5ySQnJBUW40jMhOcX2ij2aOETJyMmNO/UK9vZne9FilGTm2uUx6nJ7qz5WBktV3A9/a9+fY/c9VXRzprZJpspVt7W3UFJSqirf5VpqRFy6fdTobKX5sT/TUdfF5Fu+ipmfqwriBMuFPJCigJFQMuuwiH47e3u2hPjiHm/WMZh7yx8O7xjda20RMkRrw8Idi9Ly5F9pee8txl90Lr5jTwczGcsSxcCEltddUY5jx4e858RU0C7ocN8DMvQRdlFaOBygtbWJ0pIyvB4vQtbqEYAinSWyJvwB/Os2suLJp6ieOoGi8y/EKiyjW+a6KtZ0cM+e3+XIzq8P+8D7/71do1VqSar3NtAaPbjOaP+vMch+7AOOi/2Lx2PU7qihqqJKyVvvthLUvHJaZ521MtjzHYi6JtzvSBS+Hsjjj9B3ZXwG3okABJ2O9Ylmy9rVrHr0t2SXV1J1wadwV4wi6klVJl8VSav+IcfGyA19VPUFu74MO9LrOI672UAdVQyKtL0ABFOi5nHNpCjHOkYzOUnC37onX1Op/jt9dPWtgAO/P0BBgbCX7b5RJC6FxFqAxGP7F4i9Yem35Cz8AbStKtolPSG96ooFzmYe2yuNtUIeGgS4XVget+0ZymKWymIdvBJPWE/GXcPTg0PIzhMmjuZe9xJ7yId7zMjPEPv92TcsEYRWByCIEqMKy0pUR/TVJRcYx9XUyAf3/4yc0jIqzjoVd5lwC6QR93lUt4YuCBnufB4OQHBWzb5AlEIle3lF0rPqUqBS5LtpaaRlyTKatmyk+szTSJk5B1JzMURUQjyYXVhxB7Vhj/xA7PWMTsoiFA7Q1tZEcVEZHo/u51eNn3aNrYTUvfE4kfXr2fDkEyRFI0y49rOYUh9jCFfFIb7xj/xyjqPhzKHhzssDvHG1rGT9mLTs2EFhWZmqlxr6s+vGdoju8QAfcUS+3t+NYY+TklvvJbD0bda/toCy2dMoOes8rLxixRiqqhTsejOVUhpkZw4XgKDzkntjSBZQICJbUoSuyJKE/nkAIOjYZFLSQAmNftj+urZ9GLoRGZqDfhIZvGAwpEBCfn7+CFxv6IWj84u6T07TWer/1vlxB0AMXpxOilinQuTAgVCk9kR06CrRB/53WbaDF5WdZ7dHJxiSDaiZ7JxsXF4hGzF1XjcuLYGGqhFJNkzSGlupffIZOtqaSK4oJrViFOTm4FEcFZpm+3D8CMizQmH8W2to2byFktJSKs8+HffY0Tpq4E7qTw3Zshf9cPSjdNo0QDAIhYN0drSQX1CMW9EWJxhWMZ4uDWG9EmVraaT1qafZsX0bo045BSs9g3hi4dbhOUSH47T5EPfkCEFY9LW1k5adtReA8CFO/2/yFc0qa89hZbpNejdupWvlOqaeezapxx6JmZaJZXgG0nZq/02IHPTP48MJ/eo+pqEdFkvpp0SjUlQp0QOTeHwQQHCr4q9QMEgsHrb1qXVoWm9ch2Vl135PSaeiVF6Ax6NV84aujB6e/6xCn3uZA+LhSeuaczaHDGmQ17+biy+tbjoaoSI5TlGapeMFMhHtJok9Dvd+v5jD6gsyKLo1VEiBVCpG/lX6DNLeZ2JJTE80FhRAMPC5XKS4ID8awejuJB4Ma7Em1fa/p0Xx0T+0PKmE2d2GG5fhxfT9f5nijDRF8x2PR4ka0vqoo0ZORtMBOv2V8B/JYySms8SYhHG7fZqo0S50cThANMuDHlMhic6LxzA6GnHHgur3sb3ofnwkj/ZvfdHDdy0cLq9dag4G+F9E1NcucnanEcjOIyhRXUUkNXgFDo7kqk1zt834o8S/Dq/uUO9ZUreyHyZJF57YWAUQBqUYpL/dJBIOqxyVPJzk1p3cX3/o5KN8wpGYQfZmrGiMZaD3I8++2+Xtc+l/hkYJaptP6Bl2NvjBrzGRL1GfZ+DvCUeqe7Upme2b2b0feSRe0kd9Dmn7SiiLUrk9qR92wvW6Et9p67NcbjwOcZNTbCGUp6Zbha9DIvmsCIQ+6ufa/frynAL7BAwpzQjDrci3RENB0lLCr+A8dT9n4iDvJHHe7Sud4cysfXk1uxKGD2lS7Fkqa8jEtGKKb0FrKGnDqA2SABuZ39I37tEcn0YM0wrgkvSQYuMUPtF9D8/Hx+x9/g7n/Qy1aR3MVTGcezrcjlEsNf1OhZPCtZSOlHSCSQGfBghyZIJ3l+hDD8rnDqy3gQoi+607Dupeq+vtdbvPY/YW5NepD5El159ddiAbIHi8mi9F9v5BKQb1Fal4N+P9AEFyEk5uxTlnYvnFwZxYB/PcTouRoKYD+1j9al57Oo8ylYpoZ1Br7V4rfpWvZbeqyYRy8szaMdMtYYmQ5DDKch3Y60yYumr6qpenNxuJ9IgqoDOv9fTWBEOabGeAe0IbHJu5zOZ7GFyVPSK3OfInUdEoSaHoTVbTMzl0NZrWeG9bu7PkD90xAmgGrqrSRLtcXOamU+grTyCATftndnWPQ2m9l5sejg1Vs2FQOnTo4XGkS/b6joZ5nn35FsO9n+Gcpz+Su4dZN6znUi9p73GnQz+HDs2cHj40dsxr4qbu2BJRwtXUyjoq7AAJu8Rpl06PfUUQEqDFXm3JSAKoRDr9xIuqtLZQnytqSNnXNEjor0HQRW+CGmz0r3Log1GGXqiHoRv2IUy1bgM78GcZTgQiUWFvr7ea4AAO3NngfgNthIeIWQx6lJHyJD/Eix2Jr+xivQeM1lBmPfHBnc5zTW0ysEB331qH9YZUQdfevW3VjjkCxwy8tkGuR3/xsJ5Du8/X3TySkXj/wz7HnpjhBk6gCxb158BX27Bv7OMD9/gG9gUzP351Kja567K3J69K79qaOrt2eg3pPCtDs5cIwjCB7UiNiu1u7XY6lUVxrI1dg6BqvZwiRQcgJBq7EeFrH6knOwzP43hMe20ZtKMHw8PJ8pB72pAGbxx78I8Sfn2wz7M/mHzvPu3AZr3n41QP8j5auBQnRX8BqPMubYOYEDLU73hvEEEvlSFg2KDXru9pb2OWuC3uy6/fOxBxoiWDlUId2Snntg71HFGm9OBP2f15jSM1HIfjeUbEPCQC5z0Z1X/XOMLwnkulN/fS5q2cgn3ah6HX4q6KpY6TujcnY7jH7MtRcVRpdx11xxpqZ0cnB824RBASahAUQJCag0FG+EBD8Ifhrv4R3JIy/R+7Twf/zStmykTtCnnzTgImgSXq4N/JiF9hTxEERyRqxC84nBMeAv2A4dzGx8fs5xtQNT0ff/YIj/aF1e0vfpgOon1Kmh/kYdnXPSvgIxGEoQCCwIfEd6P3tI9BwgGP2QiBA4fW+IDvZ0RPMJyHG+aKO9D7UrN/gFJZcx/sfu3D8z3u6+GHUGC0RZ329c2D9vd9WZuDduGPT3xAb+BQcTsf0E1+hF8errkajunb9TGGe+6D9Pi7SkHsmh116L/l39j/b1b4f6bDgE7KaRxuAAAAAElFTkSuQmCC;" vertex="1" parent="1">
                    <mxGeometry x="154" y="110" width="520" height="296" as="geometry"/>
                </mxCell>
            </root>
        </mxGraphModel>
    </diagram>
</mxfile>